<?xml version="1.0" standalone="no"?>
<!DOCTYPE svg PUBLIC "-//W3C//DTD SVG 20010904//EN"
 "http://www.w3.org/TR/2001/REC-SVG-20010904/DTD/svg10.dtd">
<svg version="1.0" xmlns="http://www.w3.org/2000/svg"
 width="1536.000000pt" height="1406.000000pt" viewBox="0 0 1536.000000 1406.000000"
 preserveAspectRatio="xMidYMid meet">
<metadata>
Created by potrace 1.16, written by Peter Selinger 2001-2019
</metadata>
<g transform="translate(0.000000,1406.000000) scale(0.100000,-0.100000)"
fill="#000000" stroke="none">
<path d="M3793 14016 c-22 -25 -45 -62 -52 -83 -22 -68 -24 -181 -6 -308 24
-170 30 -320 15 -375 -7 -28 -27 -59 -52 -84 l-40 -40 -30 55 c-175 311 -245
414 -365 534 -94 95 -203 171 -311 215 -87 37 -214 71 -224 61 -5 -4 -20 -74
-35 -156 -24 -136 -27 -173 -27 -405 -1 -207 2 -272 17 -345 47 -234 114 -436
229 -689 32 -71 56 -132 52 -135 -13 -14 -171 -5 -220 12 -65 23 -198 102
-344 205 -143 101 -312 188 -402 206 l-68 14 -82 -76 c-219 -207 -231 -223
-251 -338 -8 -45 -8 -82 0 -134 6 -40 9 -78 7 -84 -11 -30 -52 -40 -174 -44
-79 -3 -135 -9 -152 -18 -37 -19 -51 -77 -46 -189 6 -113 27 -168 120 -316 39
-63 80 -134 90 -159 26 -59 28 -142 5 -203 -22 -57 -37 -62 -162 -61 -143 1
-231 44 -465 224 -122 93 -169 118 -238 127 -40 4 -60 1 -103 -20 -30 -14 -67
-36 -82 -49 l-28 -23 40 -82 c102 -210 208 -311 611 -583 335 -226 421 -300
533 -456 35 -48 98 -174 112 -222 6 -22 5 -22 -52 -16 -313 33 -558 147 -838
389 -380 329 -477 402 -639 479 -147 70 -136 73 -136 -33 l0 -91 29 0 c27 0
34 -8 72 -77 362 -662 833 -1074 1424 -1246 252 -74 425 -98 752 -104 l262 -6
-41 -61 c-87 -129 -194 -249 -553 -623 -419 -436 -612 -676 -760 -948 -197
-362 -245 -723 -139 -1054 34 -104 133 -300 200 -395 l56 -79 322 6 c299 5
407 13 649 48 74 11 79 13 101 48 12 20 45 88 72 151 88 206 152 276 277 302
57 12 60 11 115 -17 72 -38 180 -139 232 -218 92 -137 145 -281 244 -662 97
-374 147 -510 241 -651 71 -106 146 -174 248 -224 95 -46 163 -65 269 -75 l76
-7 52 73 c114 162 257 426 353 651 83 193 215 582 267 786 l11 42 50 0 c123 0
274 -49 393 -128 136 -90 245 -216 471 -542 160 -231 210 -293 410 -505 197
-208 269 -293 333 -387 189 -280 235 -566 151 -930 -15 -65 -46 -140 -119
-287 -54 -110 -110 -230 -123 -268 -49 -135 -91 -355 -147 -773 -53 -392 -87
-526 -183 -714 -128 -251 -278 -440 -681 -856 -311 -321 -427 -464 -503 -621
-63 -129 -65 -117 26 -177 101 -66 172 -98 290 -128 112 -29 288 -33 400 -9
128 27 180 61 346 229 175 177 213 201 315 200 41 -1 86 -9 120 -23 30 -11 56
-21 57 -21 3 0 11 56 23 170 24 230 100 543 195 804 90 249 199 478 438 921
256 476 380 735 478 1000 27 72 48 127 49 124 0 -3 9 -55 19 -115 126 -703
154 -1350 80 -1808 -85 -525 -315 -937 -662 -1185 -26 -19 -47 -37 -47 -41 0
-11 207 -59 310 -71 179 -22 410 6 597 72 176 62 389 182 562 317 l64 49 -2
954 c-2 1139 12 1648 64 2279 16 186 62 601 68 607 2 1 46 -6 98 -18 136 -29
340 -56 526 -69 103 -7 453 -10 970 -8 851 3 896 1 1158 -44 159 -27 306 -69
438 -125 97 -41 114 -45 163 -40 77 8 147 44 244 127 92 79 147 109 206 113
l38 2 39 -110 c57 -163 105 -342 134 -505 35 -199 43 -506 19 -698 -75 -587
-367 -1122 -926 -1696 -225 -231 -370 -363 -940 -856 -91 -78 -184 -160 -207
-181 l-43 -39 20 -53 c28 -74 80 -138 190 -234 l95 -82 373 -1 c290 0 373 3
376 13 2 6 9 46 15 87 15 98 50 174 93 200 51 32 112 22 292 -51 86 -34 157
-61 159 -58 2 2 62 130 132 284 167 360 388 806 504 1013 361 647 724 1084
1165 1404 60 43 113 75 117 71 12 -13 57 -167 81 -275 19 -88 22 -134 22 -313
0 -238 -13 -324 -84 -535 -99 -298 -231 -519 -630 -1051 -268 -356 -389 -537
-369 -550 56 -38 232 -114 314 -136 90 -24 118 -27 275 -27 154 -1 185 2 255
22 248 71 400 224 436 436 l12 73 36 -37 c41 -43 104 -65 160 -56 98 17 163
40 170 60 4 12 18 147 30 301 88 1103 232 1859 462 2429 57 142 69 183 69 228
l0 56 -121 119 c-216 211 -384 443 -519 717 -139 282 -198 495 -207 746 -6
179 4 262 49 397 80 243 259 430 545 570 l132 64 15 67 c166 739 -10 1394
-506 1881 -275 269 -594 459 -994 590 -339 111 -644 154 -1089 154 -290 0
-424 -8 -885 -53 -469 -46 -585 -53 -839 -47 -498 11 -936 120 -1393 347 -182
91 -288 152 -603 344 -564 344 -860 494 -1086 550 -189 47 -308 58 -686 63
l-351 5 -44 -29 c-248 -169 -647 -288 -1198 -358 -171 -22 -494 -54 -498 -50
-2 2 23 104 56 227 106 390 132 533 132 738 0 141 -10 218 -43 322 l-23 73
-70 0 c-132 0 -245 -78 -419 -290 -98 -119 -167 -185 -194 -185 -10 0 -29 8
-41 18 -23 18 -23 18 -5 73 36 109 118 306 264 632 335 746 424 1023 476 1467
23 191 30 502 16 630 -26 228 -89 388 -195 497 -69 71 -85 75 -164 45 -63 -24
-139 -75 -232 -157 -100 -88 -172 -134 -248 -162 -104 -38 -113 -35 -156 50
-21 40 -80 133 -132 207 -52 74 -105 152 -116 173 l-22 37 -67 0 c-67 0 -67 0
-106 -44z"/>
</g>
</svg>
