<?xml version="1.0" standalone="no"?>
<!DOCTYPE svg PUBLIC "-//W3C//DTD SVG 20010904//EN"
 "http://www.w3.org/TR/2001/REC-SVG-20010904/DTD/svg10.dtd">
<svg version="1.0" xmlns="http://www.w3.org/2000/svg"
 width="921.000000pt" height="1536.000000pt" viewBox="0 0 921.000000 1536.000000"
 preserveAspectRatio="xMidYMid meet">
<metadata>
Created by potrace 1.16, written by Peter Selinger 2001-2019
</metadata>
<g transform="translate(0.000000,1536.000000) scale(0.100000,-0.100000)"
fill="#000000" stroke="none">
<path d="M4046 15353 c-3 -3 -6 -17 -6 -29 0 -13 -7 -42 -16 -64 -14 -35 -15
-52 -5 -113 10 -65 19 -157 52 -522 5 -60 14 -132 19 -158 6 -26 10 -92 10
-146 0 -54 9 -165 19 -247 11 -82 25 -205 31 -274 6 -69 13 -135 16 -146 5
-29 -24 -64 -106 -125 -39 -28 -70 -54 -70 -57 0 -6 78 -82 85 -82 2 0 20 24
38 53 40 62 72 92 87 82 6 -4 33 -53 60 -109 l50 -102 0 -176 c0 -221 16 -316
74 -452 60 -137 66 -164 66 -292 0 -87 -5 -127 -24 -190 -43 -146 -60 -260
-60 -409 0 -179 21 -259 105 -406 94 -165 129 -241 139 -305 13 -79 13 -296
-1 -370 -14 -77 -66 -211 -84 -218 -22 -8 -42 31 -49 96 -6 55 -39 170 -105
363 -17 50 -49 153 -72 230 -63 211 -233 553 -329 660 -15 17 -41 51 -58 76
-44 65 -184 207 -190 191 -2 -7 -2 -29 0 -48 5 -45 7 -47 -150 177 -111 159
-154 210 -287 344 -86 86 -160 154 -163 150 -10 -10 156 -325 246 -470 41 -66
119 -185 172 -265 53 -80 102 -161 110 -180 23 -60 167 -343 192 -380 14 -19
59 -83 100 -142 62 -88 76 -115 82 -158 8 -57 63 -176 131 -280 23 -36 50 -81
60 -100 26 -52 124 -178 167 -214 21 -18 53 -52 71 -77 l34 -44 6 -210 c7
-224 16 -285 69 -467 l33 -113 -1 -300 c-2 -418 -36 -961 -64 -989 -5 -5 -29
22 -58 66 -51 79 -87 188 -147 443 l-26 110 40 36 c59 53 53 69 -29 79 -58 7
-72 37 -45 94 24 49 132 171 167 186 15 7 33 18 39 26 9 11 5 17 -22 28 -23
10 -37 24 -44 47 -15 45 -37 43 -52 -4 -13 -37 -88 -145 -155 -221 -29 -33
-38 -38 -61 -32 -21 5 -34 21 -57 69 -35 73 -101 181 -134 217 -12 14 -57 78
-100 142 -74 113 -92 135 -102 126 -2 -3 16 -47 40 -99 47 -101 106 -260 106
-287 0 -21 -38 16 -143 137 -45 52 -105 113 -133 135 -28 23 -98 83 -155 134
-57 51 -126 108 -154 127 -27 18 -87 67 -132 109 -46 41 -95 78 -110 81 -16 3
-50 15 -78 26 -27 12 -63 26 -80 32 -28 11 -244 155 -326 219 -20 15 -44 28
-53 28 -14 0 -10 -10 15 -47 38 -56 100 -125 294 -323 78 -80 150 -160 160
-179 9 -19 78 -93 153 -165 225 -217 420 -418 458 -472 19 -27 37 -66 40 -86
6 -35 4 -37 -50 -72 -37 -23 -68 -36 -91 -36 -18 0 -37 -5 -41 -12 -4 -6 -8
-48 -8 -92 -1 -67 -6 -92 -30 -143 -40 -87 -48 -91 -84 -48 -16 20 -45 63 -63
96 -19 33 -56 90 -83 127 -112 153 -212 315 -271 437 -44 90 -85 157 -135 218
-39 49 -82 107 -97 130 -14 22 -54 80 -89 128 -34 48 -124 183 -200 301 -75
117 -185 287 -244 378 -58 91 -146 230 -195 310 -153 251 -506 782 -739 1109
-103 145 -164 238 -377 569 -68 106 -269 461 -358 632 -60 116 -150 348 -207
534 -27 88 -32 191 -11 220 12 17 18 17 53 6 21 -7 64 -29 94 -48 72 -46 301
-275 426 -427 54 -66 141 -167 192 -225 52 -58 123 -136 157 -175 35 -38 130
-145 212 -236 857 -960 1266 -1370 1567 -1570 106 -70 166 -96 166 -70 0 15
-131 136 -245 226 -239 189 -827 814 -1031 1097 -37 51 -113 154 -169 228 -55
74 -131 178 -167 230 -36 53 -95 132 -129 177 -35 45 -153 201 -263 348 -220
295 -313 398 -428 473 -106 69 -160 77 -399 64 -210 -12 -240 -22 -279 -92
-23 -41 -25 -56 -25 -160 1 -253 80 -481 355 -1025 112 -223 167 -319 339
-598 27 -43 75 -112 108 -155 33 -42 86 -117 118 -167 32 -49 72 -108 90 -130
18 -22 94 -139 170 -260 76 -121 162 -256 193 -300 127 -183 236 -352 327
-504 53 -88 138 -219 188 -290 207 -291 525 -761 675 -997 56 -87 124 -187
152 -222 28 -35 55 -74 60 -87 5 -13 35 -62 67 -110 98 -146 149 -226 207
-326 80 -141 232 -376 280 -433 22 -27 50 -64 61 -81 50 -81 116 -175 156
-225 60 -74 237 -301 326 -417 102 -133 138 -177 220 -270 40 -46 84 -101 98
-122 13 -22 30 -43 38 -48 16 -9 189 -199 231 -252 l28 -36 -6 -135 c-44 -977
-107 -1994 -150 -2425 -9 -82 -22 -235 -31 -340 -9 -104 -20 -236 -25 -292 -5
-56 -14 -177 -20 -270 -22 -337 -110 -1144 -131 -1200 -10 -27 -29 -31 -29 -5
0 10 -6 26 -14 37 -23 35 -105 236 -207 510 -28 77 -90 219 -136 315 -47 96
-98 209 -114 250 -17 41 -43 98 -59 126 -15 28 -58 122 -94 210 -83 203 -144
341 -188 429 -116 229 -315 704 -465 1110 -84 227 -286 844 -321 980 -51 196
-150 605 -166 680 -21 99 -35 134 -46 114 -18 -31 46 -390 126 -709 189 -747
403 -1380 737 -2175 206 -491 310 -750 403 -1007 35 -98 102 -253 148 -345 46
-93 121 -249 165 -347 45 -99 113 -240 151 -314 81 -157 79 -138 55 -437 -18
-223 -120 -1241 -135 -1347 -10 -70 -10 -73 14 -96 18 -19 30 -23 50 -18 45
11 54 39 65 221 17 258 38 509 60 725 12 107 28 285 36 395 9 110 22 254 30
320 7 66 17 154 20 195 4 41 20 190 36 330 39 339 65 594 84 825 9 105 27 307
41 450 57 592 97 1083 114 1395 6 113 17 315 25 450 27 452 35 603 45 870 12
306 18 390 30 390 5 0 63 -60 130 -133 66 -72 155 -161 198 -197 148 -124 208
-193 257 -293 152 -313 407 -1003 475 -1285 17 -70 35 -143 40 -162 32 -121
113 -511 134 -650 60 -396 71 -558 70 -1045 0 -487 -7 -580 -59 -815 -20 -89
-34 -126 -61 -165 -59 -86 -61 -88 -86 -82 -13 3 -58 15 -101 26 -114 29 -239
12 -327 -45 -52 -33 -141 -129 -198 -214 -55 -82 -77 -105 -137 -140 -150 -87
-265 -218 -265 -301 0 -71 56 -53 101 31 42 80 91 123 181 160 87 36 104 52
175 171 71 120 143 202 199 230 73 35 202 39 272 9 47 -20 52 -25 52 -54 0
-25 -13 -48 -56 -97 -53 -61 -113 -171 -149 -271 -16 -46 -133 -214 -216 -311
-23 -26 -69 -66 -102 -89 -72 -49 -194 -148 -292 -238 -84 -76 -221 -192 -280
-236 -45 -34 -180 -178 -221 -236 -30 -42 -26 -68 10 -68 18 0 38 17 75 64
116 145 340 309 561 410 62 28 132 70 172 102 37 30 74 54 82 54 17 0 19 -5
42 -122 16 -75 16 -92 4 -128 -16 -47 -5 -93 23 -98 13 -3 23 10 39 44 18 42
20 59 14 143 -4 59 -14 111 -26 139 -11 25 -20 50 -20 57 0 18 94 100 157 136
29 17 70 51 90 76 91 109 98 111 114 31 14 -75 11 -128 -12 -165 -34 -54 -29
-101 19 -172 70 -105 66 -155 -18 -216 -26 -19 -66 -59 -90 -89 -67 -88 -38
-121 45 -50 22 19 66 56 98 82 73 58 87 85 87 162 0 49 -6 73 -35 130 -41 81
-42 90 -14 148 28 57 22 122 -21 218 l-31 71 100 100 c101 101 120 130 175
267 15 37 17 38 38 24 43 -28 88 -134 99 -233 18 -166 28 -210 64 -282 44 -88
114 -162 219 -228 65 -41 84 -59 103 -97 26 -53 82 -102 110 -96 25 5 29 67 7
115 -26 55 -137 162 -234 226 -93 60 -119 85 -145 135 -22 44 -45 154 -45 218
0 93 -35 202 -90 281 -28 40 -50 80 -50 89 0 10 24 43 53 74 28 31 71 79 94
107 28 34 53 54 74 58 27 6 36 2 77 -39 31 -32 88 -68 172 -111 132 -67 214
-131 258 -199 23 -36 27 -55 33 -166 4 -69 12 -138 19 -155 6 -16 42 -61 79
-100 84 -86 103 -122 104 -194 1 -62 -20 -115 -93 -231 -40 -64 -41 -65 -18
-69 92 -14 211 190 194 334 -9 83 -42 141 -121 217 l-70 69 -11 134 c-9 117
-15 142 -42 197 -38 78 -120 170 -187 213 -27 17 -85 44 -127 60 -131 47 -139
79 -35 134 89 47 241 184 387 348 134 151 176 210 231 328 41 87 46 109 28
120 -15 10 -52 -27 -137 -140 -41 -55 -151 -175 -244 -267 -133 -132 -195
-185 -289 -248 -120 -80 -164 -100 -137 -61 8 11 40 41 73 67 33 27 123 112
200 189 170 171 273 314 417 583 55 103 139 255 186 337 185 326 219 405 173
405 -23 0 -113 -135 -303 -455 -206 -348 -448 -708 -465 -691 -3 3 9 38 26 79
120 288 318 968 278 954 -6 -2 -27 -48 -47 -103 -38 -105 -59 -149 -66 -141
-3 2 6 67 20 143 13 77 36 213 51 304 26 158 75 437 116 660 10 58 39 227 64
375 25 149 52 308 60 355 9 47 22 123 30 170 16 90 55 272 112 510 19 80 51
224 73 320 85 388 139 592 226 866 124 394 207 541 469 830 135 149 200 224
286 330 40 49 100 121 134 159 34 39 99 120 145 180 46 61 104 134 129 164
144 168 287 329 378 423 97 101 124 143 108 167 -3 6 -17 11 -30 11 -37 0
-150 38 -223 75 -37 19 -72 35 -79 35 -14 0 -86 -75 -144 -150 -24 -30 -86
-100 -139 -155 -52 -56 -135 -159 -185 -230 -49 -72 -117 -166 -150 -210 -33
-44 -82 -114 -108 -155 -26 -41 -81 -127 -123 -190 -130 -199 -314 -544 -385
-722 -120 -302 -330 -949 -392 -1208 -14 -58 -48 -190 -76 -295 -50 -185 -87
-366 -137 -669 -13 -81 -42 -228 -63 -325 -42 -190 -72 -360 -96 -541 -14
-106 -47 -303 -111 -655 -47 -258 -65 -349 -89 -445 -13 -52 -40 -162 -60
-244 -50 -206 -186 -608 -201 -594 -2 2 3 28 11 58 17 61 145 837 199 1200 89
598 127 857 146 1010 27 217 80 542 125 761 38 192 42 233 23 227 -44 -15
-140 -380 -234 -883 -56 -302 -62 -300 -29 10 8 77 19 203 25 280 6 77 21 237
35 355 13 118 31 298 40 400 9 102 25 273 35 380 11 107 29 290 40 405 35 350
66 541 124 772 127 497 134 515 296 807 156 280 300 518 560 931 31 50 83 137
115 195 32 58 87 149 122 203 34 53 77 125 94 159 17 35 73 132 124 218 143
241 204 356 400 754 167 341 314 664 328 726 9 37 -2 46 -58 48 -27 1 -66 6
-85 12 -46 13 -169 13 -209 -1 -41 -15 -50 -34 -132 -274 -89 -263 -169 -484
-203 -565 -15 -36 -47 -112 -71 -170 -48 -118 -145 -330 -198 -435 -20 -38
-62 -128 -94 -200 -32 -71 -78 -164 -102 -205 -117 -199 -210 -368 -338 -615
-143 -276 -220 -408 -358 -620 -149 -227 -296 -593 -340 -847 -19 -106 -60
-418 -85 -643 -10 -99 -26 -238 -34 -310 -9 -71 -27 -251 -41 -400 -76 -820
-124 -1247 -140 -1263 -12 -12 -17 38 -12 121 3 51 11 783 17 1627 10 1459 11
1536 29 1585 10 27 22 77 26 110 12 100 34 163 190 540 37 88 106 257 154 375
49 118 102 242 119 275 16 33 46 104 66 158 21 53 59 147 86 207 28 60 50 119
50 131 0 11 -9 34 -21 50 -17 24 -27 29 -62 29 -25 0 -58 -10 -82 -23 -44 -25
-24 17 -220 -462 -29 -71 -97 -236 -150 -365 -54 -129 -119 -287 -145 -350
-82 -199 -192 -444 -217 -480 -32 -47 -32 -138 0 -212 l22 -53 -1 -920 c-1
-914 -4 -1009 -47 -1972 -7 -144 -15 -265 -19 -269 -5 -4 -8 -4 -8 0 0 4 -18
114 -39 244 -51 306 -86 579 -141 1097 -11 105 -22 201 -25 215 -2 14 -14 149
-25 300 -11 151 -23 282 -26 290 -16 42 -27 -58 -31 -290 -5 -249 1 -368 47
-1006 15 -193 37 -428 55 -564 24 -187 62 -532 80 -730 9 -102 21 -225 26
-275 22 -192 23 -833 2 -812 -2 3 -9 38 -14 79 -35 256 -171 928 -235 1153
-43 151 -57 186 -69 174 -6 -6 23 -214 59 -434 14 -82 32 -208 41 -280 9 -71
22 -175 30 -230 16 -106 36 -389 34 -465 -1 -37 -3 -33 -9 25 -23 203 -42 359
-55 430 -50 284 -114 605 -145 727 -12 44 -30 126 -40 182 -11 55 -25 128 -33
161 -8 33 -29 123 -46 200 -51 220 -134 512 -205 726 l-65 195 11 66 c10 63 9
68 -18 122 l-28 56 23 102 c12 57 46 189 76 293 30 105 72 265 94 355 52 217
188 633 296 905 13 33 55 168 94 300 39 132 91 296 116 365 84 228 156 423
220 600 34 96 87 232 117 301 31 69 74 183 98 255 23 71 93 257 155 414 108
270 275 756 275 799 0 35 -46 61 -109 61 -95 0 -83 22 -216 -395 -48 -148
-108 -326 -135 -395 -69 -176 -171 -455 -215 -585 -21 -60 -49 -135 -63 -165
-13 -30 -42 -109 -62 -175 -21 -66 -84 -253 -140 -415 -57 -162 -122 -360
-147 -440 -24 -80 -75 -248 -114 -375 -38 -126 -99 -320 -134 -430 -149 -468
-215 -690 -255 -860 -12 -49 -37 -137 -55 -195 -19 -58 -43 -143 -54 -188 -14
-54 -31 -97 -49 -120 -43 -55 -52 -76 -52 -124 0 -48 29 -104 71 -137 31 -24
78 -131 133 -301 21 -63 44 -131 53 -150 8 -19 17 -60 19 -90 l5 -55 -16 29
c-10 16 -25 52 -35 80 -10 28 -58 135 -108 237 -99 205 -123 235 -180 225 -32
-5 -40 1 -166 127 -135 135 -265 277 -327 357 -45 59 -46 119 0 188 17 26 43
68 58 94 30 50 31 51 195 127 58 27 112 58 120 70 8 13 23 21 39 21 30 0 43
13 53 53 3 15 13 27 20 27 19 0 64 -116 79 -208 l14 -77 39 3 c63 6 69 19 39
88 -15 32 -44 113 -66 179 -23 66 -48 135 -56 154 -15 31 -15 39 2 105 9 39
51 140 91 224 53 109 73 159 68 176 -4 15 12 69 46 157 29 74 58 154 66 179 8
25 24 72 36 105 34 99 90 347 174 780 13 72 34 167 45 213 20 83 20 112 0 74
-5 -10 -28 -79 -50 -151 -22 -73 -56 -162 -77 -199 -20 -37 -50 -105 -66 -152
-46 -130 -135 -294 -199 -367 -15 -18 -33 -52 -39 -75 -26 -101 -44 -150 -61
-161 -10 -7 -43 -69 -74 -137 -121 -268 -115 -257 -129 -238 -11 15 -15 11
-36 -35 -20 -45 -24 -49 -27 -27 -2 14 -15 68 -28 120 -13 52 -29 122 -35 155
-20 112 -16 105 -60 105 -21 0 -41 -4 -44 -9 -10 -16 48 -236 65 -246 5 -4 9
-37 9 -76 0 -54 3 -69 15 -69 14 0 41 -38 32 -46 -6 -7 -37 7 -37 17 0 5 -13
15 -30 24 -16 8 -49 42 -72 75 -47 67 -67 72 -81 23 -7 -23 -20 -36 -49 -49
-46 -21 -54 -30 -38 -49 9 -10 24 -13 56 -8 37 5 50 1 93 -26 65 -42 134 -117
127 -139 -3 -9 -10 -37 -17 -62 -7 -25 -19 -55 -28 -68 l-14 -24 -13 29 c-7
15 -13 24 -13 18 -3 -27 -18 -37 -40 -26 -28 15 -115 1 -119 -19 -2 -10 17
-25 53 -43 65 -32 65 -31 36 -182 -11 -55 -23 -137 -27 -182 -5 -69 -11 -89
-36 -123 -31 -42 -58 -52 -59 -22 -2 63 -20 465 -29 659 -13 263 -6 375 34
551 14 59 30 150 35 202 32 298 53 604 60 890 10 368 10 372 92 477 31 40 68
72 110 97 35 21 82 48 104 61 22 14 52 25 67 25 22 0 30 -8 47 -44 10 -24 22
-58 26 -75 8 -39 22 -48 43 -27 22 22 22 114 -1 149 -30 46 -22 72 36 119 28
24 93 85 142 136 50 51 93 92 98 92 26 0 -18 -167 -55 -207 -32 -35 -17 -57
33 -49 25 4 46 2 55 -5 23 -19 34 0 34 59 0 67 16 176 31 214 12 29 41 44 60
32 6 -3 21 -27 32 -53 17 -36 22 -68 23 -149 1 -110 12 -136 45 -106 8 7 34
14 58 14 27 0 44 5 47 14 3 8 -10 43 -30 78 -37 68 -54 125 -64 228 l-7 65
-35 3 c-19 2 -39 7 -43 11 -13 13 31 115 66 152 18 18 64 61 101 93 38 33 93
93 124 135 31 42 88 117 127 166 39 50 97 128 128 175 31 47 78 117 105 155
26 39 54 90 61 115 7 25 42 96 77 158 41 73 73 146 90 203 14 49 41 124 61
166 43 93 64 153 55 153 -4 0 -18 -19 -31 -43 -70 -123 -199 -303 -274 -383
-48 -50 -218 -217 -379 -370 -161 -154 -322 -308 -358 -343 -36 -35 -84 -72
-108 -83 -23 -11 -51 -31 -61 -44 -26 -33 -34 -30 -51 18 -17 49 -67 88 -113
88 -17 0 -39 7 -49 17 -10 9 -20 14 -21 12 -8 -10 -167 -335 -167 -341 0 -7
53 -38 64 -38 3 0 23 35 45 78 49 97 114 196 142 216 27 19 53 7 74 -34 31
-60 21 -91 -63 -197 -85 -107 -209 -278 -261 -360 -18 -29 -37 -53 -41 -53 -5
0 -21 11 -37 24 -48 40 -72 48 -118 41 -70 -10 -86 -46 -26 -58 28 -6 121 -82
121 -99 0 -11 -168 -325 -207 -387 -19 -29 -38 -50 -42 -45 -18 20 -72 280
-82 391 -15 164 -8 218 46 363 69 186 85 263 84 410 0 69 -5 150 -9 180 -5 30
-12 87 -16 125 -6 65 -4 75 28 145 48 105 133 232 212 320 37 41 93 109 124
150 31 41 66 89 79 105 114 145 204 270 232 320 19 33 65 97 102 143 38 46 91
121 118 167 27 46 66 107 87 137 128 181 156 228 302 508 64 123 89 185 122
299 23 79 39 146 36 148 -3 3 -18 -16 -33 -41 -15 -26 -47 -73 -70 -104 -23
-31 -84 -113 -134 -181 -51 -69 -123 -162 -160 -208 -38 -46 -90 -114 -116
-151 -26 -37 -84 -108 -128 -157 -94 -105 -176 -214 -248 -329 -28 -44 -63
-94 -78 -111 -38 -42 -196 -274 -251 -370 -77 -133 -136 -264 -167 -371 -32
-113 -108 -269 -131 -269 -20 0 -112 178 -145 278 -43 134 -35 229 49 592 39
166 36 279 -9 421 -37 117 -43 185 -21 237 7 18 45 75 84 127 40 51 95 138
123 192 44 84 56 99 83 106 31 8 31 8 37 93 5 76 56 341 95 492 8 32 29 125
45 205 29 136 32 170 40 447 4 165 13 320 18 345 15 67 14 143 -1 138 -22 -7
-125 -324 -183 -563 -15 -60 -43 -153 -64 -205 -46 -116 -65 -185 -86 -315
-26 -158 -69 -325 -85 -325 -15 0 -20 68 -21 270 0 127 -3 199 -9 189 -28 -49
-75 -291 -85 -446 -7 -95 -23 -148 -40 -131 -4 4 -15 116 -25 250 -23 296 -45
492 -70 618 -11 52 -26 133 -34 180 -8 47 -31 137 -50 200 -19 63 -48 162 -66
220 -60 203 -121 389 -129 394 -5 3 -11 3 -15 -1z m378 -2281 c5 -169 3 -213
-7 -210 -15 6 -36 113 -37 192 0 69 25 245 34 235 2 -2 6 -100 10 -217z m-699
-4037 c11 -7 38 -29 60 -50 l40 -37 -32 7 c-18 4 -33 4 -33 0 0 -15 110 -121
162 -156 71 -48 88 -72 81 -113 -2 -17 3 -58 11 -91 11 -40 16 -104 16 -202 0
-97 4 -143 11 -143 6 0 24 9 39 20 34 24 55 18 76 -21 17 -34 36 -37 63 -8 13
14 27 20 40 16 33 -8 32 6 -4 57 -34 48 -62 134 -51 161 7 18 41 7 89 -29 18
-13 55 -35 83 -49 53 -27 99 -73 115 -114 6 -15 1 -63 -12 -141 -19 -105 -21
-141 -15 -357 3 -132 10 -274 16 -315 15 -121 25 -560 12 -560 -16 0 -119 177
-168 291 -26 60 -68 133 -104 181 -34 44 -76 111 -95 148 -18 36 -69 113 -113
171 -79 104 -238 336 -301 439 -81 132 -221 382 -221 395 0 8 16 23 36 33 l37
19 1 149 c1 133 3 154 24 195 16 32 20 55 16 77 -6 27 -3 33 17 41 28 10 75 4
104 -14z m1765 -3448 c0 -18 -2 -19 -10 -7 -13 20 -13 43 0 35 6 -3 10 -16 10
-28z"/>
<path d="M4725 2290 c-105 -9 -166 -32 -210 -81 -30 -34 -35 -46 -35 -89 0
-57 13 -64 49 -26 36 38 138 79 207 84 73 5 118 -15 182 -78 53 -53 70 -108
52 -165 -22 -67 -17 -141 10 -170 42 -44 87 -28 116 42 11 25 12 43 3 80 -15
69 -5 105 48 163 59 66 111 92 194 98 76 5 124 -8 187 -49 47 -32 62 -30 62 6
0 66 -40 116 -125 156 -66 32 -137 38 -236 19 -61 -12 -94 -38 -145 -117 -19
-29 -38 -53 -44 -53 -6 0 -20 21 -33 46 -17 37 -38 57 -96 95 -41 27 -81 48
-90 47 -9 -1 -52 -4 -96 -8z"/>
<path d="M4855 1690 c-22 -43 -19 -60 10 -60 23 0 25 4 25 45 0 52 -13 58 -35
15z"/>
<path d="M7369 1200 c24 -21 41 -19 41 6 0 9 -11 14 -32 14 l-33 -1 24 -19z"/>
</g>
</svg>
