<?xml version="1.0" encoding="UTF-8" standalone="no"?>
<!-- Created with Inkscape (http://www.inkscape.org/) -->

<svg
   width="297mm"
   height="210mm"
   viewBox="0 0 1122.5197 793.70081"
   version="1.1"
   id="svg1"
   xml:space="preserve"
   inkscape:version="1.4.3 (0d15f750, 2025-12-25)"
   sodipodi:docname="moose.svg"
   xmlns:inkscape="http://www.inkscape.org/namespaces/inkscape"
   xmlns:sodipodi="http://sodipodi.sourceforge.net/DTD/sodipodi-0.dtd"
   xmlns="http://www.w3.org/2000/svg"
   xmlns:svg="http://www.w3.org/2000/svg"><sodipodi:namedview
     id="namedview1"
     pagecolor="#ffffff"
     bordercolor="#000000"
     borderopacity="0.25"
     inkscape:showpageshadow="2"
     inkscape:pageopacity="0.0"
     inkscape:pagecheckerboard="0"
     inkscape:deskcolor="#d1d1d1"
     inkscape:document-units="mm"
     inkscape:zoom="0.22805595"
     inkscape:cx="232.39911"
     inkscape:cy="460.41333"
     inkscape:window-width="1133"
     inkscape:window-height="617"
     inkscape:window-x="0"
     inkscape:window-y="30"
     inkscape:window-maximized="0"
     inkscape:current-layer="layer1" /><defs
     id="defs1" /><g
     inkscape:label="Layer 1"
     inkscape:groupmode="layer"
     id="layer1"><path
       d="m 317.86898,31.308833 c -1.16857,1.327905 -2.39016,3.293191 -2.76198,4.408632 -1.16857,3.611882 -1.27478,9.613986 -0.31872,16.359709 1.27478,9.029719 1.5935,16.99711 0.79675,19.918487 -0.37182,1.487245 -1.43419,3.133841 -2.76207,4.461736 l -2.12464,2.124646 -1.5935,-2.921378 c -9.2952,-16.519068 -13.01334,-21.990009 -19.38725,-28.363927 -4.99292,-5.046014 -10.78259,-9.082823 -16.51906,-11.419932 -4.62109,-1.965286 -11.36682,-3.771232 -11.89805,-3.240068 -0.26552,0.212464 -1.06228,3.930572 -1.85903,8.286091 -1.27478,7.223763 -1.43409,9.189059 -1.43409,21.511959 -0.053,10.995005 0.10621,14.447546 0.90296,18.325005 2.49646,12.429136 6.05519,23.158567 12.16358,36.596897 1.69971,3.77123 2.97449,7.01131 2.76198,7.17066 -0.69045,0.74362 -9.08279,0.26558 -11.68546,-0.63739 -3.45261,-1.22167 -10.51697,-5.41784 -18.27196,-10.88878 -7.59559,-5.36471 -16.57216,-9.9858 -21.35257,-10.94188 l -3.61193,-0.74363 -4.35548,4.03682 c -11.63235,10.99499 -12.26979,11.84485 -13.33206,17.95319 -0.42502,2.39023 -0.42502,4.35551 0,7.11754 0.31862,2.12463 0.47803,4.14304 0.37173,4.46173 -0.58424,1.59348 -2.76198,2.12465 -9.2421,2.33711 -4.19617,0.15935 -7.17066,0.47804 -8.07371,0.95608 -1.96523,1.00921 -2.70888,4.08993 -2.44326,10.03893 0.31862,6.0021 1.43409,8.92348 6.37391,16.78463 2.07153,3.3463 4.24927,7.11754 4.7804,8.44542 1.381,3.1339 1.4873,7.54249 0.26562,10.78259 -1.16857,3.0276 -1.96532,3.29312 -8.60485,3.24001 -7.59558,-0.053 -12.26978,-2.33705 -24.69888,-11.89796 -6.48012,-4.93972 -8.97658,-6.2677 -12.64161,-6.74573 -2.12464,-0.21242 -3.18691,-0.053 -5.47095,1.06236 -1.5935,0.74365 -3.55873,1.91213 -4.35548,2.60267 l -1.4873,1.22168 2.12464,4.35548 c 5.41785,11.15441 11.04811,16.51906 32.45388,30.96659 17.79384,12.00426 22.36183,15.93482 28.31081,24.22094 1.85902,2.54957 5.20534,9.2421 5.94898,11.79167 0.31872,1.16857 0.26562,1.16857 -2.76198,0.84985 -16.62536,-1.75281 -29.63879,-7.808 -44.51124,-20.66203 -20.184,-17.47521 -25.33633,-21.35266 -33.94108,-25.44262 -7.80804,-3.71805 -7.22377,-3.87745 -7.22377,1.7529 v 4.83351 h 1.54036 c 1.43414,0 1.80596,0.42493 3.82439,4.08996 19.22793,35.16276 44.24554,57.04656 75.63705,66.18245 13.38526,3.93055 22.57434,5.20534 39.94326,5.52405 l 13.91639,0.31872 -2.17774,3.24011 c -4.6211,6.85194 -10.30456,13.22585 -29.37318,33.09122 -22.25553,23.15858 -32.50698,35.9064 -40.36809,50.35393 -10.46387,19.22793 -13.01343,38.40286 -7.38317,55.98419 1.80601,5.52405 7.06445,15.93482 10.62318,20.98084 l 2.97449,4.19617 17.10339,-0.31872 c 15.88163,-0.26561 21.61819,-0.69054 34.47222,-2.54956 3.93064,-0.58424 4.19616,-0.69054 5.36474,-2.54957 0.63744,-1.06236 2.39025,-4.6742 3.82434,-8.02051 4.6742,-10.9419 8.07362,-14.66004 14.71315,-16.04103 3.02759,-0.63734 3.1869,-0.58424 6.10829,0.90296 3.82435,2.01843 9.56091,7.38317 12.32289,11.57934 4.88671,7.27687 7.70189,14.92556 12.96033,35.16275 5.15223,19.86528 7.8081,27.08914 12.80092,34.57852 3.77124,5.63026 7.75499,9.2421 13.17275,11.89787 5.04602,2.44345 8.65795,3.45261 14.28821,3.98375 l 4.03686,0.37182 2.76198,-3.87745 c 6.05528,-8.60484 13.65087,-22.62744 18.74999,-34.57851 4.40859,-10.25136 11.41994,-30.91348 14.18192,-41.74917 l 0.58433,-2.23085 h 2.65577 c 6.53322,0 14.55374,2.60267 20.87454,6.79884 7.22377,4.78041 13.01343,11.47303 25.01761,28.78884 8.49854,12.26979 11.15441,15.563 21.77759,26.82352 10.46378,11.04811 14.28821,15.56309 17.68763,20.55592 10.03885,14.87245 12.48221,30.06363 8.02052,49.39786 -0.79675,3.45253 -2.44336,7.43628 -6.32081,15.24428 -2.86828,5.84277 -5.84277,12.21668 -6.53331,14.23511 -2.60267,7.17066 -4.83352,18.85611 -7.80801,41.05863 -2.81518,20.82144 -4.62109,27.93899 -9.72022,37.92474 -6.79884,13.33215 -14.76625,23.371 -36.17202,45.46731 -16.51906,17.05019 -22.68045,24.64578 -26.71731,32.98501 -3.34631,6.85194 -3.45252,6.21451 1.38099,9.40151 5.36474,3.50562 9.13598,5.20533 15.40368,6.79883 5.94899,1.54031 15.29739,1.75282 21.24637,0.47804 6.79883,-1.4341 9.56091,-3.24011 18.37808,-12.16358 9.29529,-9.40151 11.31372,-10.67629 16.73157,-10.62318 2.17774,0.053 4.56799,0.47812 6.37391,1.22167 1.5935,0.58434 2.97449,1.11547 3.02759,1.11547 0.15941,0 0.58434,-2.97449 1.22168,-9.02968 1.27478,-12.21668 5.31164,-28.84204 10.35766,-42.70524 4.78041,-13.22594 10.57008,-25.38952 23.26479,-48.91983 13.59767,-25.28322 20.184,-39.0402 25.38943,-53.116 1.43409,-3.82435 2.54956,-6.74573 2.60267,-6.58633 0,0.15932 0.47803,2.92139 1.00916,6.1083 6.69263,37.34059 8.17983,71.70659 4.24928,96.03365 -4.51489,27.88589 -16.73148,49.76969 -35.16276,62.94244 -1.38099,1.00916 -2.49646,1.96523 -2.49646,2.17774 0,0.58424 10.99501,3.1338 16.46596,3.77124 9.50771,1.16857 21.77759,-0.31872 31.71023,-3.82435 9.3484,-3.29321 20.66212,-9.66712 29.85121,-16.83777 l 3.39942,-2.60267 -0.1063,-50.67265 c -0.10621,-60.49908 0.63743,-87.53511 3.39951,-121.05126 0.84976,-9.87954 3.29311,-31.92265 3.61183,-32.24137 0.10621,-0.053 2.44336,0.31872 5.20534,0.95607 7.22376,1.54039 18.05945,2.97449 27.93899,3.66503 5.47095,0.37182 24.06154,0.53113 51.5225,0.42493 45.2016,-0.15932 47.59186,-0.053 61.50825,2.33714 8.44544,1.4341 16.25353,3.66494 23.26479,6.63943 5.15223,2.17774 6.05528,2.39025 8.65795,2.12464 4.08987,-0.42493 7.808,-2.33705 12.96023,-6.74573 4.88671,-4.19617 7.8081,-5.78958 10.9419,-6.00209 l 2.01843,-0.10621 2.07153,5.84278 c 3.0276,8.65785 5.57716,18.16566 7.11747,26.82352 1.85911,10.57007 2.28404,26.87672 1.00926,37.07497 -3.98366,31.179 -19.49355,59.59612 -49.18536,90.08458 -11.95116,12.26979 -19.65295,19.28114 -49.929,45.46731 -4.8336,4.14307 -9.77342,8.49855 -10.995,9.61402 l -2.28405,2.07153 1.06237,2.81508 c 1.4872,3.93056 4.24927,7.32998 10.09205,12.4291 l 5.04602,4.35558 19.81217,0.053 c 15.40369,0 19.81227,-0.15931 19.97168,-0.69045 0.10621,-0.31872 0.47803,-2.44345 0.79675,-4.6211 0.79675,-5.20542 2.65577,-9.24219 4.93972,-10.62327 2.70897,-1.69971 5.94898,-1.16848 15.50989,2.70897 4.56799,1.80592 8.33914,3.24001 8.44544,3.0807 0.10621,-0.10621 3.29321,-6.90505 7.01126,-15.08487 8.87046,-19.12182 20.60902,-42.81154 26.77051,-53.80655 19.17483,-34.366 38.45587,-57.57769 61.88007,-74.57478 3.1869,-2.28395 6.00208,-3.98366 6.2145,-3.77124 0.63744,0.69054 3.02769,8.87037 4.30247,14.60693 1.00917,4.67411 1.16857,7.11756 1.16857,16.62527 0,12.64161 -0.69054,17.20951 -4.46178,28.41702 -5.25844,15.82852 -12.26979,27.56717 -33.46305,55.82488 -14.23511,18.90931 -20.66212,28.52323 -19.59976,29.21378 2.9744,2.01842 12.3229,6.05519 16.67838,7.22376 4.78041,1.27478 6.2677,1.43419 14.60693,1.43419 8.17983,0.053 9.82643,-0.1063 13.54457,-1.16858 13.17274,-3.77124 21.24636,-11.89796 23.15849,-23.15858 l 0.63744,-3.87745 1.91212,1.96523 c 2.17774,2.28404 5.52406,3.45262 8.49864,2.97459 5.20534,-0.90306 8.65786,-2.12473 9.02968,-3.18701 0.21242,-0.63734 0.95606,-7.808 1.59341,-15.98792 4.67429,-58.58686 12.32298,-98.74253 24.53957,-129.01867 3.0276,-7.54248 3.66503,-9.72022 3.66503,-12.11038 v -2.97449 l -6.42701,-6.3208 c -11.47304,-11.20752 -20.39651,-23.53041 -27.56717,-38.08424 -7.38317,-14.97866 -10.51697,-26.29239 -10.995,-39.62444 -0.31872,-9.50781 0.21242,-13.91639 2.60267,-21.08705 4.24927,-12.90723 13.75707,-22.83987 28.94815,-30.27614 l 7.01135,-3.39942 0.79675,-3.55873 c 8.81727,-39.25272 -0.53113,-74.04365 -26.87672,-99.91111 -14.60684,-14.28821 -31.55082,-24.38026 -52.79719,-31.33841 -18.00635,-5.89587 -34.20669,-8.17992 -57.8433,-8.17992 -15.40369,0 -22.52115,0.42493 -47.00762,2.81518 -24.91139,2.44336 -31.07289,2.81518 -44.56435,2.49646 -26.4517,-0.58424 -49.71649,-6.37391 -73.99045,-18.43128 -9.66712,-4.83351 -15.29747,-8.07361 -32.02895,-18.27187 -29.95742,-18.27187 -45.67973,-26.23928 -57.6839,-29.21377 -10.03894,-2.49646 -16.35975,-3.0807 -36.43754,-3.34632 l -18.64378,-0.26552 -2.33706,1.54031 c -13.17274,8.97667 -34.366,15.29738 -63.63288,19.01551 -9.08288,1.16858 -26.23928,2.86829 -26.45179,2.65578 -0.10621,-0.10621 1.22168,-5.52406 2.97449,-12.05728 5.63026,-20.71523 7.01135,-28.31081 7.01135,-39.19961 0,-7.48928 -0.53123,-11.57924 -2.28405,-17.1033 l -1.22167,-3.87745 h -3.71805 c -7.01134,0 -13.01343,4.14307 -22.25562,15.40359 -5.20534,6.32081 -8.87037,9.82643 -10.30447,9.82643 -0.53122,0 -1.54039,-0.42492 -2.17783,-0.95606 -1.22158,-0.95606 -1.22158,-0.95606 -0.26552,-3.87745 1.91213,-5.78967 6.2677,-16.25344 14.0226,-33.56925 17.79384,-39.62454 22.52114,-54.33766 25.28322,-77.921156 1.22168,-10.14514 1.5935,-26.664209 0.84985,-33.463055 -1.38099,-12.110436 -4.7273,-20.608991 -10.35766,-26.398632 -3.66494,-3.771231 -4.51479,-3.983695 -8.71096,-2.390213 -3.34631,1.274782 -7.38317,3.983695 -12.32289,8.339204 -5.31164,4.67421 -9.13598,7.117537 -13.17284,8.604782 -5.52405,2.018409 -6.00208,1.859059 -8.28603,-2.655791 -1.11547,-2.124645 -4.24928,-7.064432 -7.01135,-10.995004 -2.76198,-3.930582 -5.57716,-8.073627 -6.1614,-9.189059 l -1.16857,-1.965296 h -3.55873 c -3.55883,0 -3.55883,0 -5.63036,2.3371 z"
       id="path1"
       style="fill:#008100;stroke:none;stroke-width:0.0531158;fill-opacity:1" /></g></svg>
