<?xml version="1.0" encoding="UTF-8" standalone="no"?>
<!-- Created with Inkscape (http://www.inkscape.org/) -->

<svg
   width="297mm"
   height="210mm"
   viewBox="0 0 1122.5197 793.70081"
   version="1.1"
   id="svg1"
   xml:space="preserve"
   inkscape:version="1.4.3 (0d15f750, 2025-12-25)"
   sodipodi:docname="rhino.svg"
   xmlns:inkscape="http://www.inkscape.org/namespaces/inkscape"
   xmlns:sodipodi="http://sodipodi.sourceforge.net/DTD/sodipodi-0.dtd"
   xmlns="http://www.w3.org/2000/svg"
   xmlns:svg="http://www.w3.org/2000/svg"><sodipodi:namedview
     id="namedview1"
     pagecolor="#ffffff"
     bordercolor="#000000"
     borderopacity="0.25"
     inkscape:showpageshadow="2"
     inkscape:pageopacity="0.0"
     inkscape:pagecheckerboard="0"
     inkscape:deskcolor="#d1d1d1"
     inkscape:document-units="mm"
     inkscape:zoom="0.30982184"
     inkscape:cx="527.72265"
     inkscape:cy="392.16087"
     inkscape:window-width="1440"
     inkscape:window-height="780"
     inkscape:window-x="0"
     inkscape:window-y="30"
     inkscape:window-maximized="1"
     inkscape:current-layer="layer1" /><defs
     id="defs1" /><g
     inkscape:label="Layer 1"
     inkscape:groupmode="layer"
     id="layer1"><path
       d="m 635.88953,148.0689 c -9.10106,0.92868 -20.61669,3.46707 -28.47953,6.1912 -23.89799,8.48194 -29.77964,10.21547 -43.02878,12.87768 -14.30168,2.78604 -22.47406,3.46707 -44.57663,3.46707 -26.74597,0 -45.31956,-1.54779 -86.36718,-7.11987 -16.46859,-2.29074 -18.75933,-2.72413 -23.2789,-4.6434 -8.48194,-3.6528 -13.80637,-4.82913 -22.22639,-4.82913 -8.48194,-0.0619 -8.54385,-0.0619 -25.13626,5.75781 -6.62458,2.35266 -14.61122,4.70531 -17.64491,5.26252 -3.03368,0.55721 -10.40121,2.105 -16.34475,3.46707 -5.94355,1.36206 -13.18725,2.90986 -16.09711,3.40516 -7.11988,1.23823 -20.05948,1.23823 -26.31258,-0.12383 -4.08619,-0.80485 -7.05796,-0.92868 -16.77815,-0.68103 -23.40271,0.74294 -35.66128,3.90045 -49.59147,12.69195 -2.66221,1.67163 -6.93414,4.27193 -9.47253,5.6959 -2.53839,1.48589 -7.30561,4.45766 -10.52504,6.68649 -5.81972,3.96236 -7.73899,5.51017 -16.53049,12.81578 -2.41456,2.04309 -6.43884,4.95295 -8.85341,6.50075 -5.44825,3.46707 -11.26797,9.03915 -15.97328,15.41608 -8.35812,11.26798 -14.36358,26.18876 -26.99362,67.23638 -3.21942,10.52504 -7.3056,23.09316 -9.03914,27.86039 -2.84795,7.73899 -3.0956,9.03914 -2.97178,12.93959 l 0.18574,4.33384 7.80091,-10.83459 c 11.57754,-15.97329 15.35416,-22.41213 17.27343,-29.532 0.80486,-3.03369 2.53839,-5.07678 4.33384,-5.07678 0.99059,0 1.23824,0.43338 1.23824,2.16691 0,1.23824 -0.49529,3.21943 -1.17633,4.51958 -1.85736,3.6528 -3.71472,10.33929 -4.1481,14.85887 -0.18573,2.29074 -0.92868,6.06737 -1.5478,8.48193 -2.29074,8.66768 -3.09559,16.46858 -3.6528,36.52806 -0.55721,21.11197 -0.92868,23.89801 -3.90045,28.23185 -13.49681,19.62609 -18.44977,25.94111 -25.87921,33.06099 -2.84794,2.72412 -6.50075,5.88163 -8.11046,6.99605 -1.91927,1.30015 -2.971772,2.47648 -2.971772,3.28133 0,0.68103 -0.9906,3.40516 -2.22883,6.00546 -2.97178,6.31502 -3.03369,9.03915 -0.37147,14.79696 2.41456,5.2006 5.510162,17.0877 6.067362,23.34081 0.80486,9.22488 -1.79544,18.01638 -7.429432,24.51713 -3.96236,4.58149 -5.32443,7.36753 -5.75781,12.01092 -0.30956,3.71472 -0.24765,4.08619 1.60971,6.81032 5.26251,7.67708 14.054022,15.23034 23.402722,20.05947 l 5.01487,2.60031 h 15.23034 15.23034 l 2.78604,-2.5384 c 4.39575,-4.08619 3.96236,-5.75781 -3.77663,-14.11592 -6.50076,-7.05797 -8.2962,-10.58695 -8.72959,-17.27344 -0.80485,-11.76327 3.71472,-24.26949 11.94901,-33.43245 1.73353,-1.98119 6.31502,-8.11047 10.15356,-13.74446 8.23429,-12.07283 14.67314,-20.55477 19.688,-26.06494 2.90986,-3.15751 3.71472,-4.51957 3.96237,-6.56266 0.24764,-1.67162 1.11441,-3.5909 2.35265,-5.1387 3.15751,-3.96236 6.06738,-3.15751 8.04856,2.16692 5.81972,15.91138 6.81031,19.93565 6.81031,27.86038 0,2.35266 -0.43338,6.25311 -0.92868,8.66768 -1.0525,5.01487 -1.17632,14.98269 -0.24764,20.7405 0.92868,5.94355 5.38634,18.82124 7.42943,21.66919 1.60971,2.22883 2.0431,2.47648 4.45766,2.47648 5.20061,0 8.48194,1.48589 14.67314,6.81031 3.21942,2.78604 6.68649,6.1912 7.61517,7.61517 1.60971,2.35266 1.73353,2.97178 1.42397,6.12929 -0.99059,9.53444 -0.99059,10.8965 -0.24765,13.80637 0.61912,2.35265 1.30015,3.40515 2.90987,4.45766 1.98118,1.30015 2.72412,1.42397 11.57753,1.42397 6.68649,0 10.52504,0.30956 13.06343,0.99059 5.57207,1.48589 14.85887,1.73354 25.26008,0.61912 5.13868,-0.4953 11.82518,-1.11441 14.85887,-1.30015 8.17237,-0.55721 9.28679,-0.80485 11.02032,-2.53839 1.11442,-1.11442 1.73353,-2.53839 1.98119,-4.89104 0.5572,-4.21002 -0.4953,-6.56267 -3.28134,-7.49135 -1.23824,-0.37147 -4.95296,-3.52898 -9.59635,-8.04856 -6.25311,-6.19119 -8.35812,-7.86281 -12.25857,-9.72017 -8.35812,-4.02428 -13.37298,-9.844 -17.64491,-20.61668 -1.17632,-3.03369 -3.52898,-8.29621 -5.2006,-11.70136 -5.63399,-11.63945 -7.11988,-19.19271 -7.80091,-40.42851 l -0.43338,-12.25857 2.29074,-5.26252 c 1.30015,-2.84795 2.53839,-6.12928 2.84795,-7.18178 0.24765,-1.11442 1.91927,-3.5909 3.6528,-5.51017 4.70532,-5.13869 8.11047,-10.09165 13.18725,-19.44036 4.45766,-8.11046 4.6434,-8.42002 7.98664,-10.09164 2.16692,-1.11442 4.89105,-1.91927 7.11988,-2.10501 3.6528,-0.30956 3.6528,-0.30956 4.39575,1.60971 0.43338,1.17633 1.42397,2.22883 2.53839,2.72413 1.0525,0.43338 6.00546,4.64339 11.02033,9.41062 15.84946,14.79695 19.81182,17.21152 40.49042,24.95051 24.95052,9.34871 44.08131,14.23976 63.15019,16.22093 3.21943,0.30957 14.17784,0.61913 24.39331,0.61913 12.32049,0 22.04066,0.30955 29.09863,0.99059 14.67313,1.42397 27.79847,1.48588 34.11348,0.12382 12.9396,-2.78604 26.00303,-3.6528 30.77025,-2.10501 1.48588,0.4953 4.64339,0.9906 7.11987,1.17633 2.41457,0.18574 5.32443,0.80486 6.37694,1.36206 4.45767,2.29075 5.63399,10.3393 2.97179,20.1833 -2.4765,8.91533 -2.97179,13.62063 -3.34327,31.51319 -0.37147,17.70682 -0.99059,22.10257 -3.6528,26.12685 -0.86677,1.30015 -1.5478,2.72412 -1.5478,3.21942 0,0.4953 -1.11442,4.58148 -2.53839,9.16297 -2.78604,9.16297 -2.84795,11.57754 -0.4953,15.0446 2.0431,2.90987 4.89105,4.27193 11.70135,5.63399 4.27193,0.86677 8.42006,1.17633 15.16845,1.11442 10.21547,-0.0619 18.20211,-1.17633 34.05156,-4.89105 5.07681,-1.17633 10.15357,-2.16691 11.32989,-2.16691 1.11441,0 2.6003,-0.30957 3.28134,-0.68104 1.23826,-0.61912 1.23826,-0.61912 0,-2.78604 -0.74294,-1.17632 -1.30015,-2.90986 -1.30015,-3.83854 -0.0619,-4.58148 -4.51955,-9.47253 -13.86829,-14.98269 -6.87223,-4.1481 -10.27737,-8.66767 -11.20605,-14.98269 -0.43337,-2.72413 -0.30958,-3.0956 1.85736,-5.57208 3.03367,-3.52898 6.87223,-11.32989 7.73901,-15.78755 1.11441,-5.44825 5.2625,-13.62063 12.87767,-25.26008 3.77661,-5.81972 7.49133,-11.32989 8.29622,-12.32048 2.04309,-2.66221 6.87223,-4.6434 11.63942,-4.76722 11.26799,-0.24765 43.27645,12.75386 62.40725,25.44582 4.14813,2.72412 8.04858,4.95295 8.66769,4.95295 1.79546,0 5.88165,3.28134 7.05796,5.63399 2.41457,4.89104 4.82913,14.05401 4.82913,18.26403 0,5.6959 -0.99057,8.54385 -4.33382,12.25856 -3.46708,3.77664 -4.33387,5.26252 -4.33387,7.61517 0,0.92868 -0.43337,2.29075 -0.92868,2.90987 -2.35262,3.0956 -0.12379,8.11047 6.25313,13.9921 2.04309,1.85736 5.38634,4.27192 7.36753,5.38634 4.20999,2.22883 11.8871,4.51958 15.1684,4.51958 2.72414,0 24.14567,-6.87223 26.43644,-8.54385 0.99058,-0.68104 3.09557,-1.36207 4.70529,-1.60972 4.14809,-0.61912 6.6246,-2.97177 7.05797,-6.56266 0.30957,-2.78604 -0.0619,-3.83855 -5.94355,-17.64491 -0.61911,-1.36207 -2.22883,-3.83854 -3.65282,-5.44826 -3.83851,-4.45766 -4.58146,-6.19119 -5.2625,-13.43489 -0.61911,-6.50075 -0.61911,-6.50075 0.99057,-8.97724 2.41457,-3.71471 3.52898,-8.91532 3.52898,-16.84004 0,-8.42003 -0.5572,-10.3393 -6.00544,-20.1833 -3.77661,-6.6865 -3.96235,-7.36753 -3.34325,-9.03915 0.80484,-1.85736 2.90988,-3.15751 5.20061,-3.15751 2.35267,-0.0619 6.31502,-2.22883 9.96784,-5.51017 1.91925,-1.73353 3.90045,-3.15751 4.45766,-3.15751 2.04309,0 4.6434,2.72413 7.9247,8.35812 5.81975,9.844 11.70136,16.34476 32.44188,35.7232 4.5815,4.33384 5.69591,5.6959 5.69591,7.18179 0,2.105 0.99058,3.21942 2.90984,3.21942 0.74294,0 4.82913,1.11441 8.97726,2.47648 4.20998,1.30015 10.27737,3.1575 13.49678,4.02427 3.21945,0.86677 8.35811,2.78604 11.45372,4.21002 5.01487,2.29074 6.06739,2.6003 10.27737,2.6003 4.14813,0 4.95297,-0.18574 6.93417,-1.73354 l 2.22883,-1.67162 h 14.79693 c 14.61124,0 14.85887,0 18.44979,1.60971 3.77662,1.67163 9.53443,2.53839 12.19663,1.85736 2.10504,-0.4953 8.29622,-6.19119 10.46315,-9.59635 1.91925,-3.0956 2.16689,-5.38634 0.80484,-7.2437 -1.05252,-1.36206 -1.23826,-7.42944 -0.30958,-7.98665 0.37148,-0.24764 2.0431,-3.09559 3.71472,-6.43884 3.34325,-6.7484 5.26255,-9.28679 8.29622,-11.20606 1.17631,-0.68103 2.29073,-1.91927 2.47646,-2.72413 0.18574,-0.80485 1.3621,-2.66221 2.53841,-4.08618 1.91925,-2.29075 2.16693,-3.03369 2.16693,-5.94356 v -3.40515 l 6.68649,-7.30561 c 8.48191,-9.2868 19.00696,-22.35022 28.10801,-35.04217 3.90046,-5.44825 9.34869,-12.81578 12.07284,-16.40667 19.007,-24.88861 31.7608,-52.87281 37.952,-83.58114 2.7242,-13.37298 2.3527,-21.97874 -1.362,-31.32745 -1.424,-3.59089 -1.4859,-3.6528 -4.0243,-3.83854 l -2.6622,-0.18574 v 4.95296 c 0,2.72412 -0.2476,5.13869 -0.6191,5.32443 -1.1144,0.68103 -3.7767,5.75781 -6.5627,12.50621 -3.4052,8.2962 -6.0055,12.63004 -13.3111,22.47404 -3.1575,4.27193 -6.9341,9.72018 -8.42,12.19665 -2.04312,3.40517 -4.89106,6.43885 -12.13476,13.12534 -14.54929,13.43489 -24.20755,19.99756 -34.98024,23.8361 -4.76723,1.67163 -10.95841,2.16692 -13.18724,0.9906 -1.73357,-0.92868 -1.48589,-3.5909 0.681,-6.99606 1.60973,-2.6003 1.85736,-3.52898 1.85736,-7.55326 0,-3.40515 0.30957,-5.07677 1.17636,-6.62457 1.17631,-2.0431 1.17631,-2.0431 -0.12384,-5.26252 -1.23826,-2.90986 -1.54779,-3.28133 -3.21941,-3.28133 -1.9193,0 -3.52898,0.86676 -6.87223,3.71472 -1.11441,0.99059 -5.63402,2.90985 -11.32989,4.89104 -13.68255,4.70531 -26.12686,10.40121 -33.49439,15.35417 -1.36205,0.92867 -3.03367,1.42397 -4.6434,1.42397 -2.78604,0 -4.58145,-1.5478 -10.46311,-8.85341 -5.2625,-6.62458 -6.56265,-9.96783 -7.49133,-19.87374 -1.30015,-13.06342 -3.71471,-21.79301 -9.28679,-33.49437 -2.90988,-6.06737 -10.15358,-18.32594 -12.01094,-20.36903 -2.6003,-2.90986 -3.34324,-5.51016 -3.83855,-13.43489 -0.24764,-4.39576 -0.86674,-8.72959 -1.36205,-9.96783 -1.11442,-2.72413 -5.01487,-7.05796 -7.3056,-8.2962 -2.97177,-1.48589 -6.81033,-1.11442 -9.7202,0.99059 -4.33383,3.09559 -6.00545,2.72412 -12.19663,-3.03369 -2.90988,-2.66221 -7.8009,-6.31502 -10.89652,-8.11046 -7.8009,-4.58149 -8.72958,-6.00547 -9.28679,-13.86828 -0.24763,-3.40516 -0.49531,-6.31502 -0.49531,-6.37693 -0.0619,-0.12383 -0.99058,-1.23824 -2.16689,-2.47648 -1.11442,-1.30016 -2.22883,-3.0956 -2.41457,-3.96237 -0.74294,-2.90986 -14.11592,-14.79695 -21.54536,-19.1927 -2.41456,-1.42398 -6.31502,-4.27193 -8.60579,-6.43885 -8.91532,-8.11046 -13.99209,-10.46312 -24.20756,-11.08224 -10.27737,-0.61912 -19.7499,-2.66221 -34.60877,-7.49134 -11.20609,-3.65281 -22.65977,-5.20061 -41.48104,-5.57208 -7.67707,-0.12382 -16.59239,0.0619 -19.81179,0.37147 z"
       id="path1"
       style="fill:#ffb832;stroke:none;stroke-width:0.0619118;fill-opacity:1" /></g></svg>
