<?xml version="1.0" standalone="no"?>
<!DOCTYPE svg PUBLIC "-//W3C//DTD SVG 20010904//EN"
 "http://www.w3.org/TR/2001/REC-SVG-20010904/DTD/svg10.dtd">
<svg version="1.0" xmlns="http://www.w3.org/2000/svg"
 width="1536.000000pt" height="656.000000pt" viewBox="0 0 1536.000000 656.000000"
 preserveAspectRatio="xMidYMid meet">
<metadata>
Created by potrace 1.16, written by Peter Selinger 2001-2019
</metadata>
<g transform="translate(0.000000,656.000000) scale(0.100000,-0.100000)"
fill="#000000" stroke="none">
<path d="M8830 6549 c-147 -15 -333 -56 -460 -100 -386 -137 -481 -165 -695
-208 -231 -45 -363 -56 -720 -56 -432 0 -732 25 -1395 115 -266 37 -303 44
-376 75 -137 59 -223 78 -359 78 -137 1 -138 1 -406 -93 -107 -38 -236 -76
-285 -85 -49 -9 -168 -34 -264 -56 -96 -22 -213 -47 -260 -55 -115 -20 -324
-20 -425 2 -66 13 -114 15 -271 11 -378 -12 -576 -63 -801 -205 -43 -27 -112
-69 -153 -92 -41 -24 -118 -72 -170 -108 -94 -64 -125 -89 -267 -207 -39 -33
-104 -80 -143 -105 -88 -56 -182 -146 -258 -249 -135 -182 -232 -423 -436
-1086 -52 -170 -118 -373 -146 -450 -46 -125 -50 -146 -48 -209 l3 -70 126
175 c187 258 248 362 279 477 13 49 41 82 70 82 16 0 20 -7 20 -35 0 -20 -8
-52 -19 -73 -30 -59 -60 -167 -67 -240 -3 -37 -15 -98 -25 -137 -37 -140 -50
-266 -59 -590 -9 -341 -15 -386 -63 -456 -218 -317 -298 -419 -418 -534 -46
-44 -105 -95 -131 -113 -31 -21 -48 -40 -48 -53 0 -11 -16 -55 -36 -97 -48
-102 -49 -146 -6 -239 39 -84 89 -276 98 -377 13 -149 -29 -291 -120 -396 -64
-74 -86 -119 -93 -194 -5 -60 -4 -66 26 -110 85 -124 227 -246 378 -324 l81
-42 246 0 246 0 45 41 c71 66 64 93 -61 228 -105 114 -134 171 -141 279 -13
190 60 392 193 540 28 32 102 131 164 222 133 195 237 332 318 421 47 51 60
73 64 106 4 27 18 58 38 83 51 64 98 51 130 -35 94 -257 110 -322 110 -450 0
-38 -7 -101 -15 -140 -17 -81 -19 -242 -4 -335 15 -96 87 -304 120 -350 26
-36 33 -40 72 -40 84 0 137 -24 237 -110 52 -45 108 -100 123 -123 26 -38 28
-48 23 -99 -16 -154 -16 -176 -4 -223 10 -38 21 -55 47 -72 32 -21 44 -23 187
-23 108 0 170 -5 211 -16 90 -24 240 -28 408 -10 83 8 191 18 240 21 132 9
150 13 178 41 18 18 28 41 32 79 9 68 -8 106 -53 121 -20 6 -80 57 -155 130
-101 100 -135 127 -198 157 -135 65 -216 159 -285 333 -19 49 -57 134 -84 189
-91 188 -115 310 -126 653 l-7 198 37 85 c21 46 41 99 46 116 4 18 31 58 59
89 76 83 131 163 213 314 72 131 75 136 129 163 35 18 79 31 115 34 59 5 59 5
71 -26 7 -19 23 -36 41 -44 17 -7 97 -75 178 -152 256 -239 320 -278 654 -403
403 -151 712 -230 1020 -262 52 -5 229 -10 394 -10 199 0 356 -5 470 -16 237
-23 449 -24 551 -2 209 45 420 59 497 34 24 -8 75 -16 115 -19 39 -3 86 -13
103 -22 72 -37 91 -167 48 -326 -40 -144 -48 -220 -54 -509 -6 -286 -16 -357
-59 -422 -14 -21 -25 -44 -25 -52 0 -8 -18 -74 -41 -148 -45 -148 -46 -187 -8
-243 33 -47 79 -69 189 -91 69 -14 136 -19 245 -18 165 1 294 19 550 79 82 19
164 35 183 35 18 0 42 5 53 11 20 10 20 10 0 45 -12 19 -21 47 -21 62 -1 74
-73 153 -224 242 -111 67 -166 140 -181 242 -7 44 -5 50 30 90 49 57 111 183
125 255 18 88 85 220 208 408 61 94 121 183 134 199 33 43 111 75 188 77 182
4 699 -206 1008 -411 67 -44 130 -80 140 -80 29 0 95 -53 114 -91 39 -79 78
-227 78 -295 0 -92 -16 -138 -70 -198 -56 -61 -70 -85 -70 -123 0 -15 -7 -37
-15 -47 -38 -50 -2 -131 101 -226 33 -30 87 -69 119 -87 68 -36 192 -73 245
-73 44 0 390 111 427 138 16 11 50 22 76 26 67 10 107 48 114 106 5 45 -1 62
-96 285 -10 22 -36 62 -59 88 -62 72 -74 100 -85 217 -10 105 -10 105 16 145
39 60 57 144 57 272 0 136 -9 167 -97 326 -61 108 -64 119 -54 146 13 30 47
51 84 51 38 1 102 36 161 89 31 28 63 51 72 51 33 0 75 -44 128 -135 94 -159
189 -264 524 -577 74 -70 92 -92 92 -116 0 -34 16 -52 47 -52 12 0 78 -18 145
-40 68 -21 166 -51 218 -65 52 -14 135 -45 185 -68 81 -37 98 -42 166 -42 67
0 80 3 112 28 l36 27 239 0 c236 0 240 0 298 -26 61 -27 154 -41 197 -30 34 8
134 100 169 155 31 50 35 87 13 117 -17 22 -20 120 -5 129 6 4 33 50 60 104
54 109 85 150 134 181 19 11 37 31 40 44 3 13 22 43 41 66 31 37 35 49 35 96
l0 55 108 118 c137 150 307 361 454 566 63 88 151 207 195 265 307 402 513
854 613 1350 44 216 38 355 -22 506 -23 58 -24 59 -65 62 l-43 3 0 -80 c0 -44
-4 -83 -10 -86 -18 -11 -61 -93 -106 -202 -55 -134 -97 -204 -215 -363 -51
-69 -112 -157 -136 -197 -33 -55 -79 -104 -196 -212 -235 -217 -391 -323 -565
-385 -77 -27 -177 -35 -213 -16 -28 15 -24 58 11 113 26 42 30 57 30 122 0 55
5 82 19 107 19 33 19 33 -2 85 -20 47 -25 53 -52 53 -31 0 -57 -14 -111 -60
-18 -16 -91 -47 -183 -79 -221 -76 -422 -168 -541 -248 -22 -15 -49 -23 -75
-23 -45 0 -74 25 -169 143 -85 107 -106 161 -121 321 -21 211 -60 352 -150
541 -47 98 -164 296 -194 329 -42 47 -54 89 -62 217 -4 71 -14 141 -22 161
-18 44 -81 114 -118 134 -48 24 -110 18 -157 -16 -70 -50 -97 -44 -197 49 -47
43 -126 102 -176 131 -126 74 -141 97 -150 224 -4 55 -8 102 -8 103 -1 2 -16
20 -35 40 -18 21 -36 50 -39 64 -12 47 -228 239 -348 310 -39 23 -102 69 -139
104 -144 131 -226 169 -391 179 -166 10 -319 43 -559 121 -181 59 -366 84
-670 90 -124 2 -268 -1 -320 -6z"/>
</g>
</svg>
