<?xml version="1.0" encoding="UTF-8" standalone="no"?>
<!-- Created with Inkscape (http://www.inkscape.org/) -->

<svg
   width="210mm"
   height="297mm"
   viewBox="0 0 793.70081 1122.5197"
   version="1.1"
   id="svg1"
   xml:space="preserve"
   inkscape:version="1.3.2 (091e20e, 2023-11-25)"
   sodipodi:docname="fitness.svg"
   xmlns:inkscape="http://www.inkscape.org/namespaces/inkscape"
   xmlns:sodipodi="http://sodipodi.sourceforge.net/DTD/sodipodi-0.dtd"
   xmlns="http://www.w3.org/2000/svg"
   xmlns:svg="http://www.w3.org/2000/svg"><sodipodi:namedview
     id="namedview1"
     pagecolor="#ffffff"
     bordercolor="#000000"
     borderopacity="0.25"
     inkscape:showpageshadow="2"
     inkscape:pageopacity="0.0"
     inkscape:pagecheckerboard="0"
     inkscape:deskcolor="#d1d1d1"
     inkscape:document-units="mm"
     inkscape:zoom="0.6539452"
     inkscape:cx="372.35536"
     inkscape:cy="527.56714"
     inkscape:window-width="1920"
     inkscape:window-height="945"
     inkscape:window-x="0"
     inkscape:window-y="30"
     inkscape:window-maximized="1"
     inkscape:current-layer="layer1" /><defs
     id="defs1"><clipPath
       id="clip650"><rect
         x="0"
         y="0"
         width="3200"
         height="2600"
         id="rect1" /></clipPath><clipPath
       id="clip651"><rect
         x="640"
         y="0"
         width="2241"
         height="2241"
         id="rect2" /></clipPath><clipPath
       id="clip652"><rect
         x="336"
         y="47"
         width="2818"
         height="2275"
         id="rect3" /></clipPath><clipPath
       id="clip070"><rect
         x="0"
         y="0"
         width="3200"
         height="2600"
         id="rect1-8" /></clipPath><clipPath
       id="clip071"><rect
         x="640"
         y="0"
         width="2241"
         height="2241"
         id="rect2-2" /></clipPath><clipPath
       id="clip072"><rect
         x="336"
         y="47"
         width="2818"
         height="2275"
         id="rect3-8" /></clipPath><clipPath
       id="clip700"><rect
         x="0"
         y="0"
         width="3200"
         height="2600"
         id="rect1-7" /></clipPath><clipPath
       id="clip701"><rect
         x="640"
         y="0"
         width="2241"
         height="2241"
         id="rect2-5" /></clipPath><clipPath
       id="clip702"><rect
         x="336"
         y="47"
         width="2818"
         height="2275"
         id="rect3-5" /></clipPath><clipPath
       id="clip830"><rect
         x="0"
         y="0"
         width="3200"
         height="2600"
         id="rect1-83" /></clipPath><clipPath
       id="clip831"><rect
         x="640"
         y="0"
         width="2241"
         height="2241"
         id="rect2-22" /></clipPath><clipPath
       id="clip832"><rect
         x="336"
         y="47"
         width="2818"
         height="2275"
         id="rect3-6" /></clipPath><clipPath
       id="clip320"><rect
         x="0"
         y="0"
         width="3200"
         height="2600"
         id="rect1-1" /></clipPath><clipPath
       id="clip321"><rect
         x="640"
         y="0"
         width="2241"
         height="2241"
         id="rect2-24" /></clipPath><clipPath
       id="clip322"><rect
         x="336"
         y="47"
         width="2818"
         height="2275"
         id="rect3-86" /></clipPath></defs><g
     inkscape:label="Layer 1"
     inkscape:groupmode="layer"
     id="layer1"><g
       id="g3"
       transform="matrix(0.20325154,0,0,0.20325154,48.620697,57.847723)"><path
         clip-path="url(#clip700)"
         d="M 0,2600 H 3200 V 0 H 0 Z"
         fill="#ffffff"
         fill-rule="evenodd"
         fill-opacity="1"
         id="path1" /><path
         clip-path="url(#clip700)"
         d="M 336.022,2321.51 H 3152.76 V 47.2441 H 336.022 Z"
         fill="#ffffff"
         fill-rule="evenodd"
         fill-opacity="1"
         id="path2" /><polyline
         clip-path="url(#clip700)"
         style="fill:none;stroke:#000000;stroke-width:4;stroke-linecap:round;stroke-linejoin:round;stroke-opacity:1"
         points="336.022,2321.51 3152.76,2321.51 "
         id="polyline3" /><polyline
         clip-path="url(#clip700)"
         style="fill:none;stroke:#000000;stroke-width:4;stroke-linecap:round;stroke-linejoin:round;stroke-opacity:1"
         points="336.022,47.2441 3152.76,47.2441 "
         id="polyline4" /><polyline
         clip-path="url(#clip700)"
         style="fill:none;stroke:#000000;stroke-width:4;stroke-linecap:round;stroke-linejoin:round;stroke-opacity:1"
         points="464.055,2321.51 464.055,2302.62 "
         id="polyline5" /><polyline
         clip-path="url(#clip700)"
         style="fill:none;stroke:#000000;stroke-width:4;stroke-linecap:round;stroke-linejoin:round;stroke-opacity:1"
         points="1104.22,2321.51 1104.22,2302.62 "
         id="polyline6" /><polyline
         clip-path="url(#clip700)"
         style="fill:none;stroke:#000000;stroke-width:4;stroke-linecap:round;stroke-linejoin:round;stroke-opacity:1"
         points="1744.39,2321.51 1744.39,2302.62 "
         id="polyline7" /><polyline
         clip-path="url(#clip700)"
         style="fill:none;stroke:#000000;stroke-width:4;stroke-linecap:round;stroke-linejoin:round;stroke-opacity:1"
         points="2384.56,2321.51 2384.56,2302.62 "
         id="polyline8" /><polyline
         clip-path="url(#clip700)"
         style="fill:none;stroke:#000000;stroke-width:4;stroke-linecap:round;stroke-linejoin:round;stroke-opacity:1"
         points="3024.72,2321.51 3024.72,2302.62 "
         id="polyline9" /><polyline
         clip-path="url(#clip700)"
         style="fill:none;stroke:#000000;stroke-width:4;stroke-linecap:round;stroke-linejoin:round;stroke-opacity:1"
         points="464.055,47.2441 464.055,66.1417 "
         id="polyline10" /><polyline
         clip-path="url(#clip700)"
         style="fill:none;stroke:#000000;stroke-width:4;stroke-linecap:round;stroke-linejoin:round;stroke-opacity:1"
         points="1104.22,47.2441 1104.22,66.1417 "
         id="polyline11" /><polyline
         clip-path="url(#clip700)"
         style="fill:none;stroke:#000000;stroke-width:4;stroke-linecap:round;stroke-linejoin:round;stroke-opacity:1"
         points="1744.39,47.2441 1744.39,66.1417 "
         id="polyline12" /><polyline
         clip-path="url(#clip700)"
         style="fill:none;stroke:#000000;stroke-width:4;stroke-linecap:round;stroke-linejoin:round;stroke-opacity:1"
         points="2384.56,47.2441 2384.56,66.1417 "
         id="polyline13" /><polyline
         clip-path="url(#clip700)"
         style="fill:none;stroke:#000000;stroke-width:4;stroke-linecap:round;stroke-linejoin:round;stroke-opacity:1"
         points="3024.72,47.2441 3024.72,66.1417 "
         id="polyline14" /><path
         clip-path="url(#clip700)"
         d="m 397.367,2420.74 h 14.323 v -49.44 l -15.582,3.13 v -7.99 l 15.495,-3.13 h 8.767 v 57.43 h 14.323 v 7.37 h -37.326 z"
         fill="#000000"
         fill-rule="nonzero"
         fill-opacity="1"
         id="path14" /><path
         clip-path="url(#clip700)"
         d="m 471.151,2369.09 q -6.77,0 -10.199,6.68 -3.386,6.64 -3.386,20.01 0,13.32 3.386,20.01 3.429,6.64 10.199,6.64 6.815,0 10.2,-6.64 3.429,-6.69 3.429,-20.01 0,-13.37 -3.429,-20.01 -3.385,-6.68 -10.2,-6.68 m 0,-6.95 q 10.894,0 16.623,8.64 5.773,8.59 5.773,25 0,16.36 -5.773,25 -5.729,8.59 -16.623,8.59 -10.894,0 -16.666,-8.59 -5.729,-8.64 -5.729,-25 0,-16.41 5.729,-25 5.772,-8.64 16.666,-8.64 z"
         fill="#000000"
         fill-rule="nonzero"
         fill-opacity="1"
         id="path15" /><path
         clip-path="url(#clip700)"
         d="m 524.189,2369.74 q -2.17,-3.73 -6.554,-3.73 -4.383,0 -6.553,3.73 -2.214,3.73 -2.214,11.2 0,7.5 2.214,11.24 2.17,3.73 6.553,3.73 4.384,0 6.554,-3.73 2.214,-3.74 2.214,-11.24 0,-7.47 -2.214,-11.2 m -6.554,-7.6 q 6.988,0 10.677,4.82 3.69,4.82 3.69,13.98 0,9.2 -3.69,14.02 -3.689,4.81 -10.677,4.81 -7.031,0 -10.72,-4.81 -3.689,-4.82 -3.689,-14.02 0,-9.16 3.689,-13.98 3.689,-4.82 10.72,-4.82 z"
         fill="#000000"
         fill-rule="nonzero"
         fill-opacity="1"
         id="path16" /><path
         clip-path="url(#clip700)"
         d="m 1038.42,2420.74 h 14.33 v -49.44 l -15.59,3.13 v -7.99 l 15.5,-3.13 h 8.77 v 57.43 h 14.32 v 7.37 h -37.33 z"
         fill="#000000"
         fill-rule="nonzero"
         fill-opacity="1"
         id="path17" /><path
         clip-path="url(#clip700)"
         d="m 1112.21,2369.09 q -6.77,0 -10.2,6.68 -3.39,6.64 -3.39,20.01 0,13.32 3.39,20.01 3.43,6.64 10.2,6.64 6.81,0 10.2,-6.64 3.43,-6.69 3.43,-20.01 0,-13.37 -3.43,-20.01 -3.39,-6.68 -10.2,-6.68 m 0,-6.95 q 10.89,0 16.62,8.64 5.77,8.59 5.77,25 0,16.36 -5.77,25 -5.73,8.59 -16.62,8.59 -10.9,0 -16.67,-8.59 -5.73,-8.64 -5.73,-25 0,-16.41 5.73,-25 5.77,-8.64 16.67,-8.64 z"
         fill="#000000"
         fill-rule="nonzero"
         fill-opacity="1"
         id="path18" /><path
         clip-path="url(#clip700)"
         d="m 1147.28,2394.35 h 8.85 v -26.52 l -9.68,1.78 v -5.04 l 9.99,-1.69 h 5.94 v 31.47 h 8.9 v 4.77 h -24 z"
         fill="#000000"
         fill-rule="nonzero"
         fill-opacity="1"
         id="path19" /><path
         clip-path="url(#clip700)"
         d="m 1678.96,2420.74 h 14.32 v -49.44 l -15.58,3.13 v -7.99 l 15.5,-3.13 h 8.76 v 57.43 h 14.33 v 7.37 h -37.33 z"
         fill="#000000"
         fill-rule="nonzero"
         fill-opacity="1"
         id="path20" /><path
         clip-path="url(#clip700)"
         d="m 1752.74,2369.09 q -6.77,0 -10.2,6.68 -3.38,6.64 -3.38,20.01 0,13.32 3.38,20.01 3.43,6.64 10.2,6.64 6.82,0 10.2,-6.64 3.43,-6.69 3.43,-20.01 0,-13.37 -3.43,-20.01 -3.38,-6.68 -10.2,-6.68 m 0,-6.95 q 10.9,0 16.63,8.64 5.77,8.59 5.77,25 0,16.36 -5.77,25 -5.73,8.59 -16.63,8.59 -10.89,0 -16.66,-8.59 -5.73,-8.64 -5.73,-25 0,-16.41 5.73,-25 5.77,-8.64 16.66,-8.64 z"
         fill="#000000"
         fill-rule="nonzero"
         fill-opacity="1"
         id="path21" /><path
         clip-path="url(#clip700)"
         d="m 1792.67,2394.17 h 18.41 v 4.95 h -25.96 v -4.77 q 1.48,-1.35 4.21,-3.78 14.93,-13.24 14.93,-17.32 0,-2.86 -2.25,-4.6 -2.26,-1.78 -5.95,-1.78 -2.26,0 -4.9,0.79 -2.65,0.73 -5.78,2.25 v -5.34 q 3.34,-1.21 6.21,-1.82 2.91,-0.61 5.38,-0.61 6.29,0 10.07,2.87 3.78,2.86 3.78,7.55 0,6.03 -14.37,18.36 -2.43,2.08 -3.78,3.25 z"
         fill="#000000"
         fill-rule="nonzero"
         fill-opacity="1"
         id="path22" /><path
         clip-path="url(#clip700)"
         d="m 2318.58,2420.74 h 14.33 v -49.44 l -15.58,3.13 v -7.99 l 15.49,-3.13 h 8.77 v 57.43 h 14.32 v 7.37 h -37.33 z"
         fill="#000000"
         fill-rule="nonzero"
         fill-opacity="1"
         id="path23" /><path
         clip-path="url(#clip700)"
         d="m 2392.37,2369.09 q -6.77,0 -10.2,6.68 -3.39,6.64 -3.39,20.01 0,13.32 3.39,20.01 3.43,6.64 10.2,6.64 6.81,0 10.2,-6.64 3.43,-6.69 3.43,-20.01 0,-13.37 -3.43,-20.01 -3.39,-6.68 -10.2,-6.68 m 0,-6.95 q 10.89,0 16.62,8.64 5.77,8.59 5.77,25 0,16.36 -5.77,25 -5.73,8.59 -16.62,8.59 -10.9,0 -16.67,-8.59 -5.73,-8.64 -5.73,-25 0,-16.41 5.73,-25 5.77,-8.64 16.67,-8.64 z"
         fill="#000000"
         fill-rule="nonzero"
         fill-opacity="1"
         id="path24" /><path
         clip-path="url(#clip700)"
         d="m 2443.41,2379.5 q 3.99,0.79 6.16,3.17 2.22,2.35 2.22,5.91 0,5.38 -4.13,8.29 -4.12,2.9 -11.8,2.9 -2.48,0 -5.21,-0.43 -2.69,-0.48 -5.73,-1.35 v -5.25 q 2.26,1.17 4.82,1.74 2.6,0.56 5.51,0.56 4.73,0 7.33,-1.69 2.61,-1.74 2.61,-4.77 0,-3.22 -2.43,-4.87 -2.39,-1.65 -7.08,-1.65 h -3.73 v -4.68 h 4.08 q 4.08,0 6.16,-1.35 2.13,-1.39 2.13,-3.99 0,-2.52 -2.17,-3.82 -2.17,-1.35 -6.29,-1.35 -1.74,0 -3.95,0.39 -2.22,0.4 -5.73,1.39 v -4.99 q 3.17,-0.74 5.94,-1.13 2.78,-0.39 5.17,-0.39 6.25,0 9.9,2.56 3.68,2.56 3.68,6.86 0,3 -1.95,5.08 -1.95,2.08 -5.51,2.86 z"
         fill="#000000"
         fill-rule="nonzero"
         fill-opacity="1"
         id="path25" /><path
         clip-path="url(#clip700)"
         d="m 2957.9,2420.74 h 14.33 v -49.44 l -15.58,3.13 v -7.99 l 15.49,-3.13 h 8.77 v 57.43 h 14.32 v 7.37 h -37.33 z"
         fill="#000000"
         fill-rule="nonzero"
         fill-opacity="1"
         id="path26" /><path
         clip-path="url(#clip700)"
         d="m 3031.69,2369.09 q -6.77,0 -10.2,6.68 -3.39,6.64 -3.39,20.01 0,13.32 3.39,20.01 3.43,6.64 10.2,6.64 6.81,0 10.2,-6.64 3.43,-6.69 3.43,-20.01 0,-13.37 -3.43,-20.01 -3.39,-6.68 -10.2,-6.68 m 0,-6.95 q 10.89,0 16.62,8.64 5.77,8.59 5.77,25 0,16.36 -5.77,25 -5.73,8.59 -16.62,8.59 -10.9,0 -16.67,-8.59 -5.73,-8.64 -5.73,-25 0,-16.41 5.73,-25 5.77,-8.64 16.67,-8.64 z"
         fill="#000000"
         fill-rule="nonzero"
         fill-opacity="1"
         id="path27" /><path
         clip-path="url(#clip700)"
         d="m 3080.69,2368.13 -13.41,18.19 h 13.41 v -18.19 m -0.95,-5.25 h 7.2 v 23.44 h 5.86 v 4.73 h -5.86 v 8.07 h -6.25 v -8.07 h -17.97 v -5.25 z"
         fill="#000000"
         fill-rule="nonzero"
         fill-opacity="1"
         id="path28" /><polyline
         clip-path="url(#clip700)"
         style="fill:none;stroke:#000000;stroke-width:4;stroke-linecap:round;stroke-linejoin:round;stroke-opacity:1"
         points="336.022,2321.51 336.022,47.2441 "
         id="polyline40" /><polyline
         clip-path="url(#clip700)"
         style="fill:none;stroke:#000000;stroke-width:4;stroke-linecap:round;stroke-linejoin:round;stroke-opacity:1"
         points="3152.76,2321.51 3152.76,47.2441 "
         id="polyline41" /><polyline
         clip-path="url(#clip700)"
         style="fill:none;stroke:#000000;stroke-width:4;stroke-linecap:round;stroke-linejoin:round;stroke-opacity:1"
         points="336.022,2321.51 354.919,2321.51 "
         id="polyline42" /><polyline
         clip-path="url(#clip700)"
         style="fill:none;stroke:#000000;stroke-width:4;stroke-linecap:round;stroke-linejoin:round;stroke-opacity:1"
         points="336.022,1866.66 354.919,1866.66 "
         id="polyline43" /><polyline
         clip-path="url(#clip700)"
         style="fill:none;stroke:#000000;stroke-width:4;stroke-linecap:round;stroke-linejoin:round;stroke-opacity:1"
         points="336.022,1411.81 354.919,1411.81 "
         id="polyline44" /><polyline
         clip-path="url(#clip700)"
         style="fill:none;stroke:#000000;stroke-width:4;stroke-linecap:round;stroke-linejoin:round;stroke-opacity:1"
         points="336.022,956.952 354.919,956.952 "
         id="polyline45" /><polyline
         clip-path="url(#clip700)"
         style="fill:none;stroke:#000000;stroke-width:4;stroke-linecap:round;stroke-linejoin:round;stroke-opacity:1"
         points="336.022,502.098 354.919,502.098 "
         id="polyline46" /><polyline
         clip-path="url(#clip700)"
         style="fill:none;stroke:#000000;stroke-width:4;stroke-linecap:round;stroke-linejoin:round;stroke-opacity:1"
         points="336.022,47.2441 354.919,47.2441 "
         id="polyline47" /><polyline
         clip-path="url(#clip700)"
         style="fill:none;stroke:#000000;stroke-width:4;stroke-linecap:round;stroke-linejoin:round;stroke-opacity:1"
         points="3152.76,2321.51 3133.86,2321.51 "
         id="polyline48" /><polyline
         clip-path="url(#clip700)"
         style="fill:none;stroke:#000000;stroke-width:4;stroke-linecap:round;stroke-linejoin:round;stroke-opacity:1"
         points="3152.76,1866.66 3133.86,1866.66 "
         id="polyline49" /><polyline
         clip-path="url(#clip700)"
         style="fill:none;stroke:#000000;stroke-width:4;stroke-linecap:round;stroke-linejoin:round;stroke-opacity:1"
         points="3152.76,1411.81 3133.86,1411.81 "
         id="polyline50" /><polyline
         clip-path="url(#clip700)"
         style="fill:none;stroke:#000000;stroke-width:4;stroke-linecap:round;stroke-linejoin:round;stroke-opacity:1"
         points="3152.76,956.952 3133.86,956.952 "
         id="polyline51" /><polyline
         clip-path="url(#clip700)"
         style="fill:none;stroke:#000000;stroke-width:4;stroke-linecap:round;stroke-linejoin:round;stroke-opacity:1"
         points="3152.76,502.098 3133.86,502.098 "
         id="polyline52" /><polyline
         clip-path="url(#clip700)"
         style="fill:none;stroke:#000000;stroke-width:4;stroke-linecap:round;stroke-linejoin:round;stroke-opacity:1"
         points="3152.76,47.2441 3133.86,47.2441 "
         id="polyline53" /><path
         clip-path="url(#clip700)"
         d="m 180.817,2294.89 q -6.77,0 -10.199,6.68 -3.386,6.64 -3.386,20.01 0,13.32 3.386,20.01 3.429,6.64 10.199,6.64 6.815,0 10.2,-6.64 3.429,-6.69 3.429,-20.01 0,-13.37 -3.429,-20.01 -3.385,-6.68 -10.2,-6.68 m 0,-6.95 q 10.894,0 16.623,8.64 5.773,8.59 5.773,25 0,16.36 -5.773,25 -5.729,8.59 -16.623,8.59 -10.894,0 -16.666,-8.59 -5.729,-8.64 -5.729,-25 0,-16.41 5.729,-25 5.772,-8.64 16.666,-8.64 z"
         fill="#000000"
         fill-rule="nonzero"
         fill-opacity="1"
         id="path53" /><path
         clip-path="url(#clip700)"
         d="m 218.621,2342.89 h 9.158 v 11.02 h -9.158 z"
         fill="#000000"
         fill-rule="nonzero"
         fill-opacity="1"
         id="path54" /><path
         clip-path="url(#clip700)"
         d="m 265.626,2294.89 q -6.771,0 -10.2,6.68 -3.385,6.64 -3.385,20.01 0,13.32 3.385,20.01 3.429,6.64 10.2,6.64 6.814,0 10.199,-6.64 3.429,-6.69 3.429,-20.01 0,-13.37 -3.429,-20.01 -3.385,-6.68 -10.199,-6.68 m 0,-6.95 q 10.894,0 16.623,8.64 5.773,8.59 5.773,25 0,16.36 -5.773,25 -5.729,8.59 -16.623,8.59 -10.894,0 -16.667,-8.59 -5.729,-8.64 -5.729,-25 0,-16.41 5.729,-25 5.773,-8.64 16.667,-8.64 z"
         fill="#000000"
         fill-rule="nonzero"
         fill-opacity="1"
         id="path55" /><path
         clip-path="url(#clip700)"
         d="m 183.812,1840.03 q -6.771,0 -10.199,6.69 -3.386,6.64 -3.386,20.01 0,13.32 3.386,20 3.428,6.64 10.199,6.64 6.814,0 10.2,-6.64 3.428,-6.68 3.428,-20 0,-13.37 -3.428,-20.01 -3.386,-6.69 -10.2,-6.69 m 0,-6.94 q 10.894,0 16.623,8.64 5.773,8.59 5.773,25 0,16.36 -5.773,25 -5.729,8.59 -16.623,8.59 -10.894,0 -16.666,-8.59 -5.73,-8.64 -5.73,-25 0,-16.41 5.73,-25 5.772,-8.64 16.666,-8.64 z"
         fill="#000000"
         fill-rule="nonzero"
         fill-opacity="1"
         id="path56" /><path
         clip-path="url(#clip700)"
         d="m 221.616,1888.04 h 9.158 v 11.02 h -9.158 z"
         fill="#000000"
         fill-rule="nonzero"
         fill-opacity="1"
         id="path57" /><path
         clip-path="url(#clip700)"
         d="m 257.423,1891.68 h 30.599 v 7.38 h -41.146 v -7.38 q 4.991,-5.16 13.585,-13.84 8.637,-8.73 10.851,-11.24 4.21,-4.74 5.859,-7.99 1.693,-3.3 1.693,-6.47 0,-5.16 -3.646,-8.42 -3.603,-3.25 -9.418,-3.25 -4.124,0 -8.724,1.43 -4.558,1.43 -9.766,4.34 v -8.85 q 5.295,-2.13 9.896,-3.22 4.6,-1.08 8.42,-1.08 10.069,0 16.059,5.03 5.989,5.04 5.989,13.46 0,3.99 -1.519,7.59 -1.475,3.56 -5.425,8.42 -1.085,1.26 -6.901,7.3 -5.816,5.99 -16.406,16.79 z"
         fill="#000000"
         fill-rule="nonzero"
         fill-opacity="1"
         id="path58" /><path
         clip-path="url(#clip700)"
         d="m 179.906,1385.18 q -6.771,0 -10.2,6.68 -3.385,6.64 -3.385,20.01 0,13.33 3.385,20.01 3.429,6.64 10.2,6.64 6.814,0 10.199,-6.64 3.429,-6.68 3.429,-20.01 0,-13.37 -3.429,-20.01 -3.385,-6.68 -10.199,-6.68 m 0,-6.95 q 10.894,0 16.623,8.64 5.773,8.6 5.773,25 0,16.36 -5.773,25 -5.729,8.6 -16.623,8.6 -10.894,0 -16.667,-8.6 -5.729,-8.64 -5.729,-25 0,-16.4 5.729,-25 5.773,-8.64 16.667,-8.64 z"
         fill="#000000"
         fill-rule="nonzero"
         fill-opacity="1"
         id="path59" /><path
         clip-path="url(#clip700)"
         d="m 217.709,1433.18 h 9.158 v 11.03 h -9.158 z"
         fill="#000000"
         fill-rule="nonzero"
         fill-opacity="1"
         id="path60" /><path
         clip-path="url(#clip700)"
         d="m 270.053,1387.05 -22.135,34.59 h 22.135 v -34.59 m -2.3,-7.64 h 11.024 v 42.23 h 9.245 v 7.29 h -9.245 v 15.28 h -8.724 v -15.28 H 240.8 v -8.46 z"
         fill="#000000"
         fill-rule="nonzero"
         fill-opacity="1"
         id="path61" /><path
         clip-path="url(#clip700)"
         d="m 180.514,930.325 q -6.771,0 -10.2,6.684 -3.385,6.641 -3.385,20.008 0,13.325 3.385,20.009 3.429,6.641 10.2,6.641 6.814,0 10.199,-6.641 3.429,-6.684 3.429,-20.009 0,-13.367 -3.429,-20.008 -3.385,-6.684 -10.199,-6.684 m 0,-6.944 q 10.894,0 16.623,8.637 5.772,8.593 5.772,24.999 0,16.363 -5.772,25 -5.729,8.594 -16.623,8.594 -10.895,0 -16.667,-8.594 -5.729,-8.637 -5.729,-25 0,-16.406 5.729,-24.999 5.772,-8.637 16.667,-8.637 z"
         fill="#000000"
         fill-rule="nonzero"
         fill-opacity="1"
         id="path62" /><path
         clip-path="url(#clip700)"
         d="m 218.317,978.328 h 9.158 v 11.024 h -9.158 z"
         fill="#000000"
         fill-rule="nonzero"
         fill-opacity="1"
         id="path63" /><path
         clip-path="url(#clip700)"
         d="m 266.407,953.458 q -5.903,0 -9.375,4.037 -3.429,4.036 -3.429,11.068 0,6.987 3.429,11.067 3.472,4.037 9.375,4.037 5.903,0 9.332,-4.037 3.472,-4.08 3.472,-11.067 0,-7.032 -3.472,-11.068 -3.429,-4.037 -9.332,-4.037 m 17.405,-27.473 v 7.986 q -3.299,-1.563 -6.684,-2.387 -3.342,-0.825 -6.641,-0.825 -8.681,0 -13.281,5.859 -4.557,5.86 -5.209,17.709 2.561,-3.776 6.424,-5.773 3.863,-2.04 8.507,-2.04 9.766,0 15.408,5.946 5.686,5.903 5.686,16.103 0,9.982 -5.903,16.015 -5.903,6.033 -15.712,6.033 -11.241,0 -17.187,-8.594 -5.946,-8.637 -5.946,-25 0,-15.364 7.291,-24.479 7.292,-9.157 19.575,-9.157 3.298,0 6.64,0.651 3.386,0.651 7.032,1.953 z"
         fill="#000000"
         fill-rule="nonzero"
         fill-opacity="1"
         id="path64" /><path
         clip-path="url(#clip700)"
         d="m 180.991,475.471 q -6.771,0 -10.2,6.684 -3.385,6.64 -3.385,20.008 0,13.325 3.385,20.009 3.429,6.641 10.2,6.641 6.814,0 10.2,-6.641 3.428,-6.684 3.428,-20.009 0,-13.368 -3.428,-20.008 -3.386,-6.684 -10.2,-6.684 m 0,-6.945 q 10.894,0 16.623,8.637 5.773,8.594 5.773,25 0,16.363 -5.773,25 -5.729,8.594 -16.623,8.594 -10.894,0 -16.667,-8.594 -5.729,-8.637 -5.729,-25 0,-16.406 5.729,-25 5.773,-8.637 16.667,-8.637 z"
         fill="#000000"
         fill-rule="nonzero"
         fill-opacity="1"
         id="path65" /><path
         clip-path="url(#clip700)"
         d="m 218.795,523.474 h 9.157 v 11.024 h -9.157 z"
         fill="#000000"
         fill-rule="nonzero"
         fill-opacity="1"
         id="path66" /><path
         clip-path="url(#clip700)"
         d="m 265.8,503.726 q -6.25,0 -9.853,3.342 -3.559,3.342 -3.559,9.201 0,5.86 3.559,9.202 3.603,3.342 9.853,3.342 6.249,0 9.852,-3.342 3.602,-3.386 3.602,-9.202 0,-5.859 -3.602,-9.201 -3.559,-3.342 -9.852,-3.342 m -8.768,-3.733 q -5.642,-1.389 -8.811,-5.251 -3.125,-3.863 -3.125,-9.419 0,-7.769 5.513,-12.283 5.555,-4.514 15.191,-4.514 9.678,0 15.19,4.514 5.513,4.514 5.513,12.283 0,5.556 -3.169,9.419 -3.125,3.862 -8.724,5.251 6.337,1.476 9.853,5.773 3.559,4.297 3.559,10.503 0,9.419 -5.773,14.453 -5.729,5.035 -16.449,5.035 -10.721,0 -16.493,-5.035 -5.73,-5.034 -5.73,-14.453 0,-6.206 3.559,-10.503 3.559,-4.297 9.896,-5.773 m -3.212,-13.845 q 0,5.035 3.125,7.856 3.169,2.821 8.855,2.821 5.642,0 8.81,-2.821 3.212,-2.821 3.212,-7.856 0,-5.035 -3.212,-7.856 -3.168,-2.821 -8.81,-2.821 -5.686,0 -8.855,2.821 -3.125,2.821 -3.125,7.856 z"
         fill="#000000"
         fill-rule="nonzero"
         fill-opacity="1"
         id="path67" /><path
         clip-path="url(#clip700)"
         d="m 163.587,72.2657 h 14.322 V 22.8302 l -15.581,3.1249 v -7.986 l 15.495,-3.125 h 8.767 v 57.4216 h 14.323 v 7.3784 h -37.326 z"
         fill="#000000"
         fill-rule="nonzero"
         fill-opacity="1"
         id="path68" /><path
         clip-path="url(#clip700)"
         d="m 218.621,68.6198 h 9.158 v 11.0243 h -9.158 z"
         fill="#000000"
         fill-rule="nonzero"
         fill-opacity="1"
         id="path69" /><path
         clip-path="url(#clip700)"
         d="m 265.626,20.6166 q -6.771,0 -10.2,6.684 -3.385,6.6406 -3.385,20.0086 0,13.3246 3.385,20.0086 3.429,6.6406 10.2,6.6406 6.814,0 10.199,-6.6406 3.429,-6.684 3.429,-20.0086 0,-13.368 -3.429,-20.0086 -3.385,-6.684 -10.199,-6.684 m 0,-6.9444 q 10.894,0 16.623,8.6371 5.773,8.5937 5.773,24.9999 0,16.3628 -5.773,24.9999 -5.729,8.5937 -16.623,8.5937 -10.894,0 -16.667,-8.5937 -5.729,-8.6371 -5.729,-24.9999 0,-16.4062 5.729,-24.9999 5.773,-8.6371 16.667,-8.6371 z"
         fill="#000000"
         fill-rule="nonzero"
         fill-opacity="1"
         id="path70" /><path
         clip-path="url(#clip700)"
         d="m 8.42216,1515.5 v -15.68 L 61.3385,1479.98 8.42216,1460.03 v -15.68 H 86.1822 v 10.26 H 17.9013 l 53.333,20.05 v 10.58 l -53.333,20.05 h 68.2809 v 10.21 z"
         fill="#000000"
         fill-rule="nonzero"
         fill-opacity="1"
         id="path71" /><path
         clip-path="url(#clip700)"
         d="m 54.6198,1373.99 h 4.6875 v 44.06 q 9.8958,-0.62 15.1041,-5.94 5.1562,-5.36 5.1562,-14.89 0,-5.52 -1.3541,-10.68 -1.3542,-5.21 -4.0625,-10.31 h 9.0624 q 2.1875,5.15 3.3333,10.57 1.1459,5.42 1.1459,10.99 0,13.96 -8.125,22.14 -8.1249,8.12 -21.979,8.12 -14.3229,0 -22.7083,-7.71 -8.4374,-7.76 -8.4374,-20.88 0,-11.77 7.6041,-18.6 7.5521,-6.87 20.5728,-6.87 m -2.8125,9.58 q -7.8645,0.11 -12.552,4.43 -4.6874,4.27 -4.6874,11.35 0,8.02 4.5312,12.87 4.5312,4.79 12.7603,5.52 z"
         fill="#000000"
         fill-rule="nonzero"
         fill-opacity="1"
         id="path72" /><path
         clip-path="url(#clip700)"
         d="m 56.8594,1331.75 q 0,11.61 2.6562,16.09 2.6563,4.48 9.0625,4.48 5.1041,0 8.1249,-3.33 2.9688,-3.39 2.9688,-9.17 0,-7.97 -5.625,-12.76 -5.677,-4.84 -15.052,-4.84 h -2.1354 v 9.53 m -3.9583,-19.12 h 33.2811 v 9.59 H 77.328 q 5.3125,3.28 7.8646,8.17 2.5,4.9 2.5,11.98 0,8.96 -5,14.27 -5.0521,5.26 -13.4895,5.26 -9.8437,0 -14.8437,-6.56 -5,-6.61 -5,-19.69 v -13.43 h -0.9375 q -6.6145,0 -10.2082,4.37 -3.6458,4.33 -3.6458,12.19 0,5 1.1979,9.74 1.1979,4.74 3.5937,9.11 h -8.8541 q -2.0313,-5.26 -3.0208,-10.2 -1.0417,-4.95 -1.0417,-9.64 0,-12.66 6.5625,-18.91 6.5624,-6.25 19.8957,-6.25 z"
         fill="#000000"
         fill-rule="nonzero"
         fill-opacity="1"
         id="path73" /><path
         clip-path="url(#clip700)"
         d="m 50.974,1244.41 h 35.2082 v 9.58 H 51.2865 q -8.2812,0 -12.3958,3.23 -4.1145,3.23 -4.1145,9.69 0,7.76 4.9479,12.23 4.9479,4.48 13.4895,4.48 h 32.9686 v 9.64 H 27.8491 v -9.64 h 9.0625 q -5.2604,-3.43 -7.8646,-8.07 -2.6041,-4.69 -2.6041,-10.78 0,-10.05 6.25,-15.21 6.1978,-5.15 18.2811,-5.15 z"
         fill="#000000"
         fill-rule="nonzero"
         fill-opacity="1"
         id="path74" /><path
         clip-path="url(#clip700)"
         d="m 5.14093,1161.85 h 7.96867 v 9.17 q 0,5.16 2.0834,7.19 2.0833,1.98 7.4999,1.98 h 5.1562 v -15.78 h 7.4479 v 15.78 h 50.8852 v 9.63 H 35.297 v 9.17 h -7.4479 v -9.17 h -4.0624 q -9.7396,0 -14.16663,-4.53 -4.47914,-4.53 -4.47914,-14.37 z"
         fill="#000000"
         fill-rule="nonzero"
         fill-opacity="1"
         id="path75" /><path
         clip-path="url(#clip700)"
         d="m 27.8491,1153.83 v -9.58 h 58.3331 v 9.58 H 27.8491 m -22.70817,0 v -9.58 H 17.2763 v 9.58 z"
         fill="#000000"
         fill-rule="nonzero"
         fill-opacity="1"
         id="path76" /><path
         clip-path="url(#clip700)"
         d="m 11.2867,1114.72 h 16.5624 v -19.74 h 7.4479 v 19.74 h 31.6665 q 7.1354,0 9.1666,-1.93 2.0313,-1.98 2.0313,-7.97 v -9.84 h 8.0208 v 9.84 q 0,11.1 -4.1146,15.32 -4.1666,4.21 -15.1041,4.21 H 35.297 v 7.03 h -7.4479 v -7.03 H 11.2867 Z"
         fill="#000000"
         fill-rule="nonzero"
         fill-opacity="1"
         id="path77" /><path
         clip-path="url(#clip700)"
         d="m 50.974,1033.89 h 35.2082 v 9.58 H 51.2865 q -8.2812,0 -12.3958,3.23 -4.1145,3.23 -4.1145,9.69 0,7.76 4.9479,12.23 4.9479,4.48 13.4895,4.48 h 32.9686 v 9.64 H 27.8491 v -9.64 h 9.0625 q -5.2604,-3.43 -7.8646,-8.07 -2.6041,-4.69 -2.6041,-10.78 0,-10.05 6.25,-15.21 6.1978,-5.15 18.2811,-5.15 z"
         fill="#000000"
         fill-rule="nonzero"
         fill-opacity="1"
         id="path78" /><path
         clip-path="url(#clip700)"
         d="m 54.6198,964.875 h 4.6875 v 44.065 q 9.8958,-0.63 15.1041,-5.94 5.1562,-5.364 5.1562,-14.896 0,-5.52 -1.3541,-10.677 -1.3542,-5.208 -4.0625,-10.312 h 9.0624 q 2.1875,5.156 3.3333,10.573 1.1459,5.417 1.1459,10.989 0,13.963 -8.125,22.133 -8.1249,8.13 -21.979,8.13 -14.3229,0 -22.7083,-7.71 -8.4374,-7.76 -8.4374,-20.886 0,-11.771 7.6041,-18.594 7.5521,-6.875 20.5728,-6.875 m -2.8125,9.584 q -7.8645,0.104 -12.552,4.427 -4.6874,4.271 -4.6874,11.354 0,8.021 4.5312,12.86 4.5312,4.8 12.7603,5.53 z"
         fill="#000000"
         fill-rule="nonzero"
         fill-opacity="1"
         id="path79" /><path
         clip-path="url(#clip700)"
         d="m 29.5679,911.959 h 9.0624 q -2.0833,4.063 -3.125,8.438 -1.0416,4.374 -1.0416,9.062 0,7.135 2.1875,10.729 2.1875,3.542 6.5624,3.542 3.3334,0 5.2604,-2.552 1.875,-2.552 3.5938,-10.261 l 0.7291,-3.281 q 2.1875,-10.208 6.1979,-14.479 3.9583,-4.323 11.0937,-4.323 8.125,0 12.8645,6.458 4.7396,6.407 4.7396,17.657 0,4.687 -0.9375,9.791 -0.8854,5.052 -2.7083,10.677 H 74.151 q 2.7604,-5.312 4.1666,-10.469 1.3542,-5.156 1.3542,-10.208 0,-6.771 -2.2917,-10.416 -2.3437,-3.646 -6.5624,-3.646 -3.9063,0 -5.9896,2.656 -2.0833,2.604 -4.0104,11.51 l -0.7812,3.334 q -1.875,8.906 -5.7292,12.864 -3.9062,3.958 -10.677,3.958 -8.2291,0 -12.7083,-5.833 -4.4791,-5.833 -4.4791,-16.562 0,-5.313 0.7812,-10 0.7813,-4.688 2.3438,-8.646 z"
         fill="#000000"
         fill-rule="nonzero"
         fill-opacity="1"
         id="path80" /><path
         clip-path="url(#clip700)"
         d="m 29.5679,856.386 h 9.0624 q -2.0833,4.063 -3.125,8.438 -1.0416,4.375 -1.0416,9.062 0,7.136 2.1875,10.729 2.1875,3.542 6.5624,3.542 3.3334,0 5.2604,-2.552 1.875,-2.552 3.5938,-10.26 l 0.7291,-3.282 q 2.1875,-10.208 6.1979,-14.479 3.9583,-4.323 11.0937,-4.323 8.125,0 12.8645,6.459 4.7396,6.406 4.7396,17.656 0,4.687 -0.9375,9.792 -0.8854,5.052 -2.7083,10.677 H 74.151 q 2.7604,-5.313 4.1666,-10.469 1.3542,-5.156 1.3542,-10.208 0,-6.771 -2.2917,-10.417 -2.3437,-3.646 -6.5624,-3.646 -3.9063,0 -5.9896,2.656 -2.0833,2.605 -4.0104,11.511 l -0.7812,3.333 q -1.875,8.906 -5.7292,12.865 -3.9062,3.958 -10.677,3.958 -8.2291,0 -12.7083,-5.833 -4.4791,-5.834 -4.4791,-16.563 0,-5.312 0.7812,-10 0.7813,-4.687 2.3438,-8.646 z"
         fill="#000000"
         fill-rule="nonzero"
         fill-opacity="1"
         id="path81" /><polyline
         clip-path="url(#clip702)"
         style="fill:none;stroke:#1b9e77;stroke-width:20;stroke-linecap:round;stroke-linejoin:round;stroke-opacity:1"
         points="464.055,1270.29 528.072,875.124 592.088,703.241 656.105,591.068 720.122,588.382 784.138,566.893 848.155,555.334 912.172,549.329 976.188,509.879 1040.21,545.562 1104.22,548.895 1168.24,541.99 1232.26,536.605 1296.27,535.717 1360.29,536.878 1424.31,539.521 1488.32,543.45 1552.34,548.187 1616.36,553.527 1680.37,558.736 1744.39,563.37 1808.41,566.815 1872.42,539.225 1936.44,570.98 2000.46,545.399 2064.47,552.346 2128.49,590.648 2192.51,583.59 2256.52,629.344 2320.54,654.924 2384.56,682.896 2448.57,711.865 2512.59,725.104 2576.61,769.82 2640.62,797.583 2704.64,824.479 2768.66,850.06 2832.67,874.09 2896.69,896.732 2960.71,918.225 3024.72,938.445 "
         id="polyline81" /><polyline
         clip-path="url(#clip702)"
         style="fill:none;stroke:#d95f02;stroke-width:20;stroke-linecap:round;stroke-linejoin:round;stroke-opacity:1"
         points="464.055,919.854 528.072,637.644 592.088,546.891 656.105,488.304 720.122,514.336 784.138,507.345 848.155,502.533 912.172,498.362 976.188,457.465 1040.21,494.094 1104.22,493.968 1168.24,494.983 1232.26,496.845 1296.27,499.709 1360.29,503.17 1424.31,507.458 1488.32,512.433 1552.34,517.592 1616.36,522.502 1680.37,526.407 1744.39,529.244 1808.41,529.041 1872.42,494.015 1936.44,522.911 2000.46,486.593 2064.47,489.761 2128.49,527.44 2192.51,511.663 2256.52,559.63 2320.54,584.48 2384.56,613.956 2448.57,647.667 2512.59,681.34 2576.61,768.037 2640.62,834.867 2704.64,895.384 2768.66,948.606 2832.67,994.791 2896.69,1033.76 2960.71,1066.68 3024.72,1094.18 "
         id="polyline82" /><polyline
         clip-path="url(#clip702)"
         style="fill:none;stroke:#7570b3;stroke-width:20;stroke-linecap:round;stroke-linejoin:round;stroke-opacity:1"
         points="464.055,899.597 528.072,663.806 592.088,569.834 656.105,495.706 720.122,518.197 784.138,508.677 848.155,502.103 912.172,497.512 976.188,457.498 1040.21,494.737 1104.22,495.438 1168.24,496.651 1232.26,498.269 1296.27,499.978 1360.29,501.747 1424.31,503.286 1488.32,504.473 1552.34,505.14 1616.36,504.758 1680.37,502.902 1744.39,498.945 1808.41,492.377 1872.42,447.359 1936.44,471.839 2000.46,424.889 2064.47,416.022 2128.49,447.212 2192.51,413.502 2256.52,454.621 2320.54,465.75 2384.56,481.196 2448.57,500.902 2512.59,501.364 2576.61,552.487 2640.62,578.96 2704.64,608.61 2768.66,641.36 2832.67,676.448 2896.69,712.458 2960.71,748.176 3024.72,782.711 "
         id="polyline83" /></g><g
       id="g4"
       transform="matrix(0.20325206,0,0,0.20325206,48.619844,578.60699)"><path
         clip-path="url(#clip320)"
         d="M 0,2600 H 3200 V 0 H 0 Z"
         fill="#ffffff"
         fill-rule="evenodd"
         fill-opacity="1"
         id="path1-9" /><path
         clip-path="url(#clip320)"
         d="M 336.022,2321.51 H 3152.76 V 47.2441 H 336.022 Z"
         fill="#ffffff"
         fill-rule="evenodd"
         fill-opacity="1"
         id="path2-5" /><polyline
         clip-path="url(#clip320)"
         style="fill:none;stroke:#000000;stroke-width:4;stroke-linecap:round;stroke-linejoin:round;stroke-opacity:1"
         points="336.022,2321.51 3152.76,2321.51 "
         id="polyline3-2" /><polyline
         clip-path="url(#clip320)"
         style="fill:none;stroke:#000000;stroke-width:4;stroke-linecap:round;stroke-linejoin:round;stroke-opacity:1"
         points="336.022,47.2441 3152.76,47.2441 "
         id="polyline4-5" /><polyline
         clip-path="url(#clip320)"
         style="fill:none;stroke:#000000;stroke-width:4;stroke-linecap:round;stroke-linejoin:round;stroke-opacity:1"
         points="464.055,2321.51 464.055,2302.62 "
         id="polyline5-1" /><polyline
         clip-path="url(#clip320)"
         style="fill:none;stroke:#000000;stroke-width:4;stroke-linecap:round;stroke-linejoin:round;stroke-opacity:1"
         points="1104.22,2321.51 1104.22,2302.62 "
         id="polyline6-3" /><polyline
         clip-path="url(#clip320)"
         style="fill:none;stroke:#000000;stroke-width:4;stroke-linecap:round;stroke-linejoin:round;stroke-opacity:1"
         points="1744.39,2321.51 1744.39,2302.62 "
         id="polyline7-9" /><polyline
         clip-path="url(#clip320)"
         style="fill:none;stroke:#000000;stroke-width:4;stroke-linecap:round;stroke-linejoin:round;stroke-opacity:1"
         points="2384.56,2321.51 2384.56,2302.62 "
         id="polyline8-7" /><polyline
         clip-path="url(#clip320)"
         style="fill:none;stroke:#000000;stroke-width:4;stroke-linecap:round;stroke-linejoin:round;stroke-opacity:1"
         points="3024.72,2321.51 3024.72,2302.62 "
         id="polyline9-3" /><polyline
         clip-path="url(#clip320)"
         style="fill:none;stroke:#000000;stroke-width:4;stroke-linecap:round;stroke-linejoin:round;stroke-opacity:1"
         points="464.055,47.2441 464.055,66.1417 "
         id="polyline10-7" /><polyline
         clip-path="url(#clip320)"
         style="fill:none;stroke:#000000;stroke-width:4;stroke-linecap:round;stroke-linejoin:round;stroke-opacity:1"
         points="1104.22,47.2441 1104.22,66.1417 "
         id="polyline11-5" /><polyline
         clip-path="url(#clip320)"
         style="fill:none;stroke:#000000;stroke-width:4;stroke-linecap:round;stroke-linejoin:round;stroke-opacity:1"
         points="1744.39,47.2441 1744.39,66.1417 "
         id="polyline12-0" /><polyline
         clip-path="url(#clip320)"
         style="fill:none;stroke:#000000;stroke-width:4;stroke-linecap:round;stroke-linejoin:round;stroke-opacity:1"
         points="2384.56,47.2441 2384.56,66.1417 "
         id="polyline13-2" /><polyline
         clip-path="url(#clip320)"
         style="fill:none;stroke:#000000;stroke-width:4;stroke-linecap:round;stroke-linejoin:round;stroke-opacity:1"
         points="3024.72,47.2441 3024.72,66.1417 "
         id="polyline14-1" /><path
         clip-path="url(#clip320)"
         d="m 397.367,2420.74 h 14.323 v -49.44 l -15.582,3.13 v -7.99 l 15.495,-3.13 h 8.767 v 57.43 h 14.323 v 7.37 h -37.326 z"
         fill="#000000"
         fill-rule="nonzero"
         fill-opacity="1"
         id="path14-8" /><path
         clip-path="url(#clip320)"
         d="m 471.151,2369.09 q -6.77,0 -10.199,6.68 -3.386,6.64 -3.386,20.01 0,13.32 3.386,20.01 3.429,6.64 10.199,6.64 6.815,0 10.2,-6.64 3.429,-6.69 3.429,-20.01 0,-13.37 -3.429,-20.01 -3.385,-6.68 -10.2,-6.68 m 0,-6.95 q 10.894,0 16.623,8.64 5.773,8.59 5.773,25 0,16.36 -5.773,25 -5.729,8.59 -16.623,8.59 -10.894,0 -16.666,-8.59 -5.729,-8.64 -5.729,-25 0,-16.41 5.729,-25 5.772,-8.64 16.666,-8.64 z"
         fill="#000000"
         fill-rule="nonzero"
         fill-opacity="1"
         id="path15-7" /><path
         clip-path="url(#clip320)"
         d="m 524.189,2369.74 q -2.17,-3.73 -6.554,-3.73 -4.383,0 -6.553,3.73 -2.214,3.73 -2.214,11.2 0,7.5 2.214,11.24 2.17,3.73 6.553,3.73 4.384,0 6.554,-3.73 2.214,-3.74 2.214,-11.24 0,-7.47 -2.214,-11.2 m -6.554,-7.6 q 6.988,0 10.677,4.82 3.69,4.82 3.69,13.98 0,9.2 -3.69,14.02 -3.689,4.81 -10.677,4.81 -7.031,0 -10.72,-4.81 -3.689,-4.82 -3.689,-14.02 0,-9.16 3.689,-13.98 3.689,-4.82 10.72,-4.82 z"
         fill="#000000"
         fill-rule="nonzero"
         fill-opacity="1"
         id="path16-1" /><path
         clip-path="url(#clip320)"
         d="m 1038.42,2420.74 h 14.33 v -49.44 l -15.59,3.13 v -7.99 l 15.5,-3.13 h 8.77 v 57.43 h 14.32 v 7.37 h -37.33 z"
         fill="#000000"
         fill-rule="nonzero"
         fill-opacity="1"
         id="path17-5" /><path
         clip-path="url(#clip320)"
         d="m 1112.21,2369.09 q -6.77,0 -10.2,6.68 -3.39,6.64 -3.39,20.01 0,13.32 3.39,20.01 3.43,6.64 10.2,6.64 6.81,0 10.2,-6.64 3.43,-6.69 3.43,-20.01 0,-13.37 -3.43,-20.01 -3.39,-6.68 -10.2,-6.68 m 0,-6.95 q 10.89,0 16.62,8.64 5.77,8.59 5.77,25 0,16.36 -5.77,25 -5.73,8.59 -16.62,8.59 -10.9,0 -16.67,-8.59 -5.73,-8.64 -5.73,-25 0,-16.41 5.73,-25 5.77,-8.64 16.67,-8.64 z"
         fill="#000000"
         fill-rule="nonzero"
         fill-opacity="1"
         id="path18-5" /><path
         clip-path="url(#clip320)"
         d="m 1147.28,2394.35 h 8.85 v -26.52 l -9.68,1.78 v -5.04 l 9.99,-1.69 h 5.94 v 31.47 h 8.9 v 4.77 h -24 z"
         fill="#000000"
         fill-rule="nonzero"
         fill-opacity="1"
         id="path19-8" /><path
         clip-path="url(#clip320)"
         d="m 1678.96,2420.74 h 14.32 v -49.44 l -15.58,3.13 v -7.99 l 15.5,-3.13 h 8.76 v 57.43 h 14.33 v 7.37 h -37.33 z"
         fill="#000000"
         fill-rule="nonzero"
         fill-opacity="1"
         id="path20-5" /><path
         clip-path="url(#clip320)"
         d="m 1752.74,2369.09 q -6.77,0 -10.2,6.68 -3.38,6.64 -3.38,20.01 0,13.32 3.38,20.01 3.43,6.64 10.2,6.64 6.82,0 10.2,-6.64 3.43,-6.69 3.43,-20.01 0,-13.37 -3.43,-20.01 -3.38,-6.68 -10.2,-6.68 m 0,-6.95 q 10.9,0 16.63,8.64 5.77,8.59 5.77,25 0,16.36 -5.77,25 -5.73,8.59 -16.63,8.59 -10.89,0 -16.66,-8.59 -5.73,-8.64 -5.73,-25 0,-16.41 5.73,-25 5.77,-8.64 16.66,-8.64 z"
         fill="#000000"
         fill-rule="nonzero"
         fill-opacity="1"
         id="path21-6" /><path
         clip-path="url(#clip320)"
         d="m 1792.67,2394.17 h 18.41 v 4.95 h -25.96 v -4.77 q 1.48,-1.35 4.21,-3.78 14.93,-13.24 14.93,-17.32 0,-2.86 -2.25,-4.6 -2.26,-1.78 -5.95,-1.78 -2.26,0 -4.9,0.79 -2.65,0.73 -5.78,2.25 v -5.34 q 3.34,-1.21 6.21,-1.82 2.91,-0.61 5.38,-0.61 6.29,0 10.07,2.87 3.78,2.86 3.78,7.55 0,6.03 -14.37,18.36 -2.43,2.08 -3.78,3.25 z"
         fill="#000000"
         fill-rule="nonzero"
         fill-opacity="1"
         id="path22-7" /><path
         clip-path="url(#clip320)"
         d="m 2318.58,2420.74 h 14.33 v -49.44 l -15.58,3.13 v -7.99 l 15.49,-3.13 h 8.77 v 57.43 h 14.32 v 7.37 h -37.33 z"
         fill="#000000"
         fill-rule="nonzero"
         fill-opacity="1"
         id="path23-9" /><path
         clip-path="url(#clip320)"
         d="m 2392.37,2369.09 q -6.77,0 -10.2,6.68 -3.39,6.64 -3.39,20.01 0,13.32 3.39,20.01 3.43,6.64 10.2,6.64 6.81,0 10.2,-6.64 3.43,-6.69 3.43,-20.01 0,-13.37 -3.43,-20.01 -3.39,-6.68 -10.2,-6.68 m 0,-6.95 q 10.89,0 16.62,8.64 5.77,8.59 5.77,25 0,16.36 -5.77,25 -5.73,8.59 -16.62,8.59 -10.9,0 -16.67,-8.59 -5.73,-8.64 -5.73,-25 0,-16.41 5.73,-25 5.77,-8.64 16.67,-8.64 z"
         fill="#000000"
         fill-rule="nonzero"
         fill-opacity="1"
         id="path24-4" /><path
         clip-path="url(#clip320)"
         d="m 2443.41,2379.5 q 3.99,0.79 6.16,3.17 2.22,2.35 2.22,5.91 0,5.38 -4.13,8.29 -4.12,2.9 -11.8,2.9 -2.48,0 -5.21,-0.43 -2.69,-0.48 -5.73,-1.35 v -5.25 q 2.26,1.17 4.82,1.74 2.6,0.56 5.51,0.56 4.73,0 7.33,-1.69 2.61,-1.74 2.61,-4.77 0,-3.22 -2.43,-4.87 -2.39,-1.65 -7.08,-1.65 h -3.73 v -4.68 h 4.08 q 4.08,0 6.16,-1.35 2.13,-1.39 2.13,-3.99 0,-2.52 -2.17,-3.82 -2.17,-1.35 -6.29,-1.35 -1.74,0 -3.95,0.39 -2.22,0.4 -5.73,1.39 v -4.99 q 3.17,-0.74 5.94,-1.13 2.78,-0.39 5.17,-0.39 6.25,0 9.9,2.56 3.68,2.56 3.68,6.86 0,3 -1.95,5.08 -1.95,2.08 -5.51,2.86 z"
         fill="#000000"
         fill-rule="nonzero"
         fill-opacity="1"
         id="path25-1" /><path
         clip-path="url(#clip320)"
         d="m 2957.9,2420.74 h 14.33 v -49.44 l -15.58,3.13 v -7.99 l 15.49,-3.13 h 8.77 v 57.43 h 14.32 v 7.37 h -37.33 z"
         fill="#000000"
         fill-rule="nonzero"
         fill-opacity="1"
         id="path26-6" /><path
         clip-path="url(#clip320)"
         d="m 3031.69,2369.09 q -6.77,0 -10.2,6.68 -3.39,6.64 -3.39,20.01 0,13.32 3.39,20.01 3.43,6.64 10.2,6.64 6.81,0 10.2,-6.64 3.43,-6.69 3.43,-20.01 0,-13.37 -3.43,-20.01 -3.39,-6.68 -10.2,-6.68 m 0,-6.95 q 10.89,0 16.62,8.64 5.77,8.59 5.77,25 0,16.36 -5.77,25 -5.73,8.59 -16.62,8.59 -10.9,0 -16.67,-8.59 -5.73,-8.64 -5.73,-25 0,-16.41 5.73,-25 5.77,-8.64 16.67,-8.64 z"
         fill="#000000"
         fill-rule="nonzero"
         fill-opacity="1"
         id="path27-1" /><path
         clip-path="url(#clip320)"
         d="m 3080.69,2368.13 -13.41,18.19 h 13.41 v -18.19 m -0.95,-5.25 h 7.2 v 23.44 h 5.86 v 4.73 h -5.86 v 8.07 h -6.25 v -8.07 h -17.97 v -5.25 z"
         fill="#000000"
         fill-rule="nonzero"
         fill-opacity="1"
         id="path28-2" /><path
         clip-path="url(#clip320)"
         d="m 1349.63,2522.89 v 28.49 h 16.87 q 8.49,0 12.55,-3.49 4.12,-3.54 4.12,-10.78 0,-7.29 -4.12,-10.73 -4.06,-3.49 -12.55,-3.49 h -16.87 m 0,-31.98 v 23.44 h 15.57 q 7.71,0 11.46,-2.86 3.8,-2.92 3.8,-8.86 0,-5.88 -3.8,-8.8 -3.75,-2.92 -11.46,-2.92 h -15.57 m -10.53,-8.64 h 26.88 q 12.03,0 18.54,5 6.51,5 6.51,14.22 0,7.13 -3.33,11.35 -3.34,4.22 -9.79,5.26 7.76,1.67 12.03,6.98 4.32,5.26 4.32,13.18 0,10.41 -7.08,16.09 -7.09,5.68 -20.16,5.68 h -27.92 z"
         fill="#000000"
         fill-rule="nonzero"
         fill-opacity="1"
         id="path29" /><path
         clip-path="url(#clip320)"
         d="m 1434.47,2508.41 q -7.71,0 -12.19,6.04 -4.48,5.99 -4.48,16.46 0,10.47 4.43,16.51 4.48,5.99 12.24,5.99 7.65,0 12.13,-6.04 4.48,-6.04 4.48,-16.46 0,-10.36 -4.48,-16.4 -4.48,-6.1 -12.13,-6.1 m 0,-8.12 q 12.5,0 19.63,8.12 7.14,8.13 7.14,22.5 0,14.33 -7.14,22.5 -7.13,8.13 -19.63,8.13 -12.55,0 -19.69,-8.13 -7.08,-8.17 -7.08,-22.5 0,-14.37 7.08,-22.5 7.14,-8.12 19.69,-8.12 z"
         fill="#000000"
         fill-rule="nonzero"
         fill-opacity="1"
         id="path30" /><path
         clip-path="url(#clip320)"
         d="m 1515.51,2510.55 v -31.56 h 9.58 v 81.04 h -9.58 v -8.75 q -3.02,5.21 -7.66,7.76 -4.58,2.5 -11.04,2.5 -10.57,0 -17.24,-8.44 -6.61,-8.44 -6.61,-22.19 0,-13.75 6.61,-22.18 6.67,-8.44 17.24,-8.44 6.46,0 11.04,2.55 4.64,2.5 7.66,7.71 m -32.66,20.36 q 0,10.58 4.33,16.62 4.37,5.99 11.98,5.99 7.6,0 11.97,-5.99 4.38,-6.04 4.38,-16.62 0,-10.57 -4.38,-16.56 -4.37,-6.04 -11.97,-6.04 -7.61,0 -11.98,6.04 -4.33,5.99 -4.33,16.56 z"
         fill="#000000"
         fill-rule="nonzero"
         fill-opacity="1"
         id="path31" /><path
         clip-path="url(#clip320)"
         d="m 1569.1,2565.44 q -4.06,10.42 -7.91,13.6 -3.86,3.17 -10.32,3.17 h -7.65 v -8.02 h 5.62 q 3.96,0 6.15,-1.87 2.19,-1.88 4.84,-8.86 l 1.72,-4.37 -23.59,-57.4 h 10.15 l 18.23,45.63 18.23,-45.63 h 10.16 z"
         fill="#000000"
         fill-rule="nonzero"
         fill-opacity="1"
         id="path32" /><path
         clip-path="url(#clip320)"
         d="m 1687.28,2512.89 q 3.59,-6.46 8.59,-9.53 5,-3.07 11.77,-3.07 9.12,0 14.07,6.4 4.94,6.36 4.94,18.13 v 35.21 h -9.63 v -34.9 q 0,-8.38 -2.97,-12.45 -2.97,-4.06 -9.06,-4.06 -7.45,0 -11.77,4.95 -4.33,4.95 -4.33,13.49 v 32.97 h -9.63 v -34.9 q 0,-8.44 -2.97,-12.45 -2.97,-4.06 -9.17,-4.06 -7.34,0 -11.66,5 -4.33,4.95 -4.33,13.44 v 32.97 h -9.63 v -58.34 h 9.63 v 9.07 q 3.29,-5.37 7.87,-7.92 4.58,-2.55 10.88,-2.55 6.36,0 10.79,3.23 4.47,3.23 6.61,9.37 z"
         fill="#000000"
         fill-rule="nonzero"
         fill-opacity="1"
         id="path33" /><path
         clip-path="url(#clip320)"
         d="m 1772.28,2530.7 q -11.62,0 -16.09,2.66 -4.48,2.66 -4.48,9.06 0,5.11 3.33,8.13 3.39,2.97 9.17,2.97 7.97,0 12.76,-5.63 4.84,-5.68 4.84,-15.05 v -2.14 h -9.53 m 19.11,-3.95 v 33.28 h -9.58 v -8.86 q -3.28,5.32 -8.18,7.87 -4.89,2.5 -11.98,2.5 -8.95,0 -14.27,-5 -5.26,-5.05 -5.26,-13.49 0,-9.85 6.57,-14.85 6.61,-5 19.68,-5 h 13.44 v -0.93 q 0,-6.62 -4.37,-10.21 -4.33,-3.65 -12.19,-3.65 -5,0 -9.74,1.2 -4.74,1.2 -9.12,3.59 v -8.85 q 5.26,-2.03 10.21,-3.02 4.95,-1.04 9.64,-1.04 12.65,0 18.9,6.56 6.25,6.56 6.25,19.9 z"
         fill="#000000"
         fill-rule="nonzero"
         fill-opacity="1"
         id="path34" /><path
         clip-path="url(#clip320)"
         d="m 1848.32,2503.41 v 9.07 q -4.06,-2.09 -8.44,-3.13 -4.37,-1.04 -9.06,-1.04 -7.13,0 -10.73,2.19 -3.54,2.18 -3.54,6.56 0,3.33 2.55,5.26 2.55,1.87 10.26,3.59 l 3.28,0.73 q 10.21,2.19 14.48,6.2 4.33,3.96 4.33,11.09 0,8.13 -6.46,12.87 -6.41,4.74 -17.66,4.74 -4.69,0 -9.79,-0.94 -5.05,-0.89 -10.68,-2.71 V 2548 q 5.31,2.76 10.47,4.16 5.16,1.36 10.21,1.36 6.77,0 10.42,-2.3 3.64,-2.34 3.64,-6.56 0,-3.9 -2.65,-5.99 -2.61,-2.08 -11.51,-4.01 l -3.34,-0.78 q -8.9,-1.87 -12.86,-5.73 -3.96,-3.9 -3.96,-10.68 0,-8.22 5.83,-12.7 5.84,-4.48 16.56,-4.48 5.32,0 10,0.78 4.69,0.78 8.65,2.34 z"
         fill="#000000"
         fill-rule="nonzero"
         fill-opacity="1"
         id="path35" /><path
         clip-path="url(#clip320)"
         d="m 1903.89,2503.41 v 9.07 q -4.06,-2.09 -8.43,-3.13 -4.38,-1.04 -9.07,-1.04 -7.13,0 -10.73,2.19 -3.54,2.18 -3.54,6.56 0,3.33 2.55,5.26 2.56,1.87 10.26,3.59 l 3.29,0.73 q 10.2,2.19 14.48,6.2 4.32,3.96 4.32,11.09 0,8.13 -6.46,12.87 -6.41,4.74 -17.66,4.74 -4.68,0 -9.79,-0.94 -5.05,-0.89 -10.67,-2.71 V 2548 q 5.31,2.76 10.46,4.16 5.16,1.36 10.21,1.36 6.77,0 10.42,-2.3 3.64,-2.34 3.64,-6.56 0,-3.9 -2.65,-5.99 -2.61,-2.08 -11.51,-4.01 l -3.34,-0.78 q -8.9,-1.87 -12.86,-5.73 -3.96,-3.9 -3.96,-10.68 0,-8.22 5.83,-12.7 5.84,-4.48 16.57,-4.48 5.31,0 10,0.78 4.68,0.78 8.64,2.34 z"
         fill="#000000"
         fill-rule="nonzero"
         fill-opacity="1"
         id="path36" /><path
         clip-path="url(#clip320)"
         d="m 1979.21,2479.09 q -6.98,11.98 -10.37,23.7 -3.38,11.72 -3.38,23.75 0,12.03 3.38,23.85 3.44,11.77 10.37,23.7 h -8.34 q -7.81,-12.24 -11.72,-24.06 -3.85,-11.83 -3.85,-23.49 0,-11.62 3.85,-23.39 3.86,-11.77 11.72,-24.06 z"
         fill="#000000"
         fill-rule="nonzero"
         fill-opacity="1"
         id="path37" /><path
         clip-path="url(#clip320)"
         d="m 1997.43,2478.99 h 9.64 v 47.86 l 28.59,-25.16 h 12.24 l -30.93,27.3 32.23,31.04 h -12.5 l -29.63,-28.49 v 28.49 h -9.64 z"
         fill="#000000"
         fill-rule="nonzero"
         fill-opacity="1"
         id="path38" /><path
         clip-path="url(#clip320)"
         d="m 2097.95,2530.18 q 0,-10.41 -4.32,-16.14 -4.27,-5.73 -12.03,-5.73 -7.71,0 -12.03,5.73 -4.27,5.73 -4.27,16.14 0,10.37 4.27,16.1 4.32,5.73 12.03,5.73 7.76,0 12.03,-5.73 4.32,-5.73 4.32,-16.1 m 9.59,22.61 q 0,14.89 -6.62,22.13 -6.61,7.29 -20.26,7.29 -5.05,0 -9.53,-0.78 -4.48,-0.73 -8.7,-2.29 v -9.32 q 4.22,2.29 8.34,3.38 4.11,1.1 8.38,1.1 9.43,0 14.12,-4.95 4.68,-4.9 4.68,-14.84 v -4.74 q -2.96,5.15 -7.6,7.7 -4.63,2.56 -11.09,2.56 -10.73,0 -17.29,-8.18 -6.57,-8.18 -6.57,-21.67 0,-13.54 6.57,-21.72 6.56,-8.17 17.29,-8.17 6.46,0 11.09,2.55 4.64,2.55 7.6,7.71 v -8.86 h 9.59 z"
         fill="#000000"
         fill-rule="nonzero"
         fill-opacity="1"
         id="path39" /><path
         clip-path="url(#clip320)"
         d="m 2125.77,2479.09 h 8.33 q 7.81,12.29 11.67,24.06 3.9,11.77 3.9,23.39 0,11.66 -3.9,23.49 -3.86,11.82 -11.67,24.06 h -8.33 q 6.92,-11.93 10.31,-23.7 3.44,-11.82 3.44,-23.85 0,-12.03 -3.44,-23.75 -3.39,-11.72 -10.31,-23.7 z"
         fill="#000000"
         fill-rule="nonzero"
         fill-opacity="1"
         id="path40" /><polyline
         clip-path="url(#clip320)"
         style="fill:none;stroke:#000000;stroke-width:4;stroke-linecap:round;stroke-linejoin:round;stroke-opacity:1"
         points="336.022,2321.51 336.022,47.2441 "
         id="polyline40-0" /><polyline
         clip-path="url(#clip320)"
         style="fill:none;stroke:#000000;stroke-width:4;stroke-linecap:round;stroke-linejoin:round;stroke-opacity:1"
         points="3152.76,2321.51 3152.76,47.2441 "
         id="polyline41-4" /><polyline
         clip-path="url(#clip320)"
         style="fill:none;stroke:#000000;stroke-width:4;stroke-linecap:round;stroke-linejoin:round;stroke-opacity:1"
         points="336.022,2257.19 354.919,2257.19 "
         id="polyline42-4" /><polyline
         clip-path="url(#clip320)"
         style="fill:none;stroke:#000000;stroke-width:4;stroke-linecap:round;stroke-linejoin:round;stroke-opacity:1"
         points="336.022,1736.61 354.919,1736.61 "
         id="polyline43-5" /><polyline
         clip-path="url(#clip320)"
         style="fill:none;stroke:#000000;stroke-width:4;stroke-linecap:round;stroke-linejoin:round;stroke-opacity:1"
         points="336.022,1216.03 354.919,1216.03 "
         id="polyline44-9" /><polyline
         clip-path="url(#clip320)"
         style="fill:none;stroke:#000000;stroke-width:4;stroke-linecap:round;stroke-linejoin:round;stroke-opacity:1"
         points="336.022,695.441 354.919,695.441 "
         id="polyline45-7" /><polyline
         clip-path="url(#clip320)"
         style="fill:none;stroke:#000000;stroke-width:4;stroke-linecap:round;stroke-linejoin:round;stroke-opacity:1"
         points="336.022,174.858 354.919,174.858 "
         id="polyline46-5" /><polyline
         clip-path="url(#clip320)"
         style="fill:none;stroke:#000000;stroke-width:4;stroke-linecap:round;stroke-linejoin:round;stroke-opacity:1"
         points="3152.76,2257.19 3133.86,2257.19 "
         id="polyline47-3" /><polyline
         clip-path="url(#clip320)"
         style="fill:none;stroke:#000000;stroke-width:4;stroke-linecap:round;stroke-linejoin:round;stroke-opacity:1"
         points="3152.76,1736.61 3133.86,1736.61 "
         id="polyline48-9" /><polyline
         clip-path="url(#clip320)"
         style="fill:none;stroke:#000000;stroke-width:4;stroke-linecap:round;stroke-linejoin:round;stroke-opacity:1"
         points="3152.76,1216.03 3133.86,1216.03 "
         id="polyline49-0" /><polyline
         clip-path="url(#clip320)"
         style="fill:none;stroke:#000000;stroke-width:4;stroke-linecap:round;stroke-linejoin:round;stroke-opacity:1"
         points="3152.76,695.441 3133.86,695.441 "
         id="polyline50-5" /><polyline
         clip-path="url(#clip320)"
         style="fill:none;stroke:#000000;stroke-width:4;stroke-linecap:round;stroke-linejoin:round;stroke-opacity:1"
         points="3152.76,174.858 3133.86,174.858 "
         id="polyline51-5" /><path
         clip-path="url(#clip320)"
         d="m 180.817,2230.57 q -6.77,0 -10.199,6.68 -3.386,6.64 -3.386,20.01 0,13.32 3.386,20.01 3.429,6.64 10.199,6.64 6.815,0 10.2,-6.64 3.429,-6.69 3.429,-20.01 0,-13.37 -3.429,-20.01 -3.385,-6.68 -10.2,-6.68 m 0,-6.95 q 10.894,0 16.623,8.64 5.773,8.59 5.773,25 0,16.36 -5.773,25 -5.729,8.59 -16.623,8.59 -10.894,0 -16.666,-8.59 -5.729,-8.64 -5.729,-25 0,-16.41 5.729,-25 5.772,-8.64 16.666,-8.64 z"
         fill="#000000"
         fill-rule="nonzero"
         fill-opacity="1"
         id="path51" /><path
         clip-path="url(#clip320)"
         d="m 218.621,2278.57 h 9.158 v 11.02 h -9.158 z"
         fill="#000000"
         fill-rule="nonzero"
         fill-opacity="1"
         id="path52" /><path
         clip-path="url(#clip320)"
         d="m 265.626,2230.57 q -6.771,0 -10.2,6.68 -3.385,6.64 -3.385,20.01 0,13.32 3.385,20.01 3.429,6.64 10.2,6.64 6.814,0 10.199,-6.64 3.429,-6.69 3.429,-20.01 0,-13.37 -3.429,-20.01 -3.385,-6.68 -10.199,-6.68 m 0,-6.95 q 10.894,0 16.623,8.64 5.773,8.59 5.773,25 0,16.36 -5.773,25 -5.729,8.59 -16.623,8.59 -10.894,0 -16.667,-8.59 -5.729,-8.64 -5.729,-25 0,-16.41 5.729,-25 5.773,-8.64 16.667,-8.64 z"
         fill="#000000"
         fill-rule="nonzero"
         fill-opacity="1"
         id="path53-6" /><path
         clip-path="url(#clip320)"
         d="m 183.118,1709.98 q -6.771,0 -10.2,6.69 -3.385,6.64 -3.385,20 0,13.33 3.385,20.01 3.429,6.64 10.2,6.64 6.814,0 10.199,-6.64 3.429,-6.68 3.429,-20.01 0,-13.36 -3.429,-20 -3.385,-6.69 -10.199,-6.69 m 0,-6.94 q 10.894,0 16.623,8.63 5.772,8.6 5.772,25 0,16.37 -5.772,25 -5.729,8.6 -16.623,8.6 -10.894,0 -16.667,-8.6 -5.729,-8.63 -5.729,-25 0,-16.4 5.729,-25 5.773,-8.63 16.667,-8.63 z"
         fill="#000000"
         fill-rule="nonzero"
         fill-opacity="1"
         id="path54-3" /><path
         clip-path="url(#clip320)"
         d="m 220.921,1757.98 h 9.158 v 11.03 h -9.158 z"
         fill="#000000"
         fill-rule="nonzero"
         fill-opacity="1"
         id="path55-2" /><path
         clip-path="url(#clip320)"
         d="m 250.695,1761.63 h 14.323 v -49.44 l -15.581,3.13 v -7.99 l 15.494,-3.12 h 8.768 v 57.42 h 14.323 v 7.38 h -37.327 z"
         fill="#000000"
         fill-rule="nonzero"
         fill-opacity="1"
         id="path56-6" /><path
         clip-path="url(#clip320)"
         d="m 183.812,1189.4 q -6.771,0 -10.199,6.68 -3.386,6.64 -3.386,20.01 0,13.32 3.386,20.01 3.428,6.64 10.199,6.64 6.814,0 10.2,-6.64 3.428,-6.69 3.428,-20.01 0,-13.37 -3.428,-20.01 -3.386,-6.68 -10.2,-6.68 m 0,-6.95 q 10.894,0 16.623,8.64 5.773,8.59 5.773,25 0,16.36 -5.773,25 -5.729,8.59 -16.623,8.59 -10.894,0 -16.666,-8.59 -5.73,-8.64 -5.73,-25 0,-16.41 5.73,-25 5.772,-8.64 16.666,-8.64 z"
         fill="#000000"
         fill-rule="nonzero"
         fill-opacity="1"
         id="path57-8" /><path
         clip-path="url(#clip320)"
         d="m 221.616,1237.4 h 9.158 v 11.03 h -9.158 z"
         fill="#000000"
         fill-rule="nonzero"
         fill-opacity="1"
         id="path58-9" /><path
         clip-path="url(#clip320)"
         d="m 257.423,1241.05 h 30.599 v 7.38 h -41.146 v -7.38 q 4.991,-5.17 13.585,-13.85 8.637,-8.72 10.851,-11.24 4.21,-4.73 5.859,-7.99 1.693,-3.29 1.693,-6.46 0,-5.17 -3.646,-8.42 -3.603,-3.26 -9.418,-3.26 -4.124,0 -8.724,1.43 -4.558,1.44 -9.766,4.34 v -8.85 q 5.295,-2.13 9.896,-3.21 4.6,-1.09 8.42,-1.09 10.069,0 16.059,5.04 5.989,5.03 5.989,13.45 0,4 -1.519,7.6 -1.475,3.56 -5.425,8.42 -1.085,1.26 -6.901,7.29 -5.816,5.99 -16.406,16.8 z"
         fill="#000000"
         fill-rule="nonzero"
         fill-opacity="1"
         id="path59-1" /><path
         clip-path="url(#clip320)"
         d="m 182.033,668.814 q -6.771,0 -10.2,6.684 -3.385,6.64 -3.385,20.008 0,13.325 3.385,20.009 3.429,6.641 10.2,6.641 6.814,0 10.199,-6.641 3.429,-6.684 3.429,-20.009 0,-13.368 -3.429,-20.008 -3.385,-6.684 -10.199,-6.684 m 0,-6.945 q 10.894,0 16.623,8.638 5.772,8.593 5.772,24.999 0,16.363 -5.772,25 -5.729,8.594 -16.623,8.594 -10.894,0 -16.667,-8.594 -5.729,-8.637 -5.729,-25 0,-16.406 5.729,-24.999 5.773,-8.638 16.667,-8.638 z"
         fill="#000000"
         fill-rule="nonzero"
         fill-opacity="1"
         id="path60-4" /><path
         clip-path="url(#clip320)"
         d="m 219.836,716.817 h 9.158 v 11.024 h -9.158 z"
         fill="#000000"
         fill-rule="nonzero"
         fill-opacity="1"
         id="path61-8" /><path
         clip-path="url(#clip320)"
         d="m 274.654,692.902 q 6.293,1.346 9.809,5.599 3.559,4.254 3.559,10.504 0,9.592 -6.598,14.843 -6.597,5.252 -18.749,5.252 -4.08,0 -8.421,-0.825 -4.296,-0.781 -8.897,-2.387 v -8.463 q 3.646,2.126 7.986,3.212 4.34,1.085 9.071,1.085 8.247,0 12.543,-3.256 4.341,-3.255 4.341,-9.461 0,-5.729 -4.037,-8.941 -3.993,-3.255 -11.154,-3.255 h -7.552 v -7.205 h 7.899 q 6.467,0 9.896,-2.561 3.429,-2.604 3.429,-7.465 0,-4.992 -3.559,-7.639 -3.516,-2.691 -10.113,-2.691 -3.603,0 -7.726,0.781 -4.123,0.781 -9.071,2.431 v -7.813 q 4.991,-1.389 9.332,-2.083 4.383,-0.695 8.246,-0.695 9.983,0 15.799,4.558 5.816,4.514 5.816,12.239 0,5.382 -3.082,9.115 -3.082,3.689 -8.767,5.121 z"
         fill="#000000"
         fill-rule="nonzero"
         fill-opacity="1"
         id="path62-8" /><path
         clip-path="url(#clip320)"
         d="m 179.906,148.23 q -6.771,0 -10.2,6.684 -3.385,6.641 -3.385,20.009 0,13.324 3.385,20.008 3.429,6.641 10.2,6.641 6.814,0 10.199,-6.641 3.429,-6.684 3.429,-20.008 0,-13.368 -3.429,-20.009 -3.385,-6.684 -10.199,-6.684 m 0,-6.944 q 10.894,0 16.623,8.637 5.773,8.594 5.773,25 0,16.362 -5.773,25 -5.729,8.593 -16.623,8.593 -10.894,0 -16.667,-8.593 -5.729,-8.638 -5.729,-25 0,-16.406 5.729,-25 5.773,-8.637 16.667,-8.637 z"
         fill="#000000"
         fill-rule="nonzero"
         fill-opacity="1"
         id="path63-7" /><path
         clip-path="url(#clip320)"
         d="m 217.709,196.233 h 9.158 v 11.025 h -9.158 z"
         fill="#000000"
         fill-rule="nonzero"
         fill-opacity="1"
         id="path64-1" /><path
         clip-path="url(#clip320)"
         d="m 270.053,150.096 -22.135,34.592 h 22.135 v -34.592 m -2.3,-7.638 h 11.024 v 42.23 h 9.245 v 7.292 h -9.245 v 15.278 h -8.724 V 191.98 H 240.8 v -8.464 z"
         fill="#000000"
         fill-rule="nonzero"
         fill-opacity="1"
         id="path65-9" /><path
         clip-path="url(#clip320)"
         d="m 17.0679,1369.8 h 60.4685 v -12.71 q 0,-16.1 -7.2917,-23.54 -7.2916,-7.5 -23.0207,-7.5 -15.6249,0 -22.8644,7.5 -7.2917,7.44 -7.2917,23.54 v 12.71 m -8.64574,10.52 v -21.62 q 0,-22.6 9.42704,-33.18 9.3749,-10.57 29.3748,-10.57 20.1041,0 29.5311,10.63 9.4271,10.62 9.4271,33.12 v 21.62 z"
         fill="#000000"
         fill-rule="nonzero"
         fill-opacity="1"
         id="path66-3" /><path
         clip-path="url(#clip320)"
         d="m 54.6198,1248.7 h 4.6875 v 44.06 q 9.8958,-0.62 15.1041,-5.93 5.1562,-5.37 5.1562,-14.9 0,-5.52 -1.3541,-10.68 -1.3542,-5.2 -4.0625,-10.31 h 9.0624 q 2.1875,5.16 3.3333,10.57 1.1459,5.42 1.1459,10.99 0,13.96 -8.125,22.14 -8.1249,8.12 -21.979,8.12 -14.3229,0 -22.7083,-7.7 -8.4374,-7.76 -8.4374,-20.89 0,-11.77 7.6041,-18.59 7.5521,-6.88 20.5728,-6.88 m -2.8125,9.59 q -7.8645,0.1 -12.552,4.42 -4.6874,4.27 -4.6874,11.36 0,8.02 4.5312,12.86 4.5312,4.79 12.7603,5.52 z"
         fill="#000000"
         fill-rule="nonzero"
         fill-opacity="1"
         id="path67-1" /><path
         clip-path="url(#clip320)"
         d="m 50.974,1184.48 h 35.2082 v 9.59 H 51.2865 q -8.2812,0 -12.3958,3.23 -4.1145,3.23 -4.1145,9.68 0,7.76 4.9479,12.24 4.9479,4.48 13.4895,4.48 h 32.9686 v 9.64 H 27.8491 v -9.64 h 9.0625 q -5.2604,-3.44 -7.8646,-8.07 -2.6041,-4.69 -2.6041,-10.78 0,-10.05 6.25,-15.21 6.1978,-5.16 18.2811,-5.16 z"
         fill="#000000"
         fill-rule="nonzero"
         fill-opacity="1"
         id="path68-1" /><path
         clip-path="url(#clip320)"
         d="m 29.5679,1128.18 h 9.0624 q -2.0833,4.06 -3.125,8.44 -1.0416,4.37 -1.0416,9.06 0,7.14 2.1875,10.73 2.1875,3.54 6.5624,3.54 3.3334,0 5.2604,-2.55 1.875,-2.55 3.5938,-10.26 l 0.7291,-3.28 q 2.1875,-10.21 6.1979,-14.48 3.9583,-4.32 11.0937,-4.32 8.125,0 12.8645,6.46 4.7396,6.4 4.7396,17.65 0,4.69 -0.9375,9.79 -0.8854,5.05 -2.7083,10.68 H 74.151 q 2.7604,-5.31 4.1666,-10.47 1.3542,-5.15 1.3542,-10.21 0,-6.77 -2.2917,-10.41 -2.3437,-3.65 -6.5624,-3.65 -3.9063,0 -5.9896,2.66 -2.0833,2.6 -4.0104,11.51 l -0.7812,3.33 q -1.875,8.91 -5.7292,12.86 -3.9062,3.96 -10.677,3.96 -8.2291,0 -12.7083,-5.83 -4.4791,-5.83 -4.4791,-16.56 0,-5.31 0.7812,-10 0.7813,-4.69 2.3438,-8.65 z"
         fill="#000000"
         fill-rule="nonzero"
         fill-opacity="1"
         id="path69-4" /><path
         clip-path="url(#clip320)"
         d="m 27.8491,1109.8 v -9.59 h 58.3331 v 9.59 H 27.8491 m -22.70817,0 v -9.59 H 17.2763 v 9.59 z"
         fill="#000000"
         fill-rule="nonzero"
         fill-opacity="1"
         id="path70-9" /><path
         clip-path="url(#clip320)"
         d="m 11.2867,1070.68 h 16.5624 v -19.74 h 7.4479 v 19.74 h 31.6665 q 7.1354,0 9.1666,-1.92 2.0313,-1.98 2.0313,-7.97 v -9.85 h 8.0208 v 9.85 q 0,11.09 -4.1146,15.31 -4.1666,4.22 -15.1041,4.22 H 35.297 v 7.03 h -7.4479 v -7.03 H 11.2867 Z"
         fill="#000000"
         fill-rule="nonzero"
         fill-opacity="1"
         id="path71-5" /><path
         clip-path="url(#clip320)"
         d="m 91.5988,1014.07 q 10.4162,4.06 13.5932,7.91 3.178,3.86 3.178,10.32 v 7.65 h -8.021 v -5.62 q 0,-3.96 -1.8752,-6.15 -1.875,-2.19 -8.8542,-4.84 l -4.3749,-1.72 -57.3956,23.59 v -10.15 l 45.6248,-18.23 -45.6248,-18.231 v -10.156 z"
         fill="#000000"
         fill-rule="nonzero"
         fill-opacity="1"
         id="path72-9" /><polyline
         clip-path="url(#clip322)"
         style="fill:none;stroke:#2b565e;stroke-width:20;stroke-linecap:round;stroke-linejoin:round;stroke-opacity:1"
         points="-1710.67,2257.15 -1680.41,2257.14 -1650.15,2257.11 -1619.9,2257.07 -1589.64,2257.01 -1559.38,2256.92 -1529.13,2256.79 -1498.87,2256.61 -1468.61,2256.34 -1438.36,2255.97 -1408.1,2255.46 -1377.84,2254.78 -1347.59,2253.86 -1317.33,2252.67 -1287.07,2251.12 -1256.82,2249.15 -1226.56,2246.67 -1196.3,2243.62 -1166.05,2239.9 -1135.79,2235.45 -1105.53,2230.2 -1075.28,2224.1 -1045.02,2217.13 -1014.77,2209.29 -984.509,2200.61 -954.252,2191.13 -923.996,2180.96 -893.739,2170.19 -863.483,2158.96 -833.226,2147.4 -802.97,2135.65 -772.713,2123.81 -742.457,2111.99 -712.2,2100.23 -681.944,2088.54 -651.687,2076.89 -621.431,2065.18 -591.174,2053.29 -560.918,2041.07 -530.661,2028.34 -500.405,2014.94 -470.148,2000.71 -439.892,1985.55 -409.635,1969.41 -379.378,1952.29 -349.122,1934.27 -318.865,1915.47 -288.609,1896.11 -258.352,1876.41 -228.096,1856.66 -197.839,1837.15 -167.583,1818.16 -137.326,1799.97 -107.07,1782.83 -76.8133,1766.98 -46.5567,1752.6 -16.3002,1739.88 13.9563,1728.96 44.2128,1719.98 74.4693,1713.08 104.726,1708.37 134.982,1705.98 165.239,1706.04 195.495,1708.64 225.752,1713.87 256.008,1721.8 286.265,1732.41 316.522,1745.66 346.778,1761.44 377.035,1779.54 407.291,1799.7 437.548,1821.56 467.804,1844.71 498.061,1868.67 528.317,1892.92 558.574,1916.91 588.83,1940.05 619.087,1961.76 649.343,1981.46 679.6,1998.59 709.856,2012.62 740.113,2023.02 770.369,2029.31 800.626,2031.07 830.882,2027.9 861.139,2019.46 891.395,2005.47 921.652,1985.73 951.908,1960.12 982.165,1928.64 1012.42,1891.37 1042.68,1848.54 1072.93,1800.5 1103.19,1747.74 1133.45,1690.86 1163.7,1630.56 1193.96,1567.63 1224.22,1502.92 1254.47,1437.25 1284.73,1371.44 1314.99,1306.23 1345.24,1242.25 1375.5,1179.99 1405.76,1119.81 1436.01,1061.91 1466.27,1006.34 1496.53,953.079 1526.78,902.008 1557.04,853.011 1587.3,806 1617.55,760.969 1647.81,718.028 1678.06,677.425 1708.32,639.552 1738.58,604.927 1768.83,574.163 1799.09,547.91 1829.35,526.801 1859.6,511.385 1889.86,502.059 1920.12,499.022 1950.37,502.228 1980.63,511.377 2010.89,525.913 2041.14,545.049 2071.4,567.82 2101.66,593.14 2131.91,619.877 2162.17,646.929 2192.43,673.303 2222.68,698.177 2252.94,720.958 2283.2,741.316 2313.45,759.205 2343.71,774.855 2373.96,788.756 2404.22,801.616 2434.48,814.312 2464.73,827.828 2494.99,843.189 2525.25,861.396 2555.5,883.361 2585.76,909.854 2616.02,941.455 2646.27,978.524 2676.53,1021.18 2706.79,1069.3 2737.04,1122.51 2767.3,1180.24 2797.56,1241.73 2827.81,1306.08 2858.07,1372.29 2888.33,1439.33 2918.58,1506.16 2948.84,1571.8 2979.1,1635.37 3009.35,1696.11 3039.61,1753.4 3069.86,1806.8 3100.12,1856.03 3130.38,1900.97 3160.63,1941.63 3190.89,1978.16 3221.15,2010.8 3251.4,2039.85 3281.66,2065.65 3311.92,2088.56 3342.17,2108.93 3372.43,2127.09 3402.69,2143.31 3432.94,2157.85 3463.2,2170.91 3493.46,2182.65 3523.71,2193.18 3553.97,2202.62 3584.23,2211.04 3614.48,2218.49 3644.74,2225.05 3675,2230.76 3705.25,2235.69 3735.51,2239.89 3765.76,2243.43 3796.02,2246.37 3826.28,2248.79 3856.53,2250.74 3886.79,2252.31 3917.05,2253.54 3947.3,2254.49 3977.56,2255.22 4007.82,2255.77 4038.07,2256.18 4068.33,2256.49 4098.59,2256.7 4128.84,2256.86 4159.1,2256.97 4189.36,2257.04 4219.61,2257.09 4249.87,2257.12 4280.13,2257.14 4310.38,2257.15 "
         id="polyline72" /><polyline
         clip-path="url(#clip322)"
         style="fill:none;stroke:#843505;stroke-width:20;stroke-linecap:round;stroke-linejoin:round;stroke-opacity:1"
         points="-1795.35,2257.04 -1764.97,2257.05 -1734.59,2257.04 -1704.21,2257.03 -1673.83,2256.99 -1643.45,2256.94 -1613.06,2256.87 -1582.68,2256.77 -1552.3,2256.65 -1521.92,2256.48 -1491.54,2256.28 -1461.16,2256.01 -1430.78,2255.68 -1400.4,2255.27 -1370.02,2254.77 -1339.64,2254.14 -1309.26,2253.39 -1278.88,2252.47 -1248.5,2251.36 -1218.12,2250.04 -1187.74,2248.47 -1157.36,2246.63 -1126.98,2244.47 -1096.6,2241.95 -1066.22,2239.05 -1035.84,2235.72 -1005.46,2231.93 -975.084,2227.63 -944.704,2222.8 -914.324,2217.4 -883.944,2211.4 -853.564,2204.78 -823.184,2197.53 -792.804,2189.62 -762.424,2181.05 -732.044,2171.82 -701.663,2161.94 -671.283,2151.4 -640.903,2140.24 -610.523,2128.47 -580.143,2116.12 -549.763,2103.22 -519.383,2089.8 -489.003,2075.89 -458.623,2061.54 -428.243,2046.79 -397.863,2031.67 -367.483,2016.24 -337.103,2000.53 -306.723,1984.6 -276.343,1968.51 -245.963,1952.3 -215.583,1936.05 -185.203,1919.82 -154.823,1903.72 -124.443,1887.82 -94.0625,1872.22 -63.6824,1857.06 -33.3024,1842.44 -2.92234,1828.5 27.4577,1815.37 57.8378,1803.2 88.2178,1792.12 118.598,1782.26 148.978,1773.73 179.358,1766.66 209.738,1761.1 240.118,1757.12 270.498,1754.72 300.878,1753.9 331.258,1754.59 361.638,1756.69 392.018,1760.03 422.398,1764.44 452.778,1769.66 483.158,1775.41 513.539,1781.38 543.919,1787.23 574.299,1792.58 604.679,1797.06 635.059,1800.27 665.439,1801.84 695.819,1801.39 726.199,1798.59 756.579,1793.12 786.959,1784.71 817.339,1773.15 847.719,1758.27 878.099,1739.97 908.479,1718.21 938.859,1693 969.239,1664.44 999.619,1632.66 1030,1597.89 1060.38,1560.37 1090.76,1520.41 1121.14,1478.36 1151.52,1434.59 1181.9,1389.5 1212.28,1343.51 1242.66,1297.04 1273.04,1250.51 1303.42,1204.32 1333.8,1158.88 1364.18,1114.54 1394.56,1071.66 1424.94,1030.52 1455.32,991.419 1485.7,954.572 1516.08,920.174 1546.46,888.375 1576.84,859.284 1607.22,832.967 1637.6,809.454 1667.98,788.735 1698.36,770.765 1728.74,755.467 1759.12,742.736 1789.5,732.439 1819.88,724.423 1850.26,718.519 1880.64,714.543 1911.02,712.308 1941.4,711.625 1971.78,712.31 2002.16,714.191 2032.54,717.114 2062.92,720.95 2093.3,725.598 2123.68,730.991 2154.06,737.101 2184.44,743.941 2214.82,751.566 2245.2,760.071 2275.58,769.592 2305.96,780.3 2336.34,792.395 2366.72,806.101 2397.1,821.655 2427.48,839.3 2457.86,859.269 2488.24,881.783 2518.62,907.031 2549,935.168 2579.38,966.301 2609.76,1000.48 2640.14,1037.71 2670.52,1077.9 2700.9,1120.94 2731.28,1166.62 2761.66,1214.68 2792.04,1264.82 2822.42,1316.67 2852.8,1369.84 2883.18,1423.89 2913.56,1478.4 2943.94,1532.91 2974.32,1586.97 3004.7,1640.16 3035.08,1692.09 3065.46,1742.37 3095.84,1790.69 3126.22,1836.77 3156.6,1880.37 3186.98,1921.33 3217.36,1959.5 3247.74,1994.83 3278.12,2027.28 3308.5,2056.87 3338.88,2083.65 3369.26,2107.73 3399.64,2129.22 3430.02,2148.25 3460.4,2165.01 3490.78,2179.64 3521.16,2192.34 3551.54,2203.29 3581.92,2212.65 3612.3,2220.61 3642.68,2227.32 3673.06,2232.95 3703.44,2237.64 3733.82,2241.52 3764.2,2244.7 3794.58,2247.3 3824.96,2249.4 3855.34,2251.1 3885.72,2252.45 3916.1,2253.53 3946.48,2254.38 3976.86,2255.04 4007.24,2255.56 4037.62,2255.96 4068,2256.27 4098.38,2256.5 4128.76,2256.67 4159.14,2256.81 4189.52,2256.9 4219.9,2256.97 4250.28,2257.01 "
         id="polyline73" /><polyline
         clip-path="url(#clip322)"
         style="fill:none;stroke:#f8a916;stroke-width:20;stroke-linecap:round;stroke-linejoin:round;stroke-opacity:1"
         points="-785.149,2256.97 -761.954,2256.97 -738.76,2256.95 -715.566,2256.91 -692.371,2256.84 -669.177,2256.75 -645.983,2256.62 -622.788,2256.44 -599.594,2256.22 -576.4,2255.94 -553.206,2255.57 -530.011,2255.12 -506.817,2254.55 -483.623,2253.84 -460.428,2252.97 -437.234,2251.91 -414.04,2250.62 -390.845,2249.06 -367.651,2247.2 -344.457,2244.99 -321.263,2242.38 -298.068,2239.32 -274.874,2235.77 -251.68,2231.66 -228.485,2226.96 -205.291,2221.61 -182.097,2215.57 -158.902,2208.8 -135.708,2201.29 -112.514,2193 -89.3195,2183.93 -66.1252,2174.11 -42.9309,2163.54 -19.7366,2152.28 3.45771,2140.38 26.652,2127.94 49.8463,2115.05 73.0406,2101.84 96.2349,2088.43 119.429,2074.99 142.624,2061.69 165.818,2048.7 189.012,2036.19 212.206,2024.35 235.401,2013.36 258.595,2003.39 281.789,1994.58 304.984,1987.06 328.178,1980.94 351.372,1976.3 374.567,1973.18 397.761,1971.57 420.955,1971.45 444.149,1972.74 467.344,1975.31 490.538,1979 513.732,1983.62 536.927,1988.93 560.121,1994.66 583.315,2000.5 606.51,2006.12 629.704,2011.17 652.898,2015.3 676.093,2018.13 699.287,2019.28 722.481,2018.38 745.675,2015.08 768.87,2009.04 792.064,1999.93 815.258,1987.47 838.453,1971.42 861.647,1951.56 884.841,1927.76 908.036,1899.89 931.23,1867.94 954.424,1831.92 977.618,1791.91 1000.81,1748.07 1024.01,1700.61 1047.2,1649.81 1070.4,1596 1093.59,1539.56 1116.78,1480.92 1139.98,1420.53 1163.17,1358.87 1186.37,1296.43 1209.56,1233.69 1232.76,1171.13 1255.95,1109.17 1279.14,1048.23 1302.34,988.647 1325.53,930.728 1348.73,874.704 1371.92,820.744 1395.12,768.955 1418.31,719.383 1441.5,672.02 1464.7,626.811 1487.89,583.665 1511.09,542.47 1534.28,503.101 1557.48,465.435 1580.67,429.365 1603.86,394.807 1627.06,361.714 1650.25,330.076 1673.45,299.932 1696.64,271.363 1719.84,244.497 1743.03,219.498 1766.22,196.56 1789.42,175.9 1812.61,157.745 1835.81,142.318 1859,129.827 1882.2,120.456 1905.39,114.351 1928.58,111.61 1951.78,112.282 1974.97,116.357 1998.17,123.77 2021.36,134.399 2044.56,148.07 2067.75,164.566 2090.95,183.636 2114.14,205.003 2137.33,228.379 2160.53,253.474 2183.72,280.013 2206.92,307.741 2230.11,336.44 2253.31,365.934 2276.5,396.093 2299.69,426.842 2322.89,458.159 2346.08,490.074 2369.28,522.665 2392.47,556.055 2415.67,590.396 2438.86,625.867 2462.05,662.66 2485.25,700.966 2508.44,740.965 2531.64,782.816 2554.83,826.643 2578.03,872.529 2601.22,920.506 2624.41,970.55 2647.61,1022.58 2670.8,1076.46 2694,1131.99 2717.19,1188.91 2740.39,1246.94 2763.58,1305.73 2786.77,1364.91 2809.97,1424.1 2833.16,1482.91 2856.36,1540.93 2879.55,1597.77 2902.75,1653.08 2925.94,1706.52 2949.13,1757.78 2972.33,1806.61 2995.52,1852.8 3018.72,1896.18 3041.91,1936.64 3065.11,1974.11 3088.3,2008.58 3111.49,2040.05 3134.69,2068.6 3157.88,2094.31 3181.08,2117.31 3204.27,2137.75 3227.47,2155.78 3250.66,2171.59 3273.85,2185.34 3297.05,2197.24 3320.24,2207.46 3343.44,2216.17 3366.63,2223.56 3389.83,2229.78 3413.02,2234.98 3436.21,2239.3 3459.41,2242.86 3482.6,2245.78 3505.8,2248.16 3528.99,2250.09 3552.19,2251.64 3575.38,2252.87 3598.57,2253.86 3621.77,2254.63 3644.96,2255.23 3668.16,2255.7 3691.35,2256.06 3714.55,2256.34 3737.74,2256.55 3760.93,2256.7 3784.13,2256.82 3807.32,2256.89 3830.52,2256.94 "
         id="polyline74" /><path
         clip-path="url(#clip320)"
         d="M 1131.83,2245.71 H 2356.94 V 1908.75 H 1131.83 Z"
         fill="#000000"
         fill-rule="evenodd"
         fill-opacity="0"
         id="path74-0" /><polyline
         clip-path="url(#clip320)"
         style="fill:none;stroke:#000000;stroke-width:4;stroke-linecap:round;stroke-linejoin:round;stroke-opacity:0"
         points="1131.83,2245.71 2356.94,2245.71 2356.94,1908.75 1131.83,1908.75 1131.83,2245.71 "
         id="polyline75" /><polyline
         clip-path="url(#clip320)"
         style="fill:none;stroke:#2b565e;stroke-width:32.5;stroke-linecap:round;stroke-linejoin:round;stroke-opacity:1"
         points="1163.13,1992.99 1350.91,1992.99 "
         id="polyline76" /><path
         clip-path="url(#clip320)"
         d="m 1408.24,1970.06 q -8.27,0 -13.16,6.17 -4.86,6.17 -4.86,16.81 0,10.61 4.86,16.78 4.89,6.17 13.16,6.17 8.28,0 13.09,-6.17 4.85,-6.17 4.85,-16.78 0,-10.64 -4.85,-16.81 -4.81,-6.17 -13.09,-6.17 m 0,-6.17 q 11.81,0 18.88,7.94 7.08,7.9 7.08,21.21 0,13.28 -7.08,21.22 -7.07,7.9 -18.88,7.9 -11.85,0 -18.96,-7.9 -7.07,-7.9 -7.07,-21.22 0,-13.31 7.07,-21.21 7.11,-7.94 18.96,-7.94 z"
         fill="#000000"
         fill-rule="nonzero"
         fill-opacity="1"
         id="path76-9" /><path
         clip-path="url(#clip320)"
         d="m 1445.78,1962.54 h 6.92 v 58.53 h -6.92 z"
         fill="#000000"
         fill-rule="nonzero"
         fill-opacity="1"
         id="path77-3" /><path
         clip-path="url(#clip320)"
         d="m 1467.18,1978.94 h 6.93 v 42.13 h -6.93 v -42.13 m 0,-16.4 h 6.93 v 8.76 h -6.93 z"
         fill="#000000"
         fill-rule="nonzero"
         fill-opacity="1"
         id="path78-4" /><path
         clip-path="url(#clip320)"
         d="m 1516.31,1999.51 q 0,-7.52 -3.12,-11.66 -3.09,-4.14 -8.69,-4.14 -5.57,0 -8.69,4.14 -3.08,4.14 -3.08,11.66 0,7.49 3.08,11.63 3.12,4.13 8.69,4.13 5.6,0 8.69,-4.13 3.12,-4.14 3.12,-11.63 m 6.92,16.33 q 0,10.76 -4.78,15.98 -4.77,5.27 -14.63,5.27 -3.65,0 -6.88,-0.56 -3.24,-0.53 -6.28,-1.66 v -6.73 q 3.04,1.65 6.01,2.44 2.98,0.79 6.06,0.79 6.81,0 10.19,-3.57 3.39,-3.54 3.39,-10.72 v -3.42 q -2.14,3.72 -5.49,5.56 -3.35,1.85 -8.01,1.85 -7.75,0 -12.49,-5.91 -4.74,-5.91 -4.74,-15.65 0,-9.78 4.74,-15.68 4.74,-5.91 12.49,-5.91 4.66,0 8.01,1.84 3.35,1.85 5.49,5.57 v -6.39 h 6.92 z"
         fill="#000000"
         fill-rule="nonzero"
         fill-opacity="1"
         id="path79-0" /><path
         clip-path="url(#clip320)"
         d="m 1553.81,1983.79 q -5.56,0 -8.8,4.36 -3.23,4.33 -3.23,11.89 0,7.56 3.19,11.92 3.24,4.33 8.84,4.33 5.53,0 8.77,-4.36 3.23,-4.37 3.23,-11.89 0,-7.49 -3.23,-11.85 -3.24,-4.4 -8.77,-4.4 m 0,-5.87 q 9.03,0 14.18,5.87 5.16,5.87 5.16,16.25 0,10.34 -5.16,16.25 -5.15,5.87 -14.18,5.87 -9.06,0 -14.22,-5.87 -5.11,-5.91 -5.11,-16.25 0,-10.38 5.11,-16.25 5.16,-5.87 14.22,-5.87 z"
         fill="#000000"
         fill-rule="nonzero"
         fill-opacity="1"
         id="path80-7" /><path
         clip-path="url(#clip320)"
         d="m 1614.94,1980.55 v 6.47 q -2.94,-1.61 -5.91,-2.4 -2.93,-0.83 -5.94,-0.83 -6.73,0 -10.46,4.29 -3.72,4.25 -3.72,11.96 0,7.71 3.72,12 3.73,4.25 10.46,4.25 3.01,0 5.94,-0.79 2.97,-0.83 5.91,-2.45 v 6.4 q -2.9,1.35 -6.02,2.03 -3.08,0.68 -6.58,0.68 -9.52,0 -15.12,-5.98 -5.61,-5.99 -5.61,-16.14 0,-10.31 5.64,-16.21 5.68,-5.91 15.54,-5.91 3.2,0 6.24,0.68 3.05,0.64 5.91,1.95 z"
         fill="#000000"
         fill-rule="nonzero"
         fill-opacity="1"
         id="path81-5" /><path
         clip-path="url(#clip320)"
         d="m 1663.01,1998.27 v 3.39 h -31.82 q 0.45,7.14 4.29,10.9 3.87,3.73 10.75,3.73 3.99,0 7.72,-0.98 3.76,-0.98 7.44,-2.93 v 6.54 q -3.72,1.58 -7.63,2.41 -3.91,0.83 -7.94,0.83 -10.08,0 -15.99,-5.87 -5.86,-5.87 -5.86,-15.88 0,-10.34 5.56,-16.4 5.61,-6.09 15.09,-6.09 8.5,0 13.43,5.49 4.96,5.46 4.96,14.86 m -6.92,-2.03 q -0.08,-5.68 -3.2,-9.07 -3.08,-3.38 -8.2,-3.38 -5.79,0 -9.29,3.27 -3.46,3.27 -3.99,9.22 z"
         fill="#000000"
         fill-rule="nonzero"
         fill-opacity="1"
         id="path82" /><path
         clip-path="url(#clip320)"
         d="m 1709.39,1995.64 v 25.43 h -6.92 v -25.21 q 0,-5.98 -2.33,-8.95 -2.33,-2.97 -7,-2.97 -5.6,0 -8.84,3.57 -3.23,3.58 -3.23,9.75 v 23.81 h -6.96 v -42.13 h 6.96 v 6.54 q 2.48,-3.8 5.83,-5.68 3.38,-1.88 7.78,-1.88 7.26,0 10.99,4.51 3.72,4.48 3.72,13.21 z"
         fill="#000000"
         fill-rule="nonzero"
         fill-opacity="1"
         id="path83" /><path
         clip-path="url(#clip320)"
         d="m 1759.23,1998.27 v 3.39 h -31.82 q 0.45,7.14 4.29,10.9 3.87,3.73 10.75,3.73 3.99,0 7.72,-0.98 3.76,-0.98 7.44,-2.93 v 6.54 q -3.72,1.58 -7.63,2.41 -3.91,0.83 -7.94,0.83 -10.08,0 -15.99,-5.87 -5.86,-5.87 -5.86,-15.88 0,-10.34 5.56,-16.4 5.61,-6.09 15.09,-6.09 8.5,0 13.43,5.49 4.96,5.46 4.96,14.86 m -6.92,-2.03 q -0.08,-5.68 -3.2,-9.07 -3.08,-3.38 -8.2,-3.38 -5.79,0 -9.29,3.27 -3.46,3.27 -3.99,9.22 z"
         fill="#000000"
         fill-rule="nonzero"
         fill-opacity="1"
         id="path84" /><path
         clip-path="url(#clip320)"
         d="m 1801.92,1966.97 v 11.97 h 14.26 v 5.38 h -14.26 v 22.87 q 0,5.15 1.4,6.62 1.43,1.46 5.75,1.46 h 7.11 v 5.8 h -7.11 q -8.01,0 -11.06,-2.98 -3.04,-3.01 -3.04,-10.9 v -22.87 h -5.08 v -5.38 h 5.08 v -11.97 z"
         fill="#000000"
         fill-rule="nonzero"
         fill-opacity="1"
         id="path85" /><path
         clip-path="url(#clip320)"
         d="m 1841.61,1983.79 q -5.57,0 -8.8,4.36 -3.24,4.33 -3.24,11.89 0,7.56 3.2,11.92 3.23,4.33 8.84,4.33 5.53,0 8.76,-4.36 3.24,-4.37 3.24,-11.89 0,-7.49 -3.24,-11.85 -3.23,-4.4 -8.76,-4.4 m 0,-5.87 q 9.03,0 14.18,5.87 5.15,5.87 5.15,16.25 0,10.34 -5.15,16.25 -5.15,5.87 -14.18,5.87 -9.07,0 -14.22,-5.87 -5.12,-5.91 -5.12,-16.25 0,-10.38 5.12,-16.25 5.15,-5.87 14.22,-5.87 z"
         fill="#000000"
         fill-rule="nonzero"
         fill-opacity="1"
         id="path86" /><path
         clip-path="url(#clip320)"
         d="m 1904.8,1971.15 v 21.1 h 9.56 q 5.3,0 8.2,-2.74 2.89,-2.75 2.89,-7.83 0,-5.04 -2.89,-7.78 -2.9,-2.75 -8.2,-2.75 h -9.56 m -7.59,-6.24 h 17.15 q 9.44,0 14.25,4.28 4.86,4.25 4.86,12.49 0,8.32 -4.86,12.57 -4.81,4.25 -14.25,4.25 h -9.56 v 22.57 h -7.59 z"
         fill="#000000"
         fill-rule="nonzero"
         fill-opacity="1"
         id="path87" /><path
         clip-path="url(#clip320)"
         d="m 1943.36,1962.54 h 6.92 v 58.53 h -6.92 z"
         fill="#000000"
         fill-rule="nonzero"
         fill-opacity="1"
         id="path88" /><path
         clip-path="url(#clip320)"
         d="m 2000.8,1998.27 v 3.39 h -31.82 q 0.45,7.14 4.28,10.9 3.88,3.73 10.76,3.73 3.99,0 7.71,-0.98 3.76,-0.98 7.45,-2.93 v 6.54 q -3.72,1.58 -7.64,2.41 -3.91,0.83 -7.93,0.83 -10.08,0 -15.99,-5.87 -5.87,-5.87 -5.87,-15.88 0,-10.34 5.57,-16.4 5.61,-6.09 15.08,-6.09 8.51,0 13.43,5.49 4.97,5.46 4.97,14.86 m -6.92,-2.03 q -0.08,-5.68 -3.2,-9.07 -3.08,-3.38 -8.2,-3.38 -5.79,0 -9.29,3.27 -3.46,3.27 -3.99,9.22 z"
         fill="#000000"
         fill-rule="nonzero"
         fill-opacity="1"
         id="path89" /><path
         clip-path="url(#clip320)"
         d="m 2012.16,1978.94 h 6.92 v 42.13 h -6.92 v -42.13 m 0,-16.4 h 6.92 v 8.76 h -6.92 z"
         fill="#000000"
         fill-rule="nonzero"
         fill-opacity="1"
         id="path90" /><path
         clip-path="url(#clip320)"
         d="m 2060.42,1980.18 v 6.54 q -2.94,-1.5 -6.09,-2.25 -3.16,-0.76 -6.55,-0.76 -5.15,0 -7.75,1.58 -2.56,1.58 -2.56,4.74 0,2.41 1.85,3.8 1.84,1.36 7.41,2.6 l 2.37,0.52 q 7.37,1.58 10.45,4.48 3.13,2.86 3.13,8.01 0,5.87 -4.67,9.29 -4.63,3.43 -12.75,3.43 -3.39,0 -7.07,-0.68 -3.65,-0.64 -7.71,-1.96 v -7.14 q 3.83,1.99 7.56,3.01 3.72,0.97 7.37,0.97 4.89,0 7.52,-1.65 2.64,-1.69 2.64,-4.74 0,-2.82 -1.92,-4.33 -1.88,-1.5 -8.31,-2.89 l -2.41,-0.57 q -6.43,-1.35 -9.29,-4.13 -2.86,-2.83 -2.86,-7.72 0,-5.94 4.21,-9.17 4.21,-3.24 11.96,-3.24 3.84,0 7.22,0.57 3.39,0.56 6.25,1.69 z"
         fill="#000000"
         fill-rule="nonzero"
         fill-opacity="1"
         id="path91" /><path
         clip-path="url(#clip320)"
         d="m 2080.54,1966.97 v 11.97 h 14.26 v 5.38 h -14.26 v 22.87 q 0,5.15 1.4,6.62 1.42,1.46 5.75,1.46 h 7.11 v 5.8 h -7.11 q -8.01,0 -11.06,-2.98 -3.05,-3.01 -3.05,-10.9 v -22.87 h -5.07 v -5.38 h 5.07 v -11.97 z"
         fill="#000000"
         fill-rule="nonzero"
         fill-opacity="1"
         id="path92" /><path
         clip-path="url(#clip320)"
         d="m 2120.23,1983.79 q -5.57,0 -8.8,4.36 -3.24,4.33 -3.24,11.89 0,7.56 3.2,11.92 3.23,4.33 8.84,4.33 5.53,0 8.76,-4.36 3.24,-4.37 3.24,-11.89 0,-7.49 -3.24,-11.85 -3.23,-4.4 -8.76,-4.4 m 0,-5.87 q 9.03,0 14.18,5.87 5.15,5.87 5.15,16.25 0,10.34 -5.15,16.25 -5.15,5.87 -14.18,5.87 -9.07,0 -14.22,-5.87 -5.12,-5.91 -5.12,-16.25 0,-10.38 5.12,-16.25 5.15,-5.87 14.22,-5.87 z"
         fill="#000000"
         fill-rule="nonzero"
         fill-opacity="1"
         id="path93" /><path
         clip-path="url(#clip320)"
         d="m 2181.35,1980.55 v 6.47 q -2.93,-1.61 -5.9,-2.4 -2.94,-0.83 -5.95,-0.83 -6.73,0 -10.45,4.29 -3.73,4.25 -3.73,11.96 0,7.71 3.73,12 3.72,4.25 10.45,4.25 3.01,0 5.95,-0.79 2.97,-0.83 5.9,-2.45 v 6.4 q -2.89,1.35 -6.02,2.03 -3.08,0.68 -6.58,0.68 -9.52,0 -15.12,-5.98 -5.6,-5.99 -5.6,-16.14 0,-10.31 5.64,-16.21 5.68,-5.91 15.53,-5.91 3.2,0 6.25,0.68 3.04,0.64 5.9,1.95 z"
         fill="#000000"
         fill-rule="nonzero"
         fill-opacity="1"
         id="path94" /><path
         clip-path="url(#clip320)"
         d="m 2229.43,1998.27 v 3.39 h -31.83 q 0.45,7.14 4.29,10.9 3.88,3.73 10.76,3.73 3.99,0 7.71,-0.98 3.76,-0.98 7.45,-2.93 v 6.54 q -3.73,1.58 -7.64,2.41 -3.91,0.83 -7.93,0.83 -10.09,0 -15.99,-5.87 -5.87,-5.87 -5.87,-15.88 0,-10.34 5.57,-16.4 5.6,-6.09 15.08,-6.09 8.5,0 13.43,5.49 4.97,5.46 4.97,14.86 m -6.93,-2.03 q -0.07,-5.68 -3.19,-9.07 -3.09,-3.38 -8.2,-3.38 -5.8,0 -9.29,3.27 -3.46,3.27 -3.99,9.22 z"
         fill="#000000"
         fill-rule="nonzero"
         fill-opacity="1"
         id="path95" /><path
         clip-path="url(#clip320)"
         d="m 2275.81,1995.64 v 25.43 h -6.93 v -25.21 q 0,-5.98 -2.33,-8.95 -2.33,-2.97 -6.99,-2.97 -5.61,0 -8.84,3.57 -3.24,3.58 -3.24,9.75 v 23.81 h -6.96 v -42.13 h 6.96 v 6.54 q 2.48,-3.8 5.83,-5.68 3.39,-1.88 7.79,-1.88 7.26,0 10.98,4.51 3.73,4.48 3.73,13.21 z"
         fill="#000000"
         fill-rule="nonzero"
         fill-opacity="1"
         id="path96" /><path
         clip-path="url(#clip320)"
         d="m 2325.65,1998.27 v 3.39 h -31.83 q 0.45,7.14 4.29,10.9 3.88,3.73 10.76,3.73 3.99,0 7.71,-0.98 3.76,-0.98 7.45,-2.93 v 6.54 q -3.73,1.58 -7.64,2.41 -3.91,0.83 -7.93,0.83 -10.09,0 -15.99,-5.87 -5.87,-5.87 -5.87,-15.88 0,-10.34 5.57,-16.4 5.6,-6.09 15.08,-6.09 8.5,0 13.43,5.49 4.97,5.46 4.97,14.86 m -6.93,-2.03 q -0.07,-5.68 -3.19,-9.07 -3.09,-3.38 -8.2,-3.38 -5.8,0 -9.29,3.27 -3.46,3.27 -3.99,9.22 z"
         fill="#000000"
         fill-rule="nonzero"
         fill-opacity="1"
         id="path97" /><polyline
         clip-path="url(#clip320)"
         style="fill:none;stroke:#843505;stroke-width:32.5;stroke-linecap:round;stroke-linejoin:round;stroke-opacity:1"
         points="1163.13,2077.23 1350.91,2077.23 "
         id="polyline97" /><path
         clip-path="url(#clip320)"
         d="m 1382.21,2049.15 h 11.32 l 14.33,38.21 14.41,-38.21 h 11.32 v 56.16 h -7.41 v -49.32 l -14.48,38.52 h -7.63 l -14.49,-38.52 v 49.32 h -7.37 z"
         fill="#000000"
         fill-rule="nonzero"
         fill-opacity="1"
         id="path98" /><path
         clip-path="url(#clip320)"
         d="m 1448.38,2063.18 h 6.92 v 42.13 h -6.92 v -42.13 m 0,-16.4 h 6.92 v 8.76 h -6.92 z"
         fill="#000000"
         fill-rule="nonzero"
         fill-opacity="1"
         id="path99" /><path
         clip-path="url(#clip320)"
         d="m 1486.1,2068.03 q -5.56,0 -8.8,4.36 -3.23,4.33 -3.23,11.89 0,7.56 3.2,11.92 3.23,4.33 8.83,4.33 5.53,0 8.77,-4.36 3.23,-4.37 3.23,-11.89 0,-7.49 -3.23,-11.85 -3.24,-4.4 -8.77,-4.4 m 0,-5.87 q 9.03,0 14.19,5.87 5.15,5.87 5.15,16.25 0,10.34 -5.15,16.25 -5.16,5.87 -14.19,5.87 -9.06,0 -14.21,-5.87 -5.12,-5.91 -5.12,-16.25 0,-10.38 5.12,-16.25 5.15,-5.87 14.21,-5.87 z"
         fill="#000000"
         fill-rule="nonzero"
         fill-opacity="1"
         id="path100" /><path
         clip-path="url(#clip320)"
         d="m 1547.23,2064.79 v 6.47 q -2.93,-1.61 -5.91,-2.4 -2.93,-0.83 -5.94,-0.83 -6.73,0 -10.46,4.29 -3.72,4.25 -3.72,11.96 0,7.71 3.72,12 3.73,4.25 10.46,4.25 3.01,0 5.94,-0.79 2.98,-0.83 5.91,-2.45 v 6.4 q -2.9,1.35 -6.02,2.03 -3.08,0.68 -6.58,0.68 -9.52,0 -15.12,-5.98 -5.61,-5.99 -5.61,-16.14 0,-10.31 5.65,-16.21 5.68,-5.91 15.53,-5.91 3.2,0 6.24,0.68 3.05,0.64 5.91,1.95 z"
         fill="#000000"
         fill-rule="nonzero"
         fill-opacity="1"
         id="path101" /><path
         clip-path="url(#clip320)"
         d="m 1595.3,2082.51 v 3.39 h -31.82 q 0.45,7.14 4.29,10.9 3.87,3.73 10.76,3.73 3.98,0 7.71,-0.98 3.76,-0.98 7.45,-2.93 v 6.54 q -3.73,1.58 -7.64,2.41 -3.91,0.83 -7.94,0.83 -10.08,0 -15.98,-5.87 -5.87,-5.87 -5.87,-15.88 0,-10.34 5.56,-16.4 5.61,-6.09 15.09,-6.09 8.5,0 13.43,5.49 4.96,5.46 4.96,14.86 m -6.92,-2.03 q -0.07,-5.68 -3.2,-9.07 -3.08,-3.38 -8.2,-3.38 -5.79,0 -9.29,3.27 -3.46,3.27 -3.98,9.22 z"
         fill="#000000"
         fill-rule="nonzero"
         fill-opacity="1"
         id="path102" /><path
         clip-path="url(#clip320)"
         d="m 1641.68,2079.88 v 25.43 h -6.92 v -25.21 q 0,-5.98 -2.33,-8.95 -2.33,-2.97 -7,-2.97 -5.6,0 -8.84,3.57 -3.23,3.58 -3.23,9.75 v 23.81 h -6.96 v -42.13 h 6.96 v 6.54 q 2.48,-3.8 5.83,-5.68 3.38,-1.88 7.79,-1.88 7.25,0 10.98,4.51 3.72,4.48 3.72,13.21 z"
         fill="#000000"
         fill-rule="nonzero"
         fill-opacity="1"
         id="path103" /><path
         clip-path="url(#clip320)"
         d="m 1691.52,2082.51 v 3.39 h -31.82 q 0.45,7.14 4.29,10.9 3.87,3.73 10.76,3.73 3.98,0 7.71,-0.98 3.76,-0.98 7.45,-2.93 v 6.54 q -3.73,1.58 -7.64,2.41 -3.91,0.83 -7.94,0.83 -10.08,0 -15.98,-5.87 -5.87,-5.87 -5.87,-15.88 0,-10.34 5.57,-16.4 5.6,-6.09 15.08,-6.09 8.5,0 13.43,5.49 4.96,5.46 4.96,14.86 m -6.92,-2.03 q -0.07,-5.68 -3.2,-9.07 -3.08,-3.38 -8.2,-3.38 -5.79,0 -9.29,3.27 -3.46,3.27 -3.98,9.22 z"
         fill="#000000"
         fill-rule="nonzero"
         fill-opacity="1"
         id="path104" /><polyline
         clip-path="url(#clip320)"
         style="fill:none;stroke:#f8a916;stroke-width:32.5;stroke-linecap:round;stroke-linejoin:round;stroke-opacity:1"
         points="1163.13,2161.47 1350.91,2161.47 "
         id="polyline104" /><path
         clip-path="url(#clip320)"
         d="m 1389.81,2139.63 v 21.1 h 9.55 q 5.31,0 8.2,-2.74 2.9,-2.75 2.9,-7.83 0,-5.04 -2.9,-7.78 -2.89,-2.75 -8.2,-2.75 h -9.55 m -7.6,-6.24 h 17.15 q 9.44,0 14.26,4.28 4.85,4.25 4.85,12.49 0,8.32 -4.85,12.57 -4.82,4.25 -14.26,4.25 h -9.55 v 22.57 h -7.6 z"
         fill="#000000"
         fill-rule="nonzero"
         fill-opacity="1"
         id="path105" /><path
         clip-path="url(#clip320)"
         d="m 1428.37,2131.02 h 6.92 v 58.53 h -6.92 z"
         fill="#000000"
         fill-rule="nonzero"
         fill-opacity="1"
         id="path106" /><path
         clip-path="url(#clip320)"
         d="m 1449.77,2147.42 h 6.92 v 42.13 h -6.92 v -42.13 m 0,-16.4 h 6.92 v 8.76 h -6.92 z"
         fill="#000000"
         fill-rule="nonzero"
         fill-opacity="1"
         id="path107" /><path
         clip-path="url(#clip320)"
         d="m 1487.5,2152.27 q -5.57,0 -8.81,4.36 -3.23,4.33 -3.23,11.89 0,7.56 3.2,11.92 3.23,4.33 8.84,4.33 5.53,0 8.76,-4.36 3.24,-4.37 3.24,-11.89 0,-7.49 -3.24,-11.85 -3.23,-4.4 -8.76,-4.4 m 0,-5.87 q 9.02,0 14.18,5.87 5.15,5.87 5.15,16.25 0,10.34 -5.15,16.25 -5.16,5.87 -14.18,5.87 -9.07,0 -14.22,-5.87 -5.12,-5.91 -5.12,-16.25 0,-10.38 5.12,-16.25 5.15,-5.87 14.22,-5.87 z"
         fill="#000000"
         fill-rule="nonzero"
         fill-opacity="1"
         id="path108" /><path
         clip-path="url(#clip320)"
         d="m 1548.62,2149.03 v 6.47 q -2.93,-1.61 -5.9,-2.4 -2.94,-0.83 -5.95,-0.83 -6.73,0 -10.45,4.29 -3.73,4.25 -3.73,11.96 0,7.71 3.73,12 3.72,4.25 10.45,4.25 3.01,0 5.95,-0.79 2.97,-0.83 5.9,-2.45 v 6.4 q -2.89,1.35 -6.02,2.03 -3.08,0.68 -6.58,0.68 -9.52,0 -15.12,-5.98 -5.61,-5.99 -5.61,-16.14 0,-10.31 5.65,-16.21 5.68,-5.91 15.53,-5.91 3.2,0 6.25,0.68 3.04,0.64 5.9,1.95 z"
         fill="#000000"
         fill-rule="nonzero"
         fill-opacity="1"
         id="path109" /><path
         clip-path="url(#clip320)"
         d="m 1596.69,2166.75 v 3.39 h -31.82 q 0.45,7.14 4.29,10.9 3.87,3.73 10.76,3.73 3.99,0 7.71,-0.98 3.76,-0.98 7.45,-2.93 v 6.54 q -3.73,1.58 -7.64,2.41 -3.91,0.83 -7.94,0.83 -10.08,0 -15.98,-5.87 -5.87,-5.87 -5.87,-15.88 0,-10.34 5.57,-16.4 5.6,-6.09 15.08,-6.09 8.5,0 13.43,5.49 4.96,5.46 4.96,14.86 m -6.92,-2.03 q -0.07,-5.68 -3.19,-9.07 -3.09,-3.38 -8.2,-3.38 -5.8,0 -9.3,3.27 -3.46,3.27 -3.98,9.22 z"
         fill="#000000"
         fill-rule="nonzero"
         fill-opacity="1"
         id="path110" /><path
         clip-path="url(#clip320)"
         d="m 1643.07,2164.12 v 25.43 h -6.92 v -25.21 q 0,-5.98 -2.33,-8.95 -2.33,-2.97 -7,-2.97 -5.6,0 -8.84,3.57 -3.23,3.58 -3.23,9.75 v 23.81 h -6.96 v -42.13 h 6.96 v 6.54 q 2.48,-3.8 5.83,-5.68 3.39,-1.88 7.79,-1.88 7.26,0 10.98,4.51 3.72,4.48 3.72,13.21 z"
         fill="#000000"
         fill-rule="nonzero"
         fill-opacity="1"
         id="path111" /><path
         clip-path="url(#clip320)"
         d="m 1692.92,2166.75 v 3.39 h -31.83 q 0.45,7.14 4.29,10.9 3.87,3.73 10.76,3.73 3.99,0 7.71,-0.98 3.76,-0.98 7.45,-2.93 v 6.54 q -3.73,1.58 -7.64,2.41 -3.91,0.83 -7.94,0.83 -10.08,0 -15.98,-5.87 -5.87,-5.87 -5.87,-15.88 0,-10.34 5.57,-16.4 5.6,-6.09 15.08,-6.09 8.5,0 13.43,5.49 4.97,5.46 4.97,14.86 m -6.93,-2.03 q -0.07,-5.68 -3.19,-9.07 -3.09,-3.38 -8.2,-3.38 -5.8,0 -9.29,3.27 -3.47,3.27 -3.99,9.22 z"
         fill="#000000"
         fill-rule="nonzero"
         fill-opacity="1"
         id="path112" /></g><text
       xml:space="preserve"
       style="font-size:32px;font-family:Helvetica;-inkscape-font-specification:Helvetica;fill:#0000ff;fill-opacity:0.964143;fill-rule:evenodd;stroke:#000000;stroke-width:0"
       x="17.782511"
       y="92.727989"
       id="text4"><tspan
         sodipodi:role="line"
         id="tspan4"
         x="17.782511"
         y="92.727989"
         style="fill:#1a1a1a">(a)</tspan></text><text
       xml:space="preserve"
       style="font-size:32px;font-family:Helvetica;-inkscape-font-specification:Helvetica;fill:#0000ff;fill-opacity:0.964143;fill-rule:evenodd;stroke:#000000;stroke-width:0"
       x="17.781252"
       y="612.98328"
       id="text4-8"><tspan
         sodipodi:role="line"
         id="tspan4-6"
         x="17.781252"
         y="612.98328"
         style="fill:#1a1a1a">(b)</tspan></text></g></svg>
