<?xml version="1.0" encoding="utf-8"?>
<svg xmlns="http://www.w3.org/2000/svg" xmlns:xlink="http://www.w3.org/1999/xlink" width="800" height="650" viewBox="0 0 3200 2600">
<defs>
  <clipPath id="clip470">
    <rect x="0" y="0" width="3200" height="2600"/>
  </clipPath>
</defs>
<path clip-path="url(#clip470)" d="M0 2600 L3200 2600 L3200 0 L0 0  Z" fill="#ffffff" fill-rule="evenodd" fill-opacity="1"/>
<defs>
  <clipPath id="clip471">
    <rect x="640" y="0" width="2241" height="2241"/>
  </clipPath>
</defs>
<path clip-path="url(#clip470)" d="M336.022 2321.51 L3152.76 2321.51 L3152.76 47.2441 L336.022 47.2441  Z" fill="#ffffff" fill-rule="evenodd" fill-opacity="1"/>
<defs>
  <clipPath id="clip472">
    <rect x="336" y="47" width="2818" height="2275"/>
  </clipPath>
</defs>
<polyline clip-path="url(#clip470)" style="stroke:#000000; stroke-linecap:round; stroke-linejoin:round; stroke-width:4; stroke-opacity:1; fill:none" points="336.022,2321.51 3152.76,2321.51 "/>
<polyline clip-path="url(#clip470)" style="stroke:#000000; stroke-linecap:round; stroke-linejoin:round; stroke-width:4; stroke-opacity:1; fill:none" points="336.022,47.2441 3152.76,47.2441 "/>
<polyline clip-path="url(#clip470)" style="stroke:#000000; stroke-linecap:round; stroke-linejoin:round; stroke-width:4; stroke-opacity:1; fill:none" points="415.741,2321.51 415.741,2302.62 "/>
<polyline clip-path="url(#clip470)" style="stroke:#000000; stroke-linecap:round; stroke-linejoin:round; stroke-width:4; stroke-opacity:1; fill:none" points="1080.06,2321.51 1080.06,2302.62 "/>
<polyline clip-path="url(#clip470)" style="stroke:#000000; stroke-linecap:round; stroke-linejoin:round; stroke-width:4; stroke-opacity:1; fill:none" points="1744.39,2321.51 1744.39,2302.62 "/>
<polyline clip-path="url(#clip470)" style="stroke:#000000; stroke-linecap:round; stroke-linejoin:round; stroke-width:4; stroke-opacity:1; fill:none" points="2408.71,2321.51 2408.71,2302.62 "/>
<polyline clip-path="url(#clip470)" style="stroke:#000000; stroke-linecap:round; stroke-linejoin:round; stroke-width:4; stroke-opacity:1; fill:none" points="3073.04,2321.51 3073.04,2302.62 "/>
<polyline clip-path="url(#clip470)" style="stroke:#000000; stroke-linecap:round; stroke-linejoin:round; stroke-width:4; stroke-opacity:1; fill:none" points="415.741,47.2441 415.741,66.1417 "/>
<polyline clip-path="url(#clip470)" style="stroke:#000000; stroke-linecap:round; stroke-linejoin:round; stroke-width:4; stroke-opacity:1; fill:none" points="1080.06,47.2441 1080.06,66.1417 "/>
<polyline clip-path="url(#clip470)" style="stroke:#000000; stroke-linecap:round; stroke-linejoin:round; stroke-width:4; stroke-opacity:1; fill:none" points="1744.39,47.2441 1744.39,66.1417 "/>
<polyline clip-path="url(#clip470)" style="stroke:#000000; stroke-linecap:round; stroke-linejoin:round; stroke-width:4; stroke-opacity:1; fill:none" points="2408.71,47.2441 2408.71,66.1417 "/>
<polyline clip-path="url(#clip470)" style="stroke:#000000; stroke-linecap:round; stroke-linejoin:round; stroke-width:4; stroke-opacity:1; fill:none" points="3073.04,47.2441 3073.04,66.1417 "/>
<path clip-path="url(#clip470)" d="M349.052 2420.74 L363.375 2420.74 L363.375 2371.3 L347.794 2374.43 L347.794 2366.44 L363.289 2363.31 L372.056 2363.31 L372.056 2420.74 L386.379 2420.74 L386.379 2428.11 L349.052 2428.11 L349.052 2420.74 Z" fill="#000000" fill-rule="nonzero" fill-opacity="1" /><path clip-path="url(#clip470)" d="M422.837 2369.09 Q416.066 2369.09 412.637 2375.77 Q409.252 2382.41 409.252 2395.78 Q409.252 2409.1 412.637 2415.79 Q416.066 2422.43 422.837 2422.43 Q429.651 2422.43 433.036 2415.79 Q436.465 2409.1 436.465 2395.78 Q436.465 2382.41 433.036 2375.77 Q429.651 2369.09 422.837 2369.09 M422.837 2362.14 Q433.731 2362.14 439.46 2370.78 Q445.233 2379.37 445.233 2395.78 Q445.233 2412.14 439.46 2420.78 Q433.731 2429.37 422.837 2429.37 Q411.943 2429.37 406.17 2420.78 Q400.441 2412.14 400.441 2395.78 Q400.441 2379.37 406.17 2370.78 Q411.943 2362.14 422.837 2362.14 Z" fill="#000000" fill-rule="nonzero" fill-opacity="1" /><path clip-path="url(#clip470)" d="M475.875 2369.74 Q473.705 2366.01 469.321 2366.01 Q464.937 2366.01 462.767 2369.74 Q460.554 2373.47 460.554 2380.94 Q460.554 2388.44 462.767 2392.18 Q464.937 2395.91 469.321 2395.91 Q473.705 2395.91 475.875 2392.18 Q478.088 2388.44 478.088 2380.94 Q478.088 2373.47 475.875 2369.74 M469.321 2362.14 Q476.309 2362.14 479.998 2366.96 Q483.687 2371.78 483.687 2380.94 Q483.687 2390.14 479.998 2394.96 Q476.309 2399.77 469.321 2399.77 Q462.29 2399.77 458.601 2394.96 Q454.911 2390.14 454.911 2380.94 Q454.911 2371.78 458.601 2366.96 Q462.29 2362.14 469.321 2362.14 Z" fill="#000000" fill-rule="nonzero" fill-opacity="1" /><path clip-path="url(#clip470)" d="M1014.27 2420.74 L1028.59 2420.74 L1028.59 2371.3 L1013.01 2374.43 L1013.01 2366.44 L1028.5 2363.31 L1037.27 2363.31 L1037.27 2420.74 L1051.59 2420.74 L1051.59 2428.11 L1014.27 2428.11 L1014.27 2420.74 Z" fill="#000000" fill-rule="nonzero" fill-opacity="1" /><path clip-path="url(#clip470)" d="M1088.05 2369.09 Q1081.28 2369.09 1077.85 2375.77 Q1074.47 2382.41 1074.47 2395.78 Q1074.47 2409.1 1077.85 2415.79 Q1081.28 2422.43 1088.05 2422.43 Q1094.86 2422.43 1098.25 2415.79 Q1101.68 2409.1 1101.68 2395.78 Q1101.68 2382.41 1098.25 2375.77 Q1094.86 2369.09 1088.05 2369.09 M1088.05 2362.14 Q1098.94 2362.14 1104.67 2370.78 Q1110.45 2379.37 1110.45 2395.78 Q1110.45 2412.14 1104.67 2420.78 Q1098.94 2429.37 1088.05 2429.37 Q1077.16 2429.37 1071.38 2420.78 Q1065.65 2412.14 1065.65 2395.78 Q1065.65 2379.37 1071.38 2370.78 Q1077.16 2362.14 1088.05 2362.14 Z" fill="#000000" fill-rule="nonzero" fill-opacity="1" /><path clip-path="url(#clip470)" d="M1123.12 2394.35 L1131.97 2394.35 L1131.97 2367.83 L1122.3 2369.61 L1122.3 2364.57 L1132.28 2362.88 L1138.22 2362.88 L1138.22 2394.35 L1147.12 2394.35 L1147.12 2399.12 L1123.12 2399.12 L1123.12 2394.35 Z" fill="#000000" fill-rule="nonzero" fill-opacity="1" /><path clip-path="url(#clip470)" d="M1678.96 2420.74 L1693.28 2420.74 L1693.28 2371.3 L1677.7 2374.43 L1677.7 2366.44 L1693.2 2363.31 L1701.96 2363.31 L1701.96 2420.74 L1716.29 2420.74 L1716.29 2428.11 L1678.96 2428.11 L1678.96 2420.74 Z" fill="#000000" fill-rule="nonzero" fill-opacity="1" /><path clip-path="url(#clip470)" d="M1752.74 2369.09 Q1745.97 2369.09 1742.54 2375.77 Q1739.16 2382.41 1739.16 2395.78 Q1739.16 2409.1 1742.54 2415.79 Q1745.97 2422.43 1752.74 2422.43 Q1759.56 2422.43 1762.94 2415.79 Q1766.37 2409.1 1766.37 2395.78 Q1766.37 2382.41 1762.94 2375.77 Q1759.56 2369.09 1752.74 2369.09 M1752.74 2362.14 Q1763.64 2362.14 1769.37 2370.78 Q1775.14 2379.37 1775.14 2395.78 Q1775.14 2412.14 1769.37 2420.78 Q1763.64 2429.37 1752.74 2429.37 Q1741.85 2429.37 1736.08 2420.78 Q1730.35 2412.14 1730.35 2395.78 Q1730.35 2379.37 1736.08 2370.78 Q1741.85 2362.14 1752.74 2362.14 Z" fill="#000000" fill-rule="nonzero" fill-opacity="1" /><path clip-path="url(#clip470)" d="M1792.67 2394.17 L1811.08 2394.17 L1811.08 2399.12 L1785.12 2399.12 L1785.12 2394.35 Q1786.6 2393 1789.33 2390.57 Q1804.26 2377.33 1804.26 2373.25 Q1804.26 2370.39 1802.01 2368.65 Q1799.75 2366.87 1796.06 2366.87 Q1793.8 2366.87 1791.16 2367.66 Q1788.51 2368.39 1785.38 2369.91 L1785.38 2364.57 Q1788.72 2363.36 1791.59 2362.75 Q1794.5 2362.14 1796.97 2362.14 Q1803.26 2362.14 1807.04 2365.01 Q1810.82 2367.87 1810.82 2372.56 Q1810.82 2378.59 1796.45 2390.92 Q1794.02 2393 1792.67 2394.17 Z" fill="#000000" fill-rule="nonzero" fill-opacity="1" /><path clip-path="url(#clip470)" d="M2342.74 2420.74 L2357.06 2420.74 L2357.06 2371.3 L2341.48 2374.43 L2341.48 2366.44 L2356.98 2363.31 L2365.74 2363.31 L2365.74 2420.74 L2380.07 2420.74 L2380.07 2428.11 L2342.74 2428.11 L2342.74 2420.74 Z" fill="#000000" fill-rule="nonzero" fill-opacity="1" /><path clip-path="url(#clip470)" d="M2416.53 2369.09 Q2409.75 2369.09 2406.33 2375.77 Q2402.94 2382.41 2402.94 2395.78 Q2402.94 2409.1 2406.33 2415.79 Q2409.75 2422.43 2416.53 2422.43 Q2423.34 2422.43 2426.72 2415.79 Q2430.15 2409.1 2430.15 2395.78 Q2430.15 2382.41 2426.72 2375.77 Q2423.34 2369.09 2416.53 2369.09 M2416.53 2362.14 Q2427.42 2362.14 2433.15 2370.78 Q2438.92 2379.37 2438.92 2395.78 Q2438.92 2412.14 2433.15 2420.78 Q2427.42 2429.37 2416.53 2429.37 Q2405.63 2429.37 2399.86 2420.78 Q2394.13 2412.14 2394.13 2395.78 Q2394.13 2379.37 2399.86 2370.78 Q2405.63 2362.14 2416.53 2362.14 Z" fill="#000000" fill-rule="nonzero" fill-opacity="1" /><path clip-path="url(#clip470)" d="M2467.57 2379.5 Q2471.56 2380.29 2473.73 2382.67 Q2475.94 2385.02 2475.94 2388.58 Q2475.94 2393.96 2471.82 2396.87 Q2467.7 2399.77 2460.01 2399.77 Q2457.54 2399.77 2454.81 2399.34 Q2452.12 2398.86 2449.08 2397.99 L2449.08 2392.74 Q2451.33 2393.91 2453.89 2394.48 Q2456.5 2395.04 2459.41 2395.04 Q2464.14 2395.04 2466.74 2393.35 Q2469.35 2391.61 2469.35 2388.58 Q2469.35 2385.36 2466.92 2383.71 Q2464.53 2382.06 2459.84 2382.06 L2456.11 2382.06 L2456.11 2377.38 L2460.19 2377.38 Q2464.27 2377.38 2466.35 2376.03 Q2468.48 2374.64 2468.48 2372.04 Q2468.48 2369.52 2466.31 2368.22 Q2464.14 2366.87 2460.01 2366.87 Q2458.28 2366.87 2456.07 2367.26 Q2453.85 2367.66 2450.34 2368.65 L2450.34 2363.66 Q2453.5 2362.92 2456.28 2362.53 Q2459.06 2362.14 2461.45 2362.14 Q2467.7 2362.14 2471.34 2364.7 Q2475.03 2367.26 2475.03 2371.56 Q2475.03 2374.56 2473.08 2376.64 Q2471.13 2378.72 2467.57 2379.5 Z" fill="#000000" fill-rule="nonzero" fill-opacity="1" /><path clip-path="url(#clip470)" d="M3006.22 2420.74 L3020.54 2420.74 L3020.54 2371.3 L3004.96 2374.43 L3004.96 2366.44 L3020.45 2363.31 L3029.22 2363.31 L3029.22 2420.74 L3043.54 2420.74 L3043.54 2428.11 L3006.22 2428.11 L3006.22 2420.74 Z" fill="#000000" fill-rule="nonzero" fill-opacity="1" /><path clip-path="url(#clip470)" d="M3080 2369.09 Q3073.23 2369.09 3069.8 2375.77 Q3066.42 2382.41 3066.42 2395.78 Q3066.42 2409.1 3069.8 2415.79 Q3073.23 2422.43 3080 2422.43 Q3086.82 2422.43 3090.2 2415.79 Q3093.63 2409.1 3093.63 2395.78 Q3093.63 2382.41 3090.2 2375.77 Q3086.82 2369.09 3080 2369.09 M3080 2362.14 Q3090.9 2362.14 3096.63 2370.78 Q3102.4 2379.37 3102.4 2395.78 Q3102.4 2412.14 3096.63 2420.78 Q3090.9 2429.37 3080 2429.37 Q3069.11 2429.37 3063.34 2420.78 Q3057.61 2412.14 3057.61 2395.78 Q3057.61 2379.37 3063.34 2370.78 Q3069.11 2362.14 3080 2362.14 Z" fill="#000000" fill-rule="nonzero" fill-opacity="1" /><path clip-path="url(#clip470)" d="M3129 2368.13 L3115.59 2386.32 L3129 2386.32 L3129 2368.13 M3128.05 2362.88 L3135.25 2362.88 L3135.25 2386.32 L3141.11 2386.32 L3141.11 2391.05 L3135.25 2391.05 L3135.25 2399.12 L3129 2399.12 L3129 2391.05 L3111.04 2391.05 L3111.04 2385.8 L3128.05 2362.88 Z" fill="#000000" fill-rule="nonzero" fill-opacity="1" /><path clip-path="url(#clip470)" d="M1349.63 2522.89 L1349.63 2551.38 L1366.5 2551.38 Q1374.99 2551.38 1379.05 2547.89 Q1383.17 2544.35 1383.17 2537.11 Q1383.17 2529.82 1379.05 2526.38 Q1374.99 2522.89 1366.5 2522.89 L1349.63 2522.89 M1349.63 2490.91 L1349.63 2514.35 L1365.2 2514.35 Q1372.91 2514.35 1376.66 2511.49 Q1380.46 2508.57 1380.46 2502.63 Q1380.46 2496.75 1376.66 2493.83 Q1372.91 2490.91 1365.2 2490.91 L1349.63 2490.91 M1339.1 2482.27 L1365.98 2482.27 Q1378.01 2482.27 1384.52 2487.27 Q1391.03 2492.27 1391.03 2501.49 Q1391.03 2508.62 1387.7 2512.84 Q1384.36 2517.06 1377.91 2518.1 Q1385.67 2519.77 1389.94 2525.08 Q1394.26 2530.34 1394.26 2538.26 Q1394.26 2548.67 1387.18 2554.35 Q1380.09 2560.03 1367.02 2560.03 L1339.1 2560.03 L1339.1 2482.27 Z" fill="#000000" fill-rule="nonzero" fill-opacity="1" /><path clip-path="url(#clip470)" d="M1434.47 2508.41 Q1426.76 2508.41 1422.28 2514.45 Q1417.8 2520.44 1417.8 2530.91 Q1417.8 2541.38 1422.23 2547.42 Q1426.71 2553.41 1434.47 2553.41 Q1442.12 2553.41 1446.6 2547.37 Q1451.08 2541.33 1451.08 2530.91 Q1451.08 2520.55 1446.6 2514.51 Q1442.12 2508.41 1434.47 2508.41 M1434.47 2500.29 Q1446.97 2500.29 1454.1 2508.41 Q1461.24 2516.54 1461.24 2530.91 Q1461.24 2545.24 1454.1 2553.41 Q1446.97 2561.54 1434.47 2561.54 Q1421.92 2561.54 1414.78 2553.41 Q1407.7 2545.24 1407.7 2530.91 Q1407.7 2516.54 1414.78 2508.41 Q1421.92 2500.29 1434.47 2500.29 Z" fill="#000000" fill-rule="nonzero" fill-opacity="1" /><path clip-path="url(#clip470)" d="M1515.51 2510.55 L1515.51 2478.99 L1525.09 2478.99 L1525.09 2560.03 L1515.51 2560.03 L1515.51 2551.28 Q1512.49 2556.49 1507.85 2559.04 Q1503.27 2561.54 1496.81 2561.54 Q1486.24 2561.54 1479.57 2553.1 Q1472.96 2544.66 1472.96 2530.91 Q1472.96 2517.16 1479.57 2508.73 Q1486.24 2500.29 1496.81 2500.29 Q1503.27 2500.29 1507.85 2502.84 Q1512.49 2505.34 1515.51 2510.55 M1482.85 2530.91 Q1482.85 2541.49 1487.18 2547.53 Q1491.55 2553.52 1499.16 2553.52 Q1506.76 2553.52 1511.13 2547.53 Q1515.51 2541.49 1515.51 2530.91 Q1515.51 2520.34 1511.13 2514.35 Q1506.76 2508.31 1499.16 2508.31 Q1491.55 2508.31 1487.18 2514.35 Q1482.85 2520.34 1482.85 2530.91 Z" fill="#000000" fill-rule="nonzero" fill-opacity="1" /><path clip-path="url(#clip470)" d="M1569.1 2565.44 Q1565.04 2575.86 1561.19 2579.04 Q1557.33 2582.21 1550.87 2582.21 L1543.22 2582.21 L1543.22 2574.19 L1548.84 2574.19 Q1552.8 2574.19 1554.99 2572.32 Q1557.18 2570.44 1559.83 2563.46 L1561.55 2559.09 L1537.96 2501.69 L1548.11 2501.69 L1566.34 2547.32 L1584.57 2501.69 L1594.73 2501.69 L1569.1 2565.44 Z" fill="#000000" fill-rule="nonzero" fill-opacity="1" /><path clip-path="url(#clip470)" d="M1687.28 2512.89 Q1690.87 2506.43 1695.87 2503.36 Q1700.87 2500.29 1707.64 2500.29 Q1716.76 2500.29 1721.71 2506.69 Q1726.65 2513.05 1726.65 2524.82 L1726.65 2560.03 L1717.02 2560.03 L1717.02 2525.13 Q1717.02 2516.75 1714.05 2512.68 Q1711.08 2508.62 1704.99 2508.62 Q1697.54 2508.62 1693.22 2513.57 Q1688.89 2518.52 1688.89 2527.06 L1688.89 2560.03 L1679.26 2560.03 L1679.26 2525.13 Q1679.26 2516.69 1676.29 2512.68 Q1673.32 2508.62 1667.12 2508.62 Q1659.78 2508.62 1655.46 2513.62 Q1651.13 2518.57 1651.13 2527.06 L1651.13 2560.03 L1641.5 2560.03 L1641.5 2501.69 L1651.13 2501.69 L1651.13 2510.76 Q1654.42 2505.39 1659 2502.84 Q1663.58 2500.29 1669.88 2500.29 Q1676.24 2500.29 1680.67 2503.52 Q1685.14 2506.75 1687.28 2512.89 Z" fill="#000000" fill-rule="nonzero" fill-opacity="1" /><path clip-path="url(#clip470)" d="M1772.28 2530.7 Q1760.66 2530.7 1756.19 2533.36 Q1751.71 2536.02 1751.71 2542.42 Q1751.71 2547.53 1755.04 2550.55 Q1758.43 2553.52 1764.21 2553.52 Q1772.18 2553.52 1776.97 2547.89 Q1781.81 2542.21 1781.81 2532.84 L1781.81 2530.7 L1772.28 2530.7 M1791.39 2526.75 L1791.39 2560.03 L1781.81 2560.03 L1781.81 2551.17 Q1778.53 2556.49 1773.63 2559.04 Q1768.74 2561.54 1761.65 2561.54 Q1752.7 2561.54 1747.38 2556.54 Q1742.12 2551.49 1742.12 2543.05 Q1742.12 2533.2 1748.69 2528.2 Q1755.3 2523.2 1768.37 2523.2 L1781.81 2523.2 L1781.81 2522.27 Q1781.81 2515.65 1777.44 2512.06 Q1773.11 2508.41 1765.25 2508.41 Q1760.25 2508.41 1755.51 2509.61 Q1750.77 2510.81 1746.39 2513.2 L1746.39 2504.35 Q1751.65 2502.32 1756.6 2501.33 Q1761.55 2500.29 1766.24 2500.29 Q1778.89 2500.29 1785.14 2506.85 Q1791.39 2513.41 1791.39 2526.75 Z" fill="#000000" fill-rule="nonzero" fill-opacity="1" /><path clip-path="url(#clip470)" d="M1848.32 2503.41 L1848.32 2512.48 Q1844.26 2510.39 1839.88 2509.35 Q1835.51 2508.31 1830.82 2508.31 Q1823.69 2508.31 1820.09 2510.5 Q1816.55 2512.68 1816.55 2517.06 Q1816.55 2520.39 1819.1 2522.32 Q1821.65 2524.19 1829.36 2525.91 L1832.64 2526.64 Q1842.85 2528.83 1847.12 2532.84 Q1851.45 2536.8 1851.45 2543.93 Q1851.45 2552.06 1844.99 2556.8 Q1838.58 2561.54 1827.33 2561.54 Q1822.64 2561.54 1817.54 2560.6 Q1812.49 2559.71 1806.86 2557.89 L1806.86 2548 Q1812.17 2550.76 1817.33 2552.16 Q1822.49 2553.52 1827.54 2553.52 Q1834.31 2553.52 1837.96 2551.22 Q1841.6 2548.88 1841.6 2544.66 Q1841.6 2540.76 1838.95 2538.67 Q1836.34 2536.59 1827.44 2534.66 L1824.1 2533.88 Q1815.2 2532.01 1811.24 2528.15 Q1807.28 2524.25 1807.28 2517.47 Q1807.28 2509.25 1813.11 2504.77 Q1818.95 2500.29 1829.67 2500.29 Q1834.99 2500.29 1839.67 2501.07 Q1844.36 2501.85 1848.32 2503.41 Z" fill="#000000" fill-rule="nonzero" fill-opacity="1" /><path clip-path="url(#clip470)" d="M1903.89 2503.41 L1903.89 2512.48 Q1899.83 2510.39 1895.46 2509.35 Q1891.08 2508.31 1886.39 2508.31 Q1879.26 2508.31 1875.66 2510.5 Q1872.12 2512.68 1872.12 2517.06 Q1872.12 2520.39 1874.67 2522.32 Q1877.23 2524.19 1884.93 2525.91 L1888.22 2526.64 Q1898.42 2528.83 1902.7 2532.84 Q1907.02 2536.8 1907.02 2543.93 Q1907.02 2552.06 1900.56 2556.8 Q1894.15 2561.54 1882.9 2561.54 Q1878.22 2561.54 1873.11 2560.6 Q1868.06 2559.71 1862.44 2557.89 L1862.44 2548 Q1867.75 2550.76 1872.9 2552.16 Q1878.06 2553.52 1883.11 2553.52 Q1889.88 2553.52 1893.53 2551.22 Q1897.17 2548.88 1897.17 2544.66 Q1897.17 2540.76 1894.52 2538.67 Q1891.91 2536.59 1883.01 2534.66 L1879.67 2533.88 Q1870.77 2532.01 1866.81 2528.15 Q1862.85 2524.25 1862.85 2517.47 Q1862.85 2509.25 1868.68 2504.77 Q1874.52 2500.29 1885.25 2500.29 Q1890.56 2500.29 1895.25 2501.07 Q1899.93 2501.85 1903.89 2503.41 Z" fill="#000000" fill-rule="nonzero" fill-opacity="1" /><path clip-path="url(#clip470)" d="M1979.21 2479.09 Q1972.23 2491.07 1968.84 2502.79 Q1965.46 2514.51 1965.46 2526.54 Q1965.46 2538.57 1968.84 2550.39 Q1972.28 2562.16 1979.21 2574.09 L1970.87 2574.09 Q1963.06 2561.85 1959.15 2550.03 Q1955.3 2538.2 1955.3 2526.54 Q1955.3 2514.92 1959.15 2503.15 Q1963.01 2491.38 1970.87 2479.09 L1979.21 2479.09 Z" fill="#000000" fill-rule="nonzero" fill-opacity="1" /><path clip-path="url(#clip470)" d="M1997.43 2478.99 L2007.07 2478.99 L2007.07 2526.85 L2035.66 2501.69 L2047.9 2501.69 L2016.97 2528.99 L2049.2 2560.03 L2036.7 2560.03 L2007.07 2531.54 L2007.07 2560.03 L1997.43 2560.03 L1997.43 2478.99 Z" fill="#000000" fill-rule="nonzero" fill-opacity="1" /><path clip-path="url(#clip470)" d="M2097.95 2530.18 Q2097.95 2519.77 2093.63 2514.04 Q2089.36 2508.31 2081.6 2508.31 Q2073.89 2508.31 2069.57 2514.04 Q2065.3 2519.77 2065.3 2530.18 Q2065.3 2540.55 2069.57 2546.28 Q2073.89 2552.01 2081.6 2552.01 Q2089.36 2552.01 2093.63 2546.28 Q2097.95 2540.55 2097.95 2530.18 M2107.54 2552.79 Q2107.54 2567.68 2100.92 2574.92 Q2094.31 2582.21 2080.66 2582.21 Q2075.61 2582.21 2071.13 2581.43 Q2066.65 2580.7 2062.43 2579.14 L2062.43 2569.82 Q2066.65 2572.11 2070.77 2573.2 Q2074.88 2574.3 2079.15 2574.3 Q2088.58 2574.3 2093.27 2569.35 Q2097.95 2564.45 2097.95 2554.51 L2097.95 2549.77 Q2094.99 2554.92 2090.35 2557.47 Q2085.72 2560.03 2079.26 2560.03 Q2068.53 2560.03 2061.97 2551.85 Q2055.4 2543.67 2055.4 2530.18 Q2055.4 2516.64 2061.97 2508.46 Q2068.53 2500.29 2079.26 2500.29 Q2085.72 2500.29 2090.35 2502.84 Q2094.99 2505.39 2097.95 2510.55 L2097.95 2501.69 L2107.54 2501.69 L2107.54 2552.79 Z" fill="#000000" fill-rule="nonzero" fill-opacity="1" /><path clip-path="url(#clip470)" d="M2125.77 2479.09 L2134.1 2479.09 Q2141.91 2491.38 2145.77 2503.15 Q2149.67 2514.92 2149.67 2526.54 Q2149.67 2538.2 2145.77 2550.03 Q2141.91 2561.85 2134.1 2574.09 L2125.77 2574.09 Q2132.69 2562.16 2136.08 2550.39 Q2139.52 2538.57 2139.52 2526.54 Q2139.52 2514.51 2136.08 2502.79 Q2132.69 2491.07 2125.77 2479.09 Z" fill="#000000" fill-rule="nonzero" fill-opacity="1" /><polyline clip-path="url(#clip470)" style="stroke:#000000; stroke-linecap:round; stroke-linejoin:round; stroke-width:4; stroke-opacity:1; fill:none" points="336.022,2321.51 336.022,47.2441 "/>
<polyline clip-path="url(#clip470)" style="stroke:#000000; stroke-linecap:round; stroke-linejoin:round; stroke-width:4; stroke-opacity:1; fill:none" points="3152.76,2321.51 3152.76,47.2441 "/>
<polyline clip-path="url(#clip470)" style="stroke:#000000; stroke-linecap:round; stroke-linejoin:round; stroke-width:4; stroke-opacity:1; fill:none" points="336.022,2321.51 354.919,2321.51 "/>
<polyline clip-path="url(#clip470)" style="stroke:#000000; stroke-linecap:round; stroke-linejoin:round; stroke-width:4; stroke-opacity:1; fill:none" points="336.022,1866.66 354.919,1866.66 "/>
<polyline clip-path="url(#clip470)" style="stroke:#000000; stroke-linecap:round; stroke-linejoin:round; stroke-width:4; stroke-opacity:1; fill:none" points="336.022,1411.81 354.919,1411.81 "/>
<polyline clip-path="url(#clip470)" style="stroke:#000000; stroke-linecap:round; stroke-linejoin:round; stroke-width:4; stroke-opacity:1; fill:none" points="336.022,956.952 354.919,956.952 "/>
<polyline clip-path="url(#clip470)" style="stroke:#000000; stroke-linecap:round; stroke-linejoin:round; stroke-width:4; stroke-opacity:1; fill:none" points="336.022,502.098 354.919,502.098 "/>
<polyline clip-path="url(#clip470)" style="stroke:#000000; stroke-linecap:round; stroke-linejoin:round; stroke-width:4; stroke-opacity:1; fill:none" points="336.022,47.2441 354.919,47.2441 "/>
<polyline clip-path="url(#clip470)" style="stroke:#000000; stroke-linecap:round; stroke-linejoin:round; stroke-width:4; stroke-opacity:1; fill:none" points="3152.76,2321.51 3133.86,2321.51 "/>
<polyline clip-path="url(#clip470)" style="stroke:#000000; stroke-linecap:round; stroke-linejoin:round; stroke-width:4; stroke-opacity:1; fill:none" points="3152.76,1866.66 3133.86,1866.66 "/>
<polyline clip-path="url(#clip470)" style="stroke:#000000; stroke-linecap:round; stroke-linejoin:round; stroke-width:4; stroke-opacity:1; fill:none" points="3152.76,1411.81 3133.86,1411.81 "/>
<polyline clip-path="url(#clip470)" style="stroke:#000000; stroke-linecap:round; stroke-linejoin:round; stroke-width:4; stroke-opacity:1; fill:none" points="3152.76,956.952 3133.86,956.952 "/>
<polyline clip-path="url(#clip470)" style="stroke:#000000; stroke-linecap:round; stroke-linejoin:round; stroke-width:4; stroke-opacity:1; fill:none" points="3152.76,502.098 3133.86,502.098 "/>
<polyline clip-path="url(#clip470)" style="stroke:#000000; stroke-linecap:round; stroke-linejoin:round; stroke-width:4; stroke-opacity:1; fill:none" points="3152.76,47.2441 3133.86,47.2441 "/>
<path clip-path="url(#clip470)" d="M180.817 2294.89 Q174.047 2294.89 170.618 2301.57 Q167.232 2308.21 167.232 2321.58 Q167.232 2334.9 170.618 2341.59 Q174.047 2348.23 180.817 2348.23 Q187.632 2348.23 191.017 2341.59 Q194.446 2334.9 194.446 2321.58 Q194.446 2308.21 191.017 2301.57 Q187.632 2294.89 180.817 2294.89 M180.817 2287.94 Q191.711 2287.94 197.44 2296.58 Q203.213 2305.17 203.213 2321.58 Q203.213 2337.94 197.44 2346.58 Q191.711 2355.17 180.817 2355.17 Q169.923 2355.17 164.151 2346.58 Q158.422 2337.94 158.422 2321.58 Q158.422 2305.17 164.151 2296.58 Q169.923 2287.94 180.817 2287.94 Z" fill="#000000" fill-rule="nonzero" fill-opacity="1" /><path clip-path="url(#clip470)" d="M218.621 2342.89 L227.779 2342.89 L227.779 2353.91 L218.621 2353.91 L218.621 2342.89 Z" fill="#000000" fill-rule="nonzero" fill-opacity="1" /><path clip-path="url(#clip470)" d="M265.626 2294.89 Q258.855 2294.89 255.426 2301.57 Q252.041 2308.21 252.041 2321.58 Q252.041 2334.9 255.426 2341.59 Q258.855 2348.23 265.626 2348.23 Q272.44 2348.23 275.825 2341.59 Q279.254 2334.9 279.254 2321.58 Q279.254 2308.21 275.825 2301.57 Q272.44 2294.89 265.626 2294.89 M265.626 2287.94 Q276.52 2287.94 282.249 2296.58 Q288.022 2305.17 288.022 2321.58 Q288.022 2337.94 282.249 2346.58 Q276.52 2355.17 265.626 2355.17 Q254.732 2355.17 248.959 2346.58 Q243.23 2337.94 243.23 2321.58 Q243.23 2305.17 248.959 2296.58 Q254.732 2287.94 265.626 2287.94 Z" fill="#000000" fill-rule="nonzero" fill-opacity="1" /><path clip-path="url(#clip470)" d="M183.812 1840.03 Q177.041 1840.03 173.613 1846.72 Q170.227 1853.36 170.227 1866.73 Q170.227 1880.05 173.613 1886.73 Q177.041 1893.37 183.812 1893.37 Q190.626 1893.37 194.012 1886.73 Q197.44 1880.05 197.44 1866.73 Q197.44 1853.36 194.012 1846.72 Q190.626 1840.03 183.812 1840.03 M183.812 1833.09 Q194.706 1833.09 200.435 1841.73 Q206.208 1850.32 206.208 1866.73 Q206.208 1883.09 200.435 1891.73 Q194.706 1900.32 183.812 1900.32 Q172.918 1900.32 167.146 1891.73 Q161.416 1883.09 161.416 1866.73 Q161.416 1850.32 167.146 1841.73 Q172.918 1833.09 183.812 1833.09 Z" fill="#000000" fill-rule="nonzero" fill-opacity="1" /><path clip-path="url(#clip470)" d="M221.616 1888.04 L230.774 1888.04 L230.774 1899.06 L221.616 1899.06 L221.616 1888.04 Z" fill="#000000" fill-rule="nonzero" fill-opacity="1" /><path clip-path="url(#clip470)" d="M257.423 1891.68 L288.022 1891.68 L288.022 1899.06 L246.876 1899.06 L246.876 1891.68 Q251.867 1886.52 260.461 1877.84 Q269.098 1869.11 271.312 1866.6 Q275.522 1861.86 277.171 1858.61 Q278.864 1855.31 278.864 1852.14 Q278.864 1846.98 275.218 1843.72 Q271.615 1840.47 265.8 1840.47 Q261.676 1840.47 257.076 1841.9 Q252.518 1843.33 247.31 1846.24 L247.31 1837.39 Q252.605 1835.26 257.206 1834.17 Q261.806 1833.09 265.626 1833.09 Q275.695 1833.09 281.685 1838.12 Q287.674 1843.16 287.674 1851.58 Q287.674 1855.57 286.155 1859.17 Q284.68 1862.73 280.73 1867.59 Q279.645 1868.85 273.829 1874.89 Q268.013 1880.88 257.423 1891.68 Z" fill="#000000" fill-rule="nonzero" fill-opacity="1" /><path clip-path="url(#clip470)" d="M179.906 1385.18 Q173.135 1385.18 169.706 1391.86 Q166.321 1398.5 166.321 1411.87 Q166.321 1425.2 169.706 1431.88 Q173.135 1438.52 179.906 1438.52 Q186.72 1438.52 190.105 1431.88 Q193.534 1425.2 193.534 1411.87 Q193.534 1398.5 190.105 1391.86 Q186.72 1385.18 179.906 1385.18 M179.906 1378.23 Q190.8 1378.23 196.529 1386.87 Q202.302 1395.47 202.302 1411.87 Q202.302 1428.23 196.529 1436.87 Q190.8 1445.47 179.906 1445.47 Q169.012 1445.47 163.239 1436.87 Q157.51 1428.23 157.51 1411.87 Q157.51 1395.47 163.239 1386.87 Q169.012 1378.23 179.906 1378.23 Z" fill="#000000" fill-rule="nonzero" fill-opacity="1" /><path clip-path="url(#clip470)" d="M217.709 1433.18 L226.867 1433.18 L226.867 1444.21 L217.709 1444.21 L217.709 1433.18 Z" fill="#000000" fill-rule="nonzero" fill-opacity="1" /><path clip-path="url(#clip470)" d="M270.053 1387.05 L247.918 1421.64 L270.053 1421.64 L270.053 1387.05 M267.753 1379.41 L278.777 1379.41 L278.777 1421.64 L288.022 1421.64 L288.022 1428.93 L278.777 1428.93 L278.777 1444.21 L270.053 1444.21 L270.053 1428.93 L240.8 1428.93 L240.8 1420.47 L267.753 1379.41 Z" fill="#000000" fill-rule="nonzero" fill-opacity="1" /><path clip-path="url(#clip470)" d="M180.514 930.325 Q173.743 930.325 170.314 937.009 Q166.929 943.65 166.929 957.017 Q166.929 970.342 170.314 977.026 Q173.743 983.667 180.514 983.667 Q187.328 983.667 190.713 977.026 Q194.142 970.342 194.142 957.017 Q194.142 943.65 190.713 937.009 Q187.328 930.325 180.514 930.325 M180.514 923.381 Q191.408 923.381 197.137 932.018 Q202.909 940.611 202.909 957.017 Q202.909 973.38 197.137 982.017 Q191.408 990.611 180.514 990.611 Q169.619 990.611 163.847 982.017 Q158.118 973.38 158.118 957.017 Q158.118 940.611 163.847 932.018 Q169.619 923.381 180.514 923.381 Z" fill="#000000" fill-rule="nonzero" fill-opacity="1" /><path clip-path="url(#clip470)" d="M218.317 978.328 L227.475 978.328 L227.475 989.352 L218.317 989.352 L218.317 978.328 Z" fill="#000000" fill-rule="nonzero" fill-opacity="1" /><path clip-path="url(#clip470)" d="M266.407 953.458 Q260.504 953.458 257.032 957.495 Q253.603 961.531 253.603 968.563 Q253.603 975.55 257.032 979.63 Q260.504 983.667 266.407 983.667 Q272.31 983.667 275.739 979.63 Q279.211 975.55 279.211 968.563 Q279.211 961.531 275.739 957.495 Q272.31 953.458 266.407 953.458 M283.812 925.985 L283.812 933.971 Q280.513 932.408 277.128 931.584 Q273.786 930.759 270.487 930.759 Q261.806 930.759 257.206 936.618 Q252.649 942.478 251.997 954.327 Q254.558 950.551 258.421 948.554 Q262.284 946.514 266.928 946.514 Q276.694 946.514 282.336 952.46 Q288.022 958.363 288.022 968.563 Q288.022 978.545 282.119 984.578 Q276.216 990.611 266.407 990.611 Q255.166 990.611 249.22 982.017 Q243.274 973.38 243.274 957.017 Q243.274 941.653 250.565 932.538 Q257.857 923.381 270.14 923.381 Q273.438 923.381 276.78 924.032 Q280.166 924.683 283.812 925.985 Z" fill="#000000" fill-rule="nonzero" fill-opacity="1" /><path clip-path="url(#clip470)" d="M180.991 475.471 Q174.22 475.471 170.791 482.155 Q167.406 488.795 167.406 502.163 Q167.406 515.488 170.791 522.172 Q174.22 528.813 180.991 528.813 Q187.805 528.813 191.191 522.172 Q194.619 515.488 194.619 502.163 Q194.619 488.795 191.191 482.155 Q187.805 475.471 180.991 475.471 M180.991 468.526 Q191.885 468.526 197.614 477.163 Q203.387 485.757 203.387 502.163 Q203.387 518.526 197.614 527.163 Q191.885 535.757 180.991 535.757 Q170.097 535.757 164.324 527.163 Q158.595 518.526 158.595 502.163 Q158.595 485.757 164.324 477.163 Q170.097 468.526 180.991 468.526 Z" fill="#000000" fill-rule="nonzero" fill-opacity="1" /><path clip-path="url(#clip470)" d="M218.795 523.474 L227.952 523.474 L227.952 534.498 L218.795 534.498 L218.795 523.474 Z" fill="#000000" fill-rule="nonzero" fill-opacity="1" /><path clip-path="url(#clip470)" d="M265.8 503.726 Q259.55 503.726 255.947 507.068 Q252.388 510.41 252.388 516.269 Q252.388 522.129 255.947 525.471 Q259.55 528.813 265.8 528.813 Q272.049 528.813 275.652 525.471 Q279.254 522.085 279.254 516.269 Q279.254 510.41 275.652 507.068 Q272.093 503.726 265.8 503.726 M257.032 499.993 Q251.39 498.604 248.221 494.742 Q245.096 490.879 245.096 485.323 Q245.096 477.554 250.609 473.04 Q256.164 468.526 265.8 468.526 Q275.478 468.526 280.99 473.04 Q286.503 477.554 286.503 485.323 Q286.503 490.879 283.334 494.742 Q280.209 498.604 274.61 499.993 Q280.947 501.469 284.463 505.766 Q288.022 510.063 288.022 516.269 Q288.022 525.688 282.249 530.722 Q276.52 535.757 265.8 535.757 Q255.079 535.757 249.307 530.722 Q243.577 525.688 243.577 516.269 Q243.577 510.063 247.136 505.766 Q250.695 501.469 257.032 499.993 M253.82 486.148 Q253.82 491.183 256.945 494.004 Q260.114 496.825 265.8 496.825 Q271.442 496.825 274.61 494.004 Q277.822 491.183 277.822 486.148 Q277.822 481.113 274.61 478.292 Q271.442 475.471 265.8 475.471 Q260.114 475.471 256.945 478.292 Q253.82 481.113 253.82 486.148 Z" fill="#000000" fill-rule="nonzero" fill-opacity="1" /><path clip-path="url(#clip470)" d="M163.587 72.2657 L177.909 72.2657 L177.909 22.8302 L162.328 25.9551 L162.328 17.9691 L177.823 14.8441 L186.59 14.8441 L186.59 72.2657 L200.913 72.2657 L200.913 79.6441 L163.587 79.6441 L163.587 72.2657 Z" fill="#000000" fill-rule="nonzero" fill-opacity="1" /><path clip-path="url(#clip470)" d="M218.621 68.6198 L227.779 68.6198 L227.779 79.6441 L218.621 79.6441 L218.621 68.6198 Z" fill="#000000" fill-rule="nonzero" fill-opacity="1" /><path clip-path="url(#clip470)" d="M265.626 20.6166 Q258.855 20.6166 255.426 27.3006 Q252.041 33.9412 252.041 47.3092 Q252.041 60.6338 255.426 67.3178 Q258.855 73.9584 265.626 73.9584 Q272.44 73.9584 275.825 67.3178 Q279.254 60.6338 279.254 47.3092 Q279.254 33.9412 275.825 27.3006 Q272.44 20.6166 265.626 20.6166 M265.626 13.6722 Q276.52 13.6722 282.249 22.3093 Q288.022 30.903 288.022 47.3092 Q288.022 63.672 282.249 72.3091 Q276.52 80.9028 265.626 80.9028 Q254.732 80.9028 248.959 72.3091 Q243.23 63.672 243.23 47.3092 Q243.23 30.903 248.959 22.3093 Q254.732 13.6722 265.626 13.6722 Z" fill="#000000" fill-rule="nonzero" fill-opacity="1" /><path clip-path="url(#clip470)" d="M17.0679 2175.29 L46.2865 2175.29 L46.2865 2162.06 Q46.2865 2154.71 42.4845 2150.7 Q38.6824 2146.69 31.6512 2146.69 Q24.6721 2146.69 20.87 2150.7 Q17.0679 2154.71 17.0679 2162.06 L17.0679 2175.29 M8.42216 2185.81 L8.42216 2162.06 Q8.42216 2148.98 14.3596 2142.32 Q20.245 2135.6 31.6512 2135.6 Q43.1616 2135.6 49.0469 2142.32 Q54.9323 2148.98 54.9323 2162.06 L54.9323 2175.29 L86.1822 2175.29 L86.1822 2185.81 L8.42216 2185.81 Z" fill="#000000" fill-rule="nonzero" fill-opacity="1" /><path clip-path="url(#clip470)" d="M36.8074 2089.97 Q35.8699 2091.59 35.4533 2093.52 Q34.9845 2095.39 34.9845 2097.68 Q34.9845 2105.81 40.297 2110.18 Q45.5574 2114.5 55.4532 2114.5 L86.1822 2114.5 L86.1822 2124.14 L27.8491 2124.14 L27.8491 2114.5 L36.9116 2114.5 Q31.5991 2111.48 29.047 2106.64 Q26.4429 2101.8 26.4429 2094.87 Q26.4429 2093.88 26.5991 2092.68 Q26.7033 2091.48 26.9637 2090.03 L36.8074 2089.97 Z" fill="#000000" fill-rule="nonzero" fill-opacity="1" /><path clip-path="url(#clip470)" d="M34.5679 2059.66 Q34.5679 2067.37 40.6095 2071.85 Q46.599 2076.33 57.0677 2076.33 Q67.5364 2076.33 73.5781 2071.9 Q79.5676 2067.42 79.5676 2059.66 Q79.5676 2052.01 73.526 2047.53 Q67.4843 2043.05 57.0677 2043.05 Q46.7032 2043.05 40.6616 2047.53 Q34.5679 2052.01 34.5679 2059.66 M26.4429 2059.66 Q26.4429 2047.16 34.5679 2040.03 Q42.6928 2032.89 57.0677 2032.89 Q71.3906 2032.89 79.5676 2040.03 Q87.6926 2047.16 87.6926 2059.66 Q87.6926 2072.21 79.5676 2079.35 Q71.3906 2086.43 57.0677 2086.43 Q42.6928 2086.43 34.5679 2079.35 Q26.4429 2072.21 26.4429 2059.66 Z" fill="#000000" fill-rule="nonzero" fill-opacity="1" /><path clip-path="url(#clip470)" d="M77.4322 2007.73 L108.37 2007.73 L108.37 2017.37 L27.8491 2017.37 L27.8491 2007.73 L36.7033 2007.73 Q31.495 2004.71 28.995 2000.13 Q26.4429 1995.49 26.4429 1989.09 Q26.4429 1978.46 34.8803 1971.85 Q43.3178 1965.18 57.0677 1965.18 Q70.8177 1965.18 79.2551 1971.85 Q87.6926 1978.46 87.6926 1989.09 Q87.6926 1995.49 85.1926 2000.13 Q82.6405 2004.71 77.4322 2007.73 M57.0677 1975.13 Q46.4949 1975.13 40.5053 1979.51 Q34.4637 1983.83 34.4637 1991.43 Q34.4637 1999.04 40.5053 2003.41 Q46.4949 2007.73 57.0677 2007.73 Q67.6406 2007.73 73.6822 2003.41 Q79.6718 1999.04 79.6718 1991.43 Q79.6718 1983.83 73.6822 1979.51 Q67.6406 1975.13 57.0677 1975.13 Z" fill="#000000" fill-rule="nonzero" fill-opacity="1" /><path clip-path="url(#clip470)" d="M34.5679 1926.69 Q34.5679 1934.4 40.6095 1938.88 Q46.599 1943.36 57.0677 1943.36 Q67.5364 1943.36 73.5781 1938.93 Q79.5676 1934.45 79.5676 1926.69 Q79.5676 1919.04 73.526 1914.56 Q67.4843 1910.08 57.0677 1910.08 Q46.7032 1910.08 40.6616 1914.56 Q34.5679 1919.04 34.5679 1926.69 M26.4429 1926.69 Q26.4429 1914.19 34.5679 1907.06 Q42.6928 1899.92 57.0677 1899.92 Q71.3906 1899.92 79.5676 1907.06 Q87.6926 1914.19 87.6926 1926.69 Q87.6926 1939.25 79.5676 1946.38 Q71.3906 1953.46 57.0677 1953.46 Q42.6928 1953.46 34.5679 1946.38 Q26.4429 1939.25 26.4429 1926.69 Z" fill="#000000" fill-rule="nonzero" fill-opacity="1" /><path clip-path="url(#clip470)" d="M36.8074 1850.24 Q35.8699 1851.85 35.4533 1853.78 Q34.9845 1855.65 34.9845 1857.94 Q34.9845 1866.07 40.297 1870.44 Q45.5574 1874.77 55.4532 1874.77 L86.1822 1874.77 L86.1822 1884.4 L27.8491 1884.4 L27.8491 1874.77 L36.9116 1874.77 Q31.5991 1871.75 29.047 1866.9 Q26.4429 1862.06 26.4429 1855.13 Q26.4429 1854.14 26.5991 1852.94 Q26.7033 1851.75 26.9637 1850.29 L36.8074 1850.24 Z" fill="#000000" fill-rule="nonzero" fill-opacity="1" /><path clip-path="url(#clip470)" d="M11.2867 1830.7 L27.8491 1830.7 L27.8491 1810.96 L35.297 1810.96 L35.297 1830.7 L66.9635 1830.7 Q74.0989 1830.7 76.1301 1828.78 Q78.1614 1826.8 78.1614 1820.81 L78.1614 1810.96 L86.1822 1810.96 L86.1822 1820.81 Q86.1822 1831.9 82.0676 1836.12 Q77.901 1840.34 66.9635 1840.34 L35.297 1840.34 L35.297 1847.37 L27.8491 1847.37 L27.8491 1840.34 L11.2867 1840.34 L11.2867 1830.7 Z" fill="#000000" fill-rule="nonzero" fill-opacity="1" /><path clip-path="url(#clip470)" d="M27.8491 1798.36 L27.8491 1788.78 L86.1822 1788.78 L86.1822 1798.36 L27.8491 1798.36 M5.14093 1798.36 L5.14093 1788.78 L17.2763 1788.78 L17.2763 1798.36 L5.14093 1798.36 Z" fill="#000000" fill-rule="nonzero" fill-opacity="1" /><path clip-path="url(#clip470)" d="M34.5679 1746.12 Q34.5679 1753.83 40.6095 1758.31 Q46.599 1762.79 57.0677 1762.79 Q67.5364 1762.79 73.5781 1758.36 Q79.5676 1753.88 79.5676 1746.12 Q79.5676 1738.47 73.526 1733.99 Q67.4843 1729.51 57.0677 1729.51 Q46.7032 1729.51 40.6616 1733.99 Q34.5679 1738.47 34.5679 1746.12 M26.4429 1746.12 Q26.4429 1733.62 34.5679 1726.49 Q42.6928 1719.35 57.0677 1719.35 Q71.3906 1719.35 79.5676 1726.49 Q87.6926 1733.62 87.6926 1746.12 Q87.6926 1758.67 79.5676 1765.81 Q71.3906 1772.89 57.0677 1772.89 Q42.6928 1772.89 34.5679 1765.81 Q26.4429 1758.67 26.4429 1746.12 Z" fill="#000000" fill-rule="nonzero" fill-opacity="1" /><path clip-path="url(#clip470)" d="M50.974 1654.98 L86.1822 1654.98 L86.1822 1664.56 L51.2865 1664.56 Q43.0053 1664.56 38.8907 1667.79 Q34.7762 1671.02 34.7762 1677.48 Q34.7762 1685.24 39.7241 1689.72 Q44.672 1694.19 53.2136 1694.19 L86.1822 1694.19 L86.1822 1703.83 L27.8491 1703.83 L27.8491 1694.19 L36.9116 1694.19 Q31.6512 1690.76 29.047 1686.12 Q26.4429 1681.43 26.4429 1675.34 Q26.4429 1665.29 32.6929 1660.13 Q38.8907 1654.98 50.974 1654.98 Z" fill="#000000" fill-rule="nonzero" fill-opacity="1" /><path clip-path="url(#clip470)" d="M34.5679 1579.35 Q34.5679 1587.06 40.6095 1591.54 Q46.599 1596.02 57.0677 1596.02 Q67.5364 1596.02 73.5781 1591.59 Q79.5676 1587.11 79.5676 1579.35 Q79.5676 1571.7 73.526 1567.22 Q67.4843 1562.74 57.0677 1562.74 Q46.7032 1562.74 40.6616 1567.22 Q34.5679 1571.7 34.5679 1579.35 M26.4429 1579.35 Q26.4429 1566.85 34.5679 1559.72 Q42.6928 1552.58 57.0677 1552.58 Q71.3906 1552.58 79.5676 1559.72 Q87.6926 1566.85 87.6926 1579.35 Q87.6926 1591.9 79.5676 1599.04 Q71.3906 1606.12 57.0677 1606.12 Q42.6928 1606.12 34.5679 1599.04 Q26.4429 1591.9 26.4429 1579.35 Z" fill="#000000" fill-rule="nonzero" fill-opacity="1" /><path clip-path="url(#clip470)" d="M5.14093 1507.16 L13.1096 1507.16 L13.1096 1516.33 Q13.1096 1521.49 15.193 1523.52 Q17.2763 1525.5 22.6929 1525.5 L27.8491 1525.5 L27.8491 1509.72 L35.297 1509.72 L35.297 1525.5 L86.1822 1525.5 L86.1822 1535.13 L35.297 1535.13 L35.297 1544.3 L27.8491 1544.3 L27.8491 1535.13 L23.7867 1535.13 Q14.0471 1535.13 9.62007 1530.6 Q5.14093 1526.07 5.14093 1516.23 L5.14093 1507.16 Z" fill="#000000" fill-rule="nonzero" fill-opacity="1" /><path clip-path="url(#clip470)" d="M30.0887 1423.26 L39.047 1423.26 Q36.8074 1427.32 35.7137 1431.44 Q34.5679 1435.5 34.5679 1439.66 Q34.5679 1448.99 40.5053 1454.14 Q46.3907 1459.3 57.0677 1459.3 Q67.7448 1459.3 73.6822 1454.14 Q79.5676 1448.99 79.5676 1439.66 Q79.5676 1435.5 78.4739 1431.44 Q77.328 1427.32 75.0885 1423.26 L83.9426 1423.26 Q85.8176 1427.27 86.7551 1431.59 Q87.6926 1435.86 87.6926 1440.71 Q87.6926 1453.88 79.4114 1461.64 Q71.1302 1469.4 57.0677 1469.4 Q42.797 1469.4 34.6199 1461.59 Q26.4429 1453.73 26.4429 1440.08 Q26.4429 1435.65 27.3804 1431.44 Q28.2658 1427.22 30.0887 1423.26 Z" fill="#000000" fill-rule="nonzero" fill-opacity="1" /><path clip-path="url(#clip470)" d="M50.974 1358.1 L86.1822 1358.1 L86.1822 1367.69 L51.2865 1367.69 Q43.0053 1367.69 38.8907 1370.91 Q34.7762 1374.14 34.7762 1380.6 Q34.7762 1388.36 39.7241 1392.84 Q44.672 1397.32 53.2136 1397.32 L86.1822 1397.32 L86.1822 1406.96 L5.14093 1406.96 L5.14093 1397.32 L36.9116 1397.32 Q31.6512 1393.88 29.047 1389.25 Q26.4429 1384.56 26.4429 1378.47 Q26.4429 1368.41 32.6929 1363.26 Q38.8907 1358.1 50.974 1358.1 Z" fill="#000000" fill-rule="nonzero" fill-opacity="1" /><path clip-path="url(#clip470)" d="M34.5679 1316.38 Q34.5679 1324.09 40.6095 1328.57 Q46.599 1333.05 57.0677 1333.05 Q67.5364 1333.05 73.5781 1328.62 Q79.5676 1324.14 79.5676 1316.38 Q79.5676 1308.73 73.526 1304.25 Q67.4843 1299.77 57.0677 1299.77 Q46.7032 1299.77 40.6616 1304.25 Q34.5679 1308.73 34.5679 1316.38 M26.4429 1316.38 Q26.4429 1303.88 34.5679 1296.75 Q42.6928 1289.61 57.0677 1289.61 Q71.3906 1289.61 79.5676 1296.75 Q87.6926 1303.88 87.6926 1316.38 Q87.6926 1328.94 79.5676 1336.07 Q71.3906 1343.15 57.0677 1343.15 Q42.6928 1343.15 34.5679 1336.07 Q26.4429 1328.94 26.4429 1316.38 Z" fill="#000000" fill-rule="nonzero" fill-opacity="1" /><path clip-path="url(#clip470)" d="M27.8491 1273.73 L27.8491 1264.14 L86.1822 1264.14 L86.1822 1273.73 L27.8491 1273.73 M5.14093 1273.73 L5.14093 1264.14 L17.2763 1264.14 L17.2763 1273.73 L5.14093 1273.73 Z" fill="#000000" fill-rule="nonzero" fill-opacity="1" /><path clip-path="url(#clip470)" d="M30.0887 1202.11 L39.047 1202.11 Q36.8074 1206.18 35.7137 1210.29 Q34.5679 1214.35 34.5679 1218.52 Q34.5679 1227.84 40.5053 1233 Q46.3907 1238.16 57.0677 1238.16 Q67.7448 1238.16 73.6822 1233 Q79.5676 1227.84 79.5676 1218.52 Q79.5676 1214.35 78.4739 1210.29 Q77.328 1206.18 75.0885 1202.11 L83.9426 1202.11 Q85.8176 1206.12 86.7551 1210.45 Q87.6926 1214.72 87.6926 1219.56 Q87.6926 1232.74 79.4114 1240.5 Q71.1302 1248.26 57.0677 1248.26 Q42.797 1248.26 34.6199 1240.45 Q26.4429 1232.58 26.4429 1218.94 Q26.4429 1214.51 27.3804 1210.29 Q28.2658 1206.07 30.0887 1202.11 Z" fill="#000000" fill-rule="nonzero" fill-opacity="1" /><path clip-path="url(#clip470)" d="M54.6198 1135.55 L59.3073 1135.55 L59.3073 1179.61 Q69.2031 1178.99 74.4114 1173.68 Q79.5676 1168.31 79.5676 1158.78 Q79.5676 1153.26 78.2135 1148.1 Q76.8593 1142.9 74.151 1137.79 L83.2134 1137.79 Q85.4009 1142.95 86.5467 1148.36 Q87.6926 1153.78 87.6926 1159.35 Q87.6926 1173.31 79.5676 1181.49 Q71.4427 1189.61 57.5886 1189.61 Q43.2657 1189.61 34.8803 1181.91 Q26.4429 1174.15 26.4429 1161.02 Q26.4429 1149.25 34.047 1142.43 Q41.5991 1135.55 54.6198 1135.55 M51.8073 1145.13 Q43.9428 1145.24 39.2553 1149.56 Q34.5679 1153.83 34.5679 1160.92 Q34.5679 1168.94 39.0991 1173.78 Q43.6303 1178.57 51.8594 1179.3 L51.8073 1145.13 Z" fill="#000000" fill-rule="nonzero" fill-opacity="1" /><path clip-path="url(#clip470)" d="M29.5679 1082.64 L38.6303 1082.64 Q36.547 1086.7 35.5053 1091.07 Q34.4637 1095.45 34.4637 1100.14 Q34.4637 1107.27 36.6512 1110.86 Q38.8387 1114.41 43.2136 1114.41 Q46.547 1114.41 48.474 1111.85 Q50.349 1109.3 52.0678 1101.59 L52.7969 1098.31 Q54.9844 1088.1 58.9948 1083.83 Q62.9531 1079.51 70.0885 1079.51 Q78.2135 1079.51 82.953 1085.97 Q87.6926 1092.37 87.6926 1103.62 Q87.6926 1108.31 86.7551 1113.42 Q85.8697 1118.47 84.0468 1124.09 L74.151 1124.09 Q76.9114 1118.78 78.3176 1113.62 Q79.6718 1108.47 79.6718 1103.42 Q79.6718 1096.65 77.3801 1093 Q75.0364 1089.35 70.8177 1089.35 Q66.9114 1089.35 64.8281 1092.01 Q62.7448 1094.61 60.8177 1103.52 L60.0365 1106.85 Q58.1615 1115.76 54.3073 1119.72 Q50.4011 1123.68 43.6303 1123.68 Q35.4012 1123.68 30.922 1117.84 Q26.4429 1112.01 26.4429 1101.28 Q26.4429 1095.97 27.2241 1091.28 Q28.0054 1086.59 29.5679 1082.64 Z" fill="#000000" fill-rule="nonzero" fill-opacity="1" /><path clip-path="url(#clip470)" d="M5.14093 1000.81 L13.1096 1000.81 L13.1096 1009.98 Q13.1096 1015.14 15.193 1017.17 Q17.2763 1019.15 22.6929 1019.15 L27.8491 1019.15 L27.8491 1003.36 L35.297 1003.36 L35.297 1019.15 L86.1822 1019.15 L86.1822 1028.78 L35.297 1028.78 L35.297 1037.95 L27.8491 1037.95 L27.8491 1028.78 L23.7867 1028.78 Q14.0471 1028.78 9.62007 1024.25 Q5.14093 1019.72 5.14093 1009.88 L5.14093 1000.81 Z" fill="#000000" fill-rule="nonzero" fill-opacity="1" /><path clip-path="url(#clip470)" d="M34.5679 970.188 Q34.5679 977.896 40.6095 982.375 Q46.599 986.854 57.0677 986.854 Q67.5364 986.854 73.5781 982.427 Q79.5676 977.948 79.5676 970.188 Q79.5676 962.532 73.526 958.053 Q67.4843 953.573 57.0677 953.573 Q46.7032 953.573 40.6616 958.053 Q34.5679 962.532 34.5679 970.188 M26.4429 970.188 Q26.4429 957.688 34.5679 950.553 Q42.6928 943.417 57.0677 943.417 Q71.3906 943.417 79.5676 950.553 Q87.6926 957.688 87.6926 970.188 Q87.6926 982.74 79.5676 989.875 Q71.3906 996.959 57.0677 996.959 Q42.6928 996.959 34.5679 989.875 Q26.4429 982.74 26.4429 970.188 Z" fill="#000000" fill-rule="nonzero" fill-opacity="1" /><path clip-path="url(#clip470)" d="M36.8074 893.73 Q35.8699 895.345 35.4533 897.272 Q34.9845 899.147 34.9845 901.438 Q34.9845 909.563 40.297 913.938 Q45.5574 918.261 55.4532 918.261 L86.1822 918.261 L86.1822 927.896 L27.8491 927.896 L27.8491 918.261 L36.9116 918.261 Q31.5991 915.24 29.047 910.397 Q26.4429 905.553 26.4429 898.626 Q26.4429 897.636 26.5991 896.438 Q26.7033 895.24 26.9637 893.782 L36.8074 893.73 Z" fill="#000000" fill-rule="nonzero" fill-opacity="1" /><path clip-path="url(#clip470)" d="M34.5679 827.168 Q34.5679 834.876 40.6095 839.355 Q46.599 843.834 57.0677 843.834 Q67.5364 843.834 73.5781 839.407 Q79.5676 834.928 79.5676 827.168 Q79.5676 819.512 73.526 815.032 Q67.4843 810.553 57.0677 810.553 Q46.7032 810.553 40.6616 815.032 Q34.5679 819.512 34.5679 827.168 M26.4429 827.168 Q26.4429 814.668 34.5679 807.533 Q42.6928 800.397 57.0677 800.397 Q71.3906 800.397 79.5676 807.533 Q87.6926 814.668 87.6926 827.168 Q87.6926 839.72 79.5676 846.855 Q71.3906 853.939 57.0677 853.939 Q42.6928 853.939 34.5679 846.855 Q26.4429 839.72 26.4429 827.168 Z" fill="#000000" fill-rule="nonzero" fill-opacity="1" /><path clip-path="url(#clip470)" d="M77.4322 775.241 L108.37 775.241 L108.37 784.876 L27.8491 784.876 L27.8491 775.241 L36.7033 775.241 Q31.495 772.22 28.995 767.637 Q26.4429 763.002 26.4429 756.595 Q26.4429 745.97 34.8803 739.356 Q43.3178 732.689 57.0677 732.689 Q70.8177 732.689 79.2551 739.356 Q87.6926 745.97 87.6926 756.595 Q87.6926 763.002 85.1926 767.637 Q82.6405 772.22 77.4322 775.241 M57.0677 742.637 Q46.4949 742.637 40.5053 747.012 Q34.4637 751.335 34.4637 758.939 Q34.4637 766.543 40.5053 770.918 Q46.4949 775.241 57.0677 775.241 Q67.6406 775.241 73.6822 770.918 Q79.6718 766.543 79.6718 758.939 Q79.6718 751.335 73.6822 747.012 Q67.6406 742.637 57.0677 742.637 Z" fill="#000000" fill-rule="nonzero" fill-opacity="1" /><path clip-path="url(#clip470)" d="M54.6198 666.908 L59.3073 666.908 L59.3073 710.971 Q69.2031 710.346 74.4114 705.033 Q79.5676 699.669 79.5676 690.137 Q79.5676 684.617 78.2135 679.46 Q76.8593 674.252 74.151 669.148 L83.2134 669.148 Q85.4009 674.304 86.5467 679.721 Q87.6926 685.137 87.6926 690.71 Q87.6926 704.668 79.5676 712.846 Q71.4427 720.97 57.5886 720.97 Q43.2657 720.97 34.8803 713.262 Q26.4429 705.502 26.4429 692.377 Q26.4429 680.606 34.047 673.783 Q41.5991 666.908 54.6198 666.908 M51.8073 676.492 Q43.9428 676.596 39.2553 680.919 Q34.5679 685.189 34.5679 692.273 Q34.5679 700.294 39.0991 705.137 Q43.6303 709.929 51.8594 710.658 L51.8073 676.492 Z" fill="#000000" fill-rule="nonzero" fill-opacity="1" /><path clip-path="url(#clip470)" d="M50.974 602.69 L86.1822 602.69 L86.1822 612.273 L51.2865 612.273 Q43.0053 612.273 38.8907 615.502 Q34.7762 618.731 34.7762 625.19 Q34.7762 632.95 39.7241 637.429 Q44.672 641.908 53.2136 641.908 L86.1822 641.908 L86.1822 651.544 L27.8491 651.544 L27.8491 641.908 L36.9116 641.908 Q31.6512 638.471 29.047 633.836 Q26.4429 629.148 26.4429 623.054 Q26.4429 613.002 32.6929 607.846 Q38.8907 602.69 50.974 602.69 Z" fill="#000000" fill-rule="nonzero" fill-opacity="1" /><path clip-path="url(#clip470)" d="M50.974 501.18 L86.1822 501.18 L86.1822 510.763 L51.2865 510.763 Q43.0053 510.763 38.8907 513.992 Q34.7762 517.222 34.7762 523.68 Q34.7762 531.44 39.7241 535.919 Q44.672 540.399 53.2136 540.399 L86.1822 540.399 L86.1822 550.034 L5.14093 550.034 L5.14093 540.399 L36.9116 540.399 Q31.6512 536.961 29.047 532.326 Q26.4429 527.638 26.4429 521.544 Q26.4429 511.492 32.6929 506.336 Q38.8907 501.18 50.974 501.18 Z" fill="#000000" fill-rule="nonzero" fill-opacity="1" /><path clip-path="url(#clip470)" d="M56.8594 455.555 Q56.8594 467.17 59.5156 471.649 Q62.1719 476.128 68.5781 476.128 Q73.6822 476.128 76.703 472.795 Q79.6718 469.409 79.6718 463.628 Q79.6718 455.659 74.0468 450.868 Q68.3698 446.024 58.9948 446.024 L56.8594 446.024 L56.8594 455.555 M52.9011 436.441 L86.1822 436.441 L86.1822 446.024 L77.328 446.024 Q82.6405 449.305 85.1926 454.201 Q87.6926 459.097 87.6926 466.18 Q87.6926 475.138 82.6926 480.451 Q77.6405 485.711 69.2031 485.711 Q59.3594 485.711 54.3594 479.149 Q49.3594 472.534 49.3594 459.461 L49.3594 446.024 L48.4219 446.024 Q41.8074 446.024 38.2137 450.399 Q34.5679 454.722 34.5679 462.586 Q34.5679 467.586 35.7658 472.326 Q36.9637 477.066 39.3595 481.441 L30.5054 481.441 Q28.4741 476.18 27.4846 471.232 Q26.4429 466.284 26.4429 461.597 Q26.4429 448.941 33.0054 442.691 Q39.5678 436.441 52.9011 436.441 Z" fill="#000000" fill-rule="nonzero" fill-opacity="1" /><path clip-path="url(#clip470)" d="M57.0677 374.827 Q46.4949 374.827 40.5053 379.201 Q34.4637 383.524 34.4637 391.129 Q34.4637 398.733 40.5053 403.108 Q46.4949 407.431 57.0677 407.431 Q67.6406 407.431 73.6822 403.108 Q79.6718 398.733 79.6718 391.129 Q79.6718 383.524 73.6822 379.201 Q67.6406 374.827 57.0677 374.827 M36.7033 407.431 Q31.495 404.41 28.995 399.826 Q26.4429 395.191 26.4429 388.785 Q26.4429 378.16 34.8803 371.545 Q43.3178 364.879 57.0677 364.879 Q70.8177 364.879 79.2551 371.545 Q87.6926 378.16 87.6926 388.785 Q87.6926 395.191 85.1926 399.826 Q82.6405 404.41 77.4322 407.431 L86.1822 407.431 L86.1822 417.066 L5.14093 417.066 L5.14093 407.431 L36.7033 407.431 Z" fill="#000000" fill-rule="nonzero" fill-opacity="1" /><path clip-path="url(#clip470)" d="M27.8491 348.993 L27.8491 339.41 L86.1822 339.41 L86.1822 348.993 L27.8491 348.993 M5.14093 348.993 L5.14093 339.41 L17.2763 339.41 L17.2763 348.993 L5.14093 348.993 Z" fill="#000000" fill-rule="nonzero" fill-opacity="1" /><path clip-path="url(#clip470)" d="M11.2867 309.879 L27.8491 309.879 L27.8491 290.139 L35.297 290.139 L35.297 309.879 L66.9635 309.879 Q74.0989 309.879 76.1301 307.952 Q78.1614 305.973 78.1614 299.983 L78.1614 290.139 L86.1822 290.139 L86.1822 299.983 Q86.1822 311.077 82.0676 315.296 Q77.901 319.514 66.9635 319.514 L35.297 319.514 L35.297 326.546 L27.8491 326.546 L27.8491 319.514 L11.2867 319.514 L11.2867 309.879 Z" fill="#000000" fill-rule="nonzero" fill-opacity="1" /><path clip-path="url(#clip470)" d="M56.8594 251.025 Q56.8594 262.64 59.5156 267.119 Q62.1719 271.598 68.5781 271.598 Q73.6822 271.598 76.703 268.265 Q79.6718 264.879 79.6718 259.098 Q79.6718 251.129 74.0468 246.338 Q68.3698 241.494 58.9948 241.494 L56.8594 241.494 L56.8594 251.025 M52.9011 231.911 L86.1822 231.911 L86.1822 241.494 L77.328 241.494 Q82.6405 244.775 85.1926 249.671 Q87.6926 254.567 87.6926 261.65 Q87.6926 270.608 82.6926 275.921 Q77.6405 281.181 69.2031 281.181 Q59.3594 281.181 54.3594 274.619 Q49.3594 268.004 49.3594 254.931 L49.3594 241.494 L48.4219 241.494 Q41.8074 241.494 38.2137 245.869 Q34.5679 250.192 34.5679 258.056 Q34.5679 263.056 35.7658 267.796 Q36.9637 272.535 39.3595 276.91 L30.5054 276.91 Q28.4741 271.65 27.4846 266.702 Q26.4429 261.754 26.4429 257.067 Q26.4429 244.411 33.0054 238.161 Q39.5678 231.911 52.9011 231.911 Z" fill="#000000" fill-rule="nonzero" fill-opacity="1" /><path clip-path="url(#clip470)" d="M11.2867 202.692 L27.8491 202.692 L27.8491 182.953 L35.297 182.953 L35.297 202.692 L66.9635 202.692 Q74.0989 202.692 76.1301 200.765 Q78.1614 198.786 78.1614 192.796 L78.1614 182.953 L86.1822 182.953 L86.1822 192.796 Q86.1822 203.89 82.0676 208.109 Q77.901 212.327 66.9635 212.327 L35.297 212.327 L35.297 219.359 L27.8491 219.359 L27.8491 212.327 L11.2867 212.327 L11.2867 202.692 Z" fill="#000000" fill-rule="nonzero" fill-opacity="1" /><polyline clip-path="url(#clip472)" style="stroke:#1b9e77; stroke-linecap:round; stroke-linejoin:round; stroke-width:20; stroke-opacity:1; fill:none" points="415.741,342.899 482.173,359.577 548.605,676.459 615.038,959.985 681.47,1249.58 747.903,1433.03 814.335,1563.42 880.767,1658.94 947.2,1739.3 1013.63,1834.82 1080.06,1971.28 1146.5,2321.51 1212.93,2321.51 1279.36,2321.51 1345.79,2321.51 1412.23,2321.51 1478.66,2321.51 1545.09,2321.51 1611.52,2321.51 1677.96,2321.51 1744.39,2321.51 1810.82,2321.51 1877.25,2321.51 1943.69,2321.51 2010.12,2321.51 2076.55,2321.51 2142.98,2321.51 2209.42,2321.51 2275.85,2321.51 2342.28,2321.51 2408.71,2321.51 2475.15,2321.51 2541.58,2321.51 2608.01,2321.51 2674.44,2321.51 2740.87,2321.51 2807.31,2321.51 2873.74,2321.51 2940.17,2321.51 3006.6,2321.51 3073.04,2321.51 "/>
<polyline clip-path="url(#clip472)" style="stroke:#d95f02; stroke-linecap:round; stroke-linejoin:round; stroke-width:20; stroke-opacity:1; fill:none" points="415.741,342.899 482.173,729.525 548.605,1178.31 615.038,1340.55 681.47,1493.68 747.903,1584.65 814.335,1669.56 880.767,1715.04 947.2,1740.82 1013.63,1798.43 1080.06,1812.08 1146.5,1836.34 1212.93,1849.98 1279.36,1833.3 1345.79,1828.76 1412.23,1812.08 1478.66,1784.79 1545.09,1762.04 1611.52,1692.3 1677.96,1660.46 1744.39,1640.75 1810.82,1548.26 1877.25,1467.91 1943.69,1402.71 2010.12,1372.39 2076.55,1194.99 2142.98,1131.31 2209.42,976.663 2275.85,878.111 2342.28,855.368 2408.71,790.173 2475.15,723.461 2541.58,612.779 2608.01,593.069 2674.44,526.357 2740.87,458.129 2807.31,342.899 2873.74,342.899 2940.17,342.899 3006.6,342.899 3073.04,342.899 "/>
<polyline clip-path="url(#clip472)" style="stroke:#7570b3; stroke-linecap:round; stroke-linejoin:round; stroke-width:20; stroke-opacity:1; fill:none" points="415.741,342.899 482.173,696.169 548.605,1090.38 615.038,1393.61 681.47,1530.07 747.903,1652.88 814.335,1743.85 880.767,1799.95 947.2,1857.56 1013.63,1918.21 1080.06,1953.08 1146.5,1960.66 1212.93,1994.02 1279.36,1992.5 1345.79,2015.25 1412.23,2012.21 1478.66,2006.15 1545.09,1997.05 1611.52,1987.96 1677.96,1977.34 1744.39,1963.7 1810.82,1947.02 1877.25,1918.21 1943.69,1912.15 2010.12,1865.14 2076.55,1839.37 2142.98,1824.21 2209.42,1762.04 2275.85,1742.33 2342.28,1690.78 2408.71,1631.65 2475.15,1571.01 2541.58,2321.51 2608.01,2321.51 2674.44,2321.51 2740.87,2321.51 2807.31,2320 2873.74,2321.51 2940.17,2321.51 3006.6,2321.51 3073.04,2321.51 "/>
<polyline clip-path="url(#clip472)" style="stroke:#000000; stroke-linecap:round; stroke-linejoin:round; stroke-width:8; stroke-opacity:1; fill:none" stroke-dasharray="32, 20" points="-2480.71,1184.38 5969.49,1184.38 "/>
</svg>
