<?xml version="1.0" encoding="utf-8"?>
<svg xmlns="http://www.w3.org/2000/svg" xmlns:xlink="http://www.w3.org/1999/xlink" width="800" height="650" viewBox="0 0 3200 2600">
<defs>
  <clipPath id="clip320">
    <rect x="0" y="0" width="3200" height="2600"/>
  </clipPath>
</defs>
<path clip-path="url(#clip320)" d="M0 2600 L3200 2600 L3200 0 L0 0  Z" fill="#ffffff" fill-rule="evenodd" fill-opacity="1"/>
<defs>
  <clipPath id="clip321">
    <rect x="640" y="0" width="2241" height="2241"/>
  </clipPath>
</defs>
<path clip-path="url(#clip320)" d="M336.022 2321.51 L3152.76 2321.51 L3152.76 47.2441 L336.022 47.2441  Z" fill="#ffffff" fill-rule="evenodd" fill-opacity="1"/>
<defs>
  <clipPath id="clip322">
    <rect x="336" y="47" width="2818" height="2275"/>
  </clipPath>
</defs>
<polyline clip-path="url(#clip320)" style="stroke:#000000; stroke-linecap:round; stroke-linejoin:round; stroke-width:4; stroke-opacity:1; fill:none" points="336.022,2321.51 3152.76,2321.51 "/>
<polyline clip-path="url(#clip320)" style="stroke:#000000; stroke-linecap:round; stroke-linejoin:round; stroke-width:4; stroke-opacity:1; fill:none" points="336.022,47.2441 3152.76,47.2441 "/>
<polyline clip-path="url(#clip320)" style="stroke:#000000; stroke-linecap:round; stroke-linejoin:round; stroke-width:4; stroke-opacity:1; fill:none" points="464.055,2321.51 464.055,2302.62 "/>
<polyline clip-path="url(#clip320)" style="stroke:#000000; stroke-linecap:round; stroke-linejoin:round; stroke-width:4; stroke-opacity:1; fill:none" points="1104.22,2321.51 1104.22,2302.62 "/>
<polyline clip-path="url(#clip320)" style="stroke:#000000; stroke-linecap:round; stroke-linejoin:round; stroke-width:4; stroke-opacity:1; fill:none" points="1744.39,2321.51 1744.39,2302.62 "/>
<polyline clip-path="url(#clip320)" style="stroke:#000000; stroke-linecap:round; stroke-linejoin:round; stroke-width:4; stroke-opacity:1; fill:none" points="2384.56,2321.51 2384.56,2302.62 "/>
<polyline clip-path="url(#clip320)" style="stroke:#000000; stroke-linecap:round; stroke-linejoin:round; stroke-width:4; stroke-opacity:1; fill:none" points="3024.72,2321.51 3024.72,2302.62 "/>
<polyline clip-path="url(#clip320)" style="stroke:#000000; stroke-linecap:round; stroke-linejoin:round; stroke-width:4; stroke-opacity:1; fill:none" points="464.055,47.2441 464.055,66.1417 "/>
<polyline clip-path="url(#clip320)" style="stroke:#000000; stroke-linecap:round; stroke-linejoin:round; stroke-width:4; stroke-opacity:1; fill:none" points="1104.22,47.2441 1104.22,66.1417 "/>
<polyline clip-path="url(#clip320)" style="stroke:#000000; stroke-linecap:round; stroke-linejoin:round; stroke-width:4; stroke-opacity:1; fill:none" points="1744.39,47.2441 1744.39,66.1417 "/>
<polyline clip-path="url(#clip320)" style="stroke:#000000; stroke-linecap:round; stroke-linejoin:round; stroke-width:4; stroke-opacity:1; fill:none" points="2384.56,47.2441 2384.56,66.1417 "/>
<polyline clip-path="url(#clip320)" style="stroke:#000000; stroke-linecap:round; stroke-linejoin:round; stroke-width:4; stroke-opacity:1; fill:none" points="3024.72,47.2441 3024.72,66.1417 "/>
<path clip-path="url(#clip320)" d="M397.367 2420.74 L411.69 2420.74 L411.69 2371.3 L396.108 2374.43 L396.108 2366.44 L411.603 2363.31 L420.37 2363.31 L420.37 2420.74 L434.693 2420.74 L434.693 2428.11 L397.367 2428.11 L397.367 2420.74 Z" fill="#000000" fill-rule="nonzero" fill-opacity="1" /><path clip-path="url(#clip320)" d="M471.151 2369.09 Q464.381 2369.09 460.952 2375.77 Q457.566 2382.41 457.566 2395.78 Q457.566 2409.1 460.952 2415.79 Q464.381 2422.43 471.151 2422.43 Q477.966 2422.43 481.351 2415.79 Q484.78 2409.1 484.78 2395.78 Q484.78 2382.41 481.351 2375.77 Q477.966 2369.09 471.151 2369.09 M471.151 2362.14 Q482.045 2362.14 487.774 2370.78 Q493.547 2379.37 493.547 2395.78 Q493.547 2412.14 487.774 2420.78 Q482.045 2429.37 471.151 2429.37 Q460.257 2429.37 454.485 2420.78 Q448.756 2412.14 448.756 2395.78 Q448.756 2379.37 454.485 2370.78 Q460.257 2362.14 471.151 2362.14 Z" fill="#000000" fill-rule="nonzero" fill-opacity="1" /><path clip-path="url(#clip320)" d="M524.189 2369.74 Q522.019 2366.01 517.635 2366.01 Q513.252 2366.01 511.082 2369.74 Q508.868 2373.47 508.868 2380.94 Q508.868 2388.44 511.082 2392.18 Q513.252 2395.91 517.635 2395.91 Q522.019 2395.91 524.189 2392.18 Q526.403 2388.44 526.403 2380.94 Q526.403 2373.47 524.189 2369.74 M517.635 2362.14 Q524.623 2362.14 528.312 2366.96 Q532.002 2371.78 532.002 2380.94 Q532.002 2390.14 528.312 2394.96 Q524.623 2399.77 517.635 2399.77 Q510.604 2399.77 506.915 2394.96 Q503.226 2390.14 503.226 2380.94 Q503.226 2371.78 506.915 2366.96 Q510.604 2362.14 517.635 2362.14 Z" fill="#000000" fill-rule="nonzero" fill-opacity="1" /><path clip-path="url(#clip320)" d="M1038.42 2420.74 L1052.75 2420.74 L1052.75 2371.3 L1037.16 2374.43 L1037.16 2366.44 L1052.66 2363.31 L1061.43 2363.31 L1061.43 2420.74 L1075.75 2420.74 L1075.75 2428.11 L1038.42 2428.11 L1038.42 2420.74 Z" fill="#000000" fill-rule="nonzero" fill-opacity="1" /><path clip-path="url(#clip320)" d="M1112.21 2369.09 Q1105.44 2369.09 1102.01 2375.77 Q1098.62 2382.41 1098.62 2395.78 Q1098.62 2409.1 1102.01 2415.79 Q1105.44 2422.43 1112.21 2422.43 Q1119.02 2422.43 1122.41 2415.79 Q1125.84 2409.1 1125.84 2395.78 Q1125.84 2382.41 1122.41 2375.77 Q1119.02 2369.09 1112.21 2369.09 M1112.21 2362.14 Q1123.1 2362.14 1128.83 2370.78 Q1134.6 2379.37 1134.6 2395.78 Q1134.6 2412.14 1128.83 2420.78 Q1123.1 2429.37 1112.21 2429.37 Q1101.31 2429.37 1095.54 2420.78 Q1089.81 2412.14 1089.81 2395.78 Q1089.81 2379.37 1095.54 2370.78 Q1101.31 2362.14 1112.21 2362.14 Z" fill="#000000" fill-rule="nonzero" fill-opacity="1" /><path clip-path="url(#clip320)" d="M1147.28 2394.35 L1156.13 2394.35 L1156.13 2367.83 L1146.45 2369.61 L1146.45 2364.57 L1156.44 2362.88 L1162.38 2362.88 L1162.38 2394.35 L1171.28 2394.35 L1171.28 2399.12 L1147.28 2399.12 L1147.28 2394.35 Z" fill="#000000" fill-rule="nonzero" fill-opacity="1" /><path clip-path="url(#clip320)" d="M1678.96 2420.74 L1693.28 2420.74 L1693.28 2371.3 L1677.7 2374.43 L1677.7 2366.44 L1693.2 2363.31 L1701.96 2363.31 L1701.96 2420.74 L1716.29 2420.74 L1716.29 2428.11 L1678.96 2428.11 L1678.96 2420.74 Z" fill="#000000" fill-rule="nonzero" fill-opacity="1" /><path clip-path="url(#clip320)" d="M1752.74 2369.09 Q1745.97 2369.09 1742.54 2375.77 Q1739.16 2382.41 1739.16 2395.78 Q1739.16 2409.1 1742.54 2415.79 Q1745.97 2422.43 1752.74 2422.43 Q1759.56 2422.43 1762.94 2415.79 Q1766.37 2409.1 1766.37 2395.78 Q1766.37 2382.41 1762.94 2375.77 Q1759.56 2369.09 1752.74 2369.09 M1752.74 2362.14 Q1763.64 2362.14 1769.37 2370.78 Q1775.14 2379.37 1775.14 2395.78 Q1775.14 2412.14 1769.37 2420.78 Q1763.64 2429.37 1752.74 2429.37 Q1741.85 2429.37 1736.08 2420.78 Q1730.35 2412.14 1730.35 2395.78 Q1730.35 2379.37 1736.08 2370.78 Q1741.85 2362.14 1752.74 2362.14 Z" fill="#000000" fill-rule="nonzero" fill-opacity="1" /><path clip-path="url(#clip320)" d="M1792.67 2394.17 L1811.08 2394.17 L1811.08 2399.12 L1785.12 2399.12 L1785.12 2394.35 Q1786.6 2393 1789.33 2390.57 Q1804.26 2377.33 1804.26 2373.25 Q1804.26 2370.39 1802.01 2368.65 Q1799.75 2366.87 1796.06 2366.87 Q1793.8 2366.87 1791.16 2367.66 Q1788.51 2368.39 1785.38 2369.91 L1785.38 2364.57 Q1788.72 2363.36 1791.59 2362.75 Q1794.5 2362.14 1796.97 2362.14 Q1803.26 2362.14 1807.04 2365.01 Q1810.82 2367.87 1810.82 2372.56 Q1810.82 2378.59 1796.45 2390.92 Q1794.02 2393 1792.67 2394.17 Z" fill="#000000" fill-rule="nonzero" fill-opacity="1" /><path clip-path="url(#clip320)" d="M2318.58 2420.74 L2332.91 2420.74 L2332.91 2371.3 L2317.33 2374.43 L2317.33 2366.44 L2332.82 2363.31 L2341.59 2363.31 L2341.59 2420.74 L2355.91 2420.74 L2355.91 2428.11 L2318.58 2428.11 L2318.58 2420.74 Z" fill="#000000" fill-rule="nonzero" fill-opacity="1" /><path clip-path="url(#clip320)" d="M2392.37 2369.09 Q2385.6 2369.09 2382.17 2375.77 Q2378.78 2382.41 2378.78 2395.78 Q2378.78 2409.1 2382.17 2415.79 Q2385.6 2422.43 2392.37 2422.43 Q2399.18 2422.43 2402.57 2415.79 Q2406 2409.1 2406 2395.78 Q2406 2382.41 2402.57 2375.77 Q2399.18 2369.09 2392.37 2369.09 M2392.37 2362.14 Q2403.26 2362.14 2408.99 2370.78 Q2414.76 2379.37 2414.76 2395.78 Q2414.76 2412.14 2408.99 2420.78 Q2403.26 2429.37 2392.37 2429.37 Q2381.47 2429.37 2375.7 2420.78 Q2369.97 2412.14 2369.97 2395.78 Q2369.97 2379.37 2375.7 2370.78 Q2381.47 2362.14 2392.37 2362.14 Z" fill="#000000" fill-rule="nonzero" fill-opacity="1" /><path clip-path="url(#clip320)" d="M2443.41 2379.5 Q2447.4 2380.29 2449.57 2382.67 Q2451.79 2385.02 2451.79 2388.58 Q2451.79 2393.96 2447.66 2396.87 Q2443.54 2399.77 2435.86 2399.77 Q2433.38 2399.77 2430.65 2399.34 Q2427.96 2398.86 2424.92 2397.99 L2424.92 2392.74 Q2427.18 2393.91 2429.74 2394.48 Q2432.34 2395.04 2435.25 2395.04 Q2439.98 2395.04 2442.58 2393.35 Q2445.19 2391.61 2445.19 2388.58 Q2445.19 2385.36 2442.76 2383.71 Q2440.37 2382.06 2435.68 2382.06 L2431.95 2382.06 L2431.95 2377.38 L2436.03 2377.38 Q2440.11 2377.38 2442.19 2376.03 Q2444.32 2374.64 2444.32 2372.04 Q2444.32 2369.52 2442.15 2368.22 Q2439.98 2366.87 2435.86 2366.87 Q2434.12 2366.87 2431.91 2367.26 Q2429.69 2367.66 2426.18 2368.65 L2426.18 2363.66 Q2429.35 2362.92 2432.12 2362.53 Q2434.9 2362.14 2437.29 2362.14 Q2443.54 2362.14 2447.19 2364.7 Q2450.87 2367.26 2450.87 2371.56 Q2450.87 2374.56 2448.92 2376.64 Q2446.97 2378.72 2443.41 2379.5 Z" fill="#000000" fill-rule="nonzero" fill-opacity="1" /><path clip-path="url(#clip320)" d="M2957.9 2420.74 L2972.23 2420.74 L2972.23 2371.3 L2956.65 2374.43 L2956.65 2366.44 L2972.14 2363.31 L2980.91 2363.31 L2980.91 2420.74 L2995.23 2420.74 L2995.23 2428.11 L2957.9 2428.11 L2957.9 2420.74 Z" fill="#000000" fill-rule="nonzero" fill-opacity="1" /><path clip-path="url(#clip320)" d="M3031.69 2369.09 Q3024.92 2369.09 3021.49 2375.77 Q3018.1 2382.41 3018.1 2395.78 Q3018.1 2409.1 3021.49 2415.79 Q3024.92 2422.43 3031.69 2422.43 Q3038.5 2422.43 3041.89 2415.79 Q3045.32 2409.1 3045.32 2395.78 Q3045.32 2382.41 3041.89 2375.77 Q3038.5 2369.09 3031.69 2369.09 M3031.69 2362.14 Q3042.58 2362.14 3048.31 2370.78 Q3054.08 2379.37 3054.08 2395.78 Q3054.08 2412.14 3048.31 2420.78 Q3042.58 2429.37 3031.69 2429.37 Q3020.79 2429.37 3015.02 2420.78 Q3009.29 2412.14 3009.29 2395.78 Q3009.29 2379.37 3015.02 2370.78 Q3020.79 2362.14 3031.69 2362.14 Z" fill="#000000" fill-rule="nonzero" fill-opacity="1" /><path clip-path="url(#clip320)" d="M3080.69 2368.13 L3067.28 2386.32 L3080.69 2386.32 L3080.69 2368.13 M3079.74 2362.88 L3086.94 2362.88 L3086.94 2386.32 L3092.8 2386.32 L3092.8 2391.05 L3086.94 2391.05 L3086.94 2399.12 L3080.69 2399.12 L3080.69 2391.05 L3062.72 2391.05 L3062.72 2385.8 L3079.74 2362.88 Z" fill="#000000" fill-rule="nonzero" fill-opacity="1" /><path clip-path="url(#clip320)" d="M1349.63 2522.89 L1349.63 2551.38 L1366.5 2551.38 Q1374.99 2551.38 1379.05 2547.89 Q1383.17 2544.35 1383.17 2537.11 Q1383.17 2529.82 1379.05 2526.38 Q1374.99 2522.89 1366.5 2522.89 L1349.63 2522.89 M1349.63 2490.91 L1349.63 2514.35 L1365.2 2514.35 Q1372.91 2514.35 1376.66 2511.49 Q1380.46 2508.57 1380.46 2502.63 Q1380.46 2496.75 1376.66 2493.83 Q1372.91 2490.91 1365.2 2490.91 L1349.63 2490.91 M1339.1 2482.27 L1365.98 2482.27 Q1378.01 2482.27 1384.52 2487.27 Q1391.03 2492.27 1391.03 2501.49 Q1391.03 2508.62 1387.7 2512.84 Q1384.36 2517.06 1377.91 2518.1 Q1385.67 2519.77 1389.94 2525.08 Q1394.26 2530.34 1394.26 2538.26 Q1394.26 2548.67 1387.18 2554.35 Q1380.09 2560.03 1367.02 2560.03 L1339.1 2560.03 L1339.1 2482.27 Z" fill="#000000" fill-rule="nonzero" fill-opacity="1" /><path clip-path="url(#clip320)" d="M1434.47 2508.41 Q1426.76 2508.41 1422.28 2514.45 Q1417.8 2520.44 1417.8 2530.91 Q1417.8 2541.38 1422.23 2547.42 Q1426.71 2553.41 1434.47 2553.41 Q1442.12 2553.41 1446.6 2547.37 Q1451.08 2541.33 1451.08 2530.91 Q1451.08 2520.55 1446.6 2514.51 Q1442.12 2508.41 1434.47 2508.41 M1434.47 2500.29 Q1446.97 2500.29 1454.1 2508.41 Q1461.24 2516.54 1461.24 2530.91 Q1461.24 2545.24 1454.1 2553.41 Q1446.97 2561.54 1434.47 2561.54 Q1421.92 2561.54 1414.78 2553.41 Q1407.7 2545.24 1407.7 2530.91 Q1407.7 2516.54 1414.78 2508.41 Q1421.92 2500.29 1434.47 2500.29 Z" fill="#000000" fill-rule="nonzero" fill-opacity="1" /><path clip-path="url(#clip320)" d="M1515.51 2510.55 L1515.51 2478.99 L1525.09 2478.99 L1525.09 2560.03 L1515.51 2560.03 L1515.51 2551.28 Q1512.49 2556.49 1507.85 2559.04 Q1503.27 2561.54 1496.81 2561.54 Q1486.24 2561.54 1479.57 2553.1 Q1472.96 2544.66 1472.96 2530.91 Q1472.96 2517.16 1479.57 2508.73 Q1486.24 2500.29 1496.81 2500.29 Q1503.27 2500.29 1507.85 2502.84 Q1512.49 2505.34 1515.51 2510.55 M1482.85 2530.91 Q1482.85 2541.49 1487.18 2547.53 Q1491.55 2553.52 1499.16 2553.52 Q1506.76 2553.52 1511.13 2547.53 Q1515.51 2541.49 1515.51 2530.91 Q1515.51 2520.34 1511.13 2514.35 Q1506.76 2508.31 1499.16 2508.31 Q1491.55 2508.31 1487.18 2514.35 Q1482.85 2520.34 1482.85 2530.91 Z" fill="#000000" fill-rule="nonzero" fill-opacity="1" /><path clip-path="url(#clip320)" d="M1569.1 2565.44 Q1565.04 2575.86 1561.19 2579.04 Q1557.33 2582.21 1550.87 2582.21 L1543.22 2582.21 L1543.22 2574.19 L1548.84 2574.19 Q1552.8 2574.19 1554.99 2572.32 Q1557.18 2570.44 1559.83 2563.46 L1561.55 2559.09 L1537.96 2501.69 L1548.11 2501.69 L1566.34 2547.32 L1584.57 2501.69 L1594.73 2501.69 L1569.1 2565.44 Z" fill="#000000" fill-rule="nonzero" fill-opacity="1" /><path clip-path="url(#clip320)" d="M1687.28 2512.89 Q1690.87 2506.43 1695.87 2503.36 Q1700.87 2500.29 1707.64 2500.29 Q1716.76 2500.29 1721.71 2506.69 Q1726.65 2513.05 1726.65 2524.82 L1726.65 2560.03 L1717.02 2560.03 L1717.02 2525.13 Q1717.02 2516.75 1714.05 2512.68 Q1711.08 2508.62 1704.99 2508.62 Q1697.54 2508.62 1693.22 2513.57 Q1688.89 2518.52 1688.89 2527.06 L1688.89 2560.03 L1679.26 2560.03 L1679.26 2525.13 Q1679.26 2516.69 1676.29 2512.68 Q1673.32 2508.62 1667.12 2508.62 Q1659.78 2508.62 1655.46 2513.62 Q1651.13 2518.57 1651.13 2527.06 L1651.13 2560.03 L1641.5 2560.03 L1641.5 2501.69 L1651.13 2501.69 L1651.13 2510.76 Q1654.42 2505.39 1659 2502.84 Q1663.58 2500.29 1669.88 2500.29 Q1676.24 2500.29 1680.67 2503.52 Q1685.14 2506.75 1687.28 2512.89 Z" fill="#000000" fill-rule="nonzero" fill-opacity="1" /><path clip-path="url(#clip320)" d="M1772.28 2530.7 Q1760.66 2530.7 1756.19 2533.36 Q1751.71 2536.02 1751.71 2542.42 Q1751.71 2547.53 1755.04 2550.55 Q1758.43 2553.52 1764.21 2553.52 Q1772.18 2553.52 1776.97 2547.89 Q1781.81 2542.21 1781.81 2532.84 L1781.81 2530.7 L1772.28 2530.7 M1791.39 2526.75 L1791.39 2560.03 L1781.81 2560.03 L1781.81 2551.17 Q1778.53 2556.49 1773.63 2559.04 Q1768.74 2561.54 1761.65 2561.54 Q1752.7 2561.54 1747.38 2556.54 Q1742.12 2551.49 1742.12 2543.05 Q1742.12 2533.2 1748.69 2528.2 Q1755.3 2523.2 1768.37 2523.2 L1781.81 2523.2 L1781.81 2522.27 Q1781.81 2515.65 1777.44 2512.06 Q1773.11 2508.41 1765.25 2508.41 Q1760.25 2508.41 1755.51 2509.61 Q1750.77 2510.81 1746.39 2513.2 L1746.39 2504.35 Q1751.65 2502.32 1756.6 2501.33 Q1761.55 2500.29 1766.24 2500.29 Q1778.89 2500.29 1785.14 2506.85 Q1791.39 2513.41 1791.39 2526.75 Z" fill="#000000" fill-rule="nonzero" fill-opacity="1" /><path clip-path="url(#clip320)" d="M1848.32 2503.41 L1848.32 2512.48 Q1844.26 2510.39 1839.88 2509.35 Q1835.51 2508.31 1830.82 2508.31 Q1823.69 2508.31 1820.09 2510.5 Q1816.55 2512.68 1816.55 2517.06 Q1816.55 2520.39 1819.1 2522.32 Q1821.65 2524.19 1829.36 2525.91 L1832.64 2526.64 Q1842.85 2528.83 1847.12 2532.84 Q1851.45 2536.8 1851.45 2543.93 Q1851.45 2552.06 1844.99 2556.8 Q1838.58 2561.54 1827.33 2561.54 Q1822.64 2561.54 1817.54 2560.6 Q1812.49 2559.71 1806.86 2557.89 L1806.86 2548 Q1812.17 2550.76 1817.33 2552.16 Q1822.49 2553.52 1827.54 2553.52 Q1834.31 2553.52 1837.96 2551.22 Q1841.6 2548.88 1841.6 2544.66 Q1841.6 2540.76 1838.95 2538.67 Q1836.34 2536.59 1827.44 2534.66 L1824.1 2533.88 Q1815.2 2532.01 1811.24 2528.15 Q1807.28 2524.25 1807.28 2517.47 Q1807.28 2509.25 1813.11 2504.77 Q1818.95 2500.29 1829.67 2500.29 Q1834.99 2500.29 1839.67 2501.07 Q1844.36 2501.85 1848.32 2503.41 Z" fill="#000000" fill-rule="nonzero" fill-opacity="1" /><path clip-path="url(#clip320)" d="M1903.89 2503.41 L1903.89 2512.48 Q1899.83 2510.39 1895.46 2509.35 Q1891.08 2508.31 1886.39 2508.31 Q1879.26 2508.31 1875.66 2510.5 Q1872.12 2512.68 1872.12 2517.06 Q1872.12 2520.39 1874.67 2522.32 Q1877.23 2524.19 1884.93 2525.91 L1888.22 2526.64 Q1898.42 2528.83 1902.7 2532.84 Q1907.02 2536.8 1907.02 2543.93 Q1907.02 2552.06 1900.56 2556.8 Q1894.15 2561.54 1882.9 2561.54 Q1878.22 2561.54 1873.11 2560.6 Q1868.06 2559.71 1862.44 2557.89 L1862.44 2548 Q1867.75 2550.76 1872.9 2552.16 Q1878.06 2553.52 1883.11 2553.52 Q1889.88 2553.52 1893.53 2551.22 Q1897.17 2548.88 1897.17 2544.66 Q1897.17 2540.76 1894.52 2538.67 Q1891.91 2536.59 1883.01 2534.66 L1879.67 2533.88 Q1870.77 2532.01 1866.81 2528.15 Q1862.85 2524.25 1862.85 2517.47 Q1862.85 2509.25 1868.68 2504.77 Q1874.52 2500.29 1885.25 2500.29 Q1890.56 2500.29 1895.25 2501.07 Q1899.93 2501.85 1903.89 2503.41 Z" fill="#000000" fill-rule="nonzero" fill-opacity="1" /><path clip-path="url(#clip320)" d="M1979.21 2479.09 Q1972.23 2491.07 1968.84 2502.79 Q1965.46 2514.51 1965.46 2526.54 Q1965.46 2538.57 1968.84 2550.39 Q1972.28 2562.16 1979.21 2574.09 L1970.87 2574.09 Q1963.06 2561.85 1959.15 2550.03 Q1955.3 2538.2 1955.3 2526.54 Q1955.3 2514.92 1959.15 2503.15 Q1963.01 2491.38 1970.87 2479.09 L1979.21 2479.09 Z" fill="#000000" fill-rule="nonzero" fill-opacity="1" /><path clip-path="url(#clip320)" d="M1997.43 2478.99 L2007.07 2478.99 L2007.07 2526.85 L2035.66 2501.69 L2047.9 2501.69 L2016.97 2528.99 L2049.2 2560.03 L2036.7 2560.03 L2007.07 2531.54 L2007.07 2560.03 L1997.43 2560.03 L1997.43 2478.99 Z" fill="#000000" fill-rule="nonzero" fill-opacity="1" /><path clip-path="url(#clip320)" d="M2097.95 2530.18 Q2097.95 2519.77 2093.63 2514.04 Q2089.36 2508.31 2081.6 2508.31 Q2073.89 2508.31 2069.57 2514.04 Q2065.3 2519.77 2065.3 2530.18 Q2065.3 2540.55 2069.57 2546.28 Q2073.89 2552.01 2081.6 2552.01 Q2089.36 2552.01 2093.63 2546.28 Q2097.95 2540.55 2097.95 2530.18 M2107.54 2552.79 Q2107.54 2567.68 2100.92 2574.92 Q2094.31 2582.21 2080.66 2582.21 Q2075.61 2582.21 2071.13 2581.43 Q2066.65 2580.7 2062.43 2579.14 L2062.43 2569.82 Q2066.65 2572.11 2070.77 2573.2 Q2074.88 2574.3 2079.15 2574.3 Q2088.58 2574.3 2093.27 2569.35 Q2097.95 2564.45 2097.95 2554.51 L2097.95 2549.77 Q2094.99 2554.92 2090.35 2557.47 Q2085.72 2560.03 2079.26 2560.03 Q2068.53 2560.03 2061.97 2551.85 Q2055.4 2543.67 2055.4 2530.18 Q2055.4 2516.64 2061.97 2508.46 Q2068.53 2500.29 2079.26 2500.29 Q2085.72 2500.29 2090.35 2502.84 Q2094.99 2505.39 2097.95 2510.55 L2097.95 2501.69 L2107.54 2501.69 L2107.54 2552.79 Z" fill="#000000" fill-rule="nonzero" fill-opacity="1" /><path clip-path="url(#clip320)" d="M2125.77 2479.09 L2134.1 2479.09 Q2141.91 2491.38 2145.77 2503.15 Q2149.67 2514.92 2149.67 2526.54 Q2149.67 2538.2 2145.77 2550.03 Q2141.91 2561.85 2134.1 2574.09 L2125.77 2574.09 Q2132.69 2562.16 2136.08 2550.39 Q2139.52 2538.57 2139.52 2526.54 Q2139.52 2514.51 2136.08 2502.79 Q2132.69 2491.07 2125.77 2479.09 Z" fill="#000000" fill-rule="nonzero" fill-opacity="1" /><polyline clip-path="url(#clip320)" style="stroke:#000000; stroke-linecap:round; stroke-linejoin:round; stroke-width:4; stroke-opacity:1; fill:none" points="336.022,2321.51 336.022,47.2441 "/>
<polyline clip-path="url(#clip320)" style="stroke:#000000; stroke-linecap:round; stroke-linejoin:round; stroke-width:4; stroke-opacity:1; fill:none" points="3152.76,2321.51 3152.76,47.2441 "/>
<polyline clip-path="url(#clip320)" style="stroke:#000000; stroke-linecap:round; stroke-linejoin:round; stroke-width:4; stroke-opacity:1; fill:none" points="336.022,2257.19 354.919,2257.19 "/>
<polyline clip-path="url(#clip320)" style="stroke:#000000; stroke-linecap:round; stroke-linejoin:round; stroke-width:4; stroke-opacity:1; fill:none" points="336.022,1736.61 354.919,1736.61 "/>
<polyline clip-path="url(#clip320)" style="stroke:#000000; stroke-linecap:round; stroke-linejoin:round; stroke-width:4; stroke-opacity:1; fill:none" points="336.022,1216.03 354.919,1216.03 "/>
<polyline clip-path="url(#clip320)" style="stroke:#000000; stroke-linecap:round; stroke-linejoin:round; stroke-width:4; stroke-opacity:1; fill:none" points="336.022,695.441 354.919,695.441 "/>
<polyline clip-path="url(#clip320)" style="stroke:#000000; stroke-linecap:round; stroke-linejoin:round; stroke-width:4; stroke-opacity:1; fill:none" points="336.022,174.858 354.919,174.858 "/>
<polyline clip-path="url(#clip320)" style="stroke:#000000; stroke-linecap:round; stroke-linejoin:round; stroke-width:4; stroke-opacity:1; fill:none" points="3152.76,2257.19 3133.86,2257.19 "/>
<polyline clip-path="url(#clip320)" style="stroke:#000000; stroke-linecap:round; stroke-linejoin:round; stroke-width:4; stroke-opacity:1; fill:none" points="3152.76,1736.61 3133.86,1736.61 "/>
<polyline clip-path="url(#clip320)" style="stroke:#000000; stroke-linecap:round; stroke-linejoin:round; stroke-width:4; stroke-opacity:1; fill:none" points="3152.76,1216.03 3133.86,1216.03 "/>
<polyline clip-path="url(#clip320)" style="stroke:#000000; stroke-linecap:round; stroke-linejoin:round; stroke-width:4; stroke-opacity:1; fill:none" points="3152.76,695.441 3133.86,695.441 "/>
<polyline clip-path="url(#clip320)" style="stroke:#000000; stroke-linecap:round; stroke-linejoin:round; stroke-width:4; stroke-opacity:1; fill:none" points="3152.76,174.858 3133.86,174.858 "/>
<path clip-path="url(#clip320)" d="M180.817 2230.57 Q174.047 2230.57 170.618 2237.25 Q167.232 2243.89 167.232 2257.26 Q167.232 2270.58 170.618 2277.27 Q174.047 2283.91 180.817 2283.91 Q187.632 2283.91 191.017 2277.27 Q194.446 2270.58 194.446 2257.26 Q194.446 2243.89 191.017 2237.25 Q187.632 2230.57 180.817 2230.57 M180.817 2223.62 Q191.711 2223.62 197.44 2232.26 Q203.213 2240.85 203.213 2257.26 Q203.213 2273.62 197.44 2282.26 Q191.711 2290.85 180.817 2290.85 Q169.923 2290.85 164.151 2282.26 Q158.422 2273.62 158.422 2257.26 Q158.422 2240.85 164.151 2232.26 Q169.923 2223.62 180.817 2223.62 Z" fill="#000000" fill-rule="nonzero" fill-opacity="1" /><path clip-path="url(#clip320)" d="M218.621 2278.57 L227.779 2278.57 L227.779 2289.59 L218.621 2289.59 L218.621 2278.57 Z" fill="#000000" fill-rule="nonzero" fill-opacity="1" /><path clip-path="url(#clip320)" d="M265.626 2230.57 Q258.855 2230.57 255.426 2237.25 Q252.041 2243.89 252.041 2257.26 Q252.041 2270.58 255.426 2277.27 Q258.855 2283.91 265.626 2283.91 Q272.44 2283.91 275.825 2277.27 Q279.254 2270.58 279.254 2257.26 Q279.254 2243.89 275.825 2237.25 Q272.44 2230.57 265.626 2230.57 M265.626 2223.62 Q276.52 2223.62 282.249 2232.26 Q288.022 2240.85 288.022 2257.26 Q288.022 2273.62 282.249 2282.26 Q276.52 2290.85 265.626 2290.85 Q254.732 2290.85 248.959 2282.26 Q243.23 2273.62 243.23 2257.26 Q243.23 2240.85 248.959 2232.26 Q254.732 2223.62 265.626 2223.62 Z" fill="#000000" fill-rule="nonzero" fill-opacity="1" /><path clip-path="url(#clip320)" d="M183.118 1709.98 Q176.347 1709.98 172.918 1716.67 Q169.533 1723.31 169.533 1736.67 Q169.533 1750 172.918 1756.68 Q176.347 1763.32 183.118 1763.32 Q189.932 1763.32 193.317 1756.68 Q196.746 1750 196.746 1736.67 Q196.746 1723.31 193.317 1716.67 Q189.932 1709.98 183.118 1709.98 M183.118 1703.04 Q194.012 1703.04 199.741 1711.67 Q205.513 1720.27 205.513 1736.67 Q205.513 1753.04 199.741 1761.67 Q194.012 1770.27 183.118 1770.27 Q172.224 1770.27 166.451 1761.67 Q160.722 1753.04 160.722 1736.67 Q160.722 1720.27 166.451 1711.67 Q172.224 1703.04 183.118 1703.04 Z" fill="#000000" fill-rule="nonzero" fill-opacity="1" /><path clip-path="url(#clip320)" d="M220.921 1757.98 L230.079 1757.98 L230.079 1769.01 L220.921 1769.01 L220.921 1757.98 Z" fill="#000000" fill-rule="nonzero" fill-opacity="1" /><path clip-path="url(#clip320)" d="M250.695 1761.63 L265.018 1761.63 L265.018 1712.19 L249.437 1715.32 L249.437 1707.33 L264.931 1704.21 L273.699 1704.21 L273.699 1761.63 L288.022 1761.63 L288.022 1769.01 L250.695 1769.01 L250.695 1761.63 Z" fill="#000000" fill-rule="nonzero" fill-opacity="1" /><path clip-path="url(#clip320)" d="M183.812 1189.4 Q177.041 1189.4 173.613 1196.08 Q170.227 1202.72 170.227 1216.09 Q170.227 1229.41 173.613 1236.1 Q177.041 1242.74 183.812 1242.74 Q190.626 1242.74 194.012 1236.1 Q197.44 1229.41 197.44 1216.09 Q197.44 1202.72 194.012 1196.08 Q190.626 1189.4 183.812 1189.4 M183.812 1182.45 Q194.706 1182.45 200.435 1191.09 Q206.208 1199.68 206.208 1216.09 Q206.208 1232.45 200.435 1241.09 Q194.706 1249.68 183.812 1249.68 Q172.918 1249.68 167.146 1241.09 Q161.416 1232.45 161.416 1216.09 Q161.416 1199.68 167.146 1191.09 Q172.918 1182.45 183.812 1182.45 Z" fill="#000000" fill-rule="nonzero" fill-opacity="1" /><path clip-path="url(#clip320)" d="M221.616 1237.4 L230.774 1237.4 L230.774 1248.43 L221.616 1248.43 L221.616 1237.4 Z" fill="#000000" fill-rule="nonzero" fill-opacity="1" /><path clip-path="url(#clip320)" d="M257.423 1241.05 L288.022 1241.05 L288.022 1248.43 L246.876 1248.43 L246.876 1241.05 Q251.867 1235.88 260.461 1227.2 Q269.098 1218.48 271.312 1215.96 Q275.522 1211.23 277.171 1207.97 Q278.864 1204.68 278.864 1201.51 Q278.864 1196.34 275.218 1193.09 Q271.615 1189.83 265.8 1189.83 Q261.676 1189.83 257.076 1191.26 Q252.518 1192.7 247.31 1195.6 L247.31 1186.75 Q252.605 1184.62 257.206 1183.54 Q261.806 1182.45 265.626 1182.45 Q275.695 1182.45 281.685 1187.49 Q287.674 1192.52 287.674 1200.94 Q287.674 1204.94 286.155 1208.54 Q284.68 1212.1 280.73 1216.96 Q279.645 1218.22 273.829 1224.25 Q268.013 1230.24 257.423 1241.05 Z" fill="#000000" fill-rule="nonzero" fill-opacity="1" /><path clip-path="url(#clip320)" d="M182.033 668.814 Q175.262 668.814 171.833 675.498 Q168.448 682.138 168.448 695.506 Q168.448 708.831 171.833 715.515 Q175.262 722.156 182.033 722.156 Q188.847 722.156 192.232 715.515 Q195.661 708.831 195.661 695.506 Q195.661 682.138 192.232 675.498 Q188.847 668.814 182.033 668.814 M182.033 661.869 Q192.927 661.869 198.656 670.507 Q204.428 679.1 204.428 695.506 Q204.428 711.869 198.656 720.506 Q192.927 729.1 182.033 729.1 Q171.139 729.1 165.366 720.506 Q159.637 711.869 159.637 695.506 Q159.637 679.1 165.366 670.507 Q171.139 661.869 182.033 661.869 Z" fill="#000000" fill-rule="nonzero" fill-opacity="1" /><path clip-path="url(#clip320)" d="M219.836 716.817 L228.994 716.817 L228.994 727.841 L219.836 727.841 L219.836 716.817 Z" fill="#000000" fill-rule="nonzero" fill-opacity="1" /><path clip-path="url(#clip320)" d="M274.654 692.902 Q280.947 694.248 284.463 698.501 Q288.022 702.755 288.022 709.005 Q288.022 718.597 281.424 723.848 Q274.827 729.1 262.675 729.1 Q258.595 729.1 254.254 728.275 Q249.958 727.494 245.357 725.888 L245.357 717.425 Q249.003 719.551 253.343 720.637 Q257.683 721.722 262.414 721.722 Q270.661 721.722 274.957 718.466 Q279.298 715.211 279.298 709.005 Q279.298 703.276 275.261 700.064 Q271.268 696.809 264.107 696.809 L256.555 696.809 L256.555 689.604 L264.454 689.604 Q270.921 689.604 274.35 687.043 Q277.779 684.439 277.779 679.578 Q277.779 674.586 274.22 671.939 Q270.704 669.248 264.107 669.248 Q260.504 669.248 256.381 670.029 Q252.258 670.81 247.31 672.46 L247.31 664.647 Q252.301 663.258 256.642 662.564 Q261.025 661.869 264.888 661.869 Q274.871 661.869 280.687 666.427 Q286.503 670.941 286.503 678.666 Q286.503 684.048 283.421 687.781 Q280.339 691.47 274.654 692.902 Z" fill="#000000" fill-rule="nonzero" fill-opacity="1" /><path clip-path="url(#clip320)" d="M179.906 148.23 Q173.135 148.23 169.706 154.914 Q166.321 161.555 166.321 174.923 Q166.321 188.247 169.706 194.931 Q173.135 201.572 179.906 201.572 Q186.72 201.572 190.105 194.931 Q193.534 188.247 193.534 174.923 Q193.534 161.555 190.105 154.914 Q186.72 148.23 179.906 148.23 M179.906 141.286 Q190.8 141.286 196.529 149.923 Q202.302 158.517 202.302 174.923 Q202.302 191.285 196.529 199.923 Q190.8 208.516 179.906 208.516 Q169.012 208.516 163.239 199.923 Q157.51 191.285 157.51 174.923 Q157.51 158.517 163.239 149.923 Q169.012 141.286 179.906 141.286 Z" fill="#000000" fill-rule="nonzero" fill-opacity="1" /><path clip-path="url(#clip320)" d="M217.709 196.233 L226.867 196.233 L226.867 207.258 L217.709 207.258 L217.709 196.233 Z" fill="#000000" fill-rule="nonzero" fill-opacity="1" /><path clip-path="url(#clip320)" d="M270.053 150.096 L247.918 184.688 L270.053 184.688 L270.053 150.096 M267.753 142.458 L278.777 142.458 L278.777 184.688 L288.022 184.688 L288.022 191.98 L278.777 191.98 L278.777 207.258 L270.053 207.258 L270.053 191.98 L240.8 191.98 L240.8 183.516 L267.753 142.458 Z" fill="#000000" fill-rule="nonzero" fill-opacity="1" /><path clip-path="url(#clip320)" d="M17.0679 1369.8 L77.5364 1369.8 L77.5364 1357.09 Q77.5364 1340.99 70.2447 1333.55 Q62.9531 1326.05 47.224 1326.05 Q31.5991 1326.05 24.3596 1333.55 Q17.0679 1340.99 17.0679 1357.09 L17.0679 1369.8 M8.42216 1380.32 L8.42216 1358.7 Q8.42216 1336.1 17.8492 1325.52 Q27.2241 1314.95 47.224 1314.95 Q67.3281 1314.95 76.7551 1325.58 Q86.1822 1336.2 86.1822 1358.7 L86.1822 1380.32 L8.42216 1380.32 Z" fill="#000000" fill-rule="nonzero" fill-opacity="1" /><path clip-path="url(#clip320)" d="M54.6198 1248.7 L59.3073 1248.7 L59.3073 1292.76 Q69.2031 1292.14 74.4114 1286.83 Q79.5676 1281.46 79.5676 1271.93 Q79.5676 1266.41 78.2135 1261.25 Q76.8593 1256.05 74.151 1250.94 L83.2134 1250.94 Q85.4009 1256.1 86.5467 1261.51 Q87.6926 1266.93 87.6926 1272.5 Q87.6926 1286.46 79.5676 1294.64 Q71.4427 1302.76 57.5886 1302.76 Q43.2657 1302.76 34.8803 1295.06 Q26.4429 1287.3 26.4429 1274.17 Q26.4429 1262.4 34.047 1255.58 Q41.5991 1248.7 54.6198 1248.7 M51.8073 1258.29 Q43.9428 1258.39 39.2553 1262.71 Q34.5679 1266.98 34.5679 1274.07 Q34.5679 1282.09 39.0991 1286.93 Q43.6303 1291.72 51.8594 1292.45 L51.8073 1258.29 Z" fill="#000000" fill-rule="nonzero" fill-opacity="1" /><path clip-path="url(#clip320)" d="M50.974 1184.48 L86.1822 1184.48 L86.1822 1194.07 L51.2865 1194.07 Q43.0053 1194.07 38.8907 1197.3 Q34.7762 1200.53 34.7762 1206.98 Q34.7762 1214.74 39.7241 1219.22 Q44.672 1223.7 53.2136 1223.7 L86.1822 1223.7 L86.1822 1233.34 L27.8491 1233.34 L27.8491 1223.7 L36.9116 1223.7 Q31.6512 1220.26 29.047 1215.63 Q26.4429 1210.94 26.4429 1204.85 Q26.4429 1194.8 32.6929 1189.64 Q38.8907 1184.48 50.974 1184.48 Z" fill="#000000" fill-rule="nonzero" fill-opacity="1" /><path clip-path="url(#clip320)" d="M29.5679 1128.18 L38.6303 1128.18 Q36.547 1132.24 35.5053 1136.62 Q34.4637 1140.99 34.4637 1145.68 Q34.4637 1152.82 36.6512 1156.41 Q38.8387 1159.95 43.2136 1159.95 Q46.547 1159.95 48.474 1157.4 Q50.349 1154.85 52.0678 1147.14 L52.7969 1143.86 Q54.9844 1133.65 58.9948 1129.38 Q62.9531 1125.06 70.0885 1125.06 Q78.2135 1125.06 82.953 1131.52 Q87.6926 1137.92 87.6926 1149.17 Q87.6926 1153.86 86.7551 1158.96 Q85.8697 1164.01 84.0468 1169.64 L74.151 1169.64 Q76.9114 1164.33 78.3176 1159.17 Q79.6718 1154.02 79.6718 1148.96 Q79.6718 1142.19 77.3801 1138.55 Q75.0364 1134.9 70.8177 1134.9 Q66.9114 1134.9 64.8281 1137.56 Q62.7448 1140.16 60.8177 1149.07 L60.0365 1152.4 Q58.1615 1161.31 54.3073 1165.26 Q50.4011 1169.22 43.6303 1169.22 Q35.4012 1169.22 30.922 1163.39 Q26.4429 1157.56 26.4429 1146.83 Q26.4429 1141.52 27.2241 1136.83 Q28.0054 1132.14 29.5679 1128.18 Z" fill="#000000" fill-rule="nonzero" fill-opacity="1" /><path clip-path="url(#clip320)" d="M27.8491 1109.8 L27.8491 1100.21 L86.1822 1100.21 L86.1822 1109.8 L27.8491 1109.8 M5.14093 1109.8 L5.14093 1100.21 L17.2763 1100.21 L17.2763 1109.8 L5.14093 1109.8 Z" fill="#000000" fill-rule="nonzero" fill-opacity="1" /><path clip-path="url(#clip320)" d="M11.2867 1070.68 L27.8491 1070.68 L27.8491 1050.94 L35.297 1050.94 L35.297 1070.68 L66.9635 1070.68 Q74.0989 1070.68 76.1301 1068.76 Q78.1614 1066.78 78.1614 1060.79 L78.1614 1050.94 L86.1822 1050.94 L86.1822 1060.79 Q86.1822 1071.88 82.0676 1076.1 Q77.901 1080.32 66.9635 1080.32 L35.297 1080.32 L35.297 1087.35 L27.8491 1087.35 L27.8491 1080.32 L11.2867 1080.32 L11.2867 1070.68 Z" fill="#000000" fill-rule="nonzero" fill-opacity="1" /><path clip-path="url(#clip320)" d="M91.5988 1014.07 Q102.015 1018.13 105.192 1021.98 Q108.37 1025.84 108.37 1032.3 L108.37 1039.95 L100.349 1039.95 L100.349 1034.33 Q100.349 1030.37 98.4738 1028.18 Q96.5988 1025.99 89.6196 1023.34 L85.2447 1021.62 L27.8491 1045.21 L27.8491 1035.06 L73.4739 1016.83 L27.8491 998.599 L27.8491 988.443 L91.5988 1014.07 Z" fill="#000000" fill-rule="nonzero" fill-opacity="1" /><polyline clip-path="url(#clip322)" style="stroke:#2b565e; stroke-linecap:round; stroke-linejoin:round; stroke-width:20; stroke-opacity:1; fill:none" points="-1710.67,2257.15 -1680.41,2257.14 -1650.15,2257.11 -1619.9,2257.07 -1589.64,2257.01 -1559.38,2256.92 -1529.13,2256.79 -1498.87,2256.61 -1468.61,2256.34 -1438.36,2255.97 -1408.1,2255.46 -1377.84,2254.78 -1347.59,2253.86 -1317.33,2252.67 -1287.07,2251.12 -1256.82,2249.15 -1226.56,2246.67 -1196.3,2243.62 -1166.05,2239.9 -1135.79,2235.45 -1105.53,2230.2 -1075.28,2224.1 -1045.02,2217.13 -1014.77,2209.29 -984.509,2200.61 -954.252,2191.13 -923.996,2180.96 -893.739,2170.19 -863.483,2158.96 -833.226,2147.4 -802.97,2135.65 -772.713,2123.81 -742.457,2111.99 -712.2,2100.23 -681.944,2088.54 -651.687,2076.89 -621.431,2065.18 -591.174,2053.29 -560.918,2041.07 -530.661,2028.34 -500.405,2014.94 -470.148,2000.71 -439.892,1985.55 -409.635,1969.41 -379.378,1952.29 -349.122,1934.27 -318.865,1915.47 -288.609,1896.11 -258.352,1876.41 -228.096,1856.66 -197.839,1837.15 -167.583,1818.16 -137.326,1799.97 -107.07,1782.83 -76.8133,1766.98 -46.5567,1752.6 -16.3002,1739.88 13.9563,1728.96 44.2128,1719.98 74.4693,1713.08 104.726,1708.37 134.982,1705.98 165.239,1706.04 195.495,1708.64 225.752,1713.87 256.008,1721.8 286.265,1732.41 316.522,1745.66 346.778,1761.44 377.035,1779.54 407.291,1799.7 437.548,1821.56 467.804,1844.71 498.061,1868.67 528.317,1892.92 558.574,1916.91 588.83,1940.05 619.087,1961.76 649.343,1981.46 679.6,1998.59 709.856,2012.62 740.113,2023.02 770.369,2029.31 800.626,2031.07 830.882,2027.9 861.139,2019.46 891.395,2005.47 921.652,1985.73 951.908,1960.12 982.165,1928.64 1012.42,1891.37 1042.68,1848.54 1072.93,1800.5 1103.19,1747.74 1133.45,1690.86 1163.7,1630.56 1193.96,1567.63 1224.22,1502.92 1254.47,1437.25 1284.73,1371.44 1314.99,1306.23 1345.24,1242.25 1375.5,1179.99 1405.76,1119.81 1436.01,1061.91 1466.27,1006.34 1496.53,953.079 1526.78,902.008 1557.04,853.011 1587.3,806 1617.55,760.969 1647.81,718.028 1678.06,677.425 1708.32,639.552 1738.58,604.927 1768.83,574.163 1799.09,547.91 1829.35,526.801 1859.6,511.385 1889.86,502.059 1920.12,499.022 1950.37,502.228 1980.63,511.377 2010.89,525.913 2041.14,545.049 2071.4,567.82 2101.66,593.14 2131.91,619.877 2162.17,646.929 2192.43,673.303 2222.68,698.177 2252.94,720.958 2283.2,741.316 2313.45,759.205 2343.71,774.855 2373.96,788.756 2404.22,801.616 2434.48,814.312 2464.73,827.828 2494.99,843.189 2525.25,861.396 2555.5,883.361 2585.76,909.854 2616.02,941.455 2646.27,978.524 2676.53,1021.18 2706.79,1069.3 2737.04,1122.51 2767.3,1180.24 2797.56,1241.73 2827.81,1306.08 2858.07,1372.29 2888.33,1439.33 2918.58,1506.16 2948.84,1571.8 2979.1,1635.37 3009.35,1696.11 3039.61,1753.4 3069.86,1806.8 3100.12,1856.03 3130.38,1900.97 3160.63,1941.63 3190.89,1978.16 3221.15,2010.8 3251.4,2039.85 3281.66,2065.65 3311.92,2088.56 3342.17,2108.93 3372.43,2127.09 3402.69,2143.31 3432.94,2157.85 3463.2,2170.91 3493.46,2182.65 3523.71,2193.18 3553.97,2202.62 3584.23,2211.04 3614.48,2218.49 3644.74,2225.05 3675,2230.76 3705.25,2235.69 3735.51,2239.89 3765.76,2243.43 3796.02,2246.37 3826.28,2248.79 3856.53,2250.74 3886.79,2252.31 3917.05,2253.54 3947.3,2254.49 3977.56,2255.22 4007.82,2255.77 4038.07,2256.18 4068.33,2256.49 4098.59,2256.7 4128.84,2256.86 4159.1,2256.97 4189.36,2257.04 4219.61,2257.09 4249.87,2257.12 4280.13,2257.14 4310.38,2257.15 "/>
<polyline clip-path="url(#clip322)" style="stroke:#843505; stroke-linecap:round; stroke-linejoin:round; stroke-width:20; stroke-opacity:1; fill:none" points="-1795.35,2257.04 -1764.97,2257.05 -1734.59,2257.04 -1704.21,2257.03 -1673.83,2256.99 -1643.45,2256.94 -1613.06,2256.87 -1582.68,2256.77 -1552.3,2256.65 -1521.92,2256.48 -1491.54,2256.28 -1461.16,2256.01 -1430.78,2255.68 -1400.4,2255.27 -1370.02,2254.77 -1339.64,2254.14 -1309.26,2253.39 -1278.88,2252.47 -1248.5,2251.36 -1218.12,2250.04 -1187.74,2248.47 -1157.36,2246.63 -1126.98,2244.47 -1096.6,2241.95 -1066.22,2239.05 -1035.84,2235.72 -1005.46,2231.93 -975.084,2227.63 -944.704,2222.8 -914.324,2217.4 -883.944,2211.4 -853.564,2204.78 -823.184,2197.53 -792.804,2189.62 -762.424,2181.05 -732.044,2171.82 -701.663,2161.94 -671.283,2151.4 -640.903,2140.24 -610.523,2128.47 -580.143,2116.12 -549.763,2103.22 -519.383,2089.8 -489.003,2075.89 -458.623,2061.54 -428.243,2046.79 -397.863,2031.67 -367.483,2016.24 -337.103,2000.53 -306.723,1984.6 -276.343,1968.51 -245.963,1952.3 -215.583,1936.05 -185.203,1919.82 -154.823,1903.72 -124.443,1887.82 -94.0625,1872.22 -63.6824,1857.06 -33.3024,1842.44 -2.92234,1828.5 27.4577,1815.37 57.8378,1803.2 88.2178,1792.12 118.598,1782.26 148.978,1773.73 179.358,1766.66 209.738,1761.1 240.118,1757.12 270.498,1754.72 300.878,1753.9 331.258,1754.59 361.638,1756.69 392.018,1760.03 422.398,1764.44 452.778,1769.66 483.158,1775.41 513.539,1781.38 543.919,1787.23 574.299,1792.58 604.679,1797.06 635.059,1800.27 665.439,1801.84 695.819,1801.39 726.199,1798.59 756.579,1793.12 786.959,1784.71 817.339,1773.15 847.719,1758.27 878.099,1739.97 908.479,1718.21 938.859,1693 969.239,1664.44 999.619,1632.66 1030,1597.89 1060.38,1560.37 1090.76,1520.41 1121.14,1478.36 1151.52,1434.59 1181.9,1389.5 1212.28,1343.51 1242.66,1297.04 1273.04,1250.51 1303.42,1204.32 1333.8,1158.88 1364.18,1114.54 1394.56,1071.66 1424.94,1030.52 1455.32,991.419 1485.7,954.572 1516.08,920.174 1546.46,888.375 1576.84,859.284 1607.22,832.967 1637.6,809.454 1667.98,788.735 1698.36,770.765 1728.74,755.467 1759.12,742.736 1789.5,732.439 1819.88,724.423 1850.26,718.519 1880.64,714.543 1911.02,712.308 1941.4,711.625 1971.78,712.31 2002.16,714.191 2032.54,717.114 2062.92,720.95 2093.3,725.598 2123.68,730.991 2154.06,737.101 2184.44,743.941 2214.82,751.566 2245.2,760.071 2275.58,769.592 2305.96,780.3 2336.34,792.395 2366.72,806.101 2397.1,821.655 2427.48,839.3 2457.86,859.269 2488.24,881.783 2518.62,907.031 2549,935.168 2579.38,966.301 2609.76,1000.48 2640.14,1037.71 2670.52,1077.9 2700.9,1120.94 2731.28,1166.62 2761.66,1214.68 2792.04,1264.82 2822.42,1316.67 2852.8,1369.84 2883.18,1423.89 2913.56,1478.4 2943.94,1532.91 2974.32,1586.97 3004.7,1640.16 3035.08,1692.09 3065.46,1742.37 3095.84,1790.69 3126.22,1836.77 3156.6,1880.37 3186.98,1921.33 3217.36,1959.5 3247.74,1994.83 3278.12,2027.28 3308.5,2056.87 3338.88,2083.65 3369.26,2107.73 3399.64,2129.22 3430.02,2148.25 3460.4,2165.01 3490.78,2179.64 3521.16,2192.34 3551.54,2203.29 3581.92,2212.65 3612.3,2220.61 3642.68,2227.32 3673.06,2232.95 3703.44,2237.64 3733.82,2241.52 3764.2,2244.7 3794.58,2247.3 3824.96,2249.4 3855.34,2251.1 3885.72,2252.45 3916.1,2253.53 3946.48,2254.38 3976.86,2255.04 4007.24,2255.56 4037.62,2255.96 4068,2256.27 4098.38,2256.5 4128.76,2256.67 4159.14,2256.81 4189.52,2256.9 4219.9,2256.97 4250.28,2257.01 "/>
<polyline clip-path="url(#clip322)" style="stroke:#f8a916; stroke-linecap:round; stroke-linejoin:round; stroke-width:20; stroke-opacity:1; fill:none" points="-785.149,2256.97 -761.954,2256.97 -738.76,2256.95 -715.566,2256.91 -692.371,2256.84 -669.177,2256.75 -645.983,2256.62 -622.788,2256.44 -599.594,2256.22 -576.4,2255.94 -553.206,2255.57 -530.011,2255.12 -506.817,2254.55 -483.623,2253.84 -460.428,2252.97 -437.234,2251.91 -414.04,2250.62 -390.845,2249.06 -367.651,2247.2 -344.457,2244.99 -321.263,2242.38 -298.068,2239.32 -274.874,2235.77 -251.68,2231.66 -228.485,2226.96 -205.291,2221.61 -182.097,2215.57 -158.902,2208.8 -135.708,2201.29 -112.514,2193 -89.3195,2183.93 -66.1252,2174.11 -42.9309,2163.54 -19.7366,2152.28 3.45771,2140.38 26.652,2127.94 49.8463,2115.05 73.0406,2101.84 96.2349,2088.43 119.429,2074.99 142.624,2061.69 165.818,2048.7 189.012,2036.19 212.206,2024.35 235.401,2013.36 258.595,2003.39 281.789,1994.58 304.984,1987.06 328.178,1980.94 351.372,1976.3 374.567,1973.18 397.761,1971.57 420.955,1971.45 444.149,1972.74 467.344,1975.31 490.538,1979 513.732,1983.62 536.927,1988.93 560.121,1994.66 583.315,2000.5 606.51,2006.12 629.704,2011.17 652.898,2015.3 676.093,2018.13 699.287,2019.28 722.481,2018.38 745.675,2015.08 768.87,2009.04 792.064,1999.93 815.258,1987.47 838.453,1971.42 861.647,1951.56 884.841,1927.76 908.036,1899.89 931.23,1867.94 954.424,1831.92 977.618,1791.91 1000.81,1748.07 1024.01,1700.61 1047.2,1649.81 1070.4,1596 1093.59,1539.56 1116.78,1480.92 1139.98,1420.53 1163.17,1358.87 1186.37,1296.43 1209.56,1233.69 1232.76,1171.13 1255.95,1109.17 1279.14,1048.23 1302.34,988.647 1325.53,930.728 1348.73,874.704 1371.92,820.744 1395.12,768.955 1418.31,719.383 1441.5,672.02 1464.7,626.811 1487.89,583.665 1511.09,542.47 1534.28,503.101 1557.48,465.435 1580.67,429.365 1603.86,394.807 1627.06,361.714 1650.25,330.076 1673.45,299.932 1696.64,271.363 1719.84,244.497 1743.03,219.498 1766.22,196.56 1789.42,175.9 1812.61,157.745 1835.81,142.318 1859,129.827 1882.2,120.456 1905.39,114.351 1928.58,111.61 1951.78,112.282 1974.97,116.357 1998.17,123.77 2021.36,134.399 2044.56,148.07 2067.75,164.566 2090.95,183.636 2114.14,205.003 2137.33,228.379 2160.53,253.474 2183.72,280.013 2206.92,307.741 2230.11,336.44 2253.31,365.934 2276.5,396.093 2299.69,426.842 2322.89,458.159 2346.08,490.074 2369.28,522.665 2392.47,556.055 2415.67,590.396 2438.86,625.867 2462.05,662.66 2485.25,700.966 2508.44,740.965 2531.64,782.816 2554.83,826.643 2578.03,872.529 2601.22,920.506 2624.41,970.55 2647.61,1022.58 2670.8,1076.46 2694,1131.99 2717.19,1188.91 2740.39,1246.94 2763.58,1305.73 2786.77,1364.91 2809.97,1424.1 2833.16,1482.91 2856.36,1540.93 2879.55,1597.77 2902.75,1653.08 2925.94,1706.52 2949.13,1757.78 2972.33,1806.61 2995.52,1852.8 3018.72,1896.18 3041.91,1936.64 3065.11,1974.11 3088.3,2008.58 3111.49,2040.05 3134.69,2068.6 3157.88,2094.31 3181.08,2117.31 3204.27,2137.75 3227.47,2155.78 3250.66,2171.59 3273.85,2185.34 3297.05,2197.24 3320.24,2207.46 3343.44,2216.17 3366.63,2223.56 3389.83,2229.78 3413.02,2234.98 3436.21,2239.3 3459.41,2242.86 3482.6,2245.78 3505.8,2248.16 3528.99,2250.09 3552.19,2251.64 3575.38,2252.87 3598.57,2253.86 3621.77,2254.63 3644.96,2255.23 3668.16,2255.7 3691.35,2256.06 3714.55,2256.34 3737.74,2256.55 3760.93,2256.7 3784.13,2256.82 3807.32,2256.89 3830.52,2256.94 "/>
<path clip-path="url(#clip320)" d="M1131.83 2245.71 L2356.94 2245.71 L2356.94 1908.75 L1131.83 1908.75  Z" fill="#000000" fill-rule="evenodd" fill-opacity="0"/>
<polyline clip-path="url(#clip320)" style="stroke:#000000; stroke-linecap:round; stroke-linejoin:round; stroke-width:4; stroke-opacity:0; fill:none" points="1131.83,2245.71 2356.94,2245.71 2356.94,1908.75 1131.83,1908.75 1131.83,2245.71 "/>
<polyline clip-path="url(#clip320)" style="stroke:#2b565e; stroke-linecap:round; stroke-linejoin:round; stroke-width:32.5; stroke-opacity:1; fill:none" points="1163.13,1992.99 1350.91,1992.99 "/>
<path clip-path="url(#clip320)" d="M1408.24 1970.06 Q1399.97 1970.06 1395.08 1976.23 Q1390.22 1982.4 1390.22 1993.04 Q1390.22 2003.65 1395.08 2009.82 Q1399.97 2015.99 1408.24 2015.99 Q1416.52 2015.99 1421.33 2009.82 Q1426.18 2003.65 1426.18 1993.04 Q1426.18 1982.4 1421.33 1976.23 Q1416.52 1970.06 1408.24 1970.06 M1408.24 1963.89 Q1420.05 1963.89 1427.12 1971.83 Q1434.2 1979.73 1434.2 1993.04 Q1434.2 2006.32 1427.12 2014.26 Q1420.05 2022.16 1408.24 2022.16 Q1396.39 2022.16 1389.28 2014.26 Q1382.21 2006.36 1382.21 1993.04 Q1382.21 1979.73 1389.28 1971.83 Q1396.39 1963.89 1408.24 1963.89 Z" fill="#000000" fill-rule="nonzero" fill-opacity="1" /><path clip-path="url(#clip320)" d="M1445.78 1962.54 L1452.7 1962.54 L1452.7 2021.07 L1445.78 2021.07 L1445.78 1962.54 Z" fill="#000000" fill-rule="nonzero" fill-opacity="1" /><path clip-path="url(#clip320)" d="M1467.18 1978.94 L1474.11 1978.94 L1474.11 2021.07 L1467.18 2021.07 L1467.18 1978.94 M1467.18 1962.54 L1474.11 1962.54 L1474.11 1971.3 L1467.18 1971.3 L1467.18 1962.54 Z" fill="#000000" fill-rule="nonzero" fill-opacity="1" /><path clip-path="url(#clip320)" d="M1516.31 1999.51 Q1516.31 1991.99 1513.19 1987.85 Q1510.1 1983.71 1504.5 1983.71 Q1498.93 1983.71 1495.81 1987.85 Q1492.73 1991.99 1492.73 1999.51 Q1492.73 2007 1495.81 2011.14 Q1498.93 2015.27 1504.5 2015.27 Q1510.1 2015.27 1513.19 2011.14 Q1516.31 2007 1516.31 1999.51 M1523.23 2015.84 Q1523.23 2026.6 1518.45 2031.82 Q1513.68 2037.09 1503.82 2037.09 Q1500.17 2037.09 1496.94 2036.53 Q1493.7 2036 1490.66 2034.87 L1490.66 2028.14 Q1493.7 2029.79 1496.67 2030.58 Q1499.65 2031.37 1502.73 2031.37 Q1509.54 2031.37 1512.92 2027.8 Q1516.31 2024.26 1516.31 2017.08 L1516.31 2013.66 Q1514.17 2017.38 1510.82 2019.22 Q1507.47 2021.07 1502.81 2021.07 Q1495.06 2021.07 1490.32 2015.16 Q1485.58 2009.25 1485.58 1999.51 Q1485.58 1989.73 1490.32 1983.83 Q1495.06 1977.92 1502.81 1977.92 Q1507.47 1977.92 1510.82 1979.76 Q1514.17 1981.61 1516.31 1985.33 L1516.31 1978.94 L1523.23 1978.94 L1523.23 2015.84 Z" fill="#000000" fill-rule="nonzero" fill-opacity="1" /><path clip-path="url(#clip320)" d="M1553.81 1983.79 Q1548.25 1983.79 1545.01 1988.15 Q1541.78 1992.48 1541.78 2000.04 Q1541.78 2007.6 1544.97 2011.96 Q1548.21 2016.29 1553.81 2016.29 Q1559.34 2016.29 1562.58 2011.93 Q1565.81 2007.56 1565.81 2000.04 Q1565.81 1992.55 1562.58 1988.19 Q1559.34 1983.79 1553.81 1983.79 M1553.81 1977.92 Q1562.84 1977.92 1567.99 1983.79 Q1573.15 1989.66 1573.15 2000.04 Q1573.15 2010.38 1567.99 2016.29 Q1562.84 2022.16 1553.81 2022.16 Q1544.75 2022.16 1539.59 2016.29 Q1534.48 2010.38 1534.48 2000.04 Q1534.48 1989.66 1539.59 1983.79 Q1544.75 1977.92 1553.81 1977.92 Z" fill="#000000" fill-rule="nonzero" fill-opacity="1" /><path clip-path="url(#clip320)" d="M1614.94 1980.55 L1614.94 1987.02 Q1612 1985.41 1609.03 1984.62 Q1606.1 1983.79 1603.09 1983.79 Q1596.36 1983.79 1592.63 1988.08 Q1588.91 1992.33 1588.91 2000.04 Q1588.91 2007.75 1592.63 2012.04 Q1596.36 2016.29 1603.09 2016.29 Q1606.1 2016.29 1609.03 2015.5 Q1612 2014.67 1614.94 2013.05 L1614.94 2019.45 Q1612.04 2020.8 1608.92 2021.48 Q1605.84 2022.16 1602.34 2022.16 Q1592.82 2022.16 1587.22 2016.18 Q1581.61 2010.19 1581.61 2000.04 Q1581.61 1989.73 1587.25 1983.83 Q1592.93 1977.92 1602.79 1977.92 Q1605.99 1977.92 1609.03 1978.6 Q1612.08 1979.24 1614.94 1980.55 Z" fill="#000000" fill-rule="nonzero" fill-opacity="1" /><path clip-path="url(#clip320)" d="M1663.01 1998.27 L1663.01 2001.66 L1631.19 2001.66 Q1631.64 2008.8 1635.48 2012.56 Q1639.35 2016.29 1646.23 2016.29 Q1650.22 2016.29 1653.95 2015.31 Q1657.71 2014.33 1661.39 2012.38 L1661.39 2018.92 Q1657.67 2020.5 1653.76 2021.33 Q1649.85 2022.16 1645.82 2022.16 Q1635.74 2022.16 1629.83 2016.29 Q1623.97 2010.42 1623.97 2000.41 Q1623.97 1990.07 1629.53 1984.01 Q1635.14 1977.92 1644.62 1977.92 Q1653.12 1977.92 1658.05 1983.41 Q1663.01 1988.87 1663.01 1998.27 M1656.09 1996.24 Q1656.01 1990.56 1652.89 1987.17 Q1649.81 1983.79 1644.69 1983.79 Q1638.9 1983.79 1635.4 1987.06 Q1631.94 1990.33 1631.41 1996.28 L1656.09 1996.24 Z" fill="#000000" fill-rule="nonzero" fill-opacity="1" /><path clip-path="url(#clip320)" d="M1709.39 1995.64 L1709.39 2021.07 L1702.47 2021.07 L1702.47 1995.86 Q1702.47 1989.88 1700.14 1986.91 Q1697.81 1983.94 1693.14 1983.94 Q1687.54 1983.94 1684.3 1987.51 Q1681.07 1991.09 1681.07 1997.26 L1681.07 2021.07 L1674.11 2021.07 L1674.11 1978.94 L1681.07 1978.94 L1681.07 1985.48 Q1683.55 1981.68 1686.9 1979.8 Q1690.28 1977.92 1694.68 1977.92 Q1701.94 1977.92 1705.67 1982.43 Q1709.39 1986.91 1709.39 1995.64 Z" fill="#000000" fill-rule="nonzero" fill-opacity="1" /><path clip-path="url(#clip320)" d="M1759.23 1998.27 L1759.23 2001.66 L1727.41 2001.66 Q1727.86 2008.8 1731.7 2012.56 Q1735.57 2016.29 1742.45 2016.29 Q1746.44 2016.29 1750.17 2015.31 Q1753.93 2014.33 1757.61 2012.38 L1757.61 2018.92 Q1753.89 2020.5 1749.98 2021.33 Q1746.07 2022.16 1742.04 2022.16 Q1731.96 2022.16 1726.05 2016.29 Q1720.19 2010.42 1720.19 2000.41 Q1720.19 1990.07 1725.75 1984.01 Q1731.36 1977.92 1740.84 1977.92 Q1749.34 1977.92 1754.27 1983.41 Q1759.23 1988.87 1759.23 1998.27 M1752.31 1996.24 Q1752.23 1990.56 1749.11 1987.17 Q1746.03 1983.79 1740.91 1983.79 Q1735.12 1983.79 1731.62 1987.06 Q1728.16 1990.33 1727.63 1996.28 L1752.31 1996.24 Z" fill="#000000" fill-rule="nonzero" fill-opacity="1" /><path clip-path="url(#clip320)" d="M1801.92 1966.97 L1801.92 1978.94 L1816.18 1978.94 L1816.18 1984.32 L1801.92 1984.32 L1801.92 2007.19 Q1801.92 2012.34 1803.32 2013.81 Q1804.75 2015.27 1809.07 2015.27 L1816.18 2015.27 L1816.18 2021.07 L1809.07 2021.07 Q1801.06 2021.07 1798.01 2018.09 Q1794.97 2015.08 1794.97 2007.19 L1794.97 1984.32 L1789.89 1984.32 L1789.89 1978.94 L1794.97 1978.94 L1794.97 1966.97 L1801.92 1966.97 Z" fill="#000000" fill-rule="nonzero" fill-opacity="1" /><path clip-path="url(#clip320)" d="M1841.61 1983.79 Q1836.04 1983.79 1832.81 1988.15 Q1829.57 1992.48 1829.57 2000.04 Q1829.57 2007.6 1832.77 2011.96 Q1836 2016.29 1841.61 2016.29 Q1847.14 2016.29 1850.37 2011.93 Q1853.61 2007.56 1853.61 2000.04 Q1853.61 1992.55 1850.37 1988.19 Q1847.14 1983.79 1841.61 1983.79 M1841.61 1977.92 Q1850.64 1977.92 1855.79 1983.79 Q1860.94 1989.66 1860.94 2000.04 Q1860.94 2010.38 1855.79 2016.29 Q1850.64 2022.16 1841.61 2022.16 Q1832.54 2022.16 1827.39 2016.29 Q1822.27 2010.38 1822.27 2000.04 Q1822.27 1989.66 1827.39 1983.79 Q1832.54 1977.92 1841.61 1977.92 Z" fill="#000000" fill-rule="nonzero" fill-opacity="1" /><path clip-path="url(#clip320)" d="M1904.8 1971.15 L1904.8 1992.25 L1914.36 1992.25 Q1919.66 1992.25 1922.56 1989.51 Q1925.45 1986.76 1925.45 1981.68 Q1925.45 1976.64 1922.56 1973.9 Q1919.66 1971.15 1914.36 1971.15 L1904.8 1971.15 M1897.21 1964.91 L1914.36 1964.91 Q1923.8 1964.91 1928.61 1969.19 Q1933.47 1973.44 1933.47 1981.68 Q1933.47 1990 1928.61 1994.25 Q1923.8 1998.5 1914.36 1998.5 L1904.8 1998.5 L1904.8 2021.07 L1897.21 2021.07 L1897.21 1964.91 Z" fill="#000000" fill-rule="nonzero" fill-opacity="1" /><path clip-path="url(#clip320)" d="M1943.36 1962.54 L1950.28 1962.54 L1950.28 2021.07 L1943.36 2021.07 L1943.36 1962.54 Z" fill="#000000" fill-rule="nonzero" fill-opacity="1" /><path clip-path="url(#clip320)" d="M2000.8 1998.27 L2000.8 2001.66 L1968.98 2001.66 Q1969.43 2008.8 1973.26 2012.56 Q1977.14 2016.29 1984.02 2016.29 Q1988.01 2016.29 1991.73 2015.31 Q1995.49 2014.33 1999.18 2012.38 L1999.18 2018.92 Q1995.46 2020.5 1991.54 2021.33 Q1987.63 2022.16 1983.61 2022.16 Q1973.53 2022.16 1967.62 2016.29 Q1961.75 2010.42 1961.75 2000.41 Q1961.75 1990.07 1967.32 1984.01 Q1972.93 1977.92 1982.4 1977.92 Q1990.91 1977.92 1995.83 1983.41 Q2000.8 1988.87 2000.8 1998.27 M1993.88 1996.24 Q1993.8 1990.56 1990.68 1987.17 Q1987.6 1983.79 1982.48 1983.79 Q1976.69 1983.79 1973.19 1987.06 Q1969.73 1990.33 1969.2 1996.28 L1993.88 1996.24 Z" fill="#000000" fill-rule="nonzero" fill-opacity="1" /><path clip-path="url(#clip320)" d="M2012.16 1978.94 L2019.08 1978.94 L2019.08 2021.07 L2012.16 2021.07 L2012.16 1978.94 M2012.16 1962.54 L2019.08 1962.54 L2019.08 1971.3 L2012.16 1971.3 L2012.16 1962.54 Z" fill="#000000" fill-rule="nonzero" fill-opacity="1" /><path clip-path="url(#clip320)" d="M2060.42 1980.18 L2060.42 1986.72 Q2057.48 1985.22 2054.33 1984.47 Q2051.17 1983.71 2047.78 1983.71 Q2042.63 1983.71 2040.03 1985.29 Q2037.47 1986.87 2037.47 1990.03 Q2037.47 1992.44 2039.32 1993.83 Q2041.16 1995.19 2046.73 1996.43 L2049.1 1996.95 Q2056.47 1998.53 2059.55 2001.43 Q2062.68 2004.29 2062.68 2009.44 Q2062.68 2015.31 2058.01 2018.73 Q2053.38 2022.16 2045.26 2022.16 Q2041.87 2022.16 2038.19 2021.48 Q2034.54 2020.84 2030.48 2019.52 L2030.48 2012.38 Q2034.31 2014.37 2038.04 2015.39 Q2041.76 2016.36 2045.41 2016.36 Q2050.3 2016.36 2052.93 2014.71 Q2055.57 2013.02 2055.57 2009.97 Q2055.57 2007.15 2053.65 2005.64 Q2051.77 2004.14 2045.34 2002.75 L2042.93 2002.18 Q2036.5 2000.83 2033.64 1998.05 Q2030.78 1995.22 2030.78 1990.33 Q2030.78 1984.39 2034.99 1981.16 Q2039.2 1977.92 2046.95 1977.92 Q2050.79 1977.92 2054.17 1978.49 Q2057.56 1979.05 2060.42 1980.18 Z" fill="#000000" fill-rule="nonzero" fill-opacity="1" /><path clip-path="url(#clip320)" d="M2080.54 1966.97 L2080.54 1978.94 L2094.8 1978.94 L2094.8 1984.32 L2080.54 1984.32 L2080.54 2007.19 Q2080.54 2012.34 2081.94 2013.81 Q2083.36 2015.27 2087.69 2015.27 L2094.8 2015.27 L2094.8 2021.07 L2087.69 2021.07 Q2079.68 2021.07 2076.63 2018.09 Q2073.58 2015.08 2073.58 2007.19 L2073.58 1984.32 L2068.51 1984.32 L2068.51 1978.94 L2073.58 1978.94 L2073.58 1966.97 L2080.54 1966.97 Z" fill="#000000" fill-rule="nonzero" fill-opacity="1" /><path clip-path="url(#clip320)" d="M2120.23 1983.79 Q2114.66 1983.79 2111.43 1988.15 Q2108.19 1992.48 2108.19 2000.04 Q2108.19 2007.6 2111.39 2011.96 Q2114.62 2016.29 2120.23 2016.29 Q2125.76 2016.29 2128.99 2011.93 Q2132.23 2007.56 2132.23 2000.04 Q2132.23 1992.55 2128.99 1988.19 Q2125.76 1983.79 2120.23 1983.79 M2120.23 1977.92 Q2129.26 1977.92 2134.41 1983.79 Q2139.56 1989.66 2139.56 2000.04 Q2139.56 2010.38 2134.41 2016.29 Q2129.26 2022.16 2120.23 2022.16 Q2111.16 2022.16 2106.01 2016.29 Q2100.89 2010.38 2100.89 2000.04 Q2100.89 1989.66 2106.01 1983.79 Q2111.16 1977.92 2120.23 1977.92 Z" fill="#000000" fill-rule="nonzero" fill-opacity="1" /><path clip-path="url(#clip320)" d="M2181.35 1980.55 L2181.35 1987.02 Q2178.42 1985.41 2175.45 1984.62 Q2172.51 1983.79 2169.5 1983.79 Q2162.77 1983.79 2159.05 1988.08 Q2155.32 1992.33 2155.32 2000.04 Q2155.32 2007.75 2159.05 2012.04 Q2162.77 2016.29 2169.5 2016.29 Q2172.51 2016.29 2175.45 2015.5 Q2178.42 2014.67 2181.35 2013.05 L2181.35 2019.45 Q2178.46 2020.8 2175.33 2021.48 Q2172.25 2022.16 2168.75 2022.16 Q2159.23 2022.16 2153.63 2016.18 Q2148.03 2010.19 2148.03 2000.04 Q2148.03 1989.73 2153.67 1983.83 Q2159.35 1977.92 2169.2 1977.92 Q2172.4 1977.92 2175.45 1978.6 Q2178.49 1979.24 2181.35 1980.55 Z" fill="#000000" fill-rule="nonzero" fill-opacity="1" /><path clip-path="url(#clip320)" d="M2229.43 1998.27 L2229.43 2001.66 L2197.6 2001.66 Q2198.05 2008.8 2201.89 2012.56 Q2205.77 2016.29 2212.65 2016.29 Q2216.64 2016.29 2220.36 2015.31 Q2224.12 2014.33 2227.81 2012.38 L2227.81 2018.92 Q2224.08 2020.5 2220.17 2021.33 Q2216.26 2022.16 2212.24 2022.16 Q2202.15 2022.16 2196.25 2016.29 Q2190.38 2010.42 2190.38 2000.41 Q2190.38 1990.07 2195.95 1984.01 Q2201.55 1977.92 2211.03 1977.92 Q2219.53 1977.92 2224.46 1983.41 Q2229.43 1988.87 2229.43 1998.27 M2222.5 1996.24 Q2222.43 1990.56 2219.31 1987.17 Q2216.22 1983.79 2211.11 1983.79 Q2205.31 1983.79 2201.82 1987.06 Q2198.36 1990.33 2197.83 1996.28 L2222.5 1996.24 Z" fill="#000000" fill-rule="nonzero" fill-opacity="1" /><path clip-path="url(#clip320)" d="M2275.81 1995.64 L2275.81 2021.07 L2268.88 2021.07 L2268.88 1995.86 Q2268.88 1989.88 2266.55 1986.91 Q2264.22 1983.94 2259.56 1983.94 Q2253.95 1983.94 2250.72 1987.51 Q2247.48 1991.09 2247.48 1997.26 L2247.48 2021.07 L2240.52 2021.07 L2240.52 1978.94 L2247.48 1978.94 L2247.48 1985.48 Q2249.96 1981.68 2253.31 1979.8 Q2256.7 1977.92 2261.1 1977.92 Q2268.36 1977.92 2272.08 1982.43 Q2275.81 1986.91 2275.81 1995.64 Z" fill="#000000" fill-rule="nonzero" fill-opacity="1" /><path clip-path="url(#clip320)" d="M2325.65 1998.27 L2325.65 2001.66 L2293.82 2001.66 Q2294.27 2008.8 2298.11 2012.56 Q2301.99 2016.29 2308.87 2016.29 Q2312.86 2016.29 2316.58 2015.31 Q2320.34 2014.33 2324.03 2012.38 L2324.03 2018.92 Q2320.3 2020.5 2316.39 2021.33 Q2312.48 2022.16 2308.46 2022.16 Q2298.37 2022.16 2292.47 2016.29 Q2286.6 2010.42 2286.6 2000.41 Q2286.6 1990.07 2292.17 1984.01 Q2297.77 1977.92 2307.25 1977.92 Q2315.75 1977.92 2320.68 1983.41 Q2325.65 1988.87 2325.65 1998.27 M2318.72 1996.24 Q2318.65 1990.56 2315.53 1987.17 Q2312.44 1983.79 2307.33 1983.79 Q2301.53 1983.79 2298.04 1987.06 Q2294.58 1990.33 2294.05 1996.28 L2318.72 1996.24 Z" fill="#000000" fill-rule="nonzero" fill-opacity="1" /><polyline clip-path="url(#clip320)" style="stroke:#843505; stroke-linecap:round; stroke-linejoin:round; stroke-width:32.5; stroke-opacity:1; fill:none" points="1163.13,2077.23 1350.91,2077.23 "/>
<path clip-path="url(#clip320)" d="M1382.21 2049.15 L1393.53 2049.15 L1407.86 2087.36 L1422.27 2049.15 L1433.59 2049.15 L1433.59 2105.31 L1426.18 2105.31 L1426.18 2055.99 L1411.7 2094.51 L1404.07 2094.51 L1389.58 2055.99 L1389.58 2105.31 L1382.21 2105.31 L1382.21 2049.15 Z" fill="#000000" fill-rule="nonzero" fill-opacity="1" /><path clip-path="url(#clip320)" d="M1448.38 2063.18 L1455.3 2063.18 L1455.3 2105.31 L1448.38 2105.31 L1448.38 2063.18 M1448.38 2046.78 L1455.3 2046.78 L1455.3 2055.54 L1448.38 2055.54 L1448.38 2046.78 Z" fill="#000000" fill-rule="nonzero" fill-opacity="1" /><path clip-path="url(#clip320)" d="M1486.1 2068.03 Q1480.54 2068.03 1477.3 2072.39 Q1474.07 2076.72 1474.07 2084.28 Q1474.07 2091.84 1477.27 2096.2 Q1480.5 2100.53 1486.1 2100.53 Q1491.63 2100.53 1494.87 2096.17 Q1498.1 2091.8 1498.1 2084.28 Q1498.1 2076.79 1494.87 2072.43 Q1491.63 2068.03 1486.1 2068.03 M1486.1 2062.16 Q1495.13 2062.16 1500.29 2068.03 Q1505.44 2073.9 1505.44 2084.28 Q1505.44 2094.62 1500.29 2100.53 Q1495.13 2106.4 1486.1 2106.4 Q1477.04 2106.4 1471.89 2100.53 Q1466.77 2094.62 1466.77 2084.28 Q1466.77 2073.9 1471.89 2068.03 Q1477.04 2062.16 1486.1 2062.16 Z" fill="#000000" fill-rule="nonzero" fill-opacity="1" /><path clip-path="url(#clip320)" d="M1547.23 2064.79 L1547.23 2071.26 Q1544.3 2069.65 1541.32 2068.86 Q1538.39 2068.03 1535.38 2068.03 Q1528.65 2068.03 1524.92 2072.32 Q1521.2 2076.57 1521.2 2084.28 Q1521.2 2091.99 1524.92 2096.28 Q1528.65 2100.53 1535.38 2100.53 Q1538.39 2100.53 1541.32 2099.74 Q1544.3 2098.91 1547.23 2097.29 L1547.23 2103.69 Q1544.33 2105.04 1541.21 2105.72 Q1538.13 2106.4 1534.63 2106.4 Q1525.11 2106.4 1519.51 2100.42 Q1513.9 2094.43 1513.9 2084.28 Q1513.9 2073.97 1519.55 2068.07 Q1525.23 2062.16 1535.08 2062.16 Q1538.28 2062.16 1541.32 2062.84 Q1544.37 2063.48 1547.23 2064.79 Z" fill="#000000" fill-rule="nonzero" fill-opacity="1" /><path clip-path="url(#clip320)" d="M1595.3 2082.51 L1595.3 2085.9 L1563.48 2085.9 Q1563.93 2093.04 1567.77 2096.8 Q1571.64 2100.53 1578.53 2100.53 Q1582.51 2100.53 1586.24 2099.55 Q1590 2098.57 1593.69 2096.62 L1593.69 2103.16 Q1589.96 2104.74 1586.05 2105.57 Q1582.14 2106.4 1578.11 2106.4 Q1568.03 2106.4 1562.13 2100.53 Q1556.26 2094.66 1556.26 2084.65 Q1556.26 2074.31 1561.82 2068.25 Q1567.43 2062.16 1576.91 2062.16 Q1585.41 2062.16 1590.34 2067.65 Q1595.3 2073.11 1595.3 2082.51 M1588.38 2080.48 Q1588.31 2074.8 1585.18 2071.41 Q1582.1 2068.03 1576.98 2068.03 Q1571.19 2068.03 1567.69 2071.3 Q1564.23 2074.57 1563.71 2080.52 L1588.38 2080.48 Z" fill="#000000" fill-rule="nonzero" fill-opacity="1" /><path clip-path="url(#clip320)" d="M1641.68 2079.88 L1641.68 2105.31 L1634.76 2105.31 L1634.76 2080.1 Q1634.76 2074.12 1632.43 2071.15 Q1630.1 2068.18 1625.43 2068.18 Q1619.83 2068.18 1616.59 2071.75 Q1613.36 2075.33 1613.36 2081.5 L1613.36 2105.31 L1606.4 2105.31 L1606.4 2063.18 L1613.36 2063.18 L1613.36 2069.72 Q1615.84 2065.92 1619.19 2064.04 Q1622.57 2062.16 1626.98 2062.16 Q1634.23 2062.16 1637.96 2066.67 Q1641.68 2071.15 1641.68 2079.88 Z" fill="#000000" fill-rule="nonzero" fill-opacity="1" /><path clip-path="url(#clip320)" d="M1691.52 2082.51 L1691.52 2085.9 L1659.7 2085.9 Q1660.15 2093.04 1663.99 2096.8 Q1667.86 2100.53 1674.75 2100.53 Q1678.73 2100.53 1682.46 2099.55 Q1686.22 2098.57 1689.91 2096.62 L1689.91 2103.16 Q1686.18 2104.74 1682.27 2105.57 Q1678.36 2106.4 1674.33 2106.4 Q1664.25 2106.4 1658.35 2100.53 Q1652.48 2094.66 1652.48 2084.65 Q1652.48 2074.31 1658.05 2068.25 Q1663.65 2062.16 1673.13 2062.16 Q1681.63 2062.16 1686.56 2067.65 Q1691.52 2073.11 1691.52 2082.51 M1684.6 2080.48 Q1684.53 2074.8 1681.4 2071.41 Q1678.32 2068.03 1673.2 2068.03 Q1667.41 2068.03 1663.91 2071.3 Q1660.45 2074.57 1659.93 2080.52 L1684.6 2080.48 Z" fill="#000000" fill-rule="nonzero" fill-opacity="1" /><polyline clip-path="url(#clip320)" style="stroke:#f8a916; stroke-linecap:round; stroke-linejoin:round; stroke-width:32.5; stroke-opacity:1; fill:none" points="1163.13,2161.47 1350.91,2161.47 "/>
<path clip-path="url(#clip320)" d="M1389.81 2139.63 L1389.81 2160.73 L1399.36 2160.73 Q1404.67 2160.73 1407.56 2157.99 Q1410.46 2155.24 1410.46 2150.16 Q1410.46 2145.12 1407.56 2142.38 Q1404.67 2139.63 1399.36 2139.63 L1389.81 2139.63 M1382.21 2133.39 L1399.36 2133.39 Q1408.8 2133.39 1413.62 2137.67 Q1418.47 2141.92 1418.47 2150.16 Q1418.47 2158.48 1413.62 2162.73 Q1408.8 2166.98 1399.36 2166.98 L1389.81 2166.98 L1389.81 2189.55 L1382.21 2189.55 L1382.21 2133.39 Z" fill="#000000" fill-rule="nonzero" fill-opacity="1" /><path clip-path="url(#clip320)" d="M1428.37 2131.02 L1435.29 2131.02 L1435.29 2189.55 L1428.37 2189.55 L1428.37 2131.02 Z" fill="#000000" fill-rule="nonzero" fill-opacity="1" /><path clip-path="url(#clip320)" d="M1449.77 2147.42 L1456.69 2147.42 L1456.69 2189.55 L1449.77 2189.55 L1449.77 2147.42 M1449.77 2131.02 L1456.69 2131.02 L1456.69 2139.78 L1449.77 2139.78 L1449.77 2131.02 Z" fill="#000000" fill-rule="nonzero" fill-opacity="1" /><path clip-path="url(#clip320)" d="M1487.5 2152.27 Q1481.93 2152.27 1478.69 2156.63 Q1475.46 2160.96 1475.46 2168.52 Q1475.46 2176.08 1478.66 2180.44 Q1481.89 2184.77 1487.5 2184.77 Q1493.03 2184.77 1496.26 2180.41 Q1499.5 2176.04 1499.5 2168.52 Q1499.5 2161.03 1496.26 2156.67 Q1493.03 2152.27 1487.5 2152.27 M1487.5 2146.4 Q1496.52 2146.4 1501.68 2152.27 Q1506.83 2158.14 1506.83 2168.52 Q1506.83 2178.86 1501.68 2184.77 Q1496.52 2190.64 1487.5 2190.64 Q1478.43 2190.64 1473.28 2184.77 Q1468.16 2178.86 1468.16 2168.52 Q1468.16 2158.14 1473.28 2152.27 Q1478.43 2146.4 1487.5 2146.4 Z" fill="#000000" fill-rule="nonzero" fill-opacity="1" /><path clip-path="url(#clip320)" d="M1548.62 2149.03 L1548.62 2155.5 Q1545.69 2153.89 1542.72 2153.1 Q1539.78 2152.27 1536.77 2152.27 Q1530.04 2152.27 1526.32 2156.56 Q1522.59 2160.81 1522.59 2168.52 Q1522.59 2176.23 1526.32 2180.52 Q1530.04 2184.77 1536.77 2184.77 Q1539.78 2184.77 1542.72 2183.98 Q1545.69 2183.15 1548.62 2181.53 L1548.62 2187.93 Q1545.73 2189.28 1542.6 2189.96 Q1539.52 2190.64 1536.02 2190.64 Q1526.5 2190.64 1520.9 2184.66 Q1515.29 2178.67 1515.29 2168.52 Q1515.29 2158.21 1520.94 2152.31 Q1526.62 2146.4 1536.47 2146.4 Q1539.67 2146.4 1542.72 2147.08 Q1545.76 2147.72 1548.62 2149.03 Z" fill="#000000" fill-rule="nonzero" fill-opacity="1" /><path clip-path="url(#clip320)" d="M1596.69 2166.75 L1596.69 2170.14 L1564.87 2170.14 Q1565.32 2177.28 1569.16 2181.04 Q1573.03 2184.77 1579.92 2184.77 Q1583.91 2184.77 1587.63 2183.79 Q1591.39 2182.81 1595.08 2180.86 L1595.08 2187.4 Q1591.35 2188.98 1587.44 2189.81 Q1583.53 2190.64 1579.5 2190.64 Q1569.42 2190.64 1563.52 2184.77 Q1557.65 2178.9 1557.65 2168.89 Q1557.65 2158.55 1563.22 2152.49 Q1568.82 2146.4 1578.3 2146.4 Q1586.8 2146.4 1591.73 2151.89 Q1596.69 2157.35 1596.69 2166.75 M1589.77 2164.72 Q1589.7 2159.04 1586.58 2155.65 Q1583.49 2152.27 1578.38 2152.27 Q1572.58 2152.27 1569.08 2155.54 Q1565.62 2158.81 1565.1 2164.76 L1589.77 2164.72 Z" fill="#000000" fill-rule="nonzero" fill-opacity="1" /><path clip-path="url(#clip320)" d="M1643.07 2164.12 L1643.07 2189.55 L1636.15 2189.55 L1636.15 2164.34 Q1636.15 2158.36 1633.82 2155.39 Q1631.49 2152.42 1626.82 2152.42 Q1621.22 2152.42 1617.98 2155.99 Q1614.75 2159.57 1614.75 2165.74 L1614.75 2189.55 L1607.79 2189.55 L1607.79 2147.42 L1614.75 2147.42 L1614.75 2153.96 Q1617.23 2150.16 1620.58 2148.28 Q1623.97 2146.4 1628.37 2146.4 Q1635.63 2146.4 1639.35 2150.91 Q1643.07 2155.39 1643.07 2164.12 Z" fill="#000000" fill-rule="nonzero" fill-opacity="1" /><path clip-path="url(#clip320)" d="M1692.92 2166.75 L1692.92 2170.14 L1661.09 2170.14 Q1661.54 2177.28 1665.38 2181.04 Q1669.25 2184.77 1676.14 2184.77 Q1680.13 2184.77 1683.85 2183.79 Q1687.61 2182.81 1691.3 2180.86 L1691.3 2187.4 Q1687.57 2188.98 1683.66 2189.81 Q1679.75 2190.64 1675.72 2190.64 Q1665.64 2190.64 1659.74 2184.77 Q1653.87 2178.9 1653.87 2168.89 Q1653.87 2158.55 1659.44 2152.49 Q1665.04 2146.4 1674.52 2146.4 Q1683.02 2146.4 1687.95 2151.89 Q1692.92 2157.35 1692.92 2166.75 M1685.99 2164.72 Q1685.92 2159.04 1682.8 2155.65 Q1679.71 2152.27 1674.6 2152.27 Q1668.8 2152.27 1665.31 2155.54 Q1661.84 2158.81 1661.32 2164.76 L1685.99 2164.72 Z" fill="#000000" fill-rule="nonzero" fill-opacity="1" /></svg>
