<?xml version="1.0" encoding="utf-8"?>
<svg xmlns="http://www.w3.org/2000/svg" xmlns:xlink="http://www.w3.org/1999/xlink" width="800" height="650" viewBox="0 0 3200 2600">
<defs>
  <clipPath id="clip180">
    <rect x="0" y="0" width="3200" height="2600"/>
  </clipPath>
</defs>
<path clip-path="url(#clip180)" d="M0 2600 L3200 2600 L3200 0 L0 0  Z" fill="#ffffff" fill-rule="evenodd" fill-opacity="1"/>
<defs>
  <clipPath id="clip181">
    <rect x="640" y="0" width="2241" height="2241"/>
  </clipPath>
</defs>
<path clip-path="url(#clip180)" d="M336.022 2321.51 L3152.76 2321.51 L3152.76 47.2441 L336.022 47.2441  Z" fill="#ffffff" fill-rule="evenodd" fill-opacity="1"/>
<defs>
  <clipPath id="clip182">
    <rect x="336" y="47" width="2818" height="2275"/>
  </clipPath>
</defs>
<polyline clip-path="url(#clip180)" style="stroke:#000000; stroke-linecap:round; stroke-linejoin:round; stroke-width:4; stroke-opacity:1; fill:none" points="336.022,2321.51 3152.76,2321.51 "/>
<polyline clip-path="url(#clip180)" style="stroke:#000000; stroke-linecap:round; stroke-linejoin:round; stroke-width:4; stroke-opacity:1; fill:none" points="336.022,47.2441 3152.76,47.2441 "/>
<polyline clip-path="url(#clip180)" style="stroke:#000000; stroke-linecap:round; stroke-linejoin:round; stroke-width:4; stroke-opacity:1; fill:none" points="464.055,2321.51 464.055,2302.62 "/>
<polyline clip-path="url(#clip180)" style="stroke:#000000; stroke-linecap:round; stroke-linejoin:round; stroke-width:4; stroke-opacity:1; fill:none" points="1104.22,2321.51 1104.22,2302.62 "/>
<polyline clip-path="url(#clip180)" style="stroke:#000000; stroke-linecap:round; stroke-linejoin:round; stroke-width:4; stroke-opacity:1; fill:none" points="1744.39,2321.51 1744.39,2302.62 "/>
<polyline clip-path="url(#clip180)" style="stroke:#000000; stroke-linecap:round; stroke-linejoin:round; stroke-width:4; stroke-opacity:1; fill:none" points="2384.56,2321.51 2384.56,2302.62 "/>
<polyline clip-path="url(#clip180)" style="stroke:#000000; stroke-linecap:round; stroke-linejoin:round; stroke-width:4; stroke-opacity:1; fill:none" points="3024.72,2321.51 3024.72,2302.62 "/>
<polyline clip-path="url(#clip180)" style="stroke:#000000; stroke-linecap:round; stroke-linejoin:round; stroke-width:4; stroke-opacity:1; fill:none" points="464.055,47.2441 464.055,66.1417 "/>
<polyline clip-path="url(#clip180)" style="stroke:#000000; stroke-linecap:round; stroke-linejoin:round; stroke-width:4; stroke-opacity:1; fill:none" points="1104.22,47.2441 1104.22,66.1417 "/>
<polyline clip-path="url(#clip180)" style="stroke:#000000; stroke-linecap:round; stroke-linejoin:round; stroke-width:4; stroke-opacity:1; fill:none" points="1744.39,47.2441 1744.39,66.1417 "/>
<polyline clip-path="url(#clip180)" style="stroke:#000000; stroke-linecap:round; stroke-linejoin:round; stroke-width:4; stroke-opacity:1; fill:none" points="2384.56,47.2441 2384.56,66.1417 "/>
<polyline clip-path="url(#clip180)" style="stroke:#000000; stroke-linecap:round; stroke-linejoin:round; stroke-width:4; stroke-opacity:1; fill:none" points="3024.72,47.2441 3024.72,66.1417 "/>
<path clip-path="url(#clip180)" d="M397.367 2420.74 L411.69 2420.74 L411.69 2371.3 L396.108 2374.43 L396.108 2366.44 L411.603 2363.31 L420.37 2363.31 L420.37 2420.74 L434.693 2420.74 L434.693 2428.11 L397.367 2428.11 L397.367 2420.74 Z" fill="#000000" fill-rule="nonzero" fill-opacity="1" /><path clip-path="url(#clip180)" d="M471.151 2369.09 Q464.381 2369.09 460.952 2375.77 Q457.566 2382.41 457.566 2395.78 Q457.566 2409.1 460.952 2415.79 Q464.381 2422.43 471.151 2422.43 Q477.966 2422.43 481.351 2415.79 Q484.78 2409.1 484.78 2395.78 Q484.78 2382.41 481.351 2375.77 Q477.966 2369.09 471.151 2369.09 M471.151 2362.14 Q482.045 2362.14 487.774 2370.78 Q493.547 2379.37 493.547 2395.78 Q493.547 2412.14 487.774 2420.78 Q482.045 2429.37 471.151 2429.37 Q460.257 2429.37 454.485 2420.78 Q448.756 2412.14 448.756 2395.78 Q448.756 2379.37 454.485 2370.78 Q460.257 2362.14 471.151 2362.14 Z" fill="#000000" fill-rule="nonzero" fill-opacity="1" /><path clip-path="url(#clip180)" d="M524.189 2369.74 Q522.019 2366.01 517.635 2366.01 Q513.252 2366.01 511.082 2369.74 Q508.868 2373.47 508.868 2380.94 Q508.868 2388.44 511.082 2392.18 Q513.252 2395.91 517.635 2395.91 Q522.019 2395.91 524.189 2392.18 Q526.403 2388.44 526.403 2380.94 Q526.403 2373.47 524.189 2369.74 M517.635 2362.14 Q524.623 2362.14 528.312 2366.96 Q532.002 2371.78 532.002 2380.94 Q532.002 2390.14 528.312 2394.96 Q524.623 2399.77 517.635 2399.77 Q510.604 2399.77 506.915 2394.96 Q503.226 2390.14 503.226 2380.94 Q503.226 2371.78 506.915 2366.96 Q510.604 2362.14 517.635 2362.14 Z" fill="#000000" fill-rule="nonzero" fill-opacity="1" /><path clip-path="url(#clip180)" d="M1038.42 2420.74 L1052.75 2420.74 L1052.75 2371.3 L1037.16 2374.43 L1037.16 2366.44 L1052.66 2363.31 L1061.43 2363.31 L1061.43 2420.74 L1075.75 2420.74 L1075.75 2428.11 L1038.42 2428.11 L1038.42 2420.74 Z" fill="#000000" fill-rule="nonzero" fill-opacity="1" /><path clip-path="url(#clip180)" d="M1112.21 2369.09 Q1105.44 2369.09 1102.01 2375.77 Q1098.62 2382.41 1098.62 2395.78 Q1098.62 2409.1 1102.01 2415.79 Q1105.44 2422.43 1112.21 2422.43 Q1119.02 2422.43 1122.41 2415.79 Q1125.84 2409.1 1125.84 2395.78 Q1125.84 2382.41 1122.41 2375.77 Q1119.02 2369.09 1112.21 2369.09 M1112.21 2362.14 Q1123.1 2362.14 1128.83 2370.78 Q1134.6 2379.37 1134.6 2395.78 Q1134.6 2412.14 1128.83 2420.78 Q1123.1 2429.37 1112.21 2429.37 Q1101.31 2429.37 1095.54 2420.78 Q1089.81 2412.14 1089.81 2395.78 Q1089.81 2379.37 1095.54 2370.78 Q1101.31 2362.14 1112.21 2362.14 Z" fill="#000000" fill-rule="nonzero" fill-opacity="1" /><path clip-path="url(#clip180)" d="M1147.28 2394.35 L1156.13 2394.35 L1156.13 2367.83 L1146.45 2369.61 L1146.45 2364.57 L1156.44 2362.88 L1162.38 2362.88 L1162.38 2394.35 L1171.28 2394.35 L1171.28 2399.12 L1147.28 2399.12 L1147.28 2394.35 Z" fill="#000000" fill-rule="nonzero" fill-opacity="1" /><path clip-path="url(#clip180)" d="M1678.96 2420.74 L1693.28 2420.74 L1693.28 2371.3 L1677.7 2374.43 L1677.7 2366.44 L1693.2 2363.31 L1701.96 2363.31 L1701.96 2420.74 L1716.29 2420.74 L1716.29 2428.11 L1678.96 2428.11 L1678.96 2420.74 Z" fill="#000000" fill-rule="nonzero" fill-opacity="1" /><path clip-path="url(#clip180)" d="M1752.74 2369.09 Q1745.97 2369.09 1742.54 2375.77 Q1739.16 2382.41 1739.16 2395.78 Q1739.16 2409.1 1742.54 2415.79 Q1745.97 2422.43 1752.74 2422.43 Q1759.56 2422.43 1762.94 2415.79 Q1766.37 2409.1 1766.37 2395.78 Q1766.37 2382.41 1762.94 2375.77 Q1759.56 2369.09 1752.74 2369.09 M1752.74 2362.14 Q1763.64 2362.14 1769.37 2370.78 Q1775.14 2379.37 1775.14 2395.78 Q1775.14 2412.14 1769.37 2420.78 Q1763.64 2429.37 1752.74 2429.37 Q1741.85 2429.37 1736.08 2420.78 Q1730.35 2412.14 1730.35 2395.78 Q1730.35 2379.37 1736.08 2370.78 Q1741.85 2362.14 1752.74 2362.14 Z" fill="#000000" fill-rule="nonzero" fill-opacity="1" /><path clip-path="url(#clip180)" d="M1792.67 2394.17 L1811.08 2394.17 L1811.08 2399.12 L1785.12 2399.12 L1785.12 2394.35 Q1786.6 2393 1789.33 2390.57 Q1804.26 2377.33 1804.26 2373.25 Q1804.26 2370.39 1802.01 2368.65 Q1799.75 2366.87 1796.06 2366.87 Q1793.8 2366.87 1791.16 2367.66 Q1788.51 2368.39 1785.38 2369.91 L1785.38 2364.57 Q1788.72 2363.36 1791.59 2362.75 Q1794.5 2362.14 1796.97 2362.14 Q1803.26 2362.14 1807.04 2365.01 Q1810.82 2367.87 1810.82 2372.56 Q1810.82 2378.59 1796.45 2390.92 Q1794.02 2393 1792.67 2394.17 Z" fill="#000000" fill-rule="nonzero" fill-opacity="1" /><path clip-path="url(#clip180)" d="M2318.58 2420.74 L2332.91 2420.74 L2332.91 2371.3 L2317.33 2374.43 L2317.33 2366.44 L2332.82 2363.31 L2341.59 2363.31 L2341.59 2420.74 L2355.91 2420.74 L2355.91 2428.11 L2318.58 2428.11 L2318.58 2420.74 Z" fill="#000000" fill-rule="nonzero" fill-opacity="1" /><path clip-path="url(#clip180)" d="M2392.37 2369.09 Q2385.6 2369.09 2382.17 2375.77 Q2378.78 2382.41 2378.78 2395.78 Q2378.78 2409.1 2382.17 2415.79 Q2385.6 2422.43 2392.37 2422.43 Q2399.18 2422.43 2402.57 2415.79 Q2406 2409.1 2406 2395.78 Q2406 2382.41 2402.57 2375.77 Q2399.18 2369.09 2392.37 2369.09 M2392.37 2362.14 Q2403.26 2362.14 2408.99 2370.78 Q2414.76 2379.37 2414.76 2395.78 Q2414.76 2412.14 2408.99 2420.78 Q2403.26 2429.37 2392.37 2429.37 Q2381.47 2429.37 2375.7 2420.78 Q2369.97 2412.14 2369.97 2395.78 Q2369.97 2379.37 2375.7 2370.78 Q2381.47 2362.14 2392.37 2362.14 Z" fill="#000000" fill-rule="nonzero" fill-opacity="1" /><path clip-path="url(#clip180)" d="M2443.41 2379.5 Q2447.4 2380.29 2449.57 2382.67 Q2451.79 2385.02 2451.79 2388.58 Q2451.79 2393.96 2447.66 2396.87 Q2443.54 2399.77 2435.86 2399.77 Q2433.38 2399.77 2430.65 2399.34 Q2427.96 2398.86 2424.92 2397.99 L2424.92 2392.74 Q2427.18 2393.91 2429.74 2394.48 Q2432.34 2395.04 2435.25 2395.04 Q2439.98 2395.04 2442.58 2393.35 Q2445.19 2391.61 2445.19 2388.58 Q2445.19 2385.36 2442.76 2383.71 Q2440.37 2382.06 2435.68 2382.06 L2431.95 2382.06 L2431.95 2377.38 L2436.03 2377.38 Q2440.11 2377.38 2442.19 2376.03 Q2444.32 2374.64 2444.32 2372.04 Q2444.32 2369.52 2442.15 2368.22 Q2439.98 2366.87 2435.86 2366.87 Q2434.12 2366.87 2431.91 2367.26 Q2429.69 2367.66 2426.18 2368.65 L2426.18 2363.66 Q2429.35 2362.92 2432.12 2362.53 Q2434.9 2362.14 2437.29 2362.14 Q2443.54 2362.14 2447.19 2364.7 Q2450.87 2367.26 2450.87 2371.56 Q2450.87 2374.56 2448.92 2376.64 Q2446.97 2378.72 2443.41 2379.5 Z" fill="#000000" fill-rule="nonzero" fill-opacity="1" /><path clip-path="url(#clip180)" d="M2957.9 2420.74 L2972.23 2420.74 L2972.23 2371.3 L2956.65 2374.43 L2956.65 2366.44 L2972.14 2363.31 L2980.91 2363.31 L2980.91 2420.74 L2995.23 2420.74 L2995.23 2428.11 L2957.9 2428.11 L2957.9 2420.74 Z" fill="#000000" fill-rule="nonzero" fill-opacity="1" /><path clip-path="url(#clip180)" d="M3031.69 2369.09 Q3024.92 2369.09 3021.49 2375.77 Q3018.1 2382.41 3018.1 2395.78 Q3018.1 2409.1 3021.49 2415.79 Q3024.92 2422.43 3031.69 2422.43 Q3038.5 2422.43 3041.89 2415.79 Q3045.32 2409.1 3045.32 2395.78 Q3045.32 2382.41 3041.89 2375.77 Q3038.5 2369.09 3031.69 2369.09 M3031.69 2362.14 Q3042.58 2362.14 3048.31 2370.78 Q3054.08 2379.37 3054.08 2395.78 Q3054.08 2412.14 3048.31 2420.78 Q3042.58 2429.37 3031.69 2429.37 Q3020.79 2429.37 3015.02 2420.78 Q3009.29 2412.14 3009.29 2395.78 Q3009.29 2379.37 3015.02 2370.78 Q3020.79 2362.14 3031.69 2362.14 Z" fill="#000000" fill-rule="nonzero" fill-opacity="1" /><path clip-path="url(#clip180)" d="M3080.69 2368.13 L3067.28 2386.32 L3080.69 2386.32 L3080.69 2368.13 M3079.74 2362.88 L3086.94 2362.88 L3086.94 2386.32 L3092.8 2386.32 L3092.8 2391.05 L3086.94 2391.05 L3086.94 2399.12 L3080.69 2399.12 L3080.69 2391.05 L3062.72 2391.05 L3062.72 2385.8 L3079.74 2362.88 Z" fill="#000000" fill-rule="nonzero" fill-opacity="1" /><path clip-path="url(#clip180)" d="M1349.63 2522.89 L1349.63 2551.38 L1366.5 2551.38 Q1374.99 2551.38 1379.05 2547.89 Q1383.17 2544.35 1383.17 2537.11 Q1383.17 2529.82 1379.05 2526.38 Q1374.99 2522.89 1366.5 2522.89 L1349.63 2522.89 M1349.63 2490.91 L1349.63 2514.35 L1365.2 2514.35 Q1372.91 2514.35 1376.66 2511.49 Q1380.46 2508.57 1380.46 2502.63 Q1380.46 2496.75 1376.66 2493.83 Q1372.91 2490.91 1365.2 2490.91 L1349.63 2490.91 M1339.1 2482.27 L1365.98 2482.27 Q1378.01 2482.27 1384.52 2487.27 Q1391.03 2492.27 1391.03 2501.49 Q1391.03 2508.62 1387.7 2512.84 Q1384.36 2517.06 1377.91 2518.1 Q1385.67 2519.77 1389.94 2525.08 Q1394.26 2530.34 1394.26 2538.26 Q1394.26 2548.67 1387.18 2554.35 Q1380.09 2560.03 1367.02 2560.03 L1339.1 2560.03 L1339.1 2482.27 Z" fill="#000000" fill-rule="nonzero" fill-opacity="1" /><path clip-path="url(#clip180)" d="M1434.47 2508.41 Q1426.76 2508.41 1422.28 2514.45 Q1417.8 2520.44 1417.8 2530.91 Q1417.8 2541.38 1422.23 2547.42 Q1426.71 2553.41 1434.47 2553.41 Q1442.12 2553.41 1446.6 2547.37 Q1451.08 2541.33 1451.08 2530.91 Q1451.08 2520.55 1446.6 2514.51 Q1442.12 2508.41 1434.47 2508.41 M1434.47 2500.29 Q1446.97 2500.29 1454.1 2508.41 Q1461.24 2516.54 1461.24 2530.91 Q1461.24 2545.24 1454.1 2553.41 Q1446.97 2561.54 1434.47 2561.54 Q1421.92 2561.54 1414.78 2553.41 Q1407.7 2545.24 1407.7 2530.91 Q1407.7 2516.54 1414.78 2508.41 Q1421.92 2500.29 1434.47 2500.29 Z" fill="#000000" fill-rule="nonzero" fill-opacity="1" /><path clip-path="url(#clip180)" d="M1515.51 2510.55 L1515.51 2478.99 L1525.09 2478.99 L1525.09 2560.03 L1515.51 2560.03 L1515.51 2551.28 Q1512.49 2556.49 1507.85 2559.04 Q1503.27 2561.54 1496.81 2561.54 Q1486.24 2561.54 1479.57 2553.1 Q1472.96 2544.66 1472.96 2530.91 Q1472.96 2517.16 1479.57 2508.73 Q1486.24 2500.29 1496.81 2500.29 Q1503.27 2500.29 1507.85 2502.84 Q1512.49 2505.34 1515.51 2510.55 M1482.85 2530.91 Q1482.85 2541.49 1487.18 2547.53 Q1491.55 2553.52 1499.16 2553.52 Q1506.76 2553.52 1511.13 2547.53 Q1515.51 2541.49 1515.51 2530.91 Q1515.51 2520.34 1511.13 2514.35 Q1506.76 2508.31 1499.16 2508.31 Q1491.55 2508.31 1487.18 2514.35 Q1482.85 2520.34 1482.85 2530.91 Z" fill="#000000" fill-rule="nonzero" fill-opacity="1" /><path clip-path="url(#clip180)" d="M1569.1 2565.44 Q1565.04 2575.86 1561.19 2579.04 Q1557.33 2582.21 1550.87 2582.21 L1543.22 2582.21 L1543.22 2574.19 L1548.84 2574.19 Q1552.8 2574.19 1554.99 2572.32 Q1557.18 2570.44 1559.83 2563.46 L1561.55 2559.09 L1537.96 2501.69 L1548.11 2501.69 L1566.34 2547.32 L1584.57 2501.69 L1594.73 2501.69 L1569.1 2565.44 Z" fill="#000000" fill-rule="nonzero" fill-opacity="1" /><path clip-path="url(#clip180)" d="M1687.28 2512.89 Q1690.87 2506.43 1695.87 2503.36 Q1700.87 2500.29 1707.64 2500.29 Q1716.76 2500.29 1721.71 2506.69 Q1726.65 2513.05 1726.65 2524.82 L1726.65 2560.03 L1717.02 2560.03 L1717.02 2525.13 Q1717.02 2516.75 1714.05 2512.68 Q1711.08 2508.62 1704.99 2508.62 Q1697.54 2508.62 1693.22 2513.57 Q1688.89 2518.52 1688.89 2527.06 L1688.89 2560.03 L1679.26 2560.03 L1679.26 2525.13 Q1679.26 2516.69 1676.29 2512.68 Q1673.32 2508.62 1667.12 2508.62 Q1659.78 2508.62 1655.46 2513.62 Q1651.13 2518.57 1651.13 2527.06 L1651.13 2560.03 L1641.5 2560.03 L1641.5 2501.69 L1651.13 2501.69 L1651.13 2510.76 Q1654.42 2505.39 1659 2502.84 Q1663.58 2500.29 1669.88 2500.29 Q1676.24 2500.29 1680.67 2503.52 Q1685.14 2506.75 1687.28 2512.89 Z" fill="#000000" fill-rule="nonzero" fill-opacity="1" /><path clip-path="url(#clip180)" d="M1772.28 2530.7 Q1760.66 2530.7 1756.19 2533.36 Q1751.71 2536.02 1751.71 2542.42 Q1751.71 2547.53 1755.04 2550.55 Q1758.43 2553.52 1764.21 2553.52 Q1772.18 2553.52 1776.97 2547.89 Q1781.81 2542.21 1781.81 2532.84 L1781.81 2530.7 L1772.28 2530.7 M1791.39 2526.75 L1791.39 2560.03 L1781.81 2560.03 L1781.81 2551.17 Q1778.53 2556.49 1773.63 2559.04 Q1768.74 2561.54 1761.65 2561.54 Q1752.7 2561.54 1747.38 2556.54 Q1742.12 2551.49 1742.12 2543.05 Q1742.12 2533.2 1748.69 2528.2 Q1755.3 2523.2 1768.37 2523.2 L1781.81 2523.2 L1781.81 2522.27 Q1781.81 2515.65 1777.44 2512.06 Q1773.11 2508.41 1765.25 2508.41 Q1760.25 2508.41 1755.51 2509.61 Q1750.77 2510.81 1746.39 2513.2 L1746.39 2504.35 Q1751.65 2502.32 1756.6 2501.33 Q1761.55 2500.29 1766.24 2500.29 Q1778.89 2500.29 1785.14 2506.85 Q1791.39 2513.41 1791.39 2526.75 Z" fill="#000000" fill-rule="nonzero" fill-opacity="1" /><path clip-path="url(#clip180)" d="M1848.32 2503.41 L1848.32 2512.48 Q1844.26 2510.39 1839.88 2509.35 Q1835.51 2508.31 1830.82 2508.31 Q1823.69 2508.31 1820.09 2510.5 Q1816.55 2512.68 1816.55 2517.06 Q1816.55 2520.39 1819.1 2522.32 Q1821.65 2524.19 1829.36 2525.91 L1832.64 2526.64 Q1842.85 2528.83 1847.12 2532.84 Q1851.45 2536.8 1851.45 2543.93 Q1851.45 2552.06 1844.99 2556.8 Q1838.58 2561.54 1827.33 2561.54 Q1822.64 2561.54 1817.54 2560.6 Q1812.49 2559.71 1806.86 2557.89 L1806.86 2548 Q1812.17 2550.76 1817.33 2552.16 Q1822.49 2553.52 1827.54 2553.52 Q1834.31 2553.52 1837.96 2551.22 Q1841.6 2548.88 1841.6 2544.66 Q1841.6 2540.76 1838.95 2538.67 Q1836.34 2536.59 1827.44 2534.66 L1824.1 2533.88 Q1815.2 2532.01 1811.24 2528.15 Q1807.28 2524.25 1807.28 2517.47 Q1807.28 2509.25 1813.11 2504.77 Q1818.95 2500.29 1829.67 2500.29 Q1834.99 2500.29 1839.67 2501.07 Q1844.36 2501.85 1848.32 2503.41 Z" fill="#000000" fill-rule="nonzero" fill-opacity="1" /><path clip-path="url(#clip180)" d="M1903.89 2503.41 L1903.89 2512.48 Q1899.83 2510.39 1895.46 2509.35 Q1891.08 2508.31 1886.39 2508.31 Q1879.26 2508.31 1875.66 2510.5 Q1872.12 2512.68 1872.12 2517.06 Q1872.12 2520.39 1874.67 2522.32 Q1877.23 2524.19 1884.93 2525.91 L1888.22 2526.64 Q1898.42 2528.83 1902.7 2532.84 Q1907.02 2536.8 1907.02 2543.93 Q1907.02 2552.06 1900.56 2556.8 Q1894.15 2561.54 1882.9 2561.54 Q1878.22 2561.54 1873.11 2560.6 Q1868.06 2559.71 1862.44 2557.89 L1862.44 2548 Q1867.75 2550.76 1872.9 2552.16 Q1878.06 2553.52 1883.11 2553.52 Q1889.88 2553.52 1893.53 2551.22 Q1897.17 2548.88 1897.17 2544.66 Q1897.17 2540.76 1894.52 2538.67 Q1891.91 2536.59 1883.01 2534.66 L1879.67 2533.88 Q1870.77 2532.01 1866.81 2528.15 Q1862.85 2524.25 1862.85 2517.47 Q1862.85 2509.25 1868.68 2504.77 Q1874.52 2500.29 1885.25 2500.29 Q1890.56 2500.29 1895.25 2501.07 Q1899.93 2501.85 1903.89 2503.41 Z" fill="#000000" fill-rule="nonzero" fill-opacity="1" /><path clip-path="url(#clip180)" d="M1979.21 2479.09 Q1972.23 2491.07 1968.84 2502.79 Q1965.46 2514.51 1965.46 2526.54 Q1965.46 2538.57 1968.84 2550.39 Q1972.28 2562.16 1979.21 2574.09 L1970.87 2574.09 Q1963.06 2561.85 1959.15 2550.03 Q1955.3 2538.2 1955.3 2526.54 Q1955.3 2514.92 1959.15 2503.15 Q1963.01 2491.38 1970.87 2479.09 L1979.21 2479.09 Z" fill="#000000" fill-rule="nonzero" fill-opacity="1" /><path clip-path="url(#clip180)" d="M1997.43 2478.99 L2007.07 2478.99 L2007.07 2526.85 L2035.66 2501.69 L2047.9 2501.69 L2016.97 2528.99 L2049.2 2560.03 L2036.7 2560.03 L2007.07 2531.54 L2007.07 2560.03 L1997.43 2560.03 L1997.43 2478.99 Z" fill="#000000" fill-rule="nonzero" fill-opacity="1" /><path clip-path="url(#clip180)" d="M2097.95 2530.18 Q2097.95 2519.77 2093.63 2514.04 Q2089.36 2508.31 2081.6 2508.31 Q2073.89 2508.31 2069.57 2514.04 Q2065.3 2519.77 2065.3 2530.18 Q2065.3 2540.55 2069.57 2546.28 Q2073.89 2552.01 2081.6 2552.01 Q2089.36 2552.01 2093.63 2546.28 Q2097.95 2540.55 2097.95 2530.18 M2107.54 2552.79 Q2107.54 2567.68 2100.92 2574.92 Q2094.31 2582.21 2080.66 2582.21 Q2075.61 2582.21 2071.13 2581.43 Q2066.65 2580.7 2062.43 2579.14 L2062.43 2569.82 Q2066.65 2572.11 2070.77 2573.2 Q2074.88 2574.3 2079.15 2574.3 Q2088.58 2574.3 2093.27 2569.35 Q2097.95 2564.45 2097.95 2554.51 L2097.95 2549.77 Q2094.99 2554.92 2090.35 2557.47 Q2085.72 2560.03 2079.26 2560.03 Q2068.53 2560.03 2061.97 2551.85 Q2055.4 2543.67 2055.4 2530.18 Q2055.4 2516.64 2061.97 2508.46 Q2068.53 2500.29 2079.26 2500.29 Q2085.72 2500.29 2090.35 2502.84 Q2094.99 2505.39 2097.95 2510.55 L2097.95 2501.69 L2107.54 2501.69 L2107.54 2552.79 Z" fill="#000000" fill-rule="nonzero" fill-opacity="1" /><path clip-path="url(#clip180)" d="M2125.77 2479.09 L2134.1 2479.09 Q2141.91 2491.38 2145.77 2503.15 Q2149.67 2514.92 2149.67 2526.54 Q2149.67 2538.2 2145.77 2550.03 Q2141.91 2561.85 2134.1 2574.09 L2125.77 2574.09 Q2132.69 2562.16 2136.08 2550.39 Q2139.52 2538.57 2139.52 2526.54 Q2139.52 2514.51 2136.08 2502.79 Q2132.69 2491.07 2125.77 2479.09 Z" fill="#000000" fill-rule="nonzero" fill-opacity="1" /><polyline clip-path="url(#clip180)" style="stroke:#000000; stroke-linecap:round; stroke-linejoin:round; stroke-width:4; stroke-opacity:1; fill:none" points="336.022,2321.51 336.022,47.2441 "/>
<polyline clip-path="url(#clip180)" style="stroke:#000000; stroke-linecap:round; stroke-linejoin:round; stroke-width:4; stroke-opacity:1; fill:none" points="3152.76,2321.51 3152.76,47.2441 "/>
<polyline clip-path="url(#clip180)" style="stroke:#000000; stroke-linecap:round; stroke-linejoin:round; stroke-width:4; stroke-opacity:1; fill:none" points="336.022,2321.51 354.919,2321.51 "/>
<polyline clip-path="url(#clip180)" style="stroke:#000000; stroke-linecap:round; stroke-linejoin:round; stroke-width:4; stroke-opacity:1; fill:none" points="336.022,1866.66 354.919,1866.66 "/>
<polyline clip-path="url(#clip180)" style="stroke:#000000; stroke-linecap:round; stroke-linejoin:round; stroke-width:4; stroke-opacity:1; fill:none" points="336.022,1411.81 354.919,1411.81 "/>
<polyline clip-path="url(#clip180)" style="stroke:#000000; stroke-linecap:round; stroke-linejoin:round; stroke-width:4; stroke-opacity:1; fill:none" points="336.022,956.952 354.919,956.952 "/>
<polyline clip-path="url(#clip180)" style="stroke:#000000; stroke-linecap:round; stroke-linejoin:round; stroke-width:4; stroke-opacity:1; fill:none" points="336.022,502.098 354.919,502.098 "/>
<polyline clip-path="url(#clip180)" style="stroke:#000000; stroke-linecap:round; stroke-linejoin:round; stroke-width:4; stroke-opacity:1; fill:none" points="336.022,47.2441 354.919,47.2441 "/>
<polyline clip-path="url(#clip180)" style="stroke:#000000; stroke-linecap:round; stroke-linejoin:round; stroke-width:4; stroke-opacity:1; fill:none" points="3152.76,2321.51 3133.86,2321.51 "/>
<polyline clip-path="url(#clip180)" style="stroke:#000000; stroke-linecap:round; stroke-linejoin:round; stroke-width:4; stroke-opacity:1; fill:none" points="3152.76,1866.66 3133.86,1866.66 "/>
<polyline clip-path="url(#clip180)" style="stroke:#000000; stroke-linecap:round; stroke-linejoin:round; stroke-width:4; stroke-opacity:1; fill:none" points="3152.76,1411.81 3133.86,1411.81 "/>
<polyline clip-path="url(#clip180)" style="stroke:#000000; stroke-linecap:round; stroke-linejoin:round; stroke-width:4; stroke-opacity:1; fill:none" points="3152.76,956.952 3133.86,956.952 "/>
<polyline clip-path="url(#clip180)" style="stroke:#000000; stroke-linecap:round; stroke-linejoin:round; stroke-width:4; stroke-opacity:1; fill:none" points="3152.76,502.098 3133.86,502.098 "/>
<polyline clip-path="url(#clip180)" style="stroke:#000000; stroke-linecap:round; stroke-linejoin:round; stroke-width:4; stroke-opacity:1; fill:none" points="3152.76,47.2441 3133.86,47.2441 "/>
<path clip-path="url(#clip180)" d="M180.817 2294.89 Q174.047 2294.89 170.618 2301.57 Q167.232 2308.21 167.232 2321.58 Q167.232 2334.9 170.618 2341.59 Q174.047 2348.23 180.817 2348.23 Q187.632 2348.23 191.017 2341.59 Q194.446 2334.9 194.446 2321.58 Q194.446 2308.21 191.017 2301.57 Q187.632 2294.89 180.817 2294.89 M180.817 2287.94 Q191.711 2287.94 197.44 2296.58 Q203.213 2305.17 203.213 2321.58 Q203.213 2337.94 197.44 2346.58 Q191.711 2355.17 180.817 2355.17 Q169.923 2355.17 164.151 2346.58 Q158.422 2337.94 158.422 2321.58 Q158.422 2305.17 164.151 2296.58 Q169.923 2287.94 180.817 2287.94 Z" fill="#000000" fill-rule="nonzero" fill-opacity="1" /><path clip-path="url(#clip180)" d="M218.621 2342.89 L227.779 2342.89 L227.779 2353.91 L218.621 2353.91 L218.621 2342.89 Z" fill="#000000" fill-rule="nonzero" fill-opacity="1" /><path clip-path="url(#clip180)" d="M265.626 2294.89 Q258.855 2294.89 255.426 2301.57 Q252.041 2308.21 252.041 2321.58 Q252.041 2334.9 255.426 2341.59 Q258.855 2348.23 265.626 2348.23 Q272.44 2348.23 275.825 2341.59 Q279.254 2334.9 279.254 2321.58 Q279.254 2308.21 275.825 2301.57 Q272.44 2294.89 265.626 2294.89 M265.626 2287.94 Q276.52 2287.94 282.249 2296.58 Q288.022 2305.17 288.022 2321.58 Q288.022 2337.94 282.249 2346.58 Q276.52 2355.17 265.626 2355.17 Q254.732 2355.17 248.959 2346.58 Q243.23 2337.94 243.23 2321.58 Q243.23 2305.17 248.959 2296.58 Q254.732 2287.94 265.626 2287.94 Z" fill="#000000" fill-rule="nonzero" fill-opacity="1" /><path clip-path="url(#clip180)" d="M183.812 1840.03 Q177.041 1840.03 173.613 1846.72 Q170.227 1853.36 170.227 1866.73 Q170.227 1880.05 173.613 1886.73 Q177.041 1893.37 183.812 1893.37 Q190.626 1893.37 194.012 1886.73 Q197.44 1880.05 197.44 1866.73 Q197.44 1853.36 194.012 1846.72 Q190.626 1840.03 183.812 1840.03 M183.812 1833.09 Q194.706 1833.09 200.435 1841.73 Q206.208 1850.32 206.208 1866.73 Q206.208 1883.09 200.435 1891.73 Q194.706 1900.32 183.812 1900.32 Q172.918 1900.32 167.146 1891.73 Q161.416 1883.09 161.416 1866.73 Q161.416 1850.32 167.146 1841.73 Q172.918 1833.09 183.812 1833.09 Z" fill="#000000" fill-rule="nonzero" fill-opacity="1" /><path clip-path="url(#clip180)" d="M221.616 1888.04 L230.774 1888.04 L230.774 1899.06 L221.616 1899.06 L221.616 1888.04 Z" fill="#000000" fill-rule="nonzero" fill-opacity="1" /><path clip-path="url(#clip180)" d="M257.423 1891.68 L288.022 1891.68 L288.022 1899.06 L246.876 1899.06 L246.876 1891.68 Q251.867 1886.52 260.461 1877.84 Q269.098 1869.11 271.312 1866.6 Q275.522 1861.86 277.171 1858.61 Q278.864 1855.31 278.864 1852.14 Q278.864 1846.98 275.218 1843.72 Q271.615 1840.47 265.8 1840.47 Q261.676 1840.47 257.076 1841.9 Q252.518 1843.33 247.31 1846.24 L247.31 1837.39 Q252.605 1835.26 257.206 1834.17 Q261.806 1833.09 265.626 1833.09 Q275.695 1833.09 281.685 1838.12 Q287.674 1843.16 287.674 1851.58 Q287.674 1855.57 286.155 1859.17 Q284.68 1862.73 280.73 1867.59 Q279.645 1868.85 273.829 1874.89 Q268.013 1880.88 257.423 1891.68 Z" fill="#000000" fill-rule="nonzero" fill-opacity="1" /><path clip-path="url(#clip180)" d="M179.906 1385.18 Q173.135 1385.18 169.706 1391.86 Q166.321 1398.5 166.321 1411.87 Q166.321 1425.2 169.706 1431.88 Q173.135 1438.52 179.906 1438.52 Q186.72 1438.52 190.105 1431.88 Q193.534 1425.2 193.534 1411.87 Q193.534 1398.5 190.105 1391.86 Q186.72 1385.18 179.906 1385.18 M179.906 1378.23 Q190.8 1378.23 196.529 1386.87 Q202.302 1395.47 202.302 1411.87 Q202.302 1428.23 196.529 1436.87 Q190.8 1445.47 179.906 1445.47 Q169.012 1445.47 163.239 1436.87 Q157.51 1428.23 157.51 1411.87 Q157.51 1395.47 163.239 1386.87 Q169.012 1378.23 179.906 1378.23 Z" fill="#000000" fill-rule="nonzero" fill-opacity="1" /><path clip-path="url(#clip180)" d="M217.709 1433.18 L226.867 1433.18 L226.867 1444.21 L217.709 1444.21 L217.709 1433.18 Z" fill="#000000" fill-rule="nonzero" fill-opacity="1" /><path clip-path="url(#clip180)" d="M270.053 1387.05 L247.918 1421.64 L270.053 1421.64 L270.053 1387.05 M267.753 1379.41 L278.777 1379.41 L278.777 1421.64 L288.022 1421.64 L288.022 1428.93 L278.777 1428.93 L278.777 1444.21 L270.053 1444.21 L270.053 1428.93 L240.8 1428.93 L240.8 1420.47 L267.753 1379.41 Z" fill="#000000" fill-rule="nonzero" fill-opacity="1" /><path clip-path="url(#clip180)" d="M180.514 930.325 Q173.743 930.325 170.314 937.009 Q166.929 943.65 166.929 957.017 Q166.929 970.342 170.314 977.026 Q173.743 983.667 180.514 983.667 Q187.328 983.667 190.713 977.026 Q194.142 970.342 194.142 957.017 Q194.142 943.65 190.713 937.009 Q187.328 930.325 180.514 930.325 M180.514 923.381 Q191.408 923.381 197.137 932.018 Q202.909 940.611 202.909 957.017 Q202.909 973.38 197.137 982.017 Q191.408 990.611 180.514 990.611 Q169.619 990.611 163.847 982.017 Q158.118 973.38 158.118 957.017 Q158.118 940.611 163.847 932.018 Q169.619 923.381 180.514 923.381 Z" fill="#000000" fill-rule="nonzero" fill-opacity="1" /><path clip-path="url(#clip180)" d="M218.317 978.328 L227.475 978.328 L227.475 989.352 L218.317 989.352 L218.317 978.328 Z" fill="#000000" fill-rule="nonzero" fill-opacity="1" /><path clip-path="url(#clip180)" d="M266.407 953.458 Q260.504 953.458 257.032 957.495 Q253.603 961.531 253.603 968.563 Q253.603 975.55 257.032 979.63 Q260.504 983.667 266.407 983.667 Q272.31 983.667 275.739 979.63 Q279.211 975.55 279.211 968.563 Q279.211 961.531 275.739 957.495 Q272.31 953.458 266.407 953.458 M283.812 925.985 L283.812 933.971 Q280.513 932.408 277.128 931.584 Q273.786 930.759 270.487 930.759 Q261.806 930.759 257.206 936.618 Q252.649 942.478 251.997 954.327 Q254.558 950.551 258.421 948.554 Q262.284 946.514 266.928 946.514 Q276.694 946.514 282.336 952.46 Q288.022 958.363 288.022 968.563 Q288.022 978.545 282.119 984.578 Q276.216 990.611 266.407 990.611 Q255.166 990.611 249.22 982.017 Q243.274 973.38 243.274 957.017 Q243.274 941.653 250.565 932.538 Q257.857 923.381 270.14 923.381 Q273.438 923.381 276.78 924.032 Q280.166 924.683 283.812 925.985 Z" fill="#000000" fill-rule="nonzero" fill-opacity="1" /><path clip-path="url(#clip180)" d="M180.991 475.471 Q174.22 475.471 170.791 482.155 Q167.406 488.795 167.406 502.163 Q167.406 515.488 170.791 522.172 Q174.22 528.813 180.991 528.813 Q187.805 528.813 191.191 522.172 Q194.619 515.488 194.619 502.163 Q194.619 488.795 191.191 482.155 Q187.805 475.471 180.991 475.471 M180.991 468.526 Q191.885 468.526 197.614 477.163 Q203.387 485.757 203.387 502.163 Q203.387 518.526 197.614 527.163 Q191.885 535.757 180.991 535.757 Q170.097 535.757 164.324 527.163 Q158.595 518.526 158.595 502.163 Q158.595 485.757 164.324 477.163 Q170.097 468.526 180.991 468.526 Z" fill="#000000" fill-rule="nonzero" fill-opacity="1" /><path clip-path="url(#clip180)" d="M218.795 523.474 L227.952 523.474 L227.952 534.498 L218.795 534.498 L218.795 523.474 Z" fill="#000000" fill-rule="nonzero" fill-opacity="1" /><path clip-path="url(#clip180)" d="M265.8 503.726 Q259.55 503.726 255.947 507.068 Q252.388 510.41 252.388 516.269 Q252.388 522.129 255.947 525.471 Q259.55 528.813 265.8 528.813 Q272.049 528.813 275.652 525.471 Q279.254 522.085 279.254 516.269 Q279.254 510.41 275.652 507.068 Q272.093 503.726 265.8 503.726 M257.032 499.993 Q251.39 498.604 248.221 494.742 Q245.096 490.879 245.096 485.323 Q245.096 477.554 250.609 473.04 Q256.164 468.526 265.8 468.526 Q275.478 468.526 280.99 473.04 Q286.503 477.554 286.503 485.323 Q286.503 490.879 283.334 494.742 Q280.209 498.604 274.61 499.993 Q280.947 501.469 284.463 505.766 Q288.022 510.063 288.022 516.269 Q288.022 525.688 282.249 530.722 Q276.52 535.757 265.8 535.757 Q255.079 535.757 249.307 530.722 Q243.577 525.688 243.577 516.269 Q243.577 510.063 247.136 505.766 Q250.695 501.469 257.032 499.993 M253.82 486.148 Q253.82 491.183 256.945 494.004 Q260.114 496.825 265.8 496.825 Q271.442 496.825 274.61 494.004 Q277.822 491.183 277.822 486.148 Q277.822 481.113 274.61 478.292 Q271.442 475.471 265.8 475.471 Q260.114 475.471 256.945 478.292 Q253.82 481.113 253.82 486.148 Z" fill="#000000" fill-rule="nonzero" fill-opacity="1" /><path clip-path="url(#clip180)" d="M163.587 72.2657 L177.909 72.2657 L177.909 22.8302 L162.328 25.9551 L162.328 17.9691 L177.823 14.8441 L186.59 14.8441 L186.59 72.2657 L200.913 72.2657 L200.913 79.6441 L163.587 79.6441 L163.587 72.2657 Z" fill="#000000" fill-rule="nonzero" fill-opacity="1" /><path clip-path="url(#clip180)" d="M218.621 68.6198 L227.779 68.6198 L227.779 79.6441 L218.621 79.6441 L218.621 68.6198 Z" fill="#000000" fill-rule="nonzero" fill-opacity="1" /><path clip-path="url(#clip180)" d="M265.626 20.6166 Q258.855 20.6166 255.426 27.3006 Q252.041 33.9412 252.041 47.3092 Q252.041 60.6338 255.426 67.3178 Q258.855 73.9584 265.626 73.9584 Q272.44 73.9584 275.825 67.3178 Q279.254 60.6338 279.254 47.3092 Q279.254 33.9412 275.825 27.3006 Q272.44 20.6166 265.626 20.6166 M265.626 13.6722 Q276.52 13.6722 282.249 22.3093 Q288.022 30.903 288.022 47.3092 Q288.022 63.672 282.249 72.3091 Q276.52 80.9028 265.626 80.9028 Q254.732 80.9028 248.959 72.3091 Q243.23 63.672 243.23 47.3092 Q243.23 30.903 248.959 22.3093 Q254.732 13.6722 265.626 13.6722 Z" fill="#000000" fill-rule="nonzero" fill-opacity="1" /><path clip-path="url(#clip180)" d="M8.42216 1515.5 L8.42216 1499.82 L61.3385 1479.98 L8.42216 1460.03 L8.42216 1444.35 L86.1822 1444.35 L86.1822 1454.61 L17.9013 1454.61 L71.2343 1474.66 L71.2343 1485.24 L17.9013 1505.29 L86.1822 1505.29 L86.1822 1515.5 L8.42216 1515.5 Z" fill="#000000" fill-rule="nonzero" fill-opacity="1" /><path clip-path="url(#clip180)" d="M54.6198 1373.99 L59.3073 1373.99 L59.3073 1418.05 Q69.2031 1417.43 74.4114 1412.11 Q79.5676 1406.75 79.5676 1397.22 Q79.5676 1391.7 78.2135 1386.54 Q76.8593 1381.33 74.151 1376.23 L83.2134 1376.23 Q85.4009 1381.38 86.5467 1386.8 Q87.6926 1392.22 87.6926 1397.79 Q87.6926 1411.75 79.5676 1419.93 Q71.4427 1428.05 57.5886 1428.05 Q43.2657 1428.05 34.8803 1420.34 Q26.4429 1412.58 26.4429 1399.46 Q26.4429 1387.69 34.047 1380.86 Q41.5991 1373.99 54.6198 1373.99 M51.8073 1383.57 Q43.9428 1383.68 39.2553 1388 Q34.5679 1392.27 34.5679 1399.35 Q34.5679 1407.37 39.0991 1412.22 Q43.6303 1417.01 51.8594 1417.74 L51.8073 1383.57 Z" fill="#000000" fill-rule="nonzero" fill-opacity="1" /><path clip-path="url(#clip180)" d="M56.8594 1331.75 Q56.8594 1343.36 59.5156 1347.84 Q62.1719 1352.32 68.5781 1352.32 Q73.6822 1352.32 76.703 1348.99 Q79.6718 1345.6 79.6718 1339.82 Q79.6718 1331.85 74.0468 1327.06 Q68.3698 1322.22 58.9948 1322.22 L56.8594 1322.22 L56.8594 1331.75 M52.9011 1312.63 L86.1822 1312.63 L86.1822 1322.22 L77.328 1322.22 Q82.6405 1325.5 85.1926 1330.39 Q87.6926 1335.29 87.6926 1342.37 Q87.6926 1351.33 82.6926 1356.64 Q77.6405 1361.9 69.2031 1361.9 Q59.3594 1361.9 54.3594 1355.34 Q49.3594 1348.73 49.3594 1335.65 L49.3594 1322.22 L48.4219 1322.22 Q41.8074 1322.22 38.2137 1326.59 Q34.5679 1330.92 34.5679 1338.78 Q34.5679 1343.78 35.7658 1348.52 Q36.9637 1353.26 39.3595 1357.63 L30.5054 1357.63 Q28.4741 1352.37 27.4846 1347.43 Q26.4429 1342.48 26.4429 1337.79 Q26.4429 1325.13 33.0054 1318.88 Q39.5678 1312.63 52.9011 1312.63 Z" fill="#000000" fill-rule="nonzero" fill-opacity="1" /><path clip-path="url(#clip180)" d="M50.974 1244.41 L86.1822 1244.41 L86.1822 1253.99 L51.2865 1253.99 Q43.0053 1253.99 38.8907 1257.22 Q34.7762 1260.45 34.7762 1266.91 Q34.7762 1274.67 39.7241 1279.14 Q44.672 1283.62 53.2136 1283.62 L86.1822 1283.62 L86.1822 1293.26 L27.8491 1293.26 L27.8491 1283.62 L36.9116 1283.62 Q31.6512 1280.19 29.047 1275.55 Q26.4429 1270.86 26.4429 1264.77 Q26.4429 1254.72 32.6929 1249.56 Q38.8907 1244.41 50.974 1244.41 Z" fill="#000000" fill-rule="nonzero" fill-opacity="1" /><path clip-path="url(#clip180)" d="M5.14093 1161.85 L13.1096 1161.85 L13.1096 1171.02 Q13.1096 1176.18 15.193 1178.21 Q17.2763 1180.19 22.6929 1180.19 L27.8491 1180.19 L27.8491 1164.41 L35.297 1164.41 L35.297 1180.19 L86.1822 1180.19 L86.1822 1189.82 L35.297 1189.82 L35.297 1198.99 L27.8491 1198.99 L27.8491 1189.82 L23.7867 1189.82 Q14.0471 1189.82 9.62007 1185.29 Q5.14093 1180.76 5.14093 1170.92 L5.14093 1161.85 Z" fill="#000000" fill-rule="nonzero" fill-opacity="1" /><path clip-path="url(#clip180)" d="M27.8491 1153.83 L27.8491 1144.25 L86.1822 1144.25 L86.1822 1153.83 L27.8491 1153.83 M5.14093 1153.83 L5.14093 1144.25 L17.2763 1144.25 L17.2763 1153.83 L5.14093 1153.83 Z" fill="#000000" fill-rule="nonzero" fill-opacity="1" /><path clip-path="url(#clip180)" d="M11.2867 1114.72 L27.8491 1114.72 L27.8491 1094.98 L35.297 1094.98 L35.297 1114.72 L66.9635 1114.72 Q74.0989 1114.72 76.1301 1112.79 Q78.1614 1110.81 78.1614 1104.82 L78.1614 1094.98 L86.1822 1094.98 L86.1822 1104.82 Q86.1822 1115.92 82.0676 1120.14 Q77.901 1124.35 66.9635 1124.35 L35.297 1124.35 L35.297 1131.38 L27.8491 1131.38 L27.8491 1124.35 L11.2867 1124.35 L11.2867 1114.72 Z" fill="#000000" fill-rule="nonzero" fill-opacity="1" /><path clip-path="url(#clip180)" d="M50.974 1033.89 L86.1822 1033.89 L86.1822 1043.47 L51.2865 1043.47 Q43.0053 1043.47 38.8907 1046.7 Q34.7762 1049.93 34.7762 1056.39 Q34.7762 1064.15 39.7241 1068.62 Q44.672 1073.1 53.2136 1073.1 L86.1822 1073.1 L86.1822 1082.74 L27.8491 1082.74 L27.8491 1073.1 L36.9116 1073.1 Q31.6512 1069.67 29.047 1065.03 Q26.4429 1060.34 26.4429 1054.25 Q26.4429 1044.2 32.6929 1039.04 Q38.8907 1033.89 50.974 1033.89 Z" fill="#000000" fill-rule="nonzero" fill-opacity="1" /><path clip-path="url(#clip180)" d="M54.6198 964.875 L59.3073 964.875 L59.3073 1008.94 Q69.2031 1008.31 74.4114 1003 Q79.5676 997.636 79.5676 988.104 Q79.5676 982.584 78.2135 977.427 Q76.8593 972.219 74.151 967.115 L83.2134 967.115 Q85.4009 972.271 86.5467 977.688 Q87.6926 983.105 87.6926 988.677 Q87.6926 1002.64 79.5676 1010.81 Q71.4427 1018.94 57.5886 1018.94 Q43.2657 1018.94 34.8803 1011.23 Q26.4429 1003.47 26.4429 990.344 Q26.4429 978.573 34.047 971.75 Q41.5991 964.875 54.6198 964.875 M51.8073 974.459 Q43.9428 974.563 39.2553 978.886 Q34.5679 983.157 34.5679 990.24 Q34.5679 998.261 39.0991 1003.1 Q43.6303 1007.9 51.8594 1008.63 L51.8073 974.459 Z" fill="#000000" fill-rule="nonzero" fill-opacity="1" /><path clip-path="url(#clip180)" d="M29.5679 911.959 L38.6303 911.959 Q36.547 916.022 35.5053 920.397 Q34.4637 924.771 34.4637 929.459 Q34.4637 936.594 36.6512 940.188 Q38.8387 943.73 43.2136 943.73 Q46.547 943.73 48.474 941.178 Q50.349 938.626 52.0678 930.917 L52.7969 927.636 Q54.9844 917.428 58.9948 913.157 Q62.9531 908.834 70.0885 908.834 Q78.2135 908.834 82.953 915.292 Q87.6926 921.699 87.6926 932.949 Q87.6926 937.636 86.7551 942.74 Q85.8697 947.792 84.0468 953.417 L74.151 953.417 Q76.9114 948.105 78.3176 942.948 Q79.6718 937.792 79.6718 932.74 Q79.6718 925.969 77.3801 922.324 Q75.0364 918.678 70.8177 918.678 Q66.9114 918.678 64.8281 921.334 Q62.7448 923.938 60.8177 932.844 L60.0365 936.178 Q58.1615 945.084 54.3073 949.042 Q50.4011 953 43.6303 953 Q35.4012 953 30.922 947.167 Q26.4429 941.334 26.4429 930.605 Q26.4429 925.292 27.2241 920.605 Q28.0054 915.917 29.5679 911.959 Z" fill="#000000" fill-rule="nonzero" fill-opacity="1" /><path clip-path="url(#clip180)" d="M29.5679 856.386 L38.6303 856.386 Q36.547 860.449 35.5053 864.824 Q34.4637 869.199 34.4637 873.886 Q34.4637 881.022 36.6512 884.615 Q38.8387 888.157 43.2136 888.157 Q46.547 888.157 48.474 885.605 Q50.349 883.053 52.0678 875.345 L52.7969 872.063 Q54.9844 861.855 58.9948 857.584 Q62.9531 853.261 70.0885 853.261 Q78.2135 853.261 82.953 859.72 Q87.6926 866.126 87.6926 877.376 Q87.6926 882.063 86.7551 887.168 Q85.8697 892.22 84.0468 897.845 L74.151 897.845 Q76.9114 892.532 78.3176 887.376 Q79.6718 882.22 79.6718 877.168 Q79.6718 870.397 77.3801 866.751 Q75.0364 863.105 70.8177 863.105 Q66.9114 863.105 64.8281 865.761 Q62.7448 868.366 60.8177 877.272 L60.0365 880.605 Q58.1615 889.511 54.3073 893.47 Q50.4011 897.428 43.6303 897.428 Q35.4012 897.428 30.922 891.595 Q26.4429 885.761 26.4429 875.032 Q26.4429 869.72 27.2241 865.032 Q28.0054 860.345 29.5679 856.386 Z" fill="#000000" fill-rule="nonzero" fill-opacity="1" /><polyline clip-path="url(#clip182)" style="stroke:#1b9e77; stroke-linecap:round; stroke-linejoin:round; stroke-width:20; stroke-opacity:1; fill:none" points="464.055,2202.32 528.072,2138.87 592.088,2015.25 656.105,1784.7 720.122,1581.91 784.138,1290.67 848.155,914.805 912.172,720.574 976.188,598.143 1040.21,583.905 1104.22,557.132 1168.24,541.823 1232.26,536.658 1296.27,535.746 1360.29,536.922 1424.31,539.554 1488.32,543.452 1552.34,548.264 1616.36,553.489 1680.37,558.632 1744.39,563.449 1808.41,566.904 1872.42,539.262 1936.44,570.892 2000.46,545.681 2064.47,552.265 2128.49,590.783 2192.51,583.741 2256.52,629.293 2320.54,654.999 2384.56,682.85 2448.57,711.957 2512.59,725.143 2576.61,769.625 2640.62,797.591 2704.64,824.524 2768.66,850.061 2832.67,873.995 2896.69,896.775 2960.71,918.149 3024.72,938.5 "/>
<polyline clip-path="url(#clip182)" style="stroke:#d95f02; stroke-linecap:round; stroke-linejoin:round; stroke-width:20; stroke-opacity:1; fill:none" points="464.055,919.763 528.072,641.033 592.088,552.793 656.105,496.106 720.122,523.752 784.138,517.747 848.155,513.9 912.172,511.436 976.188,472.123 1040.21,509.086 1104.22,508.707 1168.24,509.477 1232.26,511.048 1296.27,513.525 1360.29,516.984 1424.31,520.943 1488.32,525.233 1552.34,529.975 1616.36,534.015 1680.37,537.21 1744.39,537.795 1808.41,535.954 1872.42,498.948 1936.44,525.772 2000.46,489.919 2064.47,490.978 2128.49,527.963 2192.51,512.199 2256.52,559.832 2320.54,584.565 2384.56,614.056 2448.57,647.701 2512.59,681.607 2576.61,768.254 2640.62,834.907 2704.64,895.503 2768.66,948.711 2832.67,994.653 2896.69,1033.82 2960.71,1066.65 3024.72,1094.04 "/>
<polyline clip-path="url(#clip182)" style="stroke:#7570b3; stroke-linecap:round; stroke-linejoin:round; stroke-width:20; stroke-opacity:1; fill:none" points="464.055,1836.17 528.072,1272.58 592.088,894.552 656.105,687.664 720.122,647.644 784.138,608.099 848.155,582.548 912.172,563.705 976.188,515.456 1040.21,542.54 1104.22,537.676 1168.24,533.87 1232.26,531.614 1296.27,530.278 1360.29,529.335 1424.31,528.737 1488.32,527.891 1552.34,526.545 1616.36,524.327 1680.37,520.623 1744.39,515.086 1808.41,507.139 1872.42,462.088 1936.44,484.947 2000.46,438.495 2064.47,430.111 2128.49,461.028 2192.51,429.158 2256.52,470.57 2320.54,483.157 2384.56,500.473 2448.57,522.236 2512.59,530.26 2576.61,585.074 2640.62,613.792 2704.64,645.609 2768.66,679.675 2832.67,714.422 2896.69,749.203 2960.71,782.846 3024.72,815.134 "/>
</svg>
