<?xml version="1.0" encoding="utf-8"?>
<svg xmlns="http://www.w3.org/2000/svg" xmlns:xlink="http://www.w3.org/1999/xlink" width="900" height="700" viewBox="0 0 3600 2800">
<defs>
  <clipPath id="clip010">
    <rect x="0" y="0" width="3600" height="2800"/>
  </clipPath>
</defs>
<path clip-path="url(#clip010)" d="M0 2800 L3600 2800 L3600 0 L0 0  Z" fill="#ffffff" fill-rule="evenodd" fill-opacity="1"/>
<defs>
  <clipPath id="clip011">
    <rect x="720" y="0" width="2521" height="2521"/>
  </clipPath>
</defs>
<path clip-path="url(#clip010)" d="M377.074 2526.94 L3552.76 2526.94 L3552.76 47.2441 L377.074 47.2441  Z" fill="#ffffff" fill-rule="evenodd" fill-opacity="1"/>
<defs>
  <clipPath id="clip012">
    <rect x="377" y="47" width="3177" height="2481"/>
  </clipPath>
</defs>
<polyline clip-path="url(#clip010)" style="stroke:#000000; stroke-linecap:round; stroke-linejoin:round; stroke-width:4; stroke-opacity:1; fill:none" points="377.074,2526.94 3552.76,2526.94 "/>
<polyline clip-path="url(#clip010)" style="stroke:#000000; stroke-linecap:round; stroke-linejoin:round; stroke-width:4; stroke-opacity:1; fill:none" points="377.074,47.2441 3552.76,47.2441 "/>
<polyline clip-path="url(#clip010)" style="stroke:#000000; stroke-linecap:round; stroke-linejoin:round; stroke-width:4; stroke-opacity:1; fill:none" points="466.952,2526.94 466.952,2508.04 "/>
<polyline clip-path="url(#clip010)" style="stroke:#000000; stroke-linecap:round; stroke-linejoin:round; stroke-width:4; stroke-opacity:1; fill:none" points="1215.93,2526.94 1215.93,2508.04 "/>
<polyline clip-path="url(#clip010)" style="stroke:#000000; stroke-linecap:round; stroke-linejoin:round; stroke-width:4; stroke-opacity:1; fill:none" points="1964.91,2526.94 1964.91,2508.04 "/>
<polyline clip-path="url(#clip010)" style="stroke:#000000; stroke-linecap:round; stroke-linejoin:round; stroke-width:4; stroke-opacity:1; fill:none" points="2713.9,2526.94 2713.9,2508.04 "/>
<polyline clip-path="url(#clip010)" style="stroke:#000000; stroke-linecap:round; stroke-linejoin:round; stroke-width:4; stroke-opacity:1; fill:none" points="3462.88,2526.94 3462.88,2508.04 "/>
<polyline clip-path="url(#clip010)" style="stroke:#000000; stroke-linecap:round; stroke-linejoin:round; stroke-width:4; stroke-opacity:1; fill:none" points="466.952,47.2441 466.952,66.1417 "/>
<polyline clip-path="url(#clip010)" style="stroke:#000000; stroke-linecap:round; stroke-linejoin:round; stroke-width:4; stroke-opacity:1; fill:none" points="1215.93,47.2441 1215.93,66.1417 "/>
<polyline clip-path="url(#clip010)" style="stroke:#000000; stroke-linecap:round; stroke-linejoin:round; stroke-width:4; stroke-opacity:1; fill:none" points="1964.91,47.2441 1964.91,66.1417 "/>
<polyline clip-path="url(#clip010)" style="stroke:#000000; stroke-linecap:round; stroke-linejoin:round; stroke-width:4; stroke-opacity:1; fill:none" points="2713.9,47.2441 2713.9,66.1417 "/>
<polyline clip-path="url(#clip010)" style="stroke:#000000; stroke-linecap:round; stroke-linejoin:round; stroke-width:4; stroke-opacity:1; fill:none" points="3462.88,47.2441 3462.88,66.1417 "/>
<path clip-path="url(#clip010)" d="M400.264 2629.36 L414.586 2629.36 L414.586 2579.93 L399.005 2583.05 L399.005 2575.06 L414.5 2571.94 L423.267 2571.94 L423.267 2629.36 L437.59 2629.36 L437.59 2636.74 L400.264 2636.74 L400.264 2629.36 Z" fill="#000000" fill-rule="nonzero" fill-opacity="1" /><path clip-path="url(#clip010)" d="M474.048 2577.71 Q467.277 2577.71 463.848 2584.4 Q460.463 2591.04 460.463 2604.4 Q460.463 2617.73 463.848 2624.41 Q467.277 2631.05 474.048 2631.05 Q480.862 2631.05 484.248 2624.41 Q487.676 2617.73 487.676 2604.4 Q487.676 2591.04 484.248 2584.4 Q480.862 2577.71 474.048 2577.71 M474.048 2570.77 Q484.942 2570.77 490.671 2579.41 Q496.444 2588 496.444 2604.4 Q496.444 2620.77 490.671 2629.4 Q484.942 2638 474.048 2638 Q463.154 2638 457.381 2629.4 Q451.652 2620.77 451.652 2604.4 Q451.652 2588 457.381 2579.41 Q463.154 2570.77 474.048 2570.77 Z" fill="#000000" fill-rule="nonzero" fill-opacity="1" /><path clip-path="url(#clip010)" d="M527.086 2578.36 Q524.916 2574.63 520.532 2574.63 Q516.148 2574.63 513.978 2578.36 Q511.765 2582.1 511.765 2589.56 Q511.765 2597.07 513.978 2600.8 Q516.148 2604.54 520.532 2604.54 Q524.916 2604.54 527.086 2600.8 Q529.299 2597.07 529.299 2589.56 Q529.299 2582.1 527.086 2578.36 M520.532 2570.77 Q527.52 2570.77 531.209 2575.59 Q534.898 2580.4 534.898 2589.56 Q534.898 2598.76 531.209 2603.58 Q527.52 2608.4 520.532 2608.4 Q513.501 2608.4 509.812 2603.58 Q506.122 2598.76 506.122 2589.56 Q506.122 2580.4 509.812 2575.59 Q513.501 2570.77 520.532 2570.77 Z" fill="#000000" fill-rule="nonzero" fill-opacity="1" /><path clip-path="url(#clip010)" d="M1150.13 2629.36 L1164.46 2629.36 L1164.46 2579.93 L1148.88 2583.05 L1148.88 2575.06 L1164.37 2571.94 L1173.14 2571.94 L1173.14 2629.36 L1187.46 2629.36 L1187.46 2636.74 L1150.13 2636.74 L1150.13 2629.36 Z" fill="#000000" fill-rule="nonzero" fill-opacity="1" /><path clip-path="url(#clip010)" d="M1223.92 2577.71 Q1217.15 2577.71 1213.72 2584.4 Q1210.33 2591.04 1210.33 2604.4 Q1210.33 2617.73 1213.72 2624.41 Q1217.15 2631.05 1223.92 2631.05 Q1230.73 2631.05 1234.12 2624.41 Q1237.55 2617.73 1237.55 2604.4 Q1237.55 2591.04 1234.12 2584.4 Q1230.73 2577.71 1223.92 2577.71 M1223.92 2570.77 Q1234.81 2570.77 1240.54 2579.41 Q1246.32 2588 1246.32 2604.4 Q1246.32 2620.77 1240.54 2629.4 Q1234.81 2638 1223.92 2638 Q1213.03 2638 1207.25 2629.4 Q1201.52 2620.77 1201.52 2604.4 Q1201.52 2588 1207.25 2579.41 Q1213.03 2570.77 1223.92 2570.77 Z" fill="#000000" fill-rule="nonzero" fill-opacity="1" /><path clip-path="url(#clip010)" d="M1258.99 2602.97 L1267.84 2602.97 L1267.84 2576.45 L1258.16 2578.23 L1258.16 2573.2 L1268.15 2571.51 L1274.09 2571.51 L1274.09 2602.97 L1282.99 2602.97 L1282.99 2607.75 L1258.99 2607.75 L1258.99 2602.97 Z" fill="#000000" fill-rule="nonzero" fill-opacity="1" /><path clip-path="url(#clip010)" d="M1899.49 2629.36 L1913.81 2629.36 L1913.81 2579.93 L1898.23 2583.05 L1898.23 2575.06 L1913.72 2571.94 L1922.49 2571.94 L1922.49 2629.36 L1936.81 2629.36 L1936.81 2636.74 L1899.49 2636.74 L1899.49 2629.36 Z" fill="#000000" fill-rule="nonzero" fill-opacity="1" /><path clip-path="url(#clip010)" d="M1973.27 2577.71 Q1966.5 2577.71 1963.07 2584.4 Q1959.68 2591.04 1959.68 2604.4 Q1959.68 2617.73 1963.07 2624.41 Q1966.5 2631.05 1973.27 2631.05 Q1980.08 2631.05 1983.47 2624.41 Q1986.9 2617.73 1986.9 2604.4 Q1986.9 2591.04 1983.47 2584.4 Q1980.08 2577.71 1973.27 2577.71 M1973.27 2570.77 Q1984.16 2570.77 1989.89 2579.41 Q1995.67 2588 1995.67 2604.4 Q1995.67 2620.77 1989.89 2629.4 Q1984.16 2638 1973.27 2638 Q1962.38 2638 1956.6 2629.4 Q1950.87 2620.77 1950.87 2604.4 Q1950.87 2588 1956.6 2579.41 Q1962.38 2570.77 1973.27 2570.77 Z" fill="#000000" fill-rule="nonzero" fill-opacity="1" /><path clip-path="url(#clip010)" d="M2013.2 2602.8 L2031.6 2602.8 L2031.6 2607.75 L2005.65 2607.75 L2005.65 2602.97 Q2007.12 2601.63 2009.86 2599.2 Q2024.79 2585.96 2024.79 2581.88 Q2024.79 2579.01 2022.53 2577.28 Q2020.27 2575.5 2016.59 2575.5 Q2014.33 2575.5 2011.68 2576.28 Q2009.03 2577.02 2005.91 2578.54 L2005.91 2573.2 Q2009.25 2571.98 2012.12 2571.38 Q2015.02 2570.77 2017.5 2570.77 Q2023.79 2570.77 2027.57 2573.63 Q2031.34 2576.5 2031.34 2581.18 Q2031.34 2587.22 2016.98 2599.54 Q2014.55 2601.63 2013.2 2602.8 Z" fill="#000000" fill-rule="nonzero" fill-opacity="1" /><path clip-path="url(#clip010)" d="M2647.92 2629.36 L2662.25 2629.36 L2662.25 2579.93 L2646.67 2583.05 L2646.67 2575.06 L2662.16 2571.94 L2670.93 2571.94 L2670.93 2629.36 L2685.25 2629.36 L2685.25 2636.74 L2647.92 2636.74 L2647.92 2629.36 Z" fill="#000000" fill-rule="nonzero" fill-opacity="1" /><path clip-path="url(#clip010)" d="M2721.71 2577.71 Q2714.94 2577.71 2711.51 2584.4 Q2708.12 2591.04 2708.12 2604.4 Q2708.12 2617.73 2711.51 2624.41 Q2714.94 2631.05 2721.71 2631.05 Q2728.52 2631.05 2731.91 2624.41 Q2735.34 2617.73 2735.34 2604.4 Q2735.34 2591.04 2731.91 2584.4 Q2728.52 2577.71 2721.71 2577.71 M2721.71 2570.77 Q2732.6 2570.77 2738.33 2579.41 Q2744.1 2588 2744.1 2604.4 Q2744.1 2620.77 2738.33 2629.4 Q2732.6 2638 2721.71 2638 Q2710.81 2638 2705.04 2629.4 Q2699.31 2620.77 2699.31 2604.4 Q2699.31 2588 2705.04 2579.41 Q2710.81 2570.77 2721.71 2570.77 Z" fill="#000000" fill-rule="nonzero" fill-opacity="1" /><path clip-path="url(#clip010)" d="M2772.75 2588.13 Q2776.74 2588.91 2778.91 2591.3 Q2781.13 2593.64 2781.13 2597.2 Q2781.13 2602.58 2777 2605.49 Q2772.88 2608.4 2765.2 2608.4 Q2762.72 2608.4 2759.99 2607.96 Q2757.3 2607.49 2754.26 2606.62 L2754.26 2601.37 Q2756.52 2602.54 2759.08 2603.1 Q2761.68 2603.67 2764.59 2603.67 Q2769.32 2603.67 2771.93 2601.97 Q2774.53 2600.24 2774.53 2597.2 Q2774.53 2593.99 2772.1 2592.34 Q2769.71 2590.69 2765.02 2590.69 L2761.29 2590.69 L2761.29 2586 L2765.37 2586 Q2769.45 2586 2771.54 2584.66 Q2773.66 2583.27 2773.66 2580.66 Q2773.66 2578.15 2771.49 2576.84 Q2769.32 2575.5 2765.2 2575.5 Q2763.46 2575.5 2761.25 2575.89 Q2759.04 2576.28 2755.52 2577.28 L2755.52 2572.29 Q2758.69 2571.55 2761.47 2571.16 Q2764.24 2570.77 2766.63 2570.77 Q2772.88 2570.77 2776.53 2573.33 Q2780.22 2575.89 2780.22 2580.19 Q2780.22 2583.18 2778.26 2585.26 Q2776.31 2587.35 2772.75 2588.13 Z" fill="#000000" fill-rule="nonzero" fill-opacity="1" /><path clip-path="url(#clip010)" d="M3396.06 2629.36 L3410.38 2629.36 L3410.38 2579.93 L3394.8 2583.05 L3394.8 2575.06 L3410.3 2571.94 L3419.06 2571.94 L3419.06 2629.36 L3433.39 2629.36 L3433.39 2636.74 L3396.06 2636.74 L3396.06 2629.36 Z" fill="#000000" fill-rule="nonzero" fill-opacity="1" /><path clip-path="url(#clip010)" d="M3469.84 2577.71 Q3463.07 2577.71 3459.64 2584.4 Q3456.26 2591.04 3456.26 2604.4 Q3456.26 2617.73 3459.64 2624.41 Q3463.07 2631.05 3469.84 2631.05 Q3476.66 2631.05 3480.04 2624.41 Q3483.47 2617.73 3483.47 2604.4 Q3483.47 2591.04 3480.04 2584.4 Q3476.66 2577.71 3469.84 2577.71 M3469.84 2570.77 Q3480.74 2570.77 3486.47 2579.41 Q3492.24 2588 3492.24 2604.4 Q3492.24 2620.77 3486.47 2629.4 Q3480.74 2638 3469.84 2638 Q3458.95 2638 3453.18 2629.4 Q3447.45 2620.77 3447.45 2604.4 Q3447.45 2588 3453.18 2579.41 Q3458.95 2570.77 3469.84 2570.77 Z" fill="#000000" fill-rule="nonzero" fill-opacity="1" /><path clip-path="url(#clip010)" d="M3518.85 2576.76 L3505.43 2594.94 L3518.85 2594.94 L3518.85 2576.76 M3517.89 2571.51 L3525.1 2571.51 L3525.1 2594.94 L3530.96 2594.94 L3530.96 2599.67 L3525.1 2599.67 L3525.1 2607.75 L3518.85 2607.75 L3518.85 2599.67 L3500.88 2599.67 L3500.88 2594.42 L3517.89 2571.51 Z" fill="#000000" fill-rule="nonzero" fill-opacity="1" /><path clip-path="url(#clip010)" d="M1570.15 2734.32 L1570.15 2762.81 L1587.03 2762.81 Q1595.52 2762.81 1599.58 2759.32 Q1603.69 2755.77 1603.69 2748.54 Q1603.69 2741.24 1599.58 2737.81 Q1595.52 2734.32 1587.03 2734.32 L1570.15 2734.32 M1570.15 2702.34 L1570.15 2725.78 L1585.72 2725.78 Q1593.43 2725.78 1597.18 2722.91 Q1600.98 2719.99 1600.98 2714.06 Q1600.98 2708.17 1597.18 2705.25 Q1593.43 2702.34 1585.72 2702.34 L1570.15 2702.34 M1559.63 2693.69 L1586.51 2693.69 Q1598.54 2693.69 1605.05 2698.69 Q1611.56 2703.69 1611.56 2712.91 Q1611.56 2720.05 1608.22 2724.26 Q1604.89 2728.48 1598.43 2729.52 Q1606.19 2731.19 1610.46 2736.5 Q1614.79 2741.76 1614.79 2749.68 Q1614.79 2760.1 1607.7 2765.77 Q1600.62 2771.45 1587.55 2771.45 L1559.63 2771.45 L1559.63 2693.69 Z" fill="#000000" fill-rule="nonzero" fill-opacity="1" /><path clip-path="url(#clip010)" d="M1654.99 2719.84 Q1647.29 2719.84 1642.81 2725.88 Q1638.33 2731.87 1638.33 2742.34 Q1638.33 2752.81 1642.76 2758.85 Q1647.23 2764.84 1654.99 2764.84 Q1662.65 2764.84 1667.13 2758.8 Q1671.61 2752.75 1671.61 2742.34 Q1671.61 2731.97 1667.13 2725.93 Q1662.65 2719.84 1654.99 2719.84 M1654.99 2711.71 Q1667.49 2711.71 1674.63 2719.84 Q1681.77 2727.96 1681.77 2742.34 Q1681.77 2756.66 1674.63 2764.84 Q1667.49 2772.96 1654.99 2772.96 Q1642.44 2772.96 1635.31 2764.84 Q1628.22 2756.66 1628.22 2742.34 Q1628.22 2727.96 1635.31 2719.84 Q1642.44 2711.71 1654.99 2711.71 Z" fill="#000000" fill-rule="nonzero" fill-opacity="1" /><path clip-path="url(#clip010)" d="M1736.04 2721.97 L1736.04 2690.41 L1745.62 2690.41 L1745.62 2771.45 L1736.04 2771.45 L1736.04 2762.7 Q1733.02 2767.91 1728.38 2770.46 Q1723.8 2772.96 1717.34 2772.96 Q1706.77 2772.96 1700.1 2764.52 Q1693.48 2756.09 1693.48 2742.34 Q1693.48 2728.59 1700.1 2720.15 Q1706.77 2711.71 1717.34 2711.71 Q1723.8 2711.71 1728.38 2714.26 Q1733.02 2716.76 1736.04 2721.97 M1703.38 2742.34 Q1703.38 2752.91 1707.7 2758.95 Q1712.08 2764.94 1719.68 2764.94 Q1727.29 2764.94 1731.66 2758.95 Q1736.04 2752.91 1736.04 2742.34 Q1736.04 2731.76 1731.66 2725.78 Q1727.29 2719.73 1719.68 2719.73 Q1712.08 2719.73 1707.7 2725.78 Q1703.38 2731.76 1703.38 2742.34 Z" fill="#000000" fill-rule="nonzero" fill-opacity="1" /><path clip-path="url(#clip010)" d="M1789.63 2776.87 Q1785.57 2787.29 1781.71 2790.46 Q1777.86 2793.64 1771.4 2793.64 L1763.74 2793.64 L1763.74 2785.62 L1769.37 2785.62 Q1773.33 2785.62 1775.51 2783.74 Q1777.7 2781.87 1780.36 2774.89 L1782.08 2770.51 L1758.48 2713.12 L1768.64 2713.12 L1786.87 2758.74 L1805.1 2713.12 L1815.25 2713.12 L1789.63 2776.87 Z" fill="#000000" fill-rule="nonzero" fill-opacity="1" /><path clip-path="url(#clip010)" d="M1907.81 2724.32 Q1911.4 2717.86 1916.4 2714.79 Q1921.4 2711.71 1928.17 2711.71 Q1937.28 2711.71 1942.23 2718.12 Q1947.18 2724.47 1947.18 2736.24 L1947.18 2771.45 L1937.55 2771.45 L1937.55 2736.56 Q1937.55 2728.17 1934.58 2724.11 Q1931.61 2720.05 1925.51 2720.05 Q1918.07 2720.05 1913.74 2724.99 Q1909.42 2729.94 1909.42 2738.48 L1909.42 2771.45 L1899.79 2771.45 L1899.79 2736.56 Q1899.79 2728.12 1896.82 2724.11 Q1893.85 2720.05 1887.65 2720.05 Q1880.31 2720.05 1875.98 2725.05 Q1871.66 2729.99 1871.66 2738.48 L1871.66 2771.45 L1862.02 2771.45 L1862.02 2713.12 L1871.66 2713.12 L1871.66 2722.18 Q1874.94 2716.82 1879.52 2714.26 Q1884.11 2711.71 1890.41 2711.71 Q1896.76 2711.71 1901.19 2714.94 Q1905.67 2718.17 1907.81 2724.32 Z" fill="#000000" fill-rule="nonzero" fill-opacity="1" /><path clip-path="url(#clip010)" d="M1992.81 2742.13 Q1981.19 2742.13 1976.71 2744.79 Q1972.23 2747.44 1972.23 2753.85 Q1972.23 2758.95 1975.57 2761.97 Q1978.95 2764.94 1984.73 2764.94 Q1992.7 2764.94 1997.49 2759.32 Q2002.34 2753.64 2002.34 2744.26 L2002.34 2742.13 L1992.81 2742.13 M2011.92 2738.17 L2011.92 2771.45 L2002.34 2771.45 L2002.34 2762.6 Q1999.06 2767.91 1994.16 2770.46 Q1989.26 2772.96 1982.18 2772.96 Q1973.22 2772.96 1967.91 2767.96 Q1962.65 2762.91 1962.65 2754.47 Q1962.65 2744.63 1969.21 2739.63 Q1975.83 2734.63 1988.9 2734.63 L2002.34 2734.63 L2002.34 2733.69 Q2002.34 2727.08 1997.96 2723.48 Q1993.64 2719.84 1985.77 2719.84 Q1980.77 2719.84 1976.03 2721.04 Q1971.3 2722.23 1966.92 2724.63 L1966.92 2715.78 Q1972.18 2713.74 1977.13 2712.75 Q1982.08 2711.71 1986.76 2711.71 Q1999.42 2711.71 2005.67 2718.28 Q2011.92 2724.84 2011.92 2738.17 Z" fill="#000000" fill-rule="nonzero" fill-opacity="1" /><path clip-path="url(#clip010)" d="M2068.85 2714.84 L2068.85 2723.9 Q2064.78 2721.82 2060.41 2720.78 Q2056.03 2719.73 2051.35 2719.73 Q2044.21 2719.73 2040.62 2721.92 Q2037.08 2724.11 2037.08 2728.48 Q2037.08 2731.82 2039.63 2733.74 Q2042.18 2735.62 2049.89 2737.34 L2053.17 2738.07 Q2063.38 2740.25 2067.65 2744.26 Q2071.97 2748.22 2071.97 2755.36 Q2071.97 2763.48 2065.51 2768.22 Q2059.11 2772.96 2047.86 2772.96 Q2043.17 2772.96 2038.07 2772.02 Q2033.01 2771.14 2027.39 2769.32 L2027.39 2759.42 Q2032.7 2762.18 2037.86 2763.59 Q2043.01 2764.94 2048.07 2764.94 Q2054.84 2764.94 2058.48 2762.65 Q2062.13 2760.31 2062.13 2756.09 Q2062.13 2752.18 2059.47 2750.1 Q2056.87 2748.01 2047.96 2746.09 L2044.63 2745.31 Q2035.72 2743.43 2031.76 2739.58 Q2027.81 2735.67 2027.81 2728.9 Q2027.81 2720.67 2033.64 2716.19 Q2039.47 2711.71 2050.2 2711.71 Q2055.51 2711.71 2060.2 2712.49 Q2064.89 2713.28 2068.85 2714.84 Z" fill="#000000" fill-rule="nonzero" fill-opacity="1" /><path clip-path="url(#clip010)" d="M2124.42 2714.84 L2124.42 2723.9 Q2120.36 2721.82 2115.98 2720.78 Q2111.61 2719.73 2106.92 2719.73 Q2099.78 2719.73 2096.19 2721.92 Q2092.65 2724.11 2092.65 2728.48 Q2092.65 2731.82 2095.2 2733.74 Q2097.75 2735.62 2105.46 2737.34 L2108.74 2738.07 Q2118.95 2740.25 2123.22 2744.26 Q2127.54 2748.22 2127.54 2755.36 Q2127.54 2763.48 2121.09 2768.22 Q2114.68 2772.96 2103.43 2772.96 Q2098.74 2772.96 2093.64 2772.02 Q2088.59 2771.14 2082.96 2769.32 L2082.96 2759.42 Q2088.27 2762.18 2093.43 2763.59 Q2098.59 2764.94 2103.64 2764.94 Q2110.41 2764.94 2114.05 2762.65 Q2117.7 2760.31 2117.7 2756.09 Q2117.7 2752.18 2115.04 2750.1 Q2112.44 2748.01 2103.53 2746.09 L2100.2 2745.31 Q2091.29 2743.43 2087.34 2739.58 Q2083.38 2735.67 2083.38 2728.9 Q2083.38 2720.67 2089.21 2716.19 Q2095.04 2711.71 2105.77 2711.71 Q2111.09 2711.71 2115.77 2712.49 Q2120.46 2713.28 2124.42 2714.84 Z" fill="#000000" fill-rule="nonzero" fill-opacity="1" /><path clip-path="url(#clip010)" d="M2199.73 2690.51 Q2192.75 2702.49 2189.37 2714.21 Q2185.98 2725.93 2185.98 2737.96 Q2185.98 2749.99 2189.37 2761.82 Q2192.8 2773.59 2199.73 2785.51 L2191.4 2785.51 Q2183.59 2773.27 2179.68 2761.45 Q2175.83 2749.63 2175.83 2737.96 Q2175.83 2726.35 2179.68 2714.58 Q2183.53 2702.81 2191.4 2690.51 L2199.73 2690.51 Z" fill="#000000" fill-rule="nonzero" fill-opacity="1" /><path clip-path="url(#clip010)" d="M2217.96 2690.41 L2227.6 2690.41 L2227.6 2738.27 L2256.19 2713.12 L2268.43 2713.12 L2237.49 2740.41 L2269.73 2771.45 L2257.23 2771.45 L2227.6 2742.96 L2227.6 2771.45 L2217.96 2771.45 L2217.96 2690.41 Z" fill="#000000" fill-rule="nonzero" fill-opacity="1" /><path clip-path="url(#clip010)" d="M2318.48 2741.61 Q2318.48 2731.19 2314.16 2725.46 Q2309.89 2719.73 2302.13 2719.73 Q2294.42 2719.73 2290.1 2725.46 Q2285.82 2731.19 2285.82 2741.61 Q2285.82 2751.97 2290.1 2757.7 Q2294.42 2763.43 2302.13 2763.43 Q2309.89 2763.43 2314.16 2757.7 Q2318.48 2751.97 2318.48 2741.61 M2328.06 2764.21 Q2328.06 2779.11 2321.45 2786.35 Q2314.83 2793.64 2301.19 2793.64 Q2296.14 2793.64 2291.66 2792.86 Q2287.18 2792.13 2282.96 2790.57 L2282.96 2781.24 Q2287.18 2783.54 2291.29 2784.63 Q2295.41 2785.72 2299.68 2785.72 Q2309.11 2785.72 2313.79 2780.77 Q2318.48 2775.88 2318.48 2765.93 L2318.48 2761.19 Q2315.51 2766.35 2310.88 2768.9 Q2306.24 2771.45 2299.78 2771.45 Q2289.05 2771.45 2282.49 2763.27 Q2275.93 2755.1 2275.93 2741.61 Q2275.93 2728.07 2282.49 2719.89 Q2289.05 2711.71 2299.78 2711.71 Q2306.24 2711.71 2310.88 2714.26 Q2315.51 2716.82 2318.48 2721.97 L2318.48 2713.12 L2328.06 2713.12 L2328.06 2764.21 Z" fill="#000000" fill-rule="nonzero" fill-opacity="1" /><path clip-path="url(#clip010)" d="M2346.29 2690.51 L2354.63 2690.51 Q2362.44 2702.81 2366.29 2714.58 Q2370.2 2726.35 2370.2 2737.96 Q2370.2 2749.63 2366.29 2761.45 Q2362.44 2773.27 2354.63 2785.51 L2346.29 2785.51 Q2353.22 2773.59 2356.61 2761.82 Q2360.04 2749.99 2360.04 2737.96 Q2360.04 2725.93 2356.61 2714.21 Q2353.22 2702.49 2346.29 2690.51 Z" fill="#000000" fill-rule="nonzero" fill-opacity="1" /><polyline clip-path="url(#clip010)" style="stroke:#000000; stroke-linecap:round; stroke-linejoin:round; stroke-width:4; stroke-opacity:1; fill:none" points="377.074,2526.94 377.074,47.2441 "/>
<polyline clip-path="url(#clip010)" style="stroke:#000000; stroke-linecap:round; stroke-linejoin:round; stroke-width:4; stroke-opacity:1; fill:none" points="3552.76,2526.94 3552.76,47.2441 "/>
<polyline clip-path="url(#clip010)" style="stroke:#000000; stroke-linecap:round; stroke-linejoin:round; stroke-width:4; stroke-opacity:1; fill:none" points="377.074,1695.62 395.971,1695.62 "/>
<polyline clip-path="url(#clip010)" style="stroke:#000000; stroke-linecap:round; stroke-linejoin:round; stroke-width:4; stroke-opacity:1; fill:none" points="377.074,1266.78 395.971,1266.78 "/>
<polyline clip-path="url(#clip010)" style="stroke:#000000; stroke-linecap:round; stroke-linejoin:round; stroke-width:4; stroke-opacity:1; fill:none" points="377.074,837.941 395.971,837.941 "/>
<polyline clip-path="url(#clip010)" style="stroke:#000000; stroke-linecap:round; stroke-linejoin:round; stroke-width:4; stroke-opacity:1; fill:none" points="3552.76,1695.62 3533.86,1695.62 "/>
<polyline clip-path="url(#clip010)" style="stroke:#000000; stroke-linecap:round; stroke-linejoin:round; stroke-width:4; stroke-opacity:1; fill:none" points="3552.76,1266.78 3533.86,1266.78 "/>
<polyline clip-path="url(#clip010)" style="stroke:#000000; stroke-linecap:round; stroke-linejoin:round; stroke-width:4; stroke-opacity:1; fill:none" points="3552.76,837.941 3533.86,837.941 "/>
<path clip-path="url(#clip010)" d="M151.46 1700.12 L174.854 1700.12 L174.854 1707.23 L151.46 1707.23 L151.46 1700.12 Z" fill="#000000" fill-rule="nonzero" fill-opacity="1" /><path clip-path="url(#clip010)" d="M190.219 1720.64 L204.541 1720.64 L204.541 1671.21 L188.96 1674.33 L188.96 1666.35 L204.455 1663.22 L213.222 1663.22 L213.222 1720.64 L227.545 1720.64 L227.545 1728.02 L190.219 1728.02 L190.219 1720.64 Z" fill="#000000" fill-rule="nonzero" fill-opacity="1" /><path clip-path="url(#clip010)" d="M264.003 1669 Q257.232 1669 253.803 1675.68 Q250.418 1682.32 250.418 1695.69 Q250.418 1709.01 253.803 1715.7 Q257.232 1722.34 264.003 1722.34 Q270.817 1722.34 274.203 1715.7 Q277.631 1709.01 277.631 1695.69 Q277.631 1682.32 274.203 1675.68 Q270.817 1669 264.003 1669 M264.003 1662.05 Q274.897 1662.05 280.626 1670.69 Q286.399 1679.28 286.399 1695.69 Q286.399 1712.05 280.626 1720.69 Q274.897 1729.28 264.003 1729.28 Q253.109 1729.28 247.336 1720.69 Q241.607 1712.05 241.607 1695.69 Q241.607 1679.28 247.336 1670.69 Q253.109 1662.05 264.003 1662.05 Z" fill="#000000" fill-rule="nonzero" fill-opacity="1" /><path clip-path="url(#clip010)" d="M299.072 1694.26 L307.926 1694.26 L307.926 1667.74 L298.248 1669.52 L298.248 1664.48 L308.23 1662.79 L314.176 1662.79 L314.176 1694.26 L323.074 1694.26 L323.074 1699.03 L299.072 1699.03 L299.072 1694.26 Z" fill="#000000" fill-rule="nonzero" fill-opacity="1" /><path clip-path="url(#clip010)" d="M300.678 1240.15 Q293.907 1240.15 290.479 1246.84 Q287.093 1253.48 287.093 1266.85 Q287.093 1280.17 290.479 1286.86 Q293.907 1293.5 300.678 1293.5 Q307.492 1293.5 310.878 1286.86 Q314.307 1280.17 314.307 1266.85 Q314.307 1253.48 310.878 1246.84 Q307.492 1240.15 300.678 1240.15 M300.678 1233.21 Q311.572 1233.21 317.301 1241.85 Q323.074 1250.44 323.074 1266.85 Q323.074 1283.21 317.301 1291.85 Q311.572 1300.44 300.678 1300.44 Q289.784 1300.44 284.012 1291.85 Q278.282 1283.21 278.282 1266.85 Q278.282 1250.44 284.012 1241.85 Q289.784 1233.21 300.678 1233.21 Z" fill="#000000" fill-rule="nonzero" fill-opacity="1" /><path clip-path="url(#clip010)" d="M190.219 862.963 L204.541 862.963 L204.541 813.528 L188.96 816.653 L188.96 808.666 L204.455 805.541 L213.222 805.541 L213.222 862.963 L227.545 862.963 L227.545 870.341 L190.219 870.341 L190.219 862.963 Z" fill="#000000" fill-rule="nonzero" fill-opacity="1" /><path clip-path="url(#clip010)" d="M264.003 811.314 Q257.232 811.314 253.803 817.998 Q250.418 824.639 250.418 838.007 Q250.418 851.331 253.803 858.015 Q257.232 864.656 264.003 864.656 Q270.817 864.656 274.203 858.015 Q277.631 851.331 277.631 838.007 Q277.631 824.639 274.203 817.998 Q270.817 811.314 264.003 811.314 M264.003 804.37 Q274.897 804.37 280.626 813.007 Q286.399 821.6 286.399 838.007 Q286.399 854.369 280.626 863.006 Q274.897 871.6 264.003 871.6 Q253.109 871.6 247.336 863.006 Q241.607 854.369 241.607 838.007 Q241.607 821.6 247.336 813.007 Q253.109 804.37 264.003 804.37 Z" fill="#000000" fill-rule="nonzero" fill-opacity="1" /><path clip-path="url(#clip010)" d="M299.072 836.574 L307.926 836.574 L307.926 810.055 L298.248 811.835 L298.248 806.8 L308.23 805.107 L314.176 805.107 L314.176 836.574 L323.074 836.574 L323.074 841.349 L299.072 841.349 L299.072 836.574 Z" fill="#000000" fill-rule="nonzero" fill-opacity="1" /><path clip-path="url(#clip010)" d="M-3.62784 1825.45 L-3.62784 1809.77 L49.2885 1789.93 L-3.62784 1769.98 L-3.62784 1754.3 L74.1322 1754.3 L74.1322 1764.56 L5.85127 1764.56 L59.1843 1784.62 L59.1843 1795.19 L5.85127 1815.24 L74.1322 1815.24 L74.1322 1825.45 L-3.62784 1825.45 Z" fill="#000000" fill-rule="nonzero" fill-opacity="1" /><path clip-path="url(#clip010)" d="M42.5698 1683.94 L47.2573 1683.94 L47.2573 1728 Q57.1531 1727.38 62.3614 1722.06 Q67.5176 1716.7 67.5176 1707.17 Q67.5176 1701.65 66.1635 1696.49 Q64.8093 1691.28 62.101 1686.18 L71.1634 1686.18 Q73.3509 1691.33 74.4967 1696.75 Q75.6426 1702.17 75.6426 1707.74 Q75.6426 1721.7 67.5176 1729.88 Q59.3927 1738 45.5386 1738 Q31.2157 1738 22.8303 1730.29 Q14.3929 1722.53 14.3929 1709.41 Q14.3929 1697.64 21.997 1690.81 Q29.5491 1683.94 42.5698 1683.94 M39.7573 1693.52 Q31.8928 1693.63 27.2053 1697.95 Q22.5179 1702.22 22.5179 1709.3 Q22.5179 1717.32 27.0491 1722.17 Q31.5803 1726.96 39.8094 1727.69 L39.7573 1693.52 Z" fill="#000000" fill-rule="nonzero" fill-opacity="1" /><path clip-path="url(#clip010)" d="M44.8094 1641.7 Q44.8094 1653.31 47.4656 1657.79 Q50.1219 1662.27 56.5281 1662.27 Q61.6322 1662.27 64.653 1658.94 Q67.6218 1655.55 67.6218 1649.77 Q67.6218 1641.8 61.9968 1637.01 Q56.3198 1632.17 46.9448 1632.17 L44.8094 1632.17 L44.8094 1641.7 M40.8511 1622.58 L74.1322 1622.58 L74.1322 1632.17 L65.278 1632.17 Q70.5905 1635.45 73.1426 1640.35 Q75.6426 1645.24 75.6426 1652.32 Q75.6426 1661.28 70.6426 1666.6 Q65.5905 1671.86 57.1531 1671.86 Q47.3094 1671.86 42.3094 1665.29 Q37.3094 1658.68 37.3094 1645.61 L37.3094 1632.17 L36.3719 1632.17 Q29.7574 1632.17 26.1637 1636.54 Q22.5179 1640.87 22.5179 1648.73 Q22.5179 1653.73 23.7158 1658.47 Q24.9137 1663.21 27.3095 1667.58 L18.4554 1667.58 Q16.4241 1662.32 15.4346 1657.38 Q14.3929 1652.43 14.3929 1647.74 Q14.3929 1635.08 20.9554 1628.83 Q27.5178 1622.58 40.8511 1622.58 Z" fill="#000000" fill-rule="nonzero" fill-opacity="1" /><path clip-path="url(#clip010)" d="M38.924 1554.36 L74.1322 1554.36 L74.1322 1563.94 L39.2365 1563.94 Q30.9553 1563.94 26.8407 1567.17 Q22.7262 1570.4 22.7262 1576.86 Q22.7262 1584.62 27.6741 1589.1 Q32.622 1593.57 41.1636 1593.57 L74.1322 1593.57 L74.1322 1603.21 L15.7991 1603.21 L15.7991 1593.57 L24.8616 1593.57 Q19.6012 1590.14 16.997 1585.5 Q14.3929 1580.81 14.3929 1574.72 Q14.3929 1564.67 20.6429 1559.51 Q26.8407 1554.36 38.924 1554.36 Z" fill="#000000" fill-rule="nonzero" fill-opacity="1" /><path clip-path="url(#clip010)" d="M38.924 1452.85 L74.1322 1452.85 L74.1322 1462.43 L39.2365 1462.43 Q30.9553 1462.43 26.8407 1465.66 Q22.7262 1468.89 22.7262 1475.35 Q22.7262 1483.11 27.6741 1487.59 Q32.622 1492.06 41.1636 1492.06 L74.1322 1492.06 L74.1322 1501.7 L15.7991 1501.7 L15.7991 1492.06 L24.8616 1492.06 Q19.6012 1488.63 16.997 1483.99 Q14.3929 1479.3 14.3929 1473.21 Q14.3929 1463.16 20.6429 1458 Q26.8407 1452.85 38.924 1452.85 Z" fill="#000000" fill-rule="nonzero" fill-opacity="1" /><path clip-path="url(#clip010)" d="M42.5698 1383.84 L47.2573 1383.84 L47.2573 1427.9 Q57.1531 1427.27 62.3614 1421.96 Q67.5176 1416.6 67.5176 1407.07 Q67.5176 1401.54 66.1635 1396.39 Q64.8093 1391.18 62.101 1386.08 L71.1634 1386.08 Q73.3509 1391.23 74.4967 1396.65 Q75.6426 1402.07 75.6426 1407.64 Q75.6426 1421.6 67.5176 1429.77 Q59.3927 1437.9 45.5386 1437.9 Q31.2157 1437.9 22.8303 1430.19 Q14.3929 1422.43 14.3929 1409.3 Q14.3929 1397.53 21.997 1390.71 Q29.5491 1383.84 42.5698 1383.84 M39.7573 1393.42 Q31.8928 1393.52 27.2053 1397.85 Q22.5179 1402.12 22.5179 1409.2 Q22.5179 1417.22 27.0491 1422.07 Q31.5803 1426.86 39.8094 1427.59 L39.7573 1393.42 Z" fill="#000000" fill-rule="nonzero" fill-opacity="1" /><path clip-path="url(#clip010)" d="M-0.763275 1358.63 L15.7991 1358.63 L15.7991 1338.89 L23.247 1338.89 L23.247 1358.63 L54.9135 1358.63 Q62.0489 1358.63 64.0801 1356.7 Q66.1114 1354.72 66.1114 1348.73 L66.1114 1338.89 L74.1322 1338.89 L74.1322 1348.73 Q74.1322 1359.83 70.0176 1364.04 Q65.851 1368.26 54.9135 1368.26 L23.247 1368.26 L23.247 1375.29 L15.7991 1375.29 L15.7991 1368.26 L-0.763275 1368.26 L-0.763275 1358.63 Z" fill="#000000" fill-rule="nonzero" fill-opacity="1" /><path clip-path="url(#clip010)" d="M44.2886 1253.99 Q33.872 1253.99 28.1428 1258.32 Q22.4137 1262.59 22.4137 1270.35 Q22.4137 1278.06 28.1428 1282.38 Q33.872 1286.65 44.2886 1286.65 Q54.6531 1286.65 60.3822 1282.38 Q66.1114 1278.06 66.1114 1270.35 Q66.1114 1262.59 60.3822 1258.32 Q54.6531 1253.99 44.2886 1253.99 M66.8926 1244.41 Q81.7884 1244.41 89.0279 1251.02 Q96.3195 1257.64 96.3195 1271.28 Q96.3195 1276.34 95.5383 1280.82 Q94.8091 1285.3 93.2466 1289.51 L83.9238 1289.51 Q86.2154 1285.3 87.3092 1281.18 Q88.4029 1277.07 88.4029 1272.8 Q88.4029 1263.37 83.455 1258.68 Q78.5592 1253.99 68.6114 1253.99 L63.8718 1253.99 Q69.028 1256.96 71.5801 1261.6 Q74.1322 1266.23 74.1322 1272.69 Q74.1322 1283.42 65.9551 1289.98 Q57.7781 1296.55 44.2886 1296.55 Q30.747 1296.55 22.5699 1289.98 Q14.3929 1283.42 14.3929 1272.69 Q14.3929 1266.23 16.945 1261.6 Q19.497 1256.96 24.6533 1253.99 L15.7991 1253.99 L15.7991 1244.41 L66.8926 1244.41 Z" fill="#000000" fill-rule="nonzero" fill-opacity="1" /><path clip-path="url(#clip010)" d="M44.8094 1198.16 Q44.8094 1209.77 47.4656 1214.25 Q50.1219 1218.73 56.5281 1218.73 Q61.6322 1218.73 64.653 1215.4 Q67.6218 1212.01 67.6218 1206.23 Q67.6218 1198.26 61.9968 1193.47 Q56.3198 1188.63 46.9448 1188.63 L44.8094 1188.63 L44.8094 1198.16 M40.8511 1179.05 L74.1322 1179.05 L74.1322 1188.63 L65.278 1188.63 Q70.5905 1191.91 73.1426 1196.81 Q75.6426 1201.7 75.6426 1208.79 Q75.6426 1217.74 70.6426 1223.06 Q65.5905 1228.32 57.1531 1228.32 Q47.3094 1228.32 42.3094 1221.75 Q37.3094 1215.14 37.3094 1202.07 L37.3094 1188.63 L36.3719 1188.63 Q29.7574 1188.63 26.1637 1193 Q22.5179 1197.33 22.5179 1205.19 Q22.5179 1210.19 23.7158 1214.93 Q24.9137 1219.67 27.3095 1224.05 L18.4554 1224.05 Q16.4241 1218.79 15.4346 1213.84 Q14.3929 1208.89 14.3929 1204.2 Q14.3929 1191.55 20.9554 1185.3 Q27.5178 1179.05 40.8511 1179.05 Z" fill="#000000" fill-rule="nonzero" fill-opacity="1" /><path clip-path="url(#clip010)" d="M15.7991 1159.31 L15.7991 1149.72 L74.1322 1149.72 L74.1322 1159.31 L15.7991 1159.31 M-6.90907 1159.31 L-6.90907 1149.72 L5.22628 1149.72 L5.22628 1159.31 L-6.90907 1159.31 Z" fill="#000000" fill-rule="nonzero" fill-opacity="1" /><path clip-path="url(#clip010)" d="M38.924 1081.18 L74.1322 1081.18 L74.1322 1090.76 L39.2365 1090.76 Q30.9553 1090.76 26.8407 1093.99 Q22.7262 1097.22 22.7262 1103.68 Q22.7262 1111.44 27.6741 1115.92 Q32.622 1120.4 41.1636 1120.4 L74.1322 1120.4 L74.1322 1130.04 L15.7991 1130.04 L15.7991 1120.4 L24.8616 1120.4 Q19.6012 1116.96 16.997 1112.33 Q14.3929 1107.64 14.3929 1101.55 Q14.3929 1091.49 20.6429 1086.34 Q26.8407 1081.18 38.924 1081.18 Z" fill="#000000" fill-rule="nonzero" fill-opacity="1" /><path clip-path="url(#clip010)" d="M-6.80491 1005.14 Q5.17419 1012.12 16.8929 1015.5 Q28.6116 1018.89 40.6428 1018.89 Q52.6739 1018.89 64.4968 1015.5 Q76.2676 1012.07 88.1946 1005.14 L88.1946 1013.47 Q75.9551 1021.29 64.1322 1025.19 Q52.3094 1029.05 40.6428 1029.05 Q29.0282 1029.05 17.2575 1025.19 Q5.48669 1021.34 -6.80491 1013.47 L-6.80491 1005.14 Z" fill="#000000" fill-rule="nonzero" fill-opacity="1" /><path clip-path="url(#clip010)" d="M-6.90907 986.911 L-6.90907 977.276 L40.9553 977.276 L15.7991 948.682 L15.7991 936.443 L43.0907 967.38 L74.1322 935.141 L74.1322 947.641 L45.6427 977.276 L74.1322 977.276 L74.1322 986.911 L-6.90907 986.911 Z" fill="#000000" fill-rule="nonzero" fill-opacity="1" /><path clip-path="url(#clip010)" d="M18.0387 882.797 L26.997 882.797 Q24.7574 886.86 23.6637 890.974 Q22.5179 895.037 22.5179 899.203 Q22.5179 908.526 28.4553 913.683 Q34.3407 918.839 45.0177 918.839 Q55.6948 918.839 61.6322 913.683 Q67.5176 908.526 67.5176 899.203 Q67.5176 895.037 66.4239 890.974 Q65.278 886.86 63.0385 882.797 L71.8926 882.797 Q73.7676 886.808 74.7051 891.131 Q75.6426 895.401 75.6426 900.245 Q75.6426 913.422 67.3614 921.182 Q59.0802 928.943 45.0177 928.943 Q30.747 928.943 22.5699 921.13 Q14.3929 913.266 14.3929 899.62 Q14.3929 895.193 15.3304 890.974 Q16.2158 886.756 18.0387 882.797 Z" fill="#000000" fill-rule="nonzero" fill-opacity="1" /><path clip-path="url(#clip010)" d="M44.8094 839.62 Q44.8094 851.235 47.4656 855.714 Q50.1219 860.193 56.5281 860.193 Q61.6322 860.193 64.653 856.86 Q67.6218 853.475 67.6218 847.693 Q67.6218 839.725 61.9968 834.933 Q56.3198 830.089 46.9448 830.089 L44.8094 830.089 L44.8094 839.62 M40.8511 820.506 L74.1322 820.506 L74.1322 830.089 L65.278 830.089 Q70.5905 833.37 73.1426 838.266 Q75.6426 843.162 75.6426 850.245 Q75.6426 859.204 70.6426 864.516 Q65.5905 869.776 57.1531 869.776 Q47.3094 869.776 42.3094 863.214 Q37.3094 856.599 37.3094 843.527 L37.3094 830.089 L36.3719 830.089 Q29.7574 830.089 26.1637 834.464 Q22.5179 838.787 22.5179 846.652 Q22.5179 851.652 23.7158 856.391 Q24.9137 861.131 27.3095 865.506 L18.4554 865.506 Q16.4241 860.245 15.4346 855.297 Q14.3929 850.35 14.3929 845.662 Q14.3929 833.006 20.9554 826.756 Q27.5178 820.506 40.8511 820.506 Z" fill="#000000" fill-rule="nonzero" fill-opacity="1" /><path clip-path="url(#clip010)" d="M-6.90907 800.766 L-6.90907 791.183 L74.1322 791.183 L74.1322 800.766 L-6.90907 800.766 Z" fill="#000000" fill-rule="nonzero" fill-opacity="1" /><path clip-path="url(#clip010)" d="M-6.80491 772.642 L-6.80491 764.308 Q5.48669 756.496 17.2575 752.642 Q29.0282 748.735 40.6428 748.735 Q52.3094 748.735 64.1322 752.642 Q75.9551 756.496 88.1946 764.308 L88.1946 772.642 Q76.2676 765.715 64.4968 762.329 Q52.6739 758.892 40.6428 758.892 Q28.6116 758.892 16.8929 762.329 Q5.17419 765.715 -6.80491 772.642 Z" fill="#000000" fill-rule="nonzero" fill-opacity="1" /><polyline clip-path="url(#clip012)" style="stroke:#1b9e77; stroke-linecap:round; stroke-linejoin:round; stroke-width:20; stroke-opacity:1; fill:none" points="466.952,1835.33 542.127,1839.95 615.742,1842.7 692.418,1842.86 766.3,1839.43 841.208,1830.82 916.253,1813.1 991.117,1777.8 1066.16,1680.59 1140.9,819.347 1215.93,711.547 1290.85,655.197 1365.75,615.441 1440.58,584.46 1515.54,558.919 1590.4,537.228 1665.32,518.442 1740.23,502.249 1815.14,487.994 1890.01,475.357 1964.91,464.237 2039.81,454.554 2114.71,446.577 2189.62,440.075 2264.51,435.993 2339.41,434.005 2414.31,435.46 2489.2,440.306 2564.1,452.833 2639,477.184 2713.9,527.983 2788.8,1747.4 2863.69,2041.4 2938.59,2117.82 3013.49,2167.35 3088.39,2208.14 3163.29,2241.6 3238.18,2271.63 3313.08,2299.13 3387.98,2323.79 3462.88,2348 "/>
<polyline clip-path="url(#clip012)" style="stroke:#7570b3; stroke-linecap:round; stroke-linejoin:round; stroke-width:20; stroke-opacity:1; fill:none" points="466.952,1832.63 542.127,1838.88 615.742,1843.6 692.418,1846.19 766.3,1846.4 841.208,1842.96 916.253,1834.27 991.117,1816.53 1066.16,1781.69 1140.9,1684.6 1215.93,813.677 1290.85,704.099 1365.75,646.177 1440.58,601.986 1515.54,566.237 1590.4,534.031 1665.32,504.322 1740.23,475.903 1815.14,448.023 1890.01,420.668 1964.91,393.78 2039.81,367.164 2114.71,341.008 2189.62,315.508 2264.51,290.847 2339.41,267.031 2414.31,244.382 2489.2,223.115 2564.1,203.344 2639,185.064 2713.9,168.404 2788.8,153.215 2863.69,139.243 2938.59,126.366 3013.49,114.207 3088.39,102.576 3163.29,91.3672 3238.18,80.3581 3313.08,69.4588 3387.98,58.4379 3462.88,47.2441 "/>
<polyline clip-path="url(#clip012)" style="stroke:#d95f02; stroke-linecap:round; stroke-linejoin:round; stroke-width:20; stroke-opacity:1; fill:none" points="466.952,1841.13 542.127,1851.35 615.742,1860.98 692.418,1870.14 766.3,1878.78 841.208,1886.95 916.253,1894.67 991.117,1902.39 1066.16,1910.6 1140.9,1919 1215.93,1928.36 1290.85,1940.31 1365.75,1954.67 1440.58,1969.95 1515.54,1988.05 1590.4,2010.45 1665.32,2031.45 1740.23,2053.77 1815.14,2076.55 1890.01,2101.53 1964.91,2125.3 2039.81,2145.54 2114.71,2171.42 2189.62,2193.89 2264.51,2213.86 2339.41,2238.16 2414.31,2257.51 2489.2,2272.38 2564.1,2303.87 2639,2314.84 2713.9,2320.97 2788.8,2341.32 2863.69,2362.64 2938.59,2384.16 3013.49,2403.61 3088.39,2426.4 3163.29,2446.73 3238.18,2465.54 3313.08,2486.6 3387.98,2507.12 3462.88,2526.94 "/>
<polyline clip-path="url(#clip012)" style="stroke:#ff0000; stroke-linecap:round; stroke-linejoin:round; stroke-width:8; stroke-opacity:1; fill:none" stroke-dasharray="32, 20" points="-2798.61,1266.78 6728.44,1266.78 "/>
</svg>
