<?xml version="1.0" encoding="UTF-8" standalone="no"?>
<!-- Created with Inkscape (http://www.inkscape.org/) -->

<svg
   width="297mm"
   height="210mm"
   viewBox="0 0 1122.5197 793.70081"
   version="1.1"
   id="svg1"
   xml:space="preserve"
   inkscape:version="1.4.3 (0d15f750, 2025-12-25)"
   sodipodi:docname="net_gains_mu0005.svg"
   xmlns:inkscape="http://www.inkscape.org/namespaces/inkscape"
   xmlns:sodipodi="http://sodipodi.sourceforge.net/DTD/sodipodi-0.dtd"
   xmlns="http://www.w3.org/2000/svg"
   xmlns:svg="http://www.w3.org/2000/svg"><sodipodi:namedview
     id="namedview1"
     pagecolor="#ffffff"
     bordercolor="#000000"
     borderopacity="0.25"
     inkscape:showpageshadow="2"
     inkscape:pageopacity="0.0"
     inkscape:pagecheckerboard="0"
     inkscape:deskcolor="#d1d1d1"
     inkscape:document-units="mm"
     inkscape:zoom="0.78517243"
     inkscape:cx="605.59946"
     inkscape:cy="407.55379"
     inkscape:window-width="1920"
     inkscape:window-height="951"
     inkscape:window-x="0"
     inkscape:window-y="30"
     inkscape:window-maximized="1"
     inkscape:current-layer="layer1" /><defs
     id="defs1"><clipPath
       id="clip870"><rect
         x="0"
         y="0"
         width="3600"
         height="2800"
         id="rect1" /></clipPath><clipPath
       id="clip871"><rect
         x="720"
         y="0"
         width="2521"
         height="2521"
         id="rect2" /></clipPath><clipPath
       id="clip872"><rect
         x="377"
         y="47"
         width="3177"
         height="2481"
         id="rect3" /></clipPath><clipPath
       id="clip840"><rect
         x="0"
         y="0"
         width="3600"
         height="2800"
         id="rect1-8" /></clipPath><clipPath
       id="clip841"><rect
         x="720"
         y="0"
         width="2521"
         height="2521"
         id="rect2-9" /></clipPath><clipPath
       id="clip842"><rect
         x="377"
         y="47"
         width="3177"
         height="2481"
         id="rect3-5" /></clipPath></defs><g
     inkscape:label="Layer 1"
     inkscape:groupmode="layer"
     id="layer1"><g
       id="g4"
       transform="matrix(1.1047508,0,0,1.1047508,-3.2627762,-110.66887)"><g
         id="g1"
         transform="matrix(0.13890499,0,0,0.13890499,515.92284,241.24347)"><path
           clip-path="url(#clip870)"
           d="M 0,2800 H 3600 V 0 H 0 Z"
           fill="#ffffff"
           fill-rule="evenodd"
           fill-opacity="1"
           id="path1" /><g
           id="g3"
           transform="translate(-155.87126)"><path
             clip-path="url(#clip870)"
             d="M 377.074,2526.94 H 3552.76 V 47.2441 H 377.074 Z"
             fill="#ffffff"
             fill-rule="evenodd"
             fill-opacity="1"
             id="path2" /><polyline
             clip-path="url(#clip870)"
             style="fill:none;stroke:#000000;stroke-width:4;stroke-linecap:round;stroke-linejoin:round;stroke-opacity:1"
             points="377.074,2526.94 3552.76,2526.94 "
             id="polyline3" /><polyline
             clip-path="url(#clip870)"
             style="fill:none;stroke:#000000;stroke-width:4;stroke-linecap:round;stroke-linejoin:round;stroke-opacity:1"
             points="377.074,47.2441 3552.76,47.2441 "
             id="polyline4" /><polyline
             clip-path="url(#clip870)"
             style="fill:none;stroke:#000000;stroke-width:4;stroke-linecap:round;stroke-linejoin:round;stroke-opacity:1"
             points="466.952,2526.94 466.952,2508.04 "
             id="polyline5" /><polyline
             clip-path="url(#clip870)"
             style="fill:none;stroke:#000000;stroke-width:4;stroke-linecap:round;stroke-linejoin:round;stroke-opacity:1"
             points="1215.93,2526.94 1215.93,2508.04 "
             id="polyline6" /><polyline
             clip-path="url(#clip870)"
             style="fill:none;stroke:#000000;stroke-width:4;stroke-linecap:round;stroke-linejoin:round;stroke-opacity:1"
             points="1964.91,2526.94 1964.91,2508.04 "
             id="polyline7" /><polyline
             clip-path="url(#clip870)"
             style="fill:none;stroke:#000000;stroke-width:4;stroke-linecap:round;stroke-linejoin:round;stroke-opacity:1"
             points="2713.9,2526.94 2713.9,2508.04 "
             id="polyline8" /><polyline
             clip-path="url(#clip870)"
             style="fill:none;stroke:#000000;stroke-width:4;stroke-linecap:round;stroke-linejoin:round;stroke-opacity:1"
             points="3462.88,2526.94 3462.88,2508.04 "
             id="polyline9" /><polyline
             clip-path="url(#clip870)"
             style="fill:none;stroke:#000000;stroke-width:4;stroke-linecap:round;stroke-linejoin:round;stroke-opacity:1"
             points="466.952,47.2441 466.952,66.1417 "
             id="polyline10" /><polyline
             clip-path="url(#clip870)"
             style="fill:none;stroke:#000000;stroke-width:4;stroke-linecap:round;stroke-linejoin:round;stroke-opacity:1"
             points="1215.93,47.2441 1215.93,66.1417 "
             id="polyline11" /><polyline
             clip-path="url(#clip870)"
             style="fill:none;stroke:#000000;stroke-width:4;stroke-linecap:round;stroke-linejoin:round;stroke-opacity:1"
             points="1964.91,47.2441 1964.91,66.1417 "
             id="polyline12" /><polyline
             clip-path="url(#clip870)"
             style="fill:none;stroke:#000000;stroke-width:4;stroke-linecap:round;stroke-linejoin:round;stroke-opacity:1"
             points="2713.9,47.2441 2713.9,66.1417 "
             id="polyline13" /><polyline
             clip-path="url(#clip870)"
             style="fill:none;stroke:#000000;stroke-width:4;stroke-linecap:round;stroke-linejoin:round;stroke-opacity:1"
             points="3462.88,47.2441 3462.88,66.1417 "
             id="polyline14" /><path
             clip-path="url(#clip870)"
             d="m 400.264,2629.36 h 14.322 v -49.43 l -15.581,3.12 v -7.99 l 15.495,-3.12 h 8.767 v 57.42 h 14.323 v 7.38 h -37.326 z"
             fill="#000000"
             fill-rule="nonzero"
             fill-opacity="1"
             id="path14" /><path
             clip-path="url(#clip870)"
             d="m 474.048,2577.71 q -6.771,0 -10.2,6.69 -3.385,6.64 -3.385,20 0,13.33 3.385,20.01 3.429,6.64 10.2,6.64 6.814,0 10.2,-6.64 3.428,-6.68 3.428,-20.01 0,-13.36 -3.428,-20 -3.386,-6.69 -10.2,-6.69 m 0,-6.94 q 10.894,0 16.623,8.64 5.773,8.59 5.773,24.99 0,16.37 -5.773,25 -5.729,8.6 -16.623,8.6 -10.894,0 -16.667,-8.6 -5.729,-8.63 -5.729,-25 0,-16.4 5.729,-24.99 5.773,-8.64 16.667,-8.64 z"
             fill="#000000"
             fill-rule="nonzero"
             fill-opacity="1"
             id="path15" /><path
             clip-path="url(#clip870)"
             d="m 527.086,2578.36 q -2.17,-3.73 -6.554,-3.73 -4.384,0 -6.554,3.73 -2.213,3.74 -2.213,11.2 0,7.51 2.213,11.24 2.17,3.74 6.554,3.74 4.384,0 6.554,-3.74 2.213,-3.73 2.213,-11.24 0,-7.46 -2.213,-11.2 m -6.554,-7.59 q 6.988,0 10.677,4.82 3.689,4.81 3.689,13.97 0,9.2 -3.689,14.02 -3.689,4.82 -10.677,4.82 -7.031,0 -10.72,-4.82 -3.69,-4.82 -3.69,-14.02 0,-9.16 3.69,-13.97 3.689,-4.82 10.72,-4.82 z"
             fill="#000000"
             fill-rule="nonzero"
             fill-opacity="1"
             id="path16" /><path
             clip-path="url(#clip870)"
             d="m 1150.13,2629.36 h 14.33 v -49.43 l -15.58,3.12 v -7.99 l 15.49,-3.12 h 8.77 v 57.42 h 14.32 v 7.38 h -37.33 z"
             fill="#000000"
             fill-rule="nonzero"
             fill-opacity="1"
             id="path17" /><path
             clip-path="url(#clip870)"
             d="m 1223.92,2577.71 q -6.77,0 -10.2,6.69 -3.39,6.64 -3.39,20 0,13.33 3.39,20.01 3.43,6.64 10.2,6.64 6.81,0 10.2,-6.64 3.43,-6.68 3.43,-20.01 0,-13.36 -3.43,-20 -3.39,-6.69 -10.2,-6.69 m 0,-6.94 q 10.89,0 16.62,8.64 5.78,8.59 5.78,24.99 0,16.37 -5.78,25 -5.73,8.6 -16.62,8.6 -10.89,0 -16.67,-8.6 -5.73,-8.63 -5.73,-25 0,-16.4 5.73,-24.99 5.78,-8.64 16.67,-8.64 z"
             fill="#000000"
             fill-rule="nonzero"
             fill-opacity="1"
             id="path18" /><path
             clip-path="url(#clip870)"
             d="m 1258.99,2602.97 h 8.85 v -26.52 l -9.68,1.78 v -5.03 l 9.99,-1.69 h 5.94 v 31.46 h 8.9 v 4.78 h -24 z"
             fill="#000000"
             fill-rule="nonzero"
             fill-opacity="1"
             id="path19" /><path
             clip-path="url(#clip870)"
             d="m 1899.49,2629.36 h 14.32 v -49.43 l -15.58,3.12 v -7.99 l 15.49,-3.12 h 8.77 v 57.42 h 14.32 v 7.38 h -37.32 z"
             fill="#000000"
             fill-rule="nonzero"
             fill-opacity="1"
             id="path20" /><path
             clip-path="url(#clip870)"
             d="m 1973.27,2577.71 q -6.77,0 -10.2,6.69 -3.39,6.64 -3.39,20 0,13.33 3.39,20.01 3.43,6.64 10.2,6.64 6.81,0 10.2,-6.64 3.43,-6.68 3.43,-20.01 0,-13.36 -3.43,-20 -3.39,-6.69 -10.2,-6.69 m 0,-6.94 q 10.89,0 16.62,8.64 5.78,8.59 5.78,24.99 0,16.37 -5.78,25 -5.73,8.6 -16.62,8.6 -10.89,0 -16.67,-8.6 -5.73,-8.63 -5.73,-25 0,-16.4 5.73,-24.99 5.78,-8.64 16.67,-8.64 z"
             fill="#000000"
             fill-rule="nonzero"
             fill-opacity="1"
             id="path21" /><path
             clip-path="url(#clip870)"
             d="m 2013.2,2602.8 h 18.4 v 4.95 h -25.95 v -4.78 q 1.47,-1.34 4.21,-3.77 14.93,-13.24 14.93,-17.32 0,-2.87 -2.26,-4.6 -2.26,-1.78 -5.94,-1.78 -2.26,0 -4.91,0.78 -2.65,0.74 -5.77,2.26 v -5.34 q 3.34,-1.22 6.21,-1.82 2.9,-0.61 5.38,-0.61 6.29,0 10.07,2.86 3.77,2.87 3.77,7.55 0,6.04 -14.36,18.36 -2.43,2.09 -3.78,3.26 z"
             fill="#000000"
             fill-rule="nonzero"
             fill-opacity="1"
             id="path22" /><path
             clip-path="url(#clip870)"
             d="m 2647.92,2629.36 h 14.33 v -49.43 l -15.58,3.12 v -7.99 l 15.49,-3.12 h 8.77 v 57.42 h 14.32 v 7.38 h -37.33 z"
             fill="#000000"
             fill-rule="nonzero"
             fill-opacity="1"
             id="path23" /><path
             clip-path="url(#clip870)"
             d="m 2721.71,2577.71 q -6.77,0 -10.2,6.69 -3.39,6.64 -3.39,20 0,13.33 3.39,20.01 3.43,6.64 10.2,6.64 6.81,0 10.2,-6.64 3.43,-6.68 3.43,-20.01 0,-13.36 -3.43,-20 -3.39,-6.69 -10.2,-6.69 m 0,-6.94 q 10.89,0 16.62,8.64 5.77,8.59 5.77,24.99 0,16.37 -5.77,25 -5.73,8.6 -16.62,8.6 -10.9,0 -16.67,-8.6 -5.73,-8.63 -5.73,-25 0,-16.4 5.73,-24.99 5.77,-8.64 16.67,-8.64 z"
             fill="#000000"
             fill-rule="nonzero"
             fill-opacity="1"
             id="path24" /><path
             clip-path="url(#clip870)"
             d="m 2772.75,2588.13 q 3.99,0.78 6.16,3.17 2.22,2.34 2.22,5.9 0,5.38 -4.13,8.29 -4.12,2.91 -11.8,2.91 -2.48,0 -5.21,-0.44 -2.69,-0.47 -5.73,-1.34 v -5.25 q 2.26,1.17 4.82,1.73 2.6,0.57 5.51,0.57 4.73,0 7.34,-1.7 2.6,-1.73 2.6,-4.77 0,-3.21 -2.43,-4.86 -2.39,-1.65 -7.08,-1.65 h -3.73 V 2586 h 4.08 q 4.08,0 6.17,-1.34 2.12,-1.39 2.12,-4 0,-2.51 -2.17,-3.82 -2.17,-1.34 -6.29,-1.34 -1.74,0 -3.95,0.39 -2.21,0.39 -5.73,1.39 v -4.99 q 3.17,-0.74 5.95,-1.13 2.77,-0.39 5.16,-0.39 6.25,0 9.9,2.56 3.69,2.56 3.69,6.86 0,2.99 -1.96,5.07 -1.95,2.09 -5.51,2.87 z"
             fill="#000000"
             fill-rule="nonzero"
             fill-opacity="1"
             id="path25" /><path
             clip-path="url(#clip870)"
             d="m 3396.06,2629.36 h 14.32 v -49.43 l -15.58,3.12 v -7.99 l 15.5,-3.12 h 8.76 v 57.42 h 14.33 v 7.38 h -37.33 z"
             fill="#000000"
             fill-rule="nonzero"
             fill-opacity="1"
             id="path26" /><path
             clip-path="url(#clip870)"
             d="m 3469.84,2577.71 q -6.77,0 -10.2,6.69 -3.38,6.64 -3.38,20 0,13.33 3.38,20.01 3.43,6.64 10.2,6.64 6.82,0 10.2,-6.64 3.43,-6.68 3.43,-20.01 0,-13.36 -3.43,-20 -3.38,-6.69 -10.2,-6.69 m 0,-6.94 q 10.9,0 16.63,8.64 5.77,8.59 5.77,24.99 0,16.37 -5.77,25 -5.73,8.6 -16.63,8.6 -10.89,0 -16.66,-8.6 -5.73,-8.63 -5.73,-25 0,-16.4 5.73,-24.99 5.77,-8.64 16.66,-8.64 z"
             fill="#000000"
             fill-rule="nonzero"
             fill-opacity="1"
             id="path27" /><path
             clip-path="url(#clip870)"
             d="m 3518.85,2576.76 -13.42,18.18 h 13.42 v -18.18 m -0.96,-5.25 h 7.21 v 23.43 h 5.86 v 4.73 h -5.86 v 8.08 h -6.25 v -8.08 h -17.97 v -5.25 z"
             fill="#000000"
             fill-rule="nonzero"
             fill-opacity="1"
             id="path28" /><path
             clip-path="url(#clip870)"
             d="m 1570.15,2734.32 v 28.49 h 16.88 q 8.49,0 12.55,-3.49 4.11,-3.55 4.11,-10.78 0,-7.3 -4.11,-10.73 -4.06,-3.49 -12.55,-3.49 h -16.88 m 0,-31.98 v 23.44 h 15.57 q 7.71,0 11.46,-2.87 3.8,-2.92 3.8,-8.85 0,-5.89 -3.8,-8.81 -3.75,-2.91 -11.46,-2.91 h -15.57 m -10.52,-8.65 h 26.88 q 12.03,0 18.54,5 6.51,5 6.51,14.22 0,7.14 -3.34,11.35 -3.33,4.22 -9.79,5.26 7.76,1.67 12.03,6.98 4.33,5.26 4.33,13.18 0,10.42 -7.09,16.09 -7.08,5.68 -20.15,5.68 h -27.92 z"
             fill="#000000"
             fill-rule="nonzero"
             fill-opacity="1"
             id="path29" /><path
             clip-path="url(#clip870)"
             d="m 1654.99,2719.84 q -7.7,0 -12.18,6.04 -4.48,5.99 -4.48,16.46 0,10.47 4.43,16.51 4.47,5.99 12.23,5.99 7.66,0 12.14,-6.04 4.48,-6.05 4.48,-16.46 0,-10.37 -4.48,-16.41 -4.48,-6.09 -12.14,-6.09 m 0,-8.13 q 12.5,0 19.64,8.13 7.14,8.12 7.14,22.5 0,14.32 -7.14,22.5 -7.14,8.12 -19.64,8.12 -12.55,0 -19.68,-8.12 -7.09,-8.18 -7.09,-22.5 0,-14.38 7.09,-22.5 7.13,-8.13 19.68,-8.13 z"
             fill="#000000"
             fill-rule="nonzero"
             fill-opacity="1"
             id="path30" /><path
             clip-path="url(#clip870)"
             d="m 1736.04,2721.97 v -31.56 h 9.58 v 81.04 h -9.58 v -8.75 q -3.02,5.21 -7.66,7.76 -4.58,2.5 -11.04,2.5 -10.57,0 -17.24,-8.44 -6.62,-8.43 -6.62,-22.18 0,-13.75 6.62,-22.19 6.67,-8.44 17.24,-8.44 6.46,0 11.04,2.55 4.64,2.5 7.66,7.71 m -32.66,20.37 q 0,10.57 4.32,16.61 4.38,5.99 11.98,5.99 7.61,0 11.98,-5.99 4.38,-6.04 4.38,-16.61 0,-10.58 -4.38,-16.56 -4.37,-6.05 -11.98,-6.05 -7.6,0 -11.98,6.05 -4.32,5.98 -4.32,16.56 z"
             fill="#000000"
             fill-rule="nonzero"
             fill-opacity="1"
             id="path31" /><path
             clip-path="url(#clip870)"
             d="m 1789.63,2776.87 q -4.06,10.42 -7.92,13.59 -3.85,3.18 -10.31,3.18 h -7.66 v -8.02 h 5.63 q 3.96,0 6.14,-1.88 2.19,-1.87 4.85,-8.85 l 1.72,-4.38 -23.6,-57.39 h 10.16 l 18.23,45.62 18.23,-45.62 h 10.15 z"
             fill="#000000"
             fill-rule="nonzero"
             fill-opacity="1"
             id="path32" /><path
             clip-path="url(#clip870)"
             d="m 1907.81,2724.32 q 3.59,-6.46 8.59,-9.53 5,-3.08 11.77,-3.08 9.11,0 14.06,6.41 4.95,6.35 4.95,18.12 v 35.21 h -9.63 v -34.89 q 0,-8.39 -2.97,-12.45 -2.97,-4.06 -9.07,-4.06 -7.44,0 -11.77,4.94 -4.32,4.95 -4.32,13.49 v 32.97 h -9.63 v -34.89 q 0,-8.44 -2.97,-12.45 -2.97,-4.06 -9.17,-4.06 -7.34,0 -11.67,5 -4.32,4.94 -4.32,13.43 v 32.97 h -9.64 v -58.33 h 9.64 v 9.06 q 3.28,-5.36 7.86,-7.92 4.59,-2.55 10.89,-2.55 6.35,0 10.78,3.23 4.48,3.23 6.62,9.38 z"
             fill="#000000"
             fill-rule="nonzero"
             fill-opacity="1"
             id="path33" /><path
             clip-path="url(#clip870)"
             d="m 1992.81,2742.13 q -11.62,0 -16.1,2.66 -4.48,2.65 -4.48,9.06 0,5.1 3.34,8.12 3.38,2.97 9.16,2.97 7.97,0 12.76,-5.62 4.85,-5.68 4.85,-15.06 v -2.13 h -9.53 m 19.11,-3.96 v 33.28 h -9.58 v -8.85 q -3.28,5.31 -8.18,7.86 -4.9,2.5 -11.98,2.5 -8.96,0 -14.27,-5 -5.26,-5.05 -5.26,-13.49 0,-9.84 6.56,-14.84 6.62,-5 19.69,-5 h 13.44 v -0.94 q 0,-6.61 -4.38,-10.21 -4.32,-3.64 -12.19,-3.64 -5,0 -9.74,1.2 -4.73,1.19 -9.11,3.59 v -8.85 q 5.26,-2.04 10.21,-3.03 4.95,-1.04 9.63,-1.04 12.66,0 18.91,6.57 6.25,6.56 6.25,19.89 z"
             fill="#000000"
             fill-rule="nonzero"
             fill-opacity="1"
             id="path34" /><path
             clip-path="url(#clip870)"
             d="m 2068.85,2714.84 v 9.06 q -4.07,-2.08 -8.44,-3.12 -4.38,-1.05 -9.06,-1.05 -7.14,0 -10.73,2.19 -3.54,2.19 -3.54,6.56 0,3.34 2.55,5.26 2.55,1.88 10.26,3.6 l 3.28,0.73 q 10.21,2.18 14.48,6.19 4.32,3.96 4.32,11.1 0,8.12 -6.46,12.86 -6.4,4.74 -17.65,4.74 -4.69,0 -9.79,-0.94 -5.06,-0.88 -10.68,-2.7 v -9.9 q 5.31,2.76 10.47,4.17 5.15,1.35 10.21,1.35 6.77,0 10.41,-2.29 3.65,-2.34 3.65,-6.56 0,-3.91 -2.66,-5.99 -2.6,-2.09 -11.51,-4.01 l -3.33,-0.78 q -8.91,-1.88 -12.87,-5.73 -3.95,-3.91 -3.95,-10.68 0,-8.23 5.83,-12.71 5.83,-4.48 16.56,-4.48 5.31,0 10,0.78 4.69,0.79 8.65,2.35 z"
             fill="#000000"
             fill-rule="nonzero"
             fill-opacity="1"
             id="path35" /><path
             clip-path="url(#clip870)"
             d="m 2124.42,2714.84 v 9.06 q -4.06,-2.08 -8.44,-3.12 -4.37,-1.05 -9.06,-1.05 -7.14,0 -10.73,2.19 -3.54,2.19 -3.54,6.56 0,3.34 2.55,5.26 2.55,1.88 10.26,3.6 l 3.28,0.73 q 10.21,2.18 14.48,6.19 4.32,3.96 4.32,11.1 0,8.12 -6.45,12.86 -6.41,4.74 -17.66,4.74 -4.69,0 -9.79,-0.94 -5.05,-0.88 -10.68,-2.7 v -9.9 q 5.31,2.76 10.47,4.17 5.16,1.35 10.21,1.35 6.77,0 10.41,-2.29 3.65,-2.34 3.65,-6.56 0,-3.91 -2.66,-5.99 -2.6,-2.09 -11.51,-4.01 l -3.33,-0.78 q -8.91,-1.88 -12.86,-5.73 -3.96,-3.91 -3.96,-10.68 0,-8.23 5.83,-12.71 5.83,-4.48 16.56,-4.48 5.32,0 10,0.78 4.69,0.79 8.65,2.35 z"
             fill="#000000"
             fill-rule="nonzero"
             fill-opacity="1"
             id="path36" /><path
             clip-path="url(#clip870)"
             d="m 2199.73,2690.51 q -6.98,11.98 -10.36,23.7 -3.39,11.72 -3.39,23.75 0,12.03 3.39,23.86 3.43,11.77 10.36,23.69 h -8.33 q -7.81,-12.24 -11.72,-24.06 -3.85,-11.82 -3.85,-23.49 0,-11.61 3.85,-23.38 3.85,-11.77 11.72,-24.07 z"
             fill="#000000"
             fill-rule="nonzero"
             fill-opacity="1"
             id="path37" /><path
             clip-path="url(#clip870)"
             d="m 2217.96,2690.41 h 9.64 v 47.86 l 28.59,-25.15 h 12.24 l -30.94,27.29 32.24,31.04 h -12.5 l -29.63,-28.49 v 28.49 h -9.64 z"
             fill="#000000"
             fill-rule="nonzero"
             fill-opacity="1"
             id="path38" /><path
             clip-path="url(#clip870)"
             d="m 2318.48,2741.61 q 0,-10.42 -4.32,-16.15 -4.27,-5.73 -12.03,-5.73 -7.71,0 -12.03,5.73 -4.28,5.73 -4.28,16.15 0,10.36 4.28,16.09 4.32,5.73 12.03,5.73 7.76,0 12.03,-5.73 4.32,-5.73 4.32,-16.09 m 9.58,22.6 q 0,14.9 -6.61,22.14 -6.62,7.29 -20.26,7.29 -5.05,0 -9.53,-0.78 -4.48,-0.73 -8.7,-2.29 v -9.33 q 4.22,2.3 8.33,3.39 4.12,1.09 8.39,1.09 9.43,0 14.11,-4.95 4.69,-4.89 4.69,-14.84 v -4.74 q -2.97,5.16 -7.6,7.71 -4.64,2.55 -11.1,2.55 -10.73,0 -17.29,-8.18 -6.56,-8.17 -6.56,-21.66 0,-13.54 6.56,-21.72 6.56,-8.18 17.29,-8.18 6.46,0 11.1,2.55 4.63,2.56 7.6,7.71 v -8.85 h 9.58 z"
             fill="#000000"
             fill-rule="nonzero"
             fill-opacity="1"
             id="path39" /><path
             clip-path="url(#clip870)"
             d="m 2346.29,2690.51 h 8.34 q 7.81,12.3 11.66,24.07 3.91,11.77 3.91,23.38 0,11.67 -3.91,23.49 -3.85,11.82 -11.66,24.06 h -8.34 q 6.93,-11.92 10.32,-23.69 3.43,-11.83 3.43,-23.86 0,-12.03 -3.43,-23.75 -3.39,-11.72 -10.32,-23.7 z"
             fill="#000000"
             fill-rule="nonzero"
             fill-opacity="1"
             id="path40" /><polyline
             clip-path="url(#clip870)"
             style="fill:none;stroke:#000000;stroke-width:4;stroke-linecap:round;stroke-linejoin:round;stroke-opacity:1"
             points="377.074,2526.94 377.074,47.2441 "
             id="polyline40" /><polyline
             clip-path="url(#clip870)"
             style="fill:none;stroke:#000000;stroke-width:4;stroke-linecap:round;stroke-linejoin:round;stroke-opacity:1"
             points="3552.76,2526.94 3552.76,47.2441 "
             id="polyline41" /><polyline
             clip-path="url(#clip870)"
             style="fill:none;stroke:#000000;stroke-width:4;stroke-linecap:round;stroke-linejoin:round;stroke-opacity:1"
             points="377.074,1618.92 395.971,1618.92 "
             id="polyline42" /><polyline
             clip-path="url(#clip870)"
             style="fill:none;stroke:#000000;stroke-width:4;stroke-linecap:round;stroke-linejoin:round;stroke-opacity:1"
             points="377.074,1156.59 395.971,1156.59 "
             id="polyline43" /><polyline
             clip-path="url(#clip870)"
             style="fill:none;stroke:#000000;stroke-width:4;stroke-linecap:round;stroke-linejoin:round;stroke-opacity:1"
             points="377.074,694.273 395.971,694.273 "
             id="polyline44" /><polyline
             clip-path="url(#clip870)"
             style="fill:none;stroke:#000000;stroke-width:4;stroke-linecap:round;stroke-linejoin:round;stroke-opacity:1"
             points="3552.76,1618.92 3533.86,1618.92 "
             id="polyline45" /><polyline
             clip-path="url(#clip870)"
             style="fill:none;stroke:#000000;stroke-width:4;stroke-linecap:round;stroke-linejoin:round;stroke-opacity:1"
             points="3552.76,1156.59 3533.86,1156.59 "
             id="polyline46" /><polyline
             clip-path="url(#clip870)"
             style="fill:none;stroke:#000000;stroke-width:4;stroke-linecap:round;stroke-linejoin:round;stroke-opacity:1"
             points="3552.76,694.273 3533.86,694.273 "
             id="polyline47" /><path
             clip-path="url(#clip870)"
             d="m 151.46,1623.41 h 23.394 v 7.12 H 151.46 Z"
             fill="#000000"
             fill-rule="nonzero"
             fill-opacity="1"
             id="path47" /><path
             clip-path="url(#clip870)"
             d="m 190.219,1643.94 h 14.322 v -49.44 l -15.581,3.13 v -7.99 l 15.495,-3.12 h 8.767 v 57.42 h 14.323 v 7.38 h -37.326 z"
             fill="#000000"
             fill-rule="nonzero"
             fill-opacity="1"
             id="path48" /><path
             clip-path="url(#clip870)"
             d="m 264.003,1592.29 q -6.771,0 -10.2,6.68 -3.385,6.64 -3.385,20.01 0,13.33 3.385,20.01 3.429,6.64 10.2,6.64 6.814,0 10.2,-6.64 3.428,-6.68 3.428,-20.01 0,-13.37 -3.428,-20.01 -3.386,-6.68 -10.2,-6.68 m 0,-6.94 q 10.894,0 16.623,8.63 5.773,8.6 5.773,25 0,16.36 -5.773,25 -5.729,8.6 -16.623,8.6 -10.894,0 -16.667,-8.6 -5.729,-8.64 -5.729,-25 0,-16.4 5.729,-25 5.773,-8.63 16.667,-8.63 z"
             fill="#000000"
             fill-rule="nonzero"
             fill-opacity="1"
             id="path49" /><path
             clip-path="url(#clip870)"
             d="m 299.072,1617.55 h 8.854 v -26.52 l -9.678,1.78 v -5.03 l 9.982,-1.7 h 5.946 v 31.47 h 8.898 v 4.77 h -24.002 z"
             fill="#000000"
             fill-rule="nonzero"
             fill-opacity="1"
             id="path50" /><path
             clip-path="url(#clip870)"
             d="m 300.678,1129.97 q -6.771,0 -10.199,6.68 -3.386,6.64 -3.386,20.01 0,13.32 3.386,20.01 3.428,6.64 10.199,6.64 6.814,0 10.2,-6.64 3.429,-6.69 3.429,-20.01 0,-13.37 -3.429,-20.01 -3.386,-6.68 -10.2,-6.68 m 0,-6.95 q 10.894,0 16.623,8.64 5.773,8.59 5.773,25 0,16.36 -5.773,25 -5.729,8.59 -16.623,8.59 -10.894,0 -16.666,-8.59 -5.73,-8.64 -5.73,-25 0,-16.41 5.73,-25 5.772,-8.64 16.666,-8.64 z"
             fill="#000000"
             fill-rule="nonzero"
             fill-opacity="1"
             id="path51" /><path
             clip-path="url(#clip870)"
             d="m 190.219,719.294 h 14.322 v -49.435 l -15.581,3.125 v -7.986 l 15.495,-3.125 h 8.767 v 57.421 h 14.323 v 7.379 h -37.326 z"
             fill="#000000"
             fill-rule="nonzero"
             fill-opacity="1"
             id="path52" /><path
             clip-path="url(#clip870)"
             d="m 264.003,667.645 q -6.771,0 -10.2,6.684 -3.385,6.641 -3.385,20.009 0,13.324 3.385,20.008 3.429,6.641 10.2,6.641 6.814,0 10.2,-6.641 3.428,-6.684 3.428,-20.008 0,-13.368 -3.428,-20.009 -3.386,-6.684 -10.2,-6.684 m 0,-6.944 q 10.894,0 16.623,8.637 5.773,8.594 5.773,25 0,16.363 -5.773,25 -5.729,8.593 -16.623,8.593 -10.894,0 -16.667,-8.593 -5.729,-8.637 -5.729,-25 0,-16.406 5.729,-25 5.773,-8.637 16.667,-8.637 z"
             fill="#000000"
             fill-rule="nonzero"
             fill-opacity="1"
             id="path53" /><path
             clip-path="url(#clip870)"
             d="m 299.072,692.906 h 8.854 v -26.519 l -9.678,1.779 v -5.035 l 9.982,-1.692 h 5.946 v 31.467 h 8.898 v 4.774 h -24.002 z"
             fill="#000000"
             fill-rule="nonzero"
             fill-opacity="1"
             id="path54" /><polyline
             clip-path="url(#clip872)"
             style="fill:none;stroke:#1b9e77;stroke-width:20;stroke-linecap:round;stroke-linejoin:round;stroke-opacity:1"
             points="466.952,1752.81 542.127,1760.37 615.742,1768.19 692.418,1776.94 766.3,1789.11 841.208,1802.94 916.253,1818.89 991.117,1835.74 1066.16,1853.41 1140.9,1872.25 1215.93,1892.72 1290.85,1911.98 1365.75,1933.27 1440.58,1954.88 1515.54,1976.16 1590.4,1999.02 1665.32,2020.84 1740.23,2044.09 1815.14,2066.1 1890.01,2088.45 1964.91,2111.12 2039.81,2134.82 2114.71,2155.96 2189.62,2179.96 2264.51,2201.63 2339.41,2222.49 2414.31,2241.99 2489.2,2241.71 2564.1,2290.17 2639,2305.2 2713.9,2308.57 2788.8,2332.06 2863.69,2354.25 2938.59,2397.46 3013.49,2400.44 3088.39,2421.92 3163.29,2445.31 3238.18,2464.05 3313.08,2485.6 3387.98,2507.15 3462.88,2526.94 "
             id="polyline71" /><polyline
             clip-path="url(#clip872)"
             style="fill:none;stroke:#7570b3;stroke-width:20;stroke-linecap:round;stroke-linejoin:round;stroke-opacity:1"
             points="466.952,1736.81 542.127,1738.73 615.742,1738.79 692.418,1737.96 766.3,1737.59 841.208,1738.47 916.253,1738.97 991.117,1738.03 1066.16,1733.77 1140.9,1723.69 1215.93,1702.91 1290.85,1655.03 1365.75,1187.13 1440.58,618.808 1515.54,525.238 1590.4,462.178 1665.32,410.797 1740.23,365.674 1815.14,325.354 1890.01,288.474 1964.91,254.38 2039.81,222.668 2114.71,193.979 2189.62,167.548 2264.51,143.767 2339.41,122.593 2414.31,103.887 2489.2,87.7235 2564.1,74.0642 2639,62.6422 2713.9,53.6518 2788.8,47.2441 2863.69,61.108 2938.59,121.321 3013.49,1975.54 3088.39,2237.73 3163.29,2316.9 3238.18,2369.6 3313.08,2411.33 3387.98,2446.93 3462.88,2478.68 "
             id="polyline72" /><polyline
             clip-path="url(#clip872)"
             style="fill:none;stroke:#d95f02;stroke-width:20;stroke-linecap:round;stroke-linejoin:round;stroke-opacity:1"
             points="466.952,1742.48 542.127,1739.43 615.742,1732.5 692.418,1722.7 766.3,1712.35 841.208,1701.91 916.253,1689.42 991.117,1670.61 1066.16,1643.23 1140.9,1598.3 1215.93,1502 1290.85,853.255 1365.75,728.866 1440.58,678.336 1515.54,656.923 1590.4,653.071 1665.32,674.775 1740.23,820.653 1815.14,1657.28 1890.01,1762.26 1964.91,1834.53 2039.81,1890.2 2114.71,1938.44 2189.62,1980.79 2264.51,2020.02 2339.41,2055.92 2414.31,2089.66 2489.2,2121.93 2564.1,2152.77 2639,2182.55 2713.9,2211.16 2788.8,2238.98 2863.69,2276.77 2938.59,2318.42 3013.49,2354.11 3088.39,2385.99 3163.29,2415.27 3238.18,2442.55 3313.08,2468.46 3387.98,2493.15 3462.88,2516.95 "
             id="polyline73" /><polyline
             clip-path="url(#clip872)"
             style="fill:none;stroke:#ff0000;stroke-width:8;stroke-linecap:round;stroke-linejoin:round;stroke-opacity:1"
             stroke-dasharray="32, 20"
             points="-2798.61,1156.59 6728.44,1156.59 "
             id="polyline74" /></g></g><text
         xml:space="preserve"
         style="font-size:17.3333px;font-family:Helvetica;-inkscape-font-specification:Helvetica;writing-mode:lr-tb;direction:ltr;fill:#000302;fill-rule:evenodd;stroke:#000000;stroke-width:0"
         x="718.45721"
         y="230.33618"
         id="text1"><tspan
           sodipodi:role="line"
           id="tspan1"
           x="718.45721"
           y="230.33618">Open Habitat</tspan></text><text
         xml:space="preserve"
         style="font-size:17.3333px;font-family:Helvetica;-inkscape-font-specification:Helvetica;writing-mode:lr-tb;direction:ltr;fill:#000302;fill-rule:evenodd;stroke:#000000;stroke-width:0"
         x="222.50301"
         y="230.33801"
         id="text1-8"><tspan
           sodipodi:role="line"
           id="tspan1-7"
           x="222.50301"
           y="230.33801">Closed Habitat</tspan></text><g
         id="g2"
         transform="matrix(0.13890485,0,0,0.13890485,6.8311143,241.24233)"><path
           clip-path="url(#clip840)"
           d="M 0,2800 H 3600 V 0 H 0 Z"
           fill="#ffffff"
           fill-rule="evenodd"
           fill-opacity="1"
           id="path1-3" /><path
           clip-path="url(#clip840)"
           d="M 377.074,2526.94 H 3552.76 V 47.2441 H 377.074 Z"
           fill="#ffffff"
           fill-rule="evenodd"
           fill-opacity="1"
           id="path2-0" /><polyline
           clip-path="url(#clip840)"
           style="fill:none;stroke:#000000;stroke-width:4;stroke-linecap:round;stroke-linejoin:round;stroke-opacity:1"
           points="377.074,2526.94 3552.76,2526.94 "
           id="polyline3-2" /><polyline
           clip-path="url(#clip840)"
           style="fill:none;stroke:#000000;stroke-width:4;stroke-linecap:round;stroke-linejoin:round;stroke-opacity:1"
           points="377.074,47.2441 3552.76,47.2441 "
           id="polyline4-2" /><polyline
           clip-path="url(#clip840)"
           style="fill:none;stroke:#000000;stroke-width:4;stroke-linecap:round;stroke-linejoin:round;stroke-opacity:1"
           points="466.952,2526.94 466.952,2508.04 "
           id="polyline5-7" /><polyline
           clip-path="url(#clip840)"
           style="fill:none;stroke:#000000;stroke-width:4;stroke-linecap:round;stroke-linejoin:round;stroke-opacity:1"
           points="1215.93,2526.94 1215.93,2508.04 "
           id="polyline6-3" /><polyline
           clip-path="url(#clip840)"
           style="fill:none;stroke:#000000;stroke-width:4;stroke-linecap:round;stroke-linejoin:round;stroke-opacity:1"
           points="1964.91,2526.94 1964.91,2508.04 "
           id="polyline7-7" /><polyline
           clip-path="url(#clip840)"
           style="fill:none;stroke:#000000;stroke-width:4;stroke-linecap:round;stroke-linejoin:round;stroke-opacity:1"
           points="2713.9,2526.94 2713.9,2508.04 "
           id="polyline8-9" /><polyline
           clip-path="url(#clip840)"
           style="fill:none;stroke:#000000;stroke-width:4;stroke-linecap:round;stroke-linejoin:round;stroke-opacity:1"
           points="3462.88,2526.94 3462.88,2508.04 "
           id="polyline9-0" /><polyline
           clip-path="url(#clip840)"
           style="fill:none;stroke:#000000;stroke-width:4;stroke-linecap:round;stroke-linejoin:round;stroke-opacity:1"
           points="466.952,47.2441 466.952,66.1417 "
           id="polyline10-2" /><polyline
           clip-path="url(#clip840)"
           style="fill:none;stroke:#000000;stroke-width:4;stroke-linecap:round;stroke-linejoin:round;stroke-opacity:1"
           points="1215.93,47.2441 1215.93,66.1417 "
           id="polyline11-3" /><polyline
           clip-path="url(#clip840)"
           style="fill:none;stroke:#000000;stroke-width:4;stroke-linecap:round;stroke-linejoin:round;stroke-opacity:1"
           points="1964.91,47.2441 1964.91,66.1417 "
           id="polyline12-9" /><polyline
           clip-path="url(#clip840)"
           style="fill:none;stroke:#000000;stroke-width:4;stroke-linecap:round;stroke-linejoin:round;stroke-opacity:1"
           points="2713.9,47.2441 2713.9,66.1417 "
           id="polyline13-9" /><polyline
           clip-path="url(#clip840)"
           style="fill:none;stroke:#000000;stroke-width:4;stroke-linecap:round;stroke-linejoin:round;stroke-opacity:1"
           points="3462.88,47.2441 3462.88,66.1417 "
           id="polyline14-7" /><path
           clip-path="url(#clip840)"
           d="m 400.264,2629.36 h 14.322 v -49.43 l -15.581,3.12 v -7.99 l 15.495,-3.12 h 8.767 v 57.42 h 14.323 v 7.38 h -37.326 z"
           fill="#000000"
           fill-rule="nonzero"
           fill-opacity="1"
           id="path14-0" /><path
           clip-path="url(#clip840)"
           d="m 474.048,2577.71 q -6.771,0 -10.2,6.69 -3.385,6.64 -3.385,20 0,13.33 3.385,20.01 3.429,6.64 10.2,6.64 6.814,0 10.2,-6.64 3.428,-6.68 3.428,-20.01 0,-13.36 -3.428,-20 -3.386,-6.69 -10.2,-6.69 m 0,-6.94 q 10.894,0 16.623,8.64 5.773,8.59 5.773,24.99 0,16.37 -5.773,25 -5.729,8.6 -16.623,8.6 -10.894,0 -16.667,-8.6 -5.729,-8.63 -5.729,-25 0,-16.4 5.729,-24.99 5.773,-8.64 16.667,-8.64 z"
           fill="#000000"
           fill-rule="nonzero"
           fill-opacity="1"
           id="path15-3" /><path
           clip-path="url(#clip840)"
           d="m 527.086,2578.36 q -2.17,-3.73 -6.554,-3.73 -4.384,0 -6.554,3.73 -2.213,3.74 -2.213,11.2 0,7.51 2.213,11.24 2.17,3.74 6.554,3.74 4.384,0 6.554,-3.74 2.213,-3.73 2.213,-11.24 0,-7.46 -2.213,-11.2 m -6.554,-7.59 q 6.988,0 10.677,4.82 3.689,4.81 3.689,13.97 0,9.2 -3.689,14.02 -3.689,4.82 -10.677,4.82 -7.031,0 -10.72,-4.82 -3.69,-4.82 -3.69,-14.02 0,-9.16 3.69,-13.97 3.689,-4.82 10.72,-4.82 z"
           fill="#000000"
           fill-rule="nonzero"
           fill-opacity="1"
           id="path16-9" /><path
           clip-path="url(#clip840)"
           d="m 1150.13,2629.36 h 14.33 v -49.43 l -15.58,3.12 v -7.99 l 15.49,-3.12 h 8.77 v 57.42 h 14.32 v 7.38 h -37.33 z"
           fill="#000000"
           fill-rule="nonzero"
           fill-opacity="1"
           id="path17-8" /><path
           clip-path="url(#clip840)"
           d="m 1223.92,2577.71 q -6.77,0 -10.2,6.69 -3.39,6.64 -3.39,20 0,13.33 3.39,20.01 3.43,6.64 10.2,6.64 6.81,0 10.2,-6.64 3.43,-6.68 3.43,-20.01 0,-13.36 -3.43,-20 -3.39,-6.69 -10.2,-6.69 m 0,-6.94 q 10.89,0 16.62,8.64 5.78,8.59 5.78,24.99 0,16.37 -5.78,25 -5.73,8.6 -16.62,8.6 -10.89,0 -16.67,-8.6 -5.73,-8.63 -5.73,-25 0,-16.4 5.73,-24.99 5.78,-8.64 16.67,-8.64 z"
           fill="#000000"
           fill-rule="nonzero"
           fill-opacity="1"
           id="path18-6" /><path
           clip-path="url(#clip840)"
           d="m 1258.99,2602.97 h 8.85 v -26.52 l -9.68,1.78 v -5.03 l 9.99,-1.69 h 5.94 v 31.46 h 8.9 v 4.78 h -24 z"
           fill="#000000"
           fill-rule="nonzero"
           fill-opacity="1"
           id="path19-5" /><path
           clip-path="url(#clip840)"
           d="m 1899.49,2629.36 h 14.32 v -49.43 l -15.58,3.12 v -7.99 l 15.49,-3.12 h 8.77 v 57.42 h 14.32 v 7.38 h -37.32 z"
           fill="#000000"
           fill-rule="nonzero"
           fill-opacity="1"
           id="path20-7" /><path
           clip-path="url(#clip840)"
           d="m 1973.27,2577.71 q -6.77,0 -10.2,6.69 -3.39,6.64 -3.39,20 0,13.33 3.39,20.01 3.43,6.64 10.2,6.64 6.81,0 10.2,-6.64 3.43,-6.68 3.43,-20.01 0,-13.36 -3.43,-20 -3.39,-6.69 -10.2,-6.69 m 0,-6.94 q 10.89,0 16.62,8.64 5.78,8.59 5.78,24.99 0,16.37 -5.78,25 -5.73,8.6 -16.62,8.6 -10.89,0 -16.67,-8.6 -5.73,-8.63 -5.73,-25 0,-16.4 5.73,-24.99 5.78,-8.64 16.67,-8.64 z"
           fill="#000000"
           fill-rule="nonzero"
           fill-opacity="1"
           id="path21-6" /><path
           clip-path="url(#clip840)"
           d="m 2013.2,2602.8 h 18.4 v 4.95 h -25.95 v -4.78 q 1.47,-1.34 4.21,-3.77 14.93,-13.24 14.93,-17.32 0,-2.87 -2.26,-4.6 -2.26,-1.78 -5.94,-1.78 -2.26,0 -4.91,0.78 -2.65,0.74 -5.77,2.26 v -5.34 q 3.34,-1.22 6.21,-1.82 2.9,-0.61 5.38,-0.61 6.29,0 10.07,2.86 3.77,2.87 3.77,7.55 0,6.04 -14.36,18.36 -2.43,2.09 -3.78,3.26 z"
           fill="#000000"
           fill-rule="nonzero"
           fill-opacity="1"
           id="path22-2" /><path
           clip-path="url(#clip840)"
           d="m 2647.92,2629.36 h 14.33 v -49.43 l -15.58,3.12 v -7.99 l 15.49,-3.12 h 8.77 v 57.42 h 14.32 v 7.38 h -37.33 z"
           fill="#000000"
           fill-rule="nonzero"
           fill-opacity="1"
           id="path23-7" /><path
           clip-path="url(#clip840)"
           d="m 2721.71,2577.71 q -6.77,0 -10.2,6.69 -3.39,6.64 -3.39,20 0,13.33 3.39,20.01 3.43,6.64 10.2,6.64 6.81,0 10.2,-6.64 3.43,-6.68 3.43,-20.01 0,-13.36 -3.43,-20 -3.39,-6.69 -10.2,-6.69 m 0,-6.94 q 10.89,0 16.62,8.64 5.77,8.59 5.77,24.99 0,16.37 -5.77,25 -5.73,8.6 -16.62,8.6 -10.9,0 -16.67,-8.6 -5.73,-8.63 -5.73,-25 0,-16.4 5.73,-24.99 5.77,-8.64 16.67,-8.64 z"
           fill="#000000"
           fill-rule="nonzero"
           fill-opacity="1"
           id="path24-0" /><path
           clip-path="url(#clip840)"
           d="m 2772.75,2588.13 q 3.99,0.78 6.16,3.17 2.22,2.34 2.22,5.9 0,5.38 -4.13,8.29 -4.12,2.91 -11.8,2.91 -2.48,0 -5.21,-0.44 -2.69,-0.47 -5.73,-1.34 v -5.25 q 2.26,1.17 4.82,1.73 2.6,0.57 5.51,0.57 4.73,0 7.34,-1.7 2.6,-1.73 2.6,-4.77 0,-3.21 -2.43,-4.86 -2.39,-1.65 -7.08,-1.65 h -3.73 V 2586 h 4.08 q 4.08,0 6.17,-1.34 2.12,-1.39 2.12,-4 0,-2.51 -2.17,-3.82 -2.17,-1.34 -6.29,-1.34 -1.74,0 -3.95,0.39 -2.21,0.39 -5.73,1.39 v -4.99 q 3.17,-0.74 5.95,-1.13 2.77,-0.39 5.16,-0.39 6.25,0 9.9,2.56 3.69,2.56 3.69,6.86 0,2.99 -1.96,5.07 -1.95,2.09 -5.51,2.87 z"
           fill="#000000"
           fill-rule="nonzero"
           fill-opacity="1"
           id="path25-3" /><path
           clip-path="url(#clip840)"
           d="m 3396.06,2629.36 h 14.32 v -49.43 l -15.58,3.12 v -7.99 l 15.5,-3.12 h 8.76 v 57.42 h 14.33 v 7.38 h -37.33 z"
           fill="#000000"
           fill-rule="nonzero"
           fill-opacity="1"
           id="path26-9" /><path
           clip-path="url(#clip840)"
           d="m 3469.84,2577.71 q -6.77,0 -10.2,6.69 -3.38,6.64 -3.38,20 0,13.33 3.38,20.01 3.43,6.64 10.2,6.64 6.82,0 10.2,-6.64 3.43,-6.68 3.43,-20.01 0,-13.36 -3.43,-20 -3.38,-6.69 -10.2,-6.69 m 0,-6.94 q 10.9,0 16.63,8.64 5.77,8.59 5.77,24.99 0,16.37 -5.77,25 -5.73,8.6 -16.63,8.6 -10.89,0 -16.66,-8.6 -5.73,-8.63 -5.73,-25 0,-16.4 5.73,-24.99 5.77,-8.64 16.66,-8.64 z"
           fill="#000000"
           fill-rule="nonzero"
           fill-opacity="1"
           id="path27-9" /><path
           clip-path="url(#clip840)"
           d="m 3518.85,2576.76 -13.42,18.18 h 13.42 v -18.18 m -0.96,-5.25 h 7.21 v 23.43 h 5.86 v 4.73 h -5.86 v 8.08 h -6.25 v -8.08 h -17.97 v -5.25 z"
           fill="#000000"
           fill-rule="nonzero"
           fill-opacity="1"
           id="path28-9" /><path
           clip-path="url(#clip840)"
           d="m 1570.15,2734.32 v 28.49 h 16.88 q 8.49,0 12.55,-3.49 4.11,-3.55 4.11,-10.78 0,-7.3 -4.11,-10.73 -4.06,-3.49 -12.55,-3.49 h -16.88 m 0,-31.98 v 23.44 h 15.57 q 7.71,0 11.46,-2.87 3.8,-2.92 3.8,-8.85 0,-5.89 -3.8,-8.81 -3.75,-2.91 -11.46,-2.91 h -15.57 m -10.52,-8.65 h 26.88 q 12.03,0 18.54,5 6.51,5 6.51,14.22 0,7.14 -3.34,11.35 -3.33,4.22 -9.79,5.26 7.76,1.67 12.03,6.98 4.33,5.26 4.33,13.18 0,10.42 -7.09,16.09 -7.08,5.68 -20.15,5.68 h -27.92 z"
           fill="#000000"
           fill-rule="nonzero"
           fill-opacity="1"
           id="path29-1" /><path
           clip-path="url(#clip840)"
           d="m 1654.99,2719.84 q -7.7,0 -12.18,6.04 -4.48,5.99 -4.48,16.46 0,10.47 4.43,16.51 4.47,5.99 12.23,5.99 7.66,0 12.14,-6.04 4.48,-6.05 4.48,-16.46 0,-10.37 -4.48,-16.41 -4.48,-6.09 -12.14,-6.09 m 0,-8.13 q 12.5,0 19.64,8.13 7.14,8.12 7.14,22.5 0,14.32 -7.14,22.5 -7.14,8.12 -19.64,8.12 -12.55,0 -19.68,-8.12 -7.09,-8.18 -7.09,-22.5 0,-14.38 7.09,-22.5 7.13,-8.13 19.68,-8.13 z"
           fill="#000000"
           fill-rule="nonzero"
           fill-opacity="1"
           id="path30-7" /><path
           clip-path="url(#clip840)"
           d="m 1736.04,2721.97 v -31.56 h 9.58 v 81.04 h -9.58 v -8.75 q -3.02,5.21 -7.66,7.76 -4.58,2.5 -11.04,2.5 -10.57,0 -17.24,-8.44 -6.62,-8.43 -6.62,-22.18 0,-13.75 6.62,-22.19 6.67,-8.44 17.24,-8.44 6.46,0 11.04,2.55 4.64,2.5 7.66,7.71 m -32.66,20.37 q 0,10.57 4.32,16.61 4.38,5.99 11.98,5.99 7.61,0 11.98,-5.99 4.38,-6.04 4.38,-16.61 0,-10.58 -4.38,-16.56 -4.37,-6.05 -11.98,-6.05 -7.6,0 -11.98,6.05 -4.32,5.98 -4.32,16.56 z"
           fill="#000000"
           fill-rule="nonzero"
           fill-opacity="1"
           id="path31-2" /><path
           clip-path="url(#clip840)"
           d="m 1789.63,2776.87 q -4.06,10.42 -7.92,13.59 -3.85,3.18 -10.31,3.18 h -7.66 v -8.02 h 5.63 q 3.96,0 6.14,-1.88 2.19,-1.87 4.85,-8.85 l 1.72,-4.38 -23.6,-57.39 h 10.16 l 18.23,45.62 18.23,-45.62 h 10.15 z"
           fill="#000000"
           fill-rule="nonzero"
           fill-opacity="1"
           id="path32-3" /><path
           clip-path="url(#clip840)"
           d="m 1907.81,2724.32 q 3.59,-6.46 8.59,-9.53 5,-3.08 11.77,-3.08 9.11,0 14.06,6.41 4.95,6.35 4.95,18.12 v 35.21 h -9.63 v -34.89 q 0,-8.39 -2.97,-12.45 -2.97,-4.06 -9.07,-4.06 -7.44,0 -11.77,4.94 -4.32,4.95 -4.32,13.49 v 32.97 h -9.63 v -34.89 q 0,-8.44 -2.97,-12.45 -2.97,-4.06 -9.17,-4.06 -7.34,0 -11.67,5 -4.32,4.94 -4.32,13.43 v 32.97 h -9.64 v -58.33 h 9.64 v 9.06 q 3.28,-5.36 7.86,-7.92 4.59,-2.55 10.89,-2.55 6.35,0 10.78,3.23 4.48,3.23 6.62,9.38 z"
           fill="#000000"
           fill-rule="nonzero"
           fill-opacity="1"
           id="path33-6" /><path
           clip-path="url(#clip840)"
           d="m 1992.81,2742.13 q -11.62,0 -16.1,2.66 -4.48,2.65 -4.48,9.06 0,5.1 3.34,8.12 3.38,2.97 9.16,2.97 7.97,0 12.76,-5.62 4.85,-5.68 4.85,-15.06 v -2.13 h -9.53 m 19.11,-3.96 v 33.28 h -9.58 v -8.85 q -3.28,5.31 -8.18,7.86 -4.9,2.5 -11.98,2.5 -8.96,0 -14.27,-5 -5.26,-5.05 -5.26,-13.49 0,-9.84 6.56,-14.84 6.62,-5 19.69,-5 h 13.44 v -0.94 q 0,-6.61 -4.38,-10.21 -4.32,-3.64 -12.19,-3.64 -5,0 -9.74,1.2 -4.73,1.19 -9.11,3.59 v -8.85 q 5.26,-2.04 10.21,-3.03 4.95,-1.04 9.63,-1.04 12.66,0 18.91,6.57 6.25,6.56 6.25,19.89 z"
           fill="#000000"
           fill-rule="nonzero"
           fill-opacity="1"
           id="path34-5" /><path
           clip-path="url(#clip840)"
           d="m 2068.85,2714.84 v 9.06 q -4.07,-2.08 -8.44,-3.12 -4.38,-1.05 -9.06,-1.05 -7.14,0 -10.73,2.19 -3.54,2.19 -3.54,6.56 0,3.34 2.55,5.26 2.55,1.88 10.26,3.6 l 3.28,0.73 q 10.21,2.18 14.48,6.19 4.32,3.96 4.32,11.1 0,8.12 -6.46,12.86 -6.4,4.74 -17.65,4.74 -4.69,0 -9.79,-0.94 -5.06,-0.88 -10.68,-2.7 v -9.9 q 5.31,2.76 10.47,4.17 5.15,1.35 10.21,1.35 6.77,0 10.41,-2.29 3.65,-2.34 3.65,-6.56 0,-3.91 -2.66,-5.99 -2.6,-2.09 -11.51,-4.01 l -3.33,-0.78 q -8.91,-1.88 -12.87,-5.73 -3.95,-3.91 -3.95,-10.68 0,-8.23 5.83,-12.71 5.83,-4.48 16.56,-4.48 5.31,0 10,0.78 4.69,0.79 8.65,2.35 z"
           fill="#000000"
           fill-rule="nonzero"
           fill-opacity="1"
           id="path35-5" /><path
           clip-path="url(#clip840)"
           d="m 2124.42,2714.84 v 9.06 q -4.06,-2.08 -8.44,-3.12 -4.37,-1.05 -9.06,-1.05 -7.14,0 -10.73,2.19 -3.54,2.19 -3.54,6.56 0,3.34 2.55,5.26 2.55,1.88 10.26,3.6 l 3.28,0.73 q 10.21,2.18 14.48,6.19 4.32,3.96 4.32,11.1 0,8.12 -6.45,12.86 -6.41,4.74 -17.66,4.74 -4.69,0 -9.79,-0.94 -5.05,-0.88 -10.68,-2.7 v -9.9 q 5.31,2.76 10.47,4.17 5.16,1.35 10.21,1.35 6.77,0 10.41,-2.29 3.65,-2.34 3.65,-6.56 0,-3.91 -2.66,-5.99 -2.6,-2.09 -11.51,-4.01 l -3.33,-0.78 q -8.91,-1.88 -12.86,-5.73 -3.96,-3.91 -3.96,-10.68 0,-8.23 5.83,-12.71 5.83,-4.48 16.56,-4.48 5.32,0 10,0.78 4.69,0.79 8.65,2.35 z"
           fill="#000000"
           fill-rule="nonzero"
           fill-opacity="1"
           id="path36-8" /><path
           clip-path="url(#clip840)"
           d="m 2199.73,2690.51 q -6.98,11.98 -10.36,23.7 -3.39,11.72 -3.39,23.75 0,12.03 3.39,23.86 3.43,11.77 10.36,23.69 h -8.33 q -7.81,-12.24 -11.72,-24.06 -3.85,-11.82 -3.85,-23.49 0,-11.61 3.85,-23.38 3.85,-11.77 11.72,-24.07 z"
           fill="#000000"
           fill-rule="nonzero"
           fill-opacity="1"
           id="path37-1" /><path
           clip-path="url(#clip840)"
           d="m 2217.96,2690.41 h 9.64 v 47.86 l 28.59,-25.15 h 12.24 l -30.94,27.29 32.24,31.04 h -12.5 l -29.63,-28.49 v 28.49 h -9.64 z"
           fill="#000000"
           fill-rule="nonzero"
           fill-opacity="1"
           id="path38-4" /><path
           clip-path="url(#clip840)"
           d="m 2318.48,2741.61 q 0,-10.42 -4.32,-16.15 -4.27,-5.73 -12.03,-5.73 -7.71,0 -12.03,5.73 -4.28,5.73 -4.28,16.15 0,10.36 4.28,16.09 4.32,5.73 12.03,5.73 7.76,0 12.03,-5.73 4.32,-5.73 4.32,-16.09 m 9.58,22.6 q 0,14.9 -6.61,22.14 -6.62,7.29 -20.26,7.29 -5.05,0 -9.53,-0.78 -4.48,-0.73 -8.7,-2.29 v -9.33 q 4.22,2.3 8.33,3.39 4.12,1.09 8.39,1.09 9.43,0 14.11,-4.95 4.69,-4.89 4.69,-14.84 v -4.74 q -2.97,5.16 -7.6,7.71 -4.64,2.55 -11.1,2.55 -10.73,0 -17.29,-8.18 -6.56,-8.17 -6.56,-21.66 0,-13.54 6.56,-21.72 6.56,-8.18 17.29,-8.18 6.46,0 11.1,2.55 4.63,2.56 7.6,7.71 v -8.85 h 9.58 z"
           fill="#000000"
           fill-rule="nonzero"
           fill-opacity="1"
           id="path39-7" /><path
           clip-path="url(#clip840)"
           d="m 2346.29,2690.51 h 8.34 q 7.81,12.3 11.66,24.07 3.91,11.77 3.91,23.38 0,11.67 -3.91,23.49 -3.85,11.82 -11.66,24.06 h -8.34 q 6.93,-11.92 10.32,-23.69 3.43,-11.83 3.43,-23.86 0,-12.03 -3.43,-23.75 -3.39,-11.72 -10.32,-23.7 z"
           fill="#000000"
           fill-rule="nonzero"
           fill-opacity="1"
           id="path40-1" /><polyline
           clip-path="url(#clip840)"
           style="fill:none;stroke:#000000;stroke-width:4;stroke-linecap:round;stroke-linejoin:round;stroke-opacity:1"
           points="377.074,2526.94 377.074,47.2441 "
           id="polyline40-3" /><polyline
           clip-path="url(#clip840)"
           style="fill:none;stroke:#000000;stroke-width:4;stroke-linecap:round;stroke-linejoin:round;stroke-opacity:1"
           points="3552.76,2526.94 3552.76,47.2441 "
           id="polyline41-8" /><polyline
           clip-path="url(#clip840)"
           style="fill:none;stroke:#000000;stroke-width:4;stroke-linecap:round;stroke-linejoin:round;stroke-opacity:1"
           points="377.074,1590.12 395.971,1590.12 "
           id="polyline42-4" /><polyline
           clip-path="url(#clip840)"
           style="fill:none;stroke:#000000;stroke-width:4;stroke-linecap:round;stroke-linejoin:round;stroke-opacity:1"
           points="377.074,1116.12 395.971,1116.12 "
           id="polyline43-8" /><polyline
           clip-path="url(#clip840)"
           style="fill:none;stroke:#000000;stroke-width:4;stroke-linecap:round;stroke-linejoin:round;stroke-opacity:1"
           points="377.074,642.13 395.971,642.13 "
           id="polyline44-0" /><polyline
           clip-path="url(#clip840)"
           style="fill:none;stroke:#000000;stroke-width:4;stroke-linecap:round;stroke-linejoin:round;stroke-opacity:1"
           points="3552.76,1590.12 3533.86,1590.12 "
           id="polyline45-4" /><polyline
           clip-path="url(#clip840)"
           style="fill:none;stroke:#000000;stroke-width:4;stroke-linecap:round;stroke-linejoin:round;stroke-opacity:1"
           points="3552.76,1116.12 3533.86,1116.12 "
           id="polyline46-6" /><polyline
           clip-path="url(#clip840)"
           style="fill:none;stroke:#000000;stroke-width:4;stroke-linecap:round;stroke-linejoin:round;stroke-opacity:1"
           points="3552.76,642.13 3533.86,642.13 "
           id="polyline47-0" /><path
           clip-path="url(#clip840)"
           d="m 151.46,1594.61 h 23.394 v 7.12 H 151.46 Z"
           fill="#000000"
           fill-rule="nonzero"
           fill-opacity="1"
           id="path47-3" /><path
           clip-path="url(#clip840)"
           d="m 190.219,1615.14 h 14.322 v -49.43 l -15.581,3.12 v -7.99 l 15.495,-3.12 h 8.767 v 57.42 h 14.323 v 7.38 h -37.326 z"
           fill="#000000"
           fill-rule="nonzero"
           fill-opacity="1"
           id="path48-2" /><path
           clip-path="url(#clip840)"
           d="m 264.003,1563.49 q -6.771,0 -10.2,6.69 -3.385,6.64 -3.385,20 0,13.33 3.385,20.01 3.429,6.64 10.2,6.64 6.814,0 10.2,-6.64 3.428,-6.68 3.428,-20.01 0,-13.36 -3.428,-20 -3.386,-6.69 -10.2,-6.69 m 0,-6.94 q 10.894,0 16.623,8.63 5.773,8.6 5.773,25 0,16.37 -5.773,25 -5.729,8.6 -16.623,8.6 -10.894,0 -16.667,-8.6 -5.729,-8.63 -5.729,-25 0,-16.4 5.729,-25 5.773,-8.63 16.667,-8.63 z"
           fill="#000000"
           fill-rule="nonzero"
           fill-opacity="1"
           id="path49-6" /><path
           clip-path="url(#clip840)"
           d="m 299.072,1588.75 h 8.854 v -26.52 l -9.678,1.78 v -5.03 l 9.982,-1.69 h 5.946 v 31.46 h 8.898 v 4.78 h -24.002 z"
           fill="#000000"
           fill-rule="nonzero"
           fill-opacity="1"
           id="path50-9" /><path
           clip-path="url(#clip840)"
           d="m 300.678,1089.5 q -6.771,0 -10.199,6.68 -3.386,6.64 -3.386,20.01 0,13.32 3.386,20.01 3.428,6.64 10.199,6.64 6.814,0 10.2,-6.64 3.429,-6.69 3.429,-20.01 0,-13.37 -3.429,-20.01 -3.386,-6.68 -10.2,-6.68 m 0,-6.95 q 10.894,0 16.623,8.64 5.773,8.59 5.773,25 0,16.36 -5.773,25 -5.729,8.59 -16.623,8.59 -10.894,0 -16.666,-8.59 -5.73,-8.64 -5.73,-25 0,-16.41 5.73,-25 5.772,-8.64 16.666,-8.64 z"
           fill="#000000"
           fill-rule="nonzero"
           fill-opacity="1"
           id="path51-4" /><path
           clip-path="url(#clip840)"
           d="m 190.219,667.152 h 14.322 v -49.436 l -15.581,3.125 v -7.986 l 15.495,-3.125 h 8.767 v 57.422 h 14.323 v 7.378 h -37.326 z"
           fill="#000000"
           fill-rule="nonzero"
           fill-opacity="1"
           id="path52-1" /><path
           clip-path="url(#clip840)"
           d="m 264.003,615.503 q -6.771,0 -10.2,6.684 -3.385,6.64 -3.385,20.008 0,13.325 3.385,20.009 3.429,6.64 10.2,6.64 6.814,0 10.2,-6.64 3.428,-6.684 3.428,-20.009 0,-13.368 -3.428,-20.008 -3.386,-6.684 -10.2,-6.684 m 0,-6.945 q 10.894,0 16.623,8.637 5.773,8.594 5.773,25 0,16.363 -5.773,25 -5.729,8.594 -16.623,8.594 -10.894,0 -16.667,-8.594 -5.729,-8.637 -5.729,-25 0,-16.406 5.729,-25 5.773,-8.637 16.667,-8.637 z"
           fill="#000000"
           fill-rule="nonzero"
           fill-opacity="1"
           id="path53-3" /><path
           clip-path="url(#clip840)"
           d="m 299.072,640.763 h 8.854 v -26.519 l -9.678,1.779 v -5.034 l 9.982,-1.693 h 5.946 v 31.467 h 8.898 v 4.774 h -24.002 z"
           fill="#000000"
           fill-rule="nonzero"
           fill-opacity="1"
           id="path54-7" /><path
           clip-path="url(#clip840)"
           d="m -3.62784,1825.45 v -15.68 L 49.2885,1789.93 -3.62784,1769.98 V 1754.3 H 74.1322 v 10.26 H 5.85127 l 53.33303,20.06 v 10.57 L 5.85127,1815.24 H 74.1322 v 10.21 z"
           fill="#000000"
           fill-rule="nonzero"
           fill-opacity="1"
           id="path55-8" /><path
           clip-path="url(#clip840)"
           d="m 42.5698,1683.94 h 4.6875 V 1728 q 9.8958,-0.62 15.1041,-5.94 5.1562,-5.36 5.1562,-14.89 0,-5.52 -1.3541,-10.68 -1.3542,-5.21 -4.0625,-10.31 h 9.0624 q 2.1875,5.15 3.3333,10.57 1.1459,5.42 1.1459,10.99 0,13.96 -8.125,22.14 -8.1249,8.12 -21.979,8.12 -14.3229,0 -22.7083,-7.71 -8.4374,-7.76 -8.4374,-20.88 0,-11.77 7.6041,-18.6 7.5521,-6.87 20.5728,-6.87 m -2.8125,9.58 q -7.8645,0.11 -12.552,4.43 -4.6874,4.27 -4.6874,11.35 0,8.02 4.5312,12.87 4.5312,4.79 12.7603,5.52 z"
           fill="#000000"
           fill-rule="nonzero"
           fill-opacity="1"
           id="path56-8" /><path
           clip-path="url(#clip840)"
           d="m 44.8094,1641.7 q 0,11.61 2.6562,16.09 2.6563,4.48 9.0625,4.48 5.1041,0 8.1249,-3.33 2.9688,-3.39 2.9688,-9.17 0,-7.97 -5.625,-12.76 -5.677,-4.84 -15.052,-4.84 h -2.1354 v 9.53 m -3.9583,-19.12 h 33.2811 v 9.59 H 65.278 q 5.3125,3.28 7.8646,8.18 2.5,4.89 2.5,11.97 0,8.96 -5,14.28 -5.0521,5.26 -13.4895,5.26 -9.8437,0 -14.8437,-6.57 -5,-6.61 -5,-19.68 v -13.44 h -0.9375 q -6.6145,0 -10.2082,4.37 -3.6458,4.33 -3.6458,12.19 0,5 1.1979,9.74 1.1979,4.74 3.5937,9.11 h -8.8541 q -2.0313,-5.26 -3.0208,-10.2 -1.0417,-4.95 -1.0417,-9.64 0,-12.66 6.5625,-18.91 6.5624,-6.25 19.8957,-6.25 z"
           fill="#000000"
           fill-rule="nonzero"
           fill-opacity="1"
           id="path57-3" /><path
           clip-path="url(#clip840)"
           d="m 38.924,1554.36 h 35.2082 v 9.58 H 39.2365 q -8.2812,0 -12.3958,3.23 -4.1145,3.23 -4.1145,9.69 0,7.76 4.9479,12.24 4.9479,4.47 13.4895,4.47 h 32.9686 v 9.64 H 15.7991 v -9.64 h 9.0625 q -5.2604,-3.43 -7.8646,-8.07 -2.6041,-4.69 -2.6041,-10.78 0,-10.05 6.25,-15.21 6.1978,-5.15 18.2811,-5.15 z"
           fill="#000000"
           fill-rule="nonzero"
           fill-opacity="1"
           id="path58-8" /><path
           clip-path="url(#clip840)"
           d="m 38.924,1452.85 h 35.2082 v 9.58 H 39.2365 q -8.2812,0 -12.3958,3.23 -4.1145,3.23 -4.1145,9.69 0,7.76 4.9479,12.24 4.9479,4.47 13.4895,4.47 h 32.9686 v 9.64 H 15.7991 v -9.64 h 9.0625 q -5.2604,-3.43 -7.8646,-8.07 -2.6041,-4.69 -2.6041,-10.78 0,-10.05 6.25,-15.21 6.1978,-5.15 18.2811,-5.15 z"
           fill="#000000"
           fill-rule="nonzero"
           fill-opacity="1"
           id="path59-1" /><path
           clip-path="url(#clip840)"
           d="m 42.5698,1383.84 h 4.6875 v 44.06 q 9.8958,-0.63 15.1041,-5.94 5.1562,-5.36 5.1562,-14.89 0,-5.53 -1.3541,-10.68 -1.3542,-5.21 -4.0625,-10.31 h 9.0624 q 2.1875,5.15 3.3333,10.57 1.1459,5.42 1.1459,10.99 0,13.96 -8.125,22.13 -8.1249,8.13 -21.979,8.13 -14.3229,0 -22.7083,-7.71 -8.4374,-7.76 -8.4374,-20.89 0,-11.77 7.6041,-18.59 7.5521,-6.87 20.5728,-6.87 m -2.8125,9.58 q -7.8645,0.1 -12.552,4.43 -4.6874,4.27 -4.6874,11.35 0,8.02 4.5312,12.87 4.5312,4.79 12.7603,5.52 z"
           fill="#000000"
           fill-rule="nonzero"
           fill-opacity="1"
           id="path60-5" /><path
           clip-path="url(#clip840)"
           d="M -0.763275,1358.63 H 15.7991 v -19.74 h 7.4479 v 19.74 h 31.6665 q 7.1354,0 9.1666,-1.93 2.0313,-1.98 2.0313,-7.97 v -9.84 h 8.0208 v 9.84 q 0,11.1 -4.1146,15.31 -4.1666,4.22 -15.1041,4.22 H 23.247 v 7.03 h -7.4479 v -7.03 H -0.763275 Z"
           fill="#000000"
           fill-rule="nonzero"
           fill-opacity="1"
           id="path61-3" /><path
           clip-path="url(#clip840)"
           d="m 44.2886,1253.99 q -10.4166,0 -16.1458,4.33 -5.7291,4.27 -5.7291,12.03 0,7.71 5.7291,12.03 5.7292,4.27 16.1458,4.27 10.3645,0 16.0936,-4.27 5.7292,-4.32 5.7292,-12.03 0,-7.76 -5.7292,-12.03 -5.7291,-4.33 -16.0936,-4.33 m 22.604,-9.58 q 14.8958,0 22.1353,6.61 7.2916,6.62 7.2916,20.26 0,5.06 -0.7812,9.54 -0.7292,4.48 -2.2917,8.69 h -9.3228 q 2.2916,-4.21 3.3854,-8.33 1.0937,-4.11 1.0937,-8.38 0,-9.43 -4.9479,-14.12 -4.8958,-4.69 -14.8436,-4.69 h -4.7396 q 5.1562,2.97 7.7083,7.61 2.5521,4.63 2.5521,11.09 0,10.73 -8.1771,17.29 -8.177,6.57 -21.6665,6.57 -13.5416,0 -21.7187,-6.57 -8.177,-6.56 -8.177,-17.29 0,-6.46 2.5521,-11.09 2.552,-4.64 7.7083,-7.61 h -8.8542 v -9.58 z"
           fill="#000000"
           fill-rule="nonzero"
           fill-opacity="1"
           id="path62-5" /><path
           clip-path="url(#clip840)"
           d="m 44.8094,1198.16 q 0,11.61 2.6562,16.09 2.6563,4.48 9.0625,4.48 5.1041,0 8.1249,-3.33 2.9688,-3.39 2.9688,-9.17 0,-7.97 -5.625,-12.76 -5.677,-4.84 -15.052,-4.84 h -2.1354 v 9.53 m -3.9583,-19.11 h 33.2811 v 9.58 H 65.278 q 5.3125,3.28 7.8646,8.18 2.5,4.89 2.5,11.98 0,8.95 -5,14.27 -5.0521,5.26 -13.4895,5.26 -9.8437,0 -14.8437,-6.57 -5,-6.61 -5,-19.68 v -13.44 h -0.9375 q -6.6145,0 -10.2082,4.37 -3.6458,4.33 -3.6458,12.19 0,5 1.1979,9.74 1.1979,4.74 3.5937,9.12 h -8.8541 q -2.0313,-5.26 -3.0208,-10.21 -1.0417,-4.95 -1.0417,-9.64 0,-12.65 6.5625,-18.9 6.5624,-6.25 19.8957,-6.25 z"
           fill="#000000"
           fill-rule="nonzero"
           fill-opacity="1"
           id="path63-4" /><path
           clip-path="url(#clip840)"
           d="m 15.7991,1159.31 v -9.59 h 58.3331 v 9.59 H 15.7991 m -22.70817,0 v -9.59 H 5.22628 v 9.59 z"
           fill="#000000"
           fill-rule="nonzero"
           fill-opacity="1"
           id="path64-3" /><path
           clip-path="url(#clip840)"
           d="m 38.924,1081.18 h 35.2082 v 9.58 H 39.2365 q -8.2812,0 -12.3958,3.23 -4.1145,3.23 -4.1145,9.69 0,7.76 4.9479,12.24 4.9479,4.48 13.4895,4.48 h 32.9686 v 9.64 H 15.7991 v -9.64 h 9.0625 q -5.2604,-3.44 -7.8646,-8.07 -2.6041,-4.69 -2.6041,-10.78 0,-10.06 6.25,-15.21 6.1978,-5.16 18.2811,-5.16 z"
           fill="#000000"
           fill-rule="nonzero"
           fill-opacity="1"
           id="path65-6" /><path
           clip-path="url(#clip840)"
           d="m -6.80491,1005.14 q 11.9791,6.98 23.69781,10.36 11.7187,3.39 23.7499,3.39 12.0311,0 23.854,-3.39 11.7708,-3.43 23.6978,-10.36 v 8.33 q -12.2395,7.82 -24.0624,11.72 -11.8228,3.86 -23.4894,3.86 -11.6146,0 -23.3853,-3.86 -11.77081,-3.85 -24.06241,-11.72 z"
           fill="#000000"
           fill-rule="nonzero"
           fill-opacity="1"
           id="path66-5" /><path
           clip-path="url(#clip840)"
           d="m -6.90907,986.911 v -9.635 H 40.9553 L 15.7991,948.682 v -12.239 l 27.2916,30.937 31.0415,-32.239 v 12.5 l -28.4895,29.635 h 28.4895 v 9.635 z"
           fill="#000000"
           fill-rule="nonzero"
           fill-opacity="1"
           id="path67-9" /><path
           clip-path="url(#clip840)"
           d="m 18.0387,882.797 h 8.9583 q -2.2396,4.063 -3.3333,8.177 -1.1458,4.063 -1.1458,8.229 0,9.323 5.9374,14.48 5.8854,5.156 16.5624,5.156 10.6771,0 16.6145,-5.156 5.8854,-5.157 5.8854,-14.48 0,-4.166 -1.0937,-8.229 -1.1459,-4.114 -3.3854,-8.177 h 8.8541 q 1.875,4.011 2.8125,8.334 0.9375,4.27 0.9375,9.114 0,13.177 -8.2812,20.937 -8.2812,7.761 -22.3437,7.761 -14.2707,0 -22.4478,-7.813 -8.177,-7.864 -8.177,-21.51 0,-4.427 0.9375,-8.646 0.8854,-4.218 2.7083,-8.177 z"
           fill="#000000"
           fill-rule="nonzero"
           fill-opacity="1"
           id="path68-5" /><path
           clip-path="url(#clip840)"
           d="m 44.8094,839.62 q 0,11.615 2.6562,16.094 2.6563,4.479 9.0625,4.479 5.1041,0 8.1249,-3.333 2.9688,-3.385 2.9688,-9.167 0,-7.968 -5.625,-12.76 -5.677,-4.844 -15.052,-4.844 h -2.1354 v 9.531 m -3.9583,-19.114 h 33.2811 v 9.583 H 65.278 q 5.3125,3.281 7.8646,8.177 2.5,4.896 2.5,11.979 0,8.959 -5,14.271 -5.0521,5.26 -13.4895,5.26 -9.8437,0 -14.8437,-6.562 -5,-6.615 -5,-19.687 v -13.438 h -0.9375 q -6.6145,0 -10.2082,4.375 -3.6458,4.323 -3.6458,12.188 0,5 1.1979,9.739 1.1979,4.74 3.5937,9.115 h -8.8541 q -2.0313,-5.261 -3.0208,-10.209 -1.0417,-4.947 -1.0417,-9.635 0,-12.656 6.5625,-18.906 6.5624,-6.25 19.8957,-6.25 z"
           fill="#000000"
           fill-rule="nonzero"
           fill-opacity="1"
           id="path69-4" /><path
           clip-path="url(#clip840)"
           d="m -6.90907,800.766 v -9.583 H 74.1322 v 9.583 z"
           fill="#000000"
           fill-rule="nonzero"
           fill-opacity="1"
           id="path70-9" /><path
           clip-path="url(#clip840)"
           d="m -6.80491,772.642 v -8.334 q 12.2916,-7.812 24.06241,-11.666 11.7707,-3.907 23.3853,-3.907 11.6666,0 23.4894,3.907 11.8229,3.854 24.0624,11.666 v 8.334 q -11.927,-6.927 -23.6978,-10.313 -11.8229,-3.437 -23.854,-3.437 -12.0312,0 -23.7499,3.437 -11.71871,3.386 -23.69781,10.313 z"
           fill="#000000"
           fill-rule="nonzero"
           fill-opacity="1"
           id="path71-1" /><polyline
           clip-path="url(#clip842)"
           style="fill:none;stroke:#1b9e77;stroke-width:20;stroke-linecap:round;stroke-linejoin:round;stroke-opacity:1"
           points="466.952,1774.23 542.127,1786.51 615.742,1798.38 692.418,1809.69 766.3,1820.52 841.208,1830.73 916.253,1840.59 991.117,1849.82 1066.16,1858.74 1140.9,1867.71 1215.93,1876.53 1290.85,1886.17 1365.75,1896.66 1440.58,1908.59 1515.54,1922.01 1590.4,1937.34 1665.32,1954.41 1740.23,1972.69 1815.14,1992.32 1890.01,2012.88 1964.91,2034.15 2039.81,2055.82 2114.71,2077.78 2189.62,2100.08 2264.51,2122.45 2339.41,2144.67 2414.31,2167 2489.2,2189.09 2564.1,2211.03 2639,2232.81 2713.9,2254.45 2788.8,2275.76 2863.69,2296.83 2938.59,2317.86 3013.49,2338.5 3088.39,2358.94 3163.29,2379.26 3238.18,2399.3 3313.08,2419.23 3387.98,2438.95 3462.88,2458.42 "
           id="polyline71-7" /><polyline
           clip-path="url(#clip842)"
           style="fill:none;stroke:#7570b3;stroke-width:20;stroke-linecap:round;stroke-linejoin:round;stroke-opacity:1"
           points="466.952,1771.51 542.127,1784.48 615.742,1796.9 692.418,1808.9 766.3,1820.36 841.208,1831.35 916.253,1841.85 991.117,1851.73 1066.16,1861.11 1140.9,1870.22 1215.93,1878.84 1290.85,1886.89 1365.75,1894.5 1440.58,1901.48 1515.54,1907.12 1590.4,1911.25 1665.32,1912.48 1740.23,1909.04 1815.14,1897.36 1890.01,1871.33 1964.91,1800.84 2039.81,505.176 2114.71,334.407 2189.62,257.846 2264.51,205.075 2339.41,165.177 2414.31,132.785 2489.2,106.535 2564.1,85.9941 2639,69.9032 2713.9,58.6373 2788.8,50.3172 2863.69,47.2441 2938.59,48.2257 3013.49,54.1085 3088.39,67.3491 3163.29,93.5652 3238.18,144.386 3313.08,368.677 3387.98,2093.39 3462.88,2182.71 "
           id="polyline72-5" /><polyline
           clip-path="url(#clip842)"
           style="fill:none;stroke:#d95f02;stroke-width:20;stroke-linecap:round;stroke-linejoin:round;stroke-opacity:1"
           points="466.952,1777.26 542.127,1792.2 615.742,1806.99 692.418,1821.66 766.3,1836.37 841.208,1850.89 916.253,1865.92 991.117,1880.29 1066.16,1895.63 1140.9,1911.06 1215.93,1927.27 1290.85,1943.9 1365.75,1961.49 1440.58,1979.67 1515.54,1998.48 1590.4,2018.35 1665.32,2038 1740.23,2059.05 1815.14,2077.67 1890.01,2100.31 1964.91,2121.62 2039.81,2142.96 2114.71,2164.47 2189.62,2185.11 2264.51,2205.08 2339.41,2226.95 2414.31,2240.43 2489.2,2266.82 2564.1,2289.21 2639,2288.63 2713.9,2329.12 2788.8,2331.89 2863.69,2352.04 2938.59,2373.23 3013.49,2394.25 3088.39,2414.67 3163.29,2435.26 3238.18,2456.49 3313.08,2479.06 3387.98,2499.88 3462.88,2526.94 "
           id="polyline73-5" /><polyline
           clip-path="url(#clip842)"
           style="fill:none;stroke:#ff0000;stroke-width:8;stroke-linecap:round;stroke-linejoin:round;stroke-opacity:1"
           stroke-dasharray="32, 20"
           points="-2798.61,1116.12 6728.44,1116.12 "
           id="polyline74-4" /></g></g><g
       id="g9"
       transform="translate(-455.4839,88.623038)"><rect
         style="fill:#7671b3;fill-opacity:1;fill-rule:evenodd;stroke:#000000;stroke-width:0"
         id="rect8"
         width="52.480721"
         height="19.200264"
         x="940.44098"
         y="523.52716" /><rect
         style="fill:#d95f02;fill-opacity:1;fill-rule:evenodd;stroke:#000000;stroke-width:0"
         id="rect8-0"
         width="52.480721"
         height="19.200264"
         x="940.44098"
         y="551.92023" /><rect
         style="fill:#1b9e77;fill-opacity:1;fill-rule:evenodd;stroke:#000000;stroke-width:0"
         id="rect8-7"
         width="52.480721"
         height="19.200264"
         x="940.44086"
         y="581.51886" /><text
         xml:space="preserve"
         style="font-size:17.3333px;font-family:Helvetica;-inkscape-font-specification:Helvetica;writing-mode:lr-tb;direction:ltr;fill:#000302;fill-opacity:1;fill-rule:evenodd;stroke:#000000;stroke-width:0"
         x="1000.9738"
         y="538.88739"
         id="text8"><tspan
           sodipodi:role="line"
           id="tspan8"
           x="1000.9738"
           y="538.88739">Mixed feeders</tspan></text><text
         xml:space="preserve"
         style="font-size:17.3333px;font-family:Helvetica;-inkscape-font-specification:Helvetica;writing-mode:lr-tb;direction:ltr;fill:#000302;fill-opacity:1;fill-rule:evenodd;stroke:#000000;stroke-width:0"
         x="999.52136"
         y="566.93011"
         id="text8-7"><tspan
           sodipodi:role="line"
           id="tspan8-6"
           x="999.52136"
           y="566.93011">Grazers</tspan></text><text
         xml:space="preserve"
         style="font-size:17.3333px;font-family:Helvetica;-inkscape-font-specification:Helvetica;writing-mode:lr-tb;direction:ltr;fill:#000302;fill-opacity:1;fill-rule:evenodd;stroke:#000000;stroke-width:0"
         x="998.52216"
         y="596.48926"
         id="text8-7-9"><tspan
           sodipodi:role="line"
           id="tspan8-6-6"
           x="998.52216"
           y="596.48926">Browsers</tspan></text></g><text
       xml:space="preserve"
       style="font-size:37.1978px;font-family:Helvetica;-inkscape-font-specification:Helvetica;writing-mode:lr-tb;direction:ltr;fill:#000302;fill-rule:evenodd;stroke:#000000;stroke-width:0"
       x="462.3121"
       y="83.93795"
       id="text4"><tspan
         sodipodi:role="line"
         id="tspan4"
         x="462.3121"
         y="83.93795"
         style="stroke-width:0">mu = 0.0005</tspan></text></g></svg>
